<?xml version="1.0" standalone="no"?><!DOCTYPE svg PUBLIC "-//W3C//DTD SVG 1.1//EN" "http://www.w3.org/Graphics/SVG/1.1/DTD/svg11.dtd"><svg height="800" node-id="1" sillyvg="true" template-height="800" template-width="800" version="1.1" viewBox="0 0 800 800" width="800" xmlns="http://www.w3.org/2000/svg" xmlns:xlink="http://www.w3.org/1999/xlink"><defs node-id="150"><clipPath id="mask-2" node-id="44"><path d="M 99.66 642.36 L 97.58 641.80 L 95.80 640.72 L 94.38 639.19 L 93.41 637.27 L 93.02 635.16 L 93.22 633.08 L 93.98 631.14 L 95.29 629.44 L 105.98 618.86 L 118.04 606.51 L 124.10 600.07 L 129.77 593.84 L 135.10 587.69 L 139.43 582.33 L 143.15 577.18 L 145.33 573.44 L 150.87 561.91 L 155.96 551.25 L 159.89 542.97 L 160.69 541.65 L 161.69 540.56 L 162.90 539.68 L 164.25 539.06 L 165.68 538.72 L 167.23 538.66 L 176.34 539.27 L 188.32 540.04 L 201.71 540.85 L 215.03 541.57 L 226.82 542.10 L 235.62 542.30 L 244.81 542.18 L 257.97 541.81 L 273.39 541.21 L 289.38 540.40 L 304.23 539.38 L 316.23 538.16 L 318.03 538.14 L 319.75 538.53 L 321.33 539.32 L 322.71 540.47 L 323.78 541.92 L 324.46 543.54 L 324.75 545.28 L 324.62 547.08 L 323.85 550.54 L 322.60 554.81 L 320.75 560.03 L 318.62 565.10 L 315.72 571.04 L 311.92 577.96 L 307.26 586.34 L 302.85 594.92 L 294.25 612.04 L 289.79 620.36 L 285.09 628.21 L 281.71 633.24 L 278.13 637.93 L 274.32 642.31 L 270.20 646.37 L 265.74 650.00 L 260.90 653.24 L 259.00 654.05 L 256.95 654.33 L 249.58 654.30 L 238.23 654.18 L 224.43 653.93 L 209.72 653.50 L 195.62 652.86 L 183.65 651.94 L 165.39 649.79 L 146.50 647.28 L 128.15 644.98 L 119.40 644.06 L 111.53 643.43 L 104.82 642.90 L 99.66 642.36 Z" fill="#000000" fill-rule="evenodd" node-id="155" stroke="none" target-height="116.19556" target-width="231.73407" target-x="93.01649" target-y="538.1394"></path></clipPath></defs><g node-id="203"><g node-id="204"><path d="M 0.00 0.00 L 800.00 0.00 L 800.00 800.00 L 0.00 800.00 Z" fill="#ffffff" fill-rule="nonzero" group-id="1,2" id="bg-white" node-id="11" stroke="none" target-height="800" target-width="800" target-x="0" target-y="0"></path><path d="M 800.00 620.38 L 800.00 272.91 L 792.75 271.59 L 785.37 270.74 L 777.85 270.37 L 770.30 270.41 L 762.77 270.82 L 755.24 271.59 L 743.75 273.31 L 732.22 275.50 L 709.23 280.52 L 697.73 283.02 L 686.25 285.27 L 674.74 287.10 L 663.27 288.33 L 654.35 288.77 L 645.58 288.79 L 636.95 288.40 L 628.47 287.61 L 620.10 286.41 L 609.69 284.40 L 599.41 281.88 L 589.24 278.86 L 579.18 275.32 L 569.28 271.37 L 559.45 267.04 L 549.67 262.33 L 539.95 257.23 L 527.21 250.04 L 514.52 242.41 L 501.86 234.33 L 483.11 221.77 L 464.37 208.78 L 445.66 195.69 L 426.91 182.77 L 414.30 174.33 L 401.64 166.23 L 388.93 158.47 L 376.01 151.08 L 363.00 144.29 L 349.89 138.06 L 339.87 133.79 L 329.76 129.99 L 319.54 126.63 L 309.22 123.72 L 298.78 121.33 L 288.17 119.52 L 277.38 118.28 L 266.38 117.63 L 258.02 117.61 L 249.56 118.09 L 240.98 119.06 L 232.49 120.57 L 224.06 122.67 L 215.67 125.36 L 209.54 127.77 L 203.52 130.56 L 197.60 133.75 L 191.79 137.33 L 186.24 141.26 L 180.88 145.64 L 175.68 150.48 L 170.64 155.83 L 166.16 161.29 L 161.99 167.05 L 158.13 173.13 L 154.61 179.40 L 151.37 185.89 L 148.43 192.59 L 145.79 199.42 L 143.42 206.36 L 141.33 213.40 L 139.57 220.93 L 138.20 228.90 L 135.79 245.10 L 134.25 253.12 L 132.22 260.75 L 130.45 265.66 L 128.26 270.27 L 125.64 274.59 L 123.36 277.58 L 120.70 280.37 L 117.65 282.97 L 114.17 285.37 L 109.62 287.82 L 105.00 289.81 L 100.29 291.34 L 95.47 292.52 L 90.61 293.40 L 85.70 293.98 L 78.31 294.47 L 71.00 294.64 L 56.80 294.66 L 37.87 294.47 L 18.92 294.30 L 9.46 294.60 L 0.00 295.33 L 0.00 731.63 L 44.29 719.58 L 99.23 705.24 L 129.63 697.58 L 162.86 689.43 L 196.98 681.33 L 233.19 673.02 L 270.03 664.89 L 308.25 656.82 L 346.85 649.09 L 386.06 641.70 L 425.42 634.79 L 464.65 628.48 L 490.84 624.61 L 516.63 621.13 L 542.03 618.01 L 567.49 615.24 L 592.22 612.95 L 616.23 611.12 L 640.31 609.74 L 663.31 608.93 L 685.28 608.66 L 701.92 608.84 L 717.77 609.37 L 732.85 610.26 L 747.19 611.46 L 761.80 613.14 L 775.43 615.20 L 788.15 617.62 L 800.00 620.38 Z" fill="#edf2f9" fill-rule="nonzero" group-id="1,2" id="Path_464" node-id="12" stroke="none" target-height="614.0231" target-width="800" target-x="0" target-y="117.61192"></path><path d="M 0.00 731.63 L 0.00 800.34 L 800.00 800.34 L 800.00 620.38 L 788.15 617.62 L 775.43 615.20 L 761.80 613.14 L 747.19 611.46 L 732.85 610.26 L 717.77 609.37 L 701.92 608.84 L 685.28 608.66 L 663.31 608.93 L 640.31 609.74 L 616.23 611.12 L 592.22 612.95 L 567.49 615.24 L 542.03 618.01 L 516.63 621.13 L 490.84 624.61 L 464.65 628.48 L 425.42 634.79 L 386.06 641.70 L 346.85 649.09 L 308.25 656.82 L 270.03 664.89 L 233.19 673.02 L 196.98 681.33 L 162.86 689.43 L 129.63 697.58 L 99.23 705.24 L 44.29 719.58 L 0.00 731.63 Z" fill="#c6ddff" fill-rule="nonzero" group-id="1,2" id="Path_465" node-id="13" stroke="none" target-height="191.67712" target-width="800" target-x="0" target-y="608.6579"></path></g><g node-id="205"><g node-id="211"><path d="M 375.58 174.66 L 492.90 174.66 L 496.63 174.91 L 500.14 175.63 L 503.47 176.79 L 506.62 178.38 L 509.49 180.31 L 512.10 182.61 L 514.40 185.22 L 516.34 188.09 L 517.92 191.24 L 519.09 194.57 L 519.80 198.09 L 520.06 201.82 L 520.06 500.86 L 519.80 504.59 L 519.09 508.10 L 517.92 511.43 L 516.34 514.58 L 514.40 517.45 L 512.10 520.06 L 509.49 522.36 L 506.62 524.30 L 503.47 525.88 L 500.14 527.04 L 496.63 527.76 L 492.90 528.02 L 375.58 528.02 L 371.85 527.76 L 368.34 527.04 L 365.01 525.88 L 361.85 524.30 L 358.98 522.36 L 356.37 520.06 L 354.07 517.45 L 352.14 514.58 L 350.55 511.43 L 349.39 508.10 L 348.68 504.59 L 348.42 500.86 L 348.42 201.82 L 348.68 198.09 L 349.39 194.57 L 350.55 191.24 L 352.14 188.09 L 354.07 185.22 L 356.37 182.61 L 358.98 180.31 L 361.85 178.38 L 365.01 176.79 L 368.34 175.63 L 371.85 174.91 L 375.58 174.66 Z" fill="#8dbffc" fill-rule="nonzero" group-id="1,3,9" id="Path_2230" node-id="16" stroke="none" target-height="353.36" target-width="171.63998" target-x="348.418" target-y="174.656"></path><path d="M 368.37 174.66 L 485.69 174.66 L 489.42 174.91 L 492.94 175.63 L 496.26 176.79 L 499.42 178.38 L 502.29 180.31 L 504.90 182.61 L 507.20 185.22 L 509.13 188.09 L 510.72 191.24 L 511.88 194.57 L 512.59 198.09 L 512.85 201.82 L 512.85 500.86 L 512.59 504.59 L 511.88 508.10 L 510.72 511.43 L 509.13 514.58 L 507.20 517.45 L 504.90 520.06 L 502.29 522.36 L 499.42 524.30 L 496.26 525.88 L 492.94 527.04 L 489.42 527.76 L 485.69 528.02 L 368.37 528.02 L 364.64 527.76 L 361.13 527.04 L 357.80 525.88 L 354.65 524.30 L 351.78 522.36 L 349.17 520.06 L 346.87 517.45 L 344.93 514.58 L 343.35 511.43 L 342.19 508.10 L 341.47 504.59 L 341.21 500.86 L 341.21 201.82 L 341.47 198.09 L 342.19 194.57 L 343.35 191.24 L 344.93 188.09 L 346.87 185.22 L 349.17 182.61 L 351.78 180.31 L 354.65 178.38 L 357.80 176.79 L 361.13 175.63 L 364.64 174.91 L 368.37 174.66 Z" fill="#192684" fill-rule="nonzero" group-id="1,3,9" id="Path_2229" node-id="17" stroke="none" target-height="353.36" target-width="171.64001" target-x="341.213" target-y="174.656"></path><path d="M 373.96 182.64 L 478.26 182.64 L 481.78 182.89 L 485.10 183.56 L 488.25 184.66 L 491.23 186.16 L 493.94 187.98 L 496.40 190.16 L 498.57 192.62 L 500.40 195.33 L 501.90 198.31 L 503.00 201.46 L 503.67 204.77 L 503.92 208.30 L 503.92 495.20 L 503.67 498.72 L 503.00 502.04 L 501.90 505.19 L 500.40 508.16 L 498.57 510.87 L 496.40 513.34 L 493.94 515.51 L 491.23 517.34 L 488.25 518.84 L 485.10 519.94 L 481.78 520.61 L 478.26 520.86 L 373.96 520.86 L 370.57 520.63 L 367.30 519.98 L 364.14 518.90 L 361.15 517.43 L 358.38 515.58 L 355.82 513.34 L 353.58 510.78 L 351.73 508.01 L 350.26 505.02 L 349.18 501.85 L 348.53 498.59 L 348.30 495.20 L 348.30 208.30 L 348.55 204.77 L 349.22 201.46 L 350.32 198.31 L 351.82 195.33 L 353.65 192.62 L 355.82 190.16 L 358.28 187.98 L 361.00 186.16 L 363.97 184.66 L 367.12 183.56 L 370.44 182.89 L 373.96 182.64 Z" fill="#ffffff" fill-rule="nonzero" group-id="1,3,9" id="Path_2228" node-id="18" stroke="none" target-height="338.21396" target-width="155.61398" target-x="348.303" target-y="182.642"></path><path d="M 450.51 194.07 L 401.53 194.07 L 398.05 193.74 L 394.87 192.88 L 391.92 191.47 L 389.25 189.58 L 386.98 187.31 L 385.09 184.64 L 383.68 181.69 L 382.82 178.51 L 382.49 175.03 L 469.54 175.03 L 469.37 177.55 L 468.89 179.97 L 468.09 182.32 L 467.00 184.54 L 465.63 186.59 L 463.97 188.49 L 462.07 190.15 L 460.01 191.52 L 457.79 192.62 L 455.45 193.42 L 453.03 193.90 L 450.51 194.07 Z" fill="#192684" fill-rule="nonzero" group-id="1,3,9" id="Path_466" node-id="19" stroke="none" target-height="19.034988" target-width="87.04898" target-x="382.493" target-y="175.033"></path></g><path d="M 364.99 226.12 L 403.51 226.12 L 405.02 226.34 L 406.32 226.88 L 407.45 227.76 L 408.33 228.89 L 408.87 230.19 L 409.08 231.70 L 409.08 270.21 L 408.87 271.73 L 408.33 273.03 L 407.45 274.16 L 406.32 275.04 L 405.02 275.58 L 403.51 275.79 L 364.99 275.79 L 363.48 275.58 L 362.18 275.04 L 361.05 274.16 L 360.17 273.03 L 359.63 271.73 L 359.42 270.21 L 359.42 231.70 L 359.63 230.19 L 360.17 228.89 L 361.05 227.76 L 362.18 226.88 L 363.48 226.34 L 364.99 226.12 Z" fill="#cadcfc" fill-rule="nonzero" group-id="1,3" id="Path_2227" node-id="20" stroke="none" target-height="49.666992" target-width="49.666992" target-x="359.417" target-y="226.125"></path><path d="M 364.99 292.64 L 403.51 292.64 L 405.02 292.86 L 406.32 293.40 L 407.45 294.28 L 408.33 295.41 L 408.87 296.71 L 409.08 298.22 L 409.08 336.74 L 408.87 338.25 L 408.33 339.55 L 407.45 340.68 L 406.32 341.56 L 405.02 342.10 L 403.51 342.31 L 364.99 342.31 L 363.48 342.10 L 362.18 341.56 L 361.05 340.68 L 360.17 339.55 L 359.63 338.25 L 359.42 336.74 L 359.42 298.22 L 359.63 296.71 L 360.17 295.41 L 361.05 294.28 L 362.18 293.40 L 363.48 292.86 L 364.99 292.64 Z" fill="#fdbd28" fill-rule="nonzero" group-id="1,3" id="Path_2226" node-id="21" stroke="none" target-height="49.667023" target-width="49.666992" target-x="359.417" target-y="292.645"></path><path d="M 428.43 225.08 L 469.55 225.08 L 470.10 225.19 L 470.54 225.49 L 470.84 225.93 L 470.95 226.47 L 470.95 229.26 L 470.84 229.80 L 470.54 230.25 L 470.09 230.55 L 469.55 230.66 L 428.43 230.66 L 427.88 230.54 L 427.44 230.25 L 427.14 229.81 L 427.03 229.26 L 427.03 226.47 L 427.14 225.93 L 427.44 225.49 L 427.88 225.19 L 428.43 225.08 Z" fill="#2355f5" fill-rule="nonzero" group-id="1,3" id="Path_2225" node-id="22" stroke="none" target-height="5.576004" target-width="43.91504" target-x="427.03198" target-y="225.08"></path><path d="M 428.43 277.01 L 488.26 277.01 L 488.80 277.12 L 489.24 277.42 L 489.54 277.86 L 489.65 278.40 L 489.65 281.19 L 489.55 281.73 L 489.24 282.18 L 488.79 282.48 L 488.26 282.59 L 428.43 282.59 L 427.88 282.48 L 427.44 282.18 L 427.14 281.74 L 427.03 281.19 L 427.03 278.40 L 427.14 277.86 L 427.44 277.42 L 427.88 277.12 L 428.43 277.01 Z" fill="#97bff7" fill-rule="nonzero" group-id="1,3" id="Path_2224" node-id="23" stroke="none" target-height="5.5760193" target-width="62.619995" target-x="427.03198" target-y="277.011"></path><path d="M 428.43 311.63 L 468.33 311.63 L 468.87 311.74 L 469.32 312.04 L 469.63 312.49 L 469.73 313.03 L 469.73 315.81 L 469.63 316.35 L 469.32 316.80 L 468.87 317.10 L 468.33 317.21 L 428.43 317.21 L 427.89 317.10 L 427.44 316.80 L 427.14 316.35 L 427.03 315.81 L 427.03 313.03 L 427.14 312.48 L 427.44 312.04 L 427.88 311.74 L 428.43 311.63 Z" fill="#cadcfc" fill-rule="nonzero" group-id="1,3" id="Path_2223" node-id="24" stroke="none" target-height="5.5769653" target-width="42.700012" target-x="427.03198" target-y="311.63202"></path><path d="M 428.43 242.39 L 488.26 242.39 L 488.80 242.50 L 489.24 242.80 L 489.54 243.24 L 489.65 243.78 L 489.65 246.57 L 489.55 247.11 L 489.24 247.56 L 488.79 247.86 L 488.26 247.97 L 428.43 247.97 L 427.88 247.85 L 427.44 247.56 L 427.14 247.12 L 427.03 246.57 L 427.03 243.78 L 427.14 243.24 L 427.44 242.80 L 427.88 242.50 L 428.43 242.39 Z" fill="#2355f5" fill-rule="nonzero" group-id="1,3" id="Path_2222" node-id="25" stroke="none" target-height="5.576004" target-width="62.619995" target-x="427.03198" target-y="242.39"></path><path d="M 475.48 225.08 L 488.26 225.08 L 488.80 225.19 L 489.24 225.49 L 489.54 225.93 L 489.65 226.47 L 489.65 229.26 L 489.55 229.80 L 489.24 230.25 L 488.79 230.55 L 488.26 230.66 L 475.48 230.66 L 474.93 230.54 L 474.49 230.25 L 474.20 229.81 L 474.08 229.26 L 474.08 226.47 L 474.20 225.93 L 474.49 225.49 L 474.93 225.19 L 475.48 225.08 Z" fill="#2355f5" fill-rule="nonzero" group-id="1,3" id="Path_2221" node-id="26" stroke="none" target-height="5.576004" target-width="15.567993" target-x="474.08398" target-y="225.08"></path><path d="M 428.43 294.32 L 474.96 294.32 L 475.50 294.43 L 475.94 294.73 L 476.24 295.17 L 476.35 295.72 L 476.35 298.50 L 476.24 299.04 L 475.94 299.49 L 475.49 299.79 L 474.96 299.90 L 428.43 299.90 L 427.88 299.79 L 427.44 299.49 L 427.14 299.05 L 427.03 298.50 L 427.03 295.72 L 427.14 295.17 L 427.44 294.73 L 427.88 294.43 L 428.43 294.32 Z" fill="#cadcfc" fill-rule="nonzero" group-id="1,3" id="Path_2220" node-id="27" stroke="none" target-height="5.5760193" target-width="49.317017" target-x="427.03198" target-y="294.322"></path><path d="M 479.43 294.32 L 488.26 294.32 L 488.79 294.43 L 489.24 294.73 L 489.55 295.18 L 489.65 295.72 L 489.65 298.50 L 489.55 299.04 L 489.24 299.49 L 488.79 299.79 L 488.26 299.90 L 479.43 299.90 L 478.88 299.79 L 478.44 299.49 L 478.15 299.05 L 478.03 298.50 L 478.03 295.72 L 478.15 295.17 L 478.44 294.73 L 478.88 294.43 L 479.43 294.32 Z" fill="#cadcfc" fill-rule="nonzero" group-id="1,3" id="Path_2219" node-id="28" stroke="none" target-height="5.5760193" target-width="11.617981" target-x="478.034" target-y="294.322"></path><path d="M 443.01 259.70 L 488.43 259.70 L 488.98 259.81 L 489.42 260.11 L 489.72 260.55 L 489.83 261.10 L 489.83 263.88 L 489.72 264.42 L 489.42 264.87 L 488.97 265.17 L 488.43 265.28 L 443.01 265.28 L 442.47 265.17 L 442.02 264.87 L 441.72 264.42 L 441.61 263.88 L 441.61 261.10 L 441.72 260.55 L 442.02 260.11 L 442.46 259.81 L 443.01 259.70 Z" fill="#97bff7" fill-rule="nonzero" group-id="1,3" id="Path_2218" node-id="29" stroke="none" target-height="5.5770264" target-width="48.21399" target-x="441.613" target-y="259.701"></path><path d="M 428.60 259.70 L 438.82 259.70 L 439.37 259.81 L 439.81 260.11 L 440.11 260.55 L 440.22 261.10 L 440.22 263.88 L 440.11 264.42 L 439.81 264.87 L 439.36 265.17 L 438.82 265.28 L 428.60 265.28 L 428.05 265.17 L 427.62 264.87 L 427.32 264.43 L 427.21 263.88 L 427.21 261.10 L 427.32 260.55 L 427.62 260.11 L 428.05 259.81 L 428.60 259.70 Z" fill="#97bff7" fill-rule="nonzero" group-id="1,3" id="Path_2217" node-id="30" stroke="none" target-height="5.5760193" target-width="13.011993" target-x="427.207" target-y="259.701"></path></g><g node-id="206"><path d="M 94.02 739.23 L 349.30 739.23 L 350.51 739.05 L 351.56 738.58 L 352.49 737.79 L 411.42 671.00 L 412.11 669.94 L 412.45 668.76 L 412.44 667.52 L 412.05 666.32 L 411.33 665.27 L 410.37 664.51 L 409.23 664.05 L 407.96 663.94 L 113.61 682.29 L 112.43 682.54 L 111.39 683.08 L 110.54 683.89 L 109.93 684.93 L 90.08 733.36 L 89.80 734.37 L 89.78 735.40 L 90.01 736.41 L 90.48 737.34 L 91.17 738.14 L 92.01 738.73 L 92.97 739.10 L 94.02 739.23 Z" fill="#97bff7" fill-rule="nonzero" group-id="1,4" id="Path_467" node-id="32" stroke="none" target-height="75.29297" target-width="322.66962" target-x="89.77951" target-y="663.937"></path><path d="M 395.03 495.20 L 365.43 516.02 L 346.87 725.23 L 402.40 674.83 Z" fill="#2355f5" fill-rule="nonzero" group-id="1,4" id="Path_468" node-id="33" stroke="none" target-height="230.02304" target-width="55.526" target-x="346.871" target-y="495.205"></path><path d="M 394.46 587.46 L 393.12 554.78 L 366.99 573.03 L 366.20 573.75 L 365.61 574.63 L 365.26 575.61 L 365.15 576.68 L 365.31 577.74 L 365.72 578.71 L 366.35 579.55 L 367.18 580.23 L 386.42 592.20 L 370.99 608.97 L 370.28 610.01 L 369.91 611.18 L 369.88 612.40 L 370.21 613.62 L 370.88 614.69 L 371.80 615.49 L 372.91 616.01 L 374.16 616.20 L 387.31 616.20 L 385.29 688.73 L 398.27 677.72 L 394.61 591.24 L 389.36 591.24 L 394.46 587.46 Z" fill="#192684" fill-rule="nonzero" group-id="1,4" id="Path_469" node-id="34" stroke="none" target-height="133.94604" target-width="33.120636" target-x="365.15237" target-y="554.782"></path><path d="M 145.01 524.65 L 142.14 540.26 L 138.07 561.60 L 133.06 586.88 L 127.32 614.35 L 121.10 642.22 L 117.85 655.89 L 114.63 668.74 L 111.31 681.16 L 108.14 692.12 L 104.85 702.41 L 101.87 710.60 L 101.20 713.16 L 101.17 715.76 L 101.76 718.28 L 102.97 720.64 L 104.72 722.64 L 106.85 724.12 L 109.27 725.05 L 111.90 725.37 L 346.00 725.37 L 347.02 725.19 L 347.87 724.67 L 348.49 723.90 L 348.81 722.91 L 350.21 711.73 L 352.46 693.16 L 355.21 668.98 L 358.17 640.99 L 361.01 610.98 L 363.41 580.75 L 364.36 565.95 L 365.06 552.08 L 365.51 538.63 L 365.64 526.78 L 365.45 524.81 L 364.96 523.01 L 364.16 521.35 L 363.09 519.83 L 361.80 518.55 L 360.29 517.48 L 358.62 516.69 L 356.82 516.20 L 354.86 516.01 L 155.64 515.80 L 153.09 516.10 L 150.77 516.95 L 148.72 518.30 L 147.02 520.07 L 145.77 522.20 L 145.01 524.65 Z" fill="#4174f2" fill-rule="nonzero" group-id="1,4" id="Path_470" node-id="35" stroke="none" target-height="209.57599" target-width="264.46698" target-x="101.17204" target-y="515.797"></path><path d="M 149.07 513.51 L 172.43 492.00 L 174.12 490.67 L 175.98 489.64 L 177.98 488.92 L 180.09 488.52 L 193.41 487.19 L 213.94 485.52 L 240.01 483.97 L 254.41 483.40 L 269.93 483.03 L 285.72 482.92 L 302.01 483.15 L 318.35 483.77 L 334.56 484.83 L 345.34 485.82 L 355.78 487.06 L 365.90 488.53 L 375.97 490.32 L 385.44 492.40 L 394.34 494.73 L 394.96 495.13 L 395.27 495.80 L 395.16 496.53 L 394.68 497.09 L 365.76 515.81 L 365.05 516.02 L 149.96 515.79 L 149.22 515.56 L 148.73 514.96 L 148.68 514.18 L 149.07 513.51 Z" fill="#3478f6" fill-rule="nonzero" group-id="1,4" id="Path_471" node-id="36" stroke="none" target-height="33.097504" target-width="246.58958" target-x="148.67863" target-y="482.92447"></path><path d="M 97.38 725.37 L 96.09 725.05 L 95.12 724.15 L 94.69 722.89 L 94.91 721.59 L 99.33 711.20 L 105.48 695.27 L 108.81 685.79 L 112.38 674.86 L 115.76 663.46 L 119.07 651.00 L 122.02 638.21 L 124.59 624.76 L 127.16 610.29 L 129.86 596.09 L 135.38 569.11 L 140.55 545.73 L 144.73 527.80 L 147.30 517.22 L 147.66 516.39 L 148.26 515.75 L 149.03 515.33 L 149.92 515.18 L 362.39 516.01 L 363.50 516.26 L 364.41 516.93 L 364.96 517.92 L 365.05 519.04 L 363.44 531.67 L 360.81 552.08 L 357.39 578.00 L 353.45 607.20 L 349.25 637.42 L 345.02 666.41 L 341.03 691.92 L 337.52 711.69 L 335.90 719.27 L 334.75 723.48 L 334.36 724.24 L 333.76 724.82 L 333.01 725.19 L 332.16 725.30 L 321.50 725.20 L 302.90 725.14 L 278.27 725.11 L 249.51 725.12 L 218.55 725.14 L 187.28 725.19 L 157.62 725.24 L 131.48 725.29 L 110.76 725.34 L 97.38 725.37 Z" fill="#c6ddff" fill-rule="nonzero" group-id="1,4" id="Path_472" node-id="37" stroke="none" target-height="210.18597" target-width="270.36438" target-x="94.68959" target-y="515.182"></path><path d="M 113.71 670.50 L 113.05 672.71 L 111.32 678.24 L 108.94 685.41 L 109.31 685.04 L 110.25 684.75 L 112.18 684.68 L 115.23 684.90 L 119.43 685.48 L 128.73 687.23 L 138.11 689.32 L 145.64 691.14 L 149.34 692.10 L 158.11 694.27 L 166.91 695.91 L 175.77 697.02 L 184.71 697.60 L 193.67 697.65 L 202.59 697.16 L 211.49 696.14 L 220.38 694.59 L 228.32 692.63 L 236.04 690.24 L 243.54 687.41 L 250.89 684.19 L 258.08 680.63 L 265.12 676.73 L 275.41 670.40 L 285.46 663.54 L 293.32 657.58 L 300.74 651.18 L 307.72 644.32 L 312.64 638.88 L 317.26 633.19 L 321.58 627.23 L 325.60 620.99 L 330.09 613.16 L 334.30 605.15 L 338.24 596.96 L 343.71 584.47 L 348.77 571.78 L 353.54 559.00 L 358.11 546.26 L 360.64 538.89 L 362.84 531.39 L 364.04 526.32 L 364.91 521.20 L 365.44 516.02 L 362.85 520.72 L 355.63 533.38 L 344.58 551.90 L 337.98 562.51 L 330.48 574.16 L 322.59 585.94 L 314.13 598.02 L 305.34 609.93 L 296.34 621.38 L 290.12 628.82 L 283.97 635.72 L 277.89 642.11 L 271.54 648.26 L 265.44 653.56 L 259.59 658.09 L 254.90 661.25 L 250.46 663.78 L 246.24 665.75 L 242.22 667.20 L 235.00 669.13 L 227.40 670.75 L 219.40 672.08 L 207.28 673.50 L 194.93 674.37 L 182.59 674.76 L 170.70 674.75 L 159.07 674.43 L 148.58 673.89 L 130.46 672.45 L 118.21 671.10 L 113.71 670.50 Z" fill="#4174f2" fill-rule="nonzero" group-id="1,4" id="Path_473" node-id="38" stroke="none" target-height="181.62842" target-width="256.497" target-x="108.938" target-y="516.022"></path><path d="M 148.44 515.77 L 147.64 515.91 L 146.95 516.26 L 146.39 516.81 L 146.01 517.52 L 142.97 526.11 L 137.66 539.95 L 134.34 548.02 L 130.47 556.88 L 126.31 565.81 L 121.79 574.76 L 116.97 583.46 L 112.01 591.41 L 108.46 596.49 L 104.96 600.90 L 101.52 604.69 L 95.17 610.88 L 88.20 617.24 L 81.03 623.48 L 73.83 629.49 L 60.03 640.50 L 48.46 649.29 L 46.99 650.72 L 45.94 652.43 L 45.36 654.35 L 45.27 656.40 L 45.70 658.41 L 46.60 660.20 L 47.92 661.71 L 49.61 662.87 L 54.31 665.16 L 59.95 667.64 L 65.92 669.96 L 72.55 672.14 L 79.42 673.94 L 86.65 675.29 L 91.56 675.88 L 96.51 676.13 L 101.52 676.07 L 107.77 676.03 L 113.59 676.43 L 119.03 677.25 L 127.04 679.07 L 134.65 681.34 L 149.66 686.29 L 157.29 688.43 L 165.35 690.03 L 170.81 690.66 L 176.68 690.83 L 183.01 690.50 L 201.51 688.73 L 212.15 687.42 L 224.01 685.50 L 231.99 683.86 L 240.22 681.80 L 248.71 679.27 L 257.06 676.32 L 265.42 672.75 L 273.80 668.55 L 279.87 665.05 L 285.83 661.10 L 291.69 656.69 L 297.47 651.81 L 302.85 646.63 L 308.05 640.88 L 313.07 634.53 L 317.90 627.53 L 324.99 615.93 L 331.28 604.81 L 336.83 594.18 L 342.06 583.34 L 346.55 573.34 L 350.37 564.12 L 355.49 550.57 L 359.19 539.59 L 362.21 529.53 L 363.99 522.82 L 365.25 517.25 L 365.44 516.02 L 364.80 515.86 L 359.93 515.60 L 344.90 515.34 L 322.56 515.20 L 295.14 515.17 L 264.86 515.22 L 233.95 515.32 L 204.63 515.45 L 179.12 515.58 L 159.65 515.70 L 148.44 515.77 Z" fill="#ffffff" fill-rule="nonzero" group-id="1,4" id="Path_474" node-id="39" stroke="none" target-height="175.6571" target-width="320.16922" target-x="45.265766" target-y="515.16864"></path><g node-id="212"><path d="M 99.66 642.36 L 97.58 641.80 L 95.80 640.72 L 94.38 639.19 L 93.41 637.27 L 93.02 635.16 L 93.22 633.08 L 93.98 631.14 L 95.29 629.44 L 105.98 618.86 L 118.04 606.51 L 124.10 600.07 L 129.77 593.84 L 135.10 587.69 L 139.43 582.33 L 143.15 577.18 L 145.33 573.44 L 150.87 561.91 L 155.96 551.25 L 159.89 542.97 L 160.69 541.65 L 161.69 540.56 L 162.90 539.68 L 164.25 539.06 L 165.68 538.72 L 167.23 538.66 L 176.34 539.27 L 188.32 540.04 L 201.71 540.85 L 215.03 541.57 L 226.82 542.10 L 235.62 542.30 L 244.81 542.18 L 257.97 541.81 L 273.39 541.21 L 289.38 540.40 L 304.23 539.38 L 316.23 538.16 L 318.03 538.14 L 319.75 538.53 L 321.33 539.32 L 322.71 540.47 L 323.78 541.92 L 324.46 543.54 L 324.75 545.28 L 324.62 547.08 L 323.85 550.54 L 322.60 554.81 L 320.75 560.03 L 318.62 565.10 L 315.72 571.04 L 311.92 577.96 L 307.26 586.34 L 302.85 594.92 L 294.25 612.04 L 289.79 620.36 L 285.09 628.21 L 281.71 633.24 L 278.13 637.93 L 274.32 642.31 L 270.20 646.37 L 265.74 650.00 L 260.90 653.24 L 259.00 654.05 L 256.95 654.33 L 249.58 654.30 L 238.23 654.18 L 224.43 653.93 L 209.72 653.50 L 195.62 652.86 L 183.65 651.94 L 165.39 649.79 L 146.50 647.28 L 128.15 644.98 L 119.40 644.06 L 111.53 643.43 L 104.82 642.90 L 99.66 642.36 Z" fill="#edf2f9" fill-rule="nonzero" group-id="1,4,10" id="Path_475" node-id="41" stroke="none" target-height="116.19556" target-width="231.73407" target-x="93.01649" target-y="538.1394"></path><g node-id="218"><g clip-path="url(#mask-2)" group-id="1,4,10,16" node-id="201"><path d="M 123.25 648.67 L 121.17 646.25 L 124.86 642.93 L 134.15 634.04 L 140.10 628.01 L 147.17 620.50 L 154.36 612.43 L 162.04 603.24 L 169.54 593.58 L 176.90 583.19 L 181.54 576.03 L 185.86 568.72 L 189.87 561.27 L 193.49 553.63 L 196.55 546.01 L 199.07 538.40 L 202.14 539.29 L 199.57 547.04 L 196.47 554.78 L 192.79 562.53 L 188.74 570.11 L 184.36 577.52 L 179.66 584.79 L 172.20 595.32 L 164.61 605.12 L 156.83 614.43 L 149.56 622.61 L 142.40 630.21 L 136.38 636.31 L 126.98 645.31 L 123.25 648.67 Z" fill="#fdbd28" fill-rule="nonzero" group-id="1,4,10,16,23,24,25,26,27" id="Path_476" node-id="51" stroke="none" target-height="110.268005" target-width="80.973" target-x="121.165" target-y="538.39996"></path><path d="M 177.06 655.20 L 174.57 653.20 L 177.42 649.57 L 184.57 640.18 L 194.63 626.41 L 200.22 618.44 L 206.19 609.65 L 212.07 600.60 L 217.84 591.27 L 223.31 581.83 L 228.20 572.66 L 231.20 566.47 L 233.74 560.66 L 235.85 555.20 L 237.63 549.62 L 238.79 544.66 L 239.39 540.27 L 242.58 540.52 L 241.97 545.03 L 240.82 550.07 L 239.06 555.71 L 236.98 561.21 L 234.47 567.06 L 231.51 573.26 L 226.69 582.43 L 221.28 591.87 L 215.57 601.18 L 209.72 610.23 L 203.78 619.03 L 198.17 627.05 L 187.98 641.02 L 180.49 650.84 L 177.06 655.20 Z" fill="#fdbd28" fill-rule="nonzero" group-id="1,4,10,16,23,24,25,26,28" id="Path_477" node-id="53" stroke="none" target-height="114.92499" target-width="68.009" target-x="174.57" target-y="540.274"></path><path d="M 227.08 657.98 L 224.56 656.03 L 227.45 652.22 L 234.73 642.37 L 245.03 627.94 L 256.97 610.38 L 263.10 600.92 L 269.17 591.16 L 274.99 581.31 L 280.27 571.74 L 285.06 562.22 L 288.88 553.57 L 291.07 547.76 L 292.62 542.63 L 293.64 538.10 L 296.78 538.65 L 295.76 543.27 L 294.20 548.46 L 292.04 554.29 L 288.26 562.97 L 283.54 572.48 L 278.32 582.02 L 272.58 591.83 L 266.57 601.54 L 260.49 610.98 L 248.57 628.54 L 238.16 643.14 L 230.56 653.41 L 227.08 657.98 Z" fill="#fdbd28" fill-rule="nonzero" group-id="1,4,10,16,23,24,25,26,29" id="Path_478" node-id="55" stroke="none" target-height="119.875" target-width="72.22699" target-x="224.557" target-y="538.10394"></path><path d="M 324.76 566.38 L 320.68 566.37 L 310.22 566.33 L 295.08 566.25 L 276.95 566.11 L 257.52 565.91 L 238.47 565.63 L 221.51 565.27 L 208.32 564.81 L 199.69 564.52 L 190.96 564.44 L 174.26 564.76 L 160.03 565.42 L 150.09 566.07 L 146.24 566.38 L 145.95 563.20 L 149.83 562.89 L 159.84 562.23 L 174.17 561.57 L 190.99 561.25 L 199.77 561.33 L 208.48 561.62 L 221.64 562.08 L 238.57 562.44 L 257.59 562.72 L 277.00 562.92 L 295.12 563.05 L 310.24 563.14 L 320.69 563.18 L 324.76 563.19 L 324.76 566.38 Z" fill="#fdbd28" fill-rule="nonzero" group-id="1,4,10,16,23,24,25,26,30,31" id="Path_479" node-id="58" stroke="none" target-height="5.1324463" target-width="178.811" target-x="145.953" target-y="561.25055"></path><path d="M 267.66 602.82 L 248.49 602.66 L 228.75 602.05 L 219.08 601.52 L 210.15 600.84 L 201.58 599.93 L 194.37 598.87 L 184.15 597.26 L 174.26 595.99 L 164.56 594.98 L 155.79 594.26 L 140.55 593.38 L 130.16 593.07 L 126.21 593.03 L 126.20 589.84 L 130.18 589.88 L 140.66 590.20 L 156.01 591.08 L 164.86 591.81 L 174.64 592.82 L 184.61 594.10 L 194.92 595.73 L 202.55 596.84 L 211.72 597.78 L 221.27 598.46 L 231.60 598.98 L 252.53 599.53 L 272.46 599.62 L 289.32 599.44 L 301.07 599.19 L 305.66 599.06 L 305.77 602.25 L 302.64 602.34 L 294.51 602.54 L 282.48 602.73 L 267.66 602.82 Z" fill="#fdbd28" fill-rule="nonzero" group-id="1,4,10,16,23,24,25,26,30,32" id="Path_480" node-id="60" stroke="none" target-height="12.97998" target-width="179.575" target-x="126.196" target-y="589.842"></path><path d="M 254.04 631.99 L 235.02 631.80 L 225.17 631.52 L 215.45 631.08 L 205.89 630.46 L 197.15 629.65 L 188.80 628.57 L 181.94 627.31 L 174.02 625.75 L 165.42 624.37 L 156.67 623.21 L 147.89 622.24 L 131.14 620.81 L 116.92 619.94 L 107.00 619.51 L 103.14 619.39 L 103.21 616.20 L 107.10 616.32 L 117.08 616.75 L 131.41 617.63 L 148.28 619.07 L 157.13 620.05 L 165.95 621.22 L 174.63 622.61 L 182.63 624.19 L 189.61 625.46 L 198.24 626.54 L 207.29 627.34 L 217.23 627.95 L 227.33 628.36 L 237.52 628.62 L 257.01 628.77 L 273.62 628.60 L 285.24 628.34 L 289.80 628.20 L 289.92 631.39 L 284.28 631.57 L 271.60 631.85 L 254.04 631.99 Z" fill="#fdbd28" fill-rule="nonzero" group-id="1,4,10,16,23,24,25,26,30,33" id="Path_481" node-id="62" stroke="none" target-height="15.794983" target-width="186.775" target-x="103.143" target-y="616.199"></path></g></g></g><path d="M 174.60 690.80 L 177.05 689.06 L 183.49 684.43 L 192.59 677.78 L 202.98 669.99 L 213.33 661.95 L 222.28 654.54 L 225.99 651.18 L 228.49 648.63 L 230.14 647.27 L 232.36 646.13 L 235.30 645.26 L 240.04 644.57 L 245.89 644.35 L 252.02 644.56 L 258.69 645.11 L 272.11 646.75 L 284.58 648.49 L 290.17 649.18 L 294.51 649.55 L 298.34 649.55 L 300.33 649.13 L 298.48 651.38 L 296.36 653.71 L 292.90 657.12 L 288.87 660.66 L 283.54 664.78 L 279.72 667.41 L 275.35 670.09 L 270.37 672.80 L 265.28 675.24 L 259.63 677.51 L 253.37 679.62 L 244.36 682.10 L 234.86 684.28 L 225.26 686.15 L 215.85 687.69 L 206.59 688.95 L 198.22 689.88 L 190.24 690.55 L 183.84 690.90 L 178.09 690.98 L 174.60 690.80 Z" fill="#92c3f4" fill-rule="nonzero" group-id="1,4" id="Path_483" node-id="63" stroke="none" target-height="46.63275" target-width="125.73001" target-x="174.6" target-y="644.35065"></path></g><g node-id="207"><path d="M 239.53 500.02 L 239.22 500.67 L 238.12 501.42 L 235.59 502.29 L 231.39 503.15 L 225.23 503.90 L 218.52 504.35 L 210.64 504.51 L 202.77 504.35 L 196.06 503.90 L 189.89 503.15 L 185.70 502.29 L 183.17 501.42 L 182.07 500.67 L 181.75 500.02 L 182.07 499.38 L 183.17 498.63 L 185.70 497.76 L 189.89 496.90 L 196.06 496.15 L 202.77 495.70 L 210.64 495.54 L 218.52 495.70 L 225.23 496.15 L 231.39 496.90 L 235.59 497.76 L 238.12 498.63 L 239.22 499.38 L 239.53 500.02 Z" fill="#2355f5" fill-rule="nonzero" group-id="1,5" id="Ellipse_15" node-id="65" stroke="none" target-height="8.977966" target-width="57.78" target-x="181.754" target-y="495.536"></path><path d="M 372.78 504.51 L 372.49 505.17 L 371.47 505.92 L 369.19 506.78 L 365.37 507.64 L 359.75 508.39 L 353.64 508.83 L 346.46 509.00 L 339.29 508.83 L 333.18 508.39 L 327.56 507.64 L 323.74 506.78 L 321.46 505.92 L 320.44 505.17 L 320.15 504.51 L 320.44 503.86 L 321.46 503.11 L 323.74 502.25 L 327.56 501.39 L 333.18 500.64 L 339.29 500.19 L 346.46 500.02 L 353.64 500.19 L 359.75 500.64 L 365.37 501.39 L 369.19 502.25 L 371.47 503.11 L 372.49 503.86 L 372.78 504.51 Z" fill="#2355f5" fill-rule="nonzero" group-id="1,5" id="Ellipse_16" node-id="66" stroke="none" target-height="8.977997" target-width="52.630005" target-x="320.15" target-y="500.025"></path><g node-id="213"><path d="M 348.69 485.44 L 348.16 486.46 L 347.75 487.50 L 347.42 488.84 L 347.38 490.22 L 347.76 491.56 L 348.50 492.25 L 350.48 493.20 L 355.89 494.99 L 362.27 496.81 L 367.91 498.56 L 370.08 499.47 L 371.06 500.13 L 371.85 501.35 L 371.93 502.32 L 371.53 503.20 L 370.68 503.95 L 369.56 504.47 L 368.21 504.76 L 363.91 505.12 L 355.31 505.70 L 344.69 506.23 L 334.31 506.44 L 329.70 506.32 L 326.45 506.04 L 324.44 505.63 L 323.60 505.19 L 323.37 504.76 L 323.65 503.25 L 324.43 500.96 L 326.57 495.86 L 328.56 490.72 L 329.14 488.39 L 329.18 486.79 L 329.30 486.15 L 329.82 485.62 L 330.96 485.16 L 332.99 484.80 L 335.77 484.64 L 341.64 484.80 L 346.60 485.21 L 348.69 485.44 Z" fill="#192684" fill-rule="nonzero" group-id="1,5,11" id="Path_484" node-id="68" stroke="none" target-height="21.796722" target-width="48.560577" target-x="323.372" target-y="484.64072"></path><path d="M 282.30 434.19 L 283.09 434.64 L 283.63 435.32 L 283.90 436.14 L 283.84 437.05 L 283.51 438.86 L 283.49 440.66 L 283.79 442.48 L 283.79 442.48 L 275.96 442.61 L 268.17 442.16 L 260.40 441.13 L 253.27 439.52 L 244.08 437.11 L 234.92 434.57 L 227.89 432.56 L 225.08 431.74 L 225.30 430.04 L 226.11 426.17 L 226.81 423.99 L 227.73 421.99 L 228.53 420.78 L 229.41 419.92 L 230.39 419.33 L 231.69 419.23 L 234.86 419.68 L 243.34 421.78 L 254.08 424.95 L 265.32 428.52 L 275.31 431.82 L 282.30 434.19 Z" fill="#2253f6" fill-rule="nonzero" group-id="1,5,11" id="Path_485" node-id="69" stroke="none" target-height="23.37912" target-width="58.81842" target-x="225.081" target-y="419.22742"></path><path d="M 286.44 430.21 L 289.59 423.28 L 287.69 423.32 L 283.10 423.35 L 277.50 423.28 L 272.56 422.98 L 270.68 422.67 L 269.98 422.35 L 269.92 422.53 L 270.55 423.18 L 271.58 423.88 L 273.36 424.82 L 275.43 425.66 L 278.20 426.49 L 280.95 427.32 L 283.44 428.60 L 285.71 430.35 L 286.11 430.47 L 286.44 430.21 L 286.44 430.21 Z" fill="#b01f1a" fill-rule="nonzero" group-id="1,5,11" id="Path_486" node-id="70" stroke="none" target-height="8.116486" target-width="19.66806" target-x="269.92194" target-y="422.35498"></path><path d="M 274.73 435.71 L 274.48 434.70 L 274.57 433.71 L 274.98 432.80 L 275.71 432.06 L 282.85 427.06 L 287.77 423.83 L 293.76 420.10 L 300.07 416.44 L 306.85 412.86 L 313.79 409.63 L 320.58 407.02 L 325.17 405.63 L 329.42 404.73 L 333.36 404.27 L 336.36 404.25 L 339.04 404.60 L 341.46 405.28 L 343.65 406.28 L 345.58 407.65 L 347.26 409.47 L 348.69 411.80 L 349.86 414.75 L 351.24 420.14 L 352.28 425.67 L 352.98 431.34 L 353.48 439.87 L 353.44 448.23 L 352.96 456.44 L 352.19 463.94 L 351.17 471.10 L 350.14 477.00 L 348.22 485.92 L 347.38 489.22 L 345.47 489.67 L 340.87 490.52 L 338.10 490.86 L 335.27 491.03 L 332.53 490.91 L 330.35 490.45 L 329.70 490.01 L 328.94 489.03 L 328.04 487.24 L 326.96 484.29 L 325.79 480.23 L 323.70 470.98 L 321.88 461.06 L 320.44 452.03 L 319.50 445.46 L 319.16 442.93 L 290.71 462.69 L 289.50 463.18 L 288.20 463.11 L 287.05 462.50 L 286.27 461.45 L 274.73 435.71 Z" fill="#129f72" fill-rule="nonzero" group-id="1,5,11" id="Path_487" node-id="71" stroke="none" target-height="86.77872" target-width="79.007324" target-x="274.47742" target-y="404.25128"></path><g node-id="219"><path d="M 320.68 421.53 L 320.68 421.46 L 320.67 421.55 L 320.68 421.53 Z" fill="#037a4a" fill-rule="nonzero" group-id="1,5,11,17" id="Path_488" node-id="73" stroke="none" target-height="0.08200073" target-width="0.009002686" target-x="320.671" target-y="421.463"></path><path d="M 318.59 423.97 L 318.10 427.48 L 317.33 430.89 L 316.29 434.19 L 314.38 438.93 L 312.38 442.97 L 310.29 446.62 L 308.70 449.11 L 307.06 451.42 L 319.16 442.71 L 318.53 436.47 L 318.34 430.23 L 318.59 423.97 L 318.59 423.97 Z" fill="#037a4a" fill-rule="nonzero" group-id="1,5,11,17" id="Path_489" node-id="74" stroke="none" target-height="27.452026" target-width="12.100006" target-x="307.064" target-y="423.968"></path></g><path d="M 318.99 461.94 L 320.01 461.26 L 321.16 460.75 L 322.97 460.31 L 325.01 460.23 L 327.72 460.72 L 329.53 461.36 L 331.65 462.46 L 334.13 464.13 L 335.60 465.46 L 336.95 467.13 L 338.19 469.17 L 339.58 472.49 L 340.45 476.16 L 340.68 478.68 L 340.58 481.15 L 340.16 483.58 L 339.36 485.90 L 338.15 488.00 L 336.51 489.93 L 335.15 490.76 L 333.59 491.04 L 331.71 490.74 L 329.86 490.00 L 327.88 488.85 L 325.72 487.20 L 322.76 484.33 L 319.99 480.92 L 317.66 477.22 L 316.00 473.54 L 315.27 471.00 L 315.01 468.73 L 315.18 466.67 L 315.62 465.23 L 316.38 463.98 L 317.48 462.89 L 318.99 461.94 Z" fill="#037a4a" fill-rule="nonzero" group-id="1,5,11" id="Path_490" node-id="75" stroke="none" target-height="30.815887" target-width="25.67154" target-x="315.01282" target-y="460.22855"></path><path d="M 340.65 335.04 L 340.94 334.22 L 341.50 333.60 L 342.24 333.22 L 343.10 333.14 L 349.71 333.87 L 357.98 335.01 L 362.09 335.73 L 365.47 336.46 L 368.41 337.38 L 369.76 338.15 L 370.10 338.75 L 370.32 339.86 L 370.32 341.75 L 370.00 344.68 L 369.32 348.51 L 367.32 356.81 L 364.90 365.00 L 362.64 371.45 L 361.62 373.75 L 361.11 374.50 L 360.28 374.68 L 358.02 374.31 L 351.87 372.42 L 344.04 369.64 L 335.92 366.78 L 328.89 364.65 L 328.29 364.34 L 327.89 363.80 L 327.77 363.13 L 327.96 362.49 L 331.02 356.87 L 334.99 349.17 L 338.62 341.27 L 339.97 337.63 L 340.65 335.04 Z" fill="#007aff" fill-rule="nonzero" group-id="1,5,11" id="Path_491" node-id="76" stroke="none" target-height="41.53766" target-width="42.548553" target-x="327.77304" target-y="333.141"></path><path d="M 328.02 362.49 L 331.00 357.01 L 334.88 349.49 L 338.48 341.71 L 338.24 341.00 L 337.90 340.54 L 337.44 340.32 L 336.79 340.40 L 335.72 341.04 L 334.79 342.03 L 332.88 344.51 L 331.61 345.76 L 329.79 346.99 L 327.23 349.51 L 325.79 351.50 L 324.81 353.53 L 324.26 355.30 L 323.25 358.76 L 322.39 360.41 L 320.81 362.29 L 318.62 364.32 L 315.44 366.90 L 307.91 372.34 L 299.62 377.88 L 291.96 382.75 L 286.35 386.22 L 284.16 387.54 L 282.57 388.89 L 281.53 390.36 L 280.94 392.00 L 280.75 393.76 L 280.90 395.59 L 281.43 397.54 L 282.74 400.31 L 284.63 402.97 L 286.95 405.28 L 289.54 407.09 L 291.42 407.99 L 293.28 408.52 L 295.14 408.71 L 296.96 408.50 L 298.71 407.82 L 300.43 406.63 L 300.43 406.63 L 302.19 404.62 L 306.76 399.41 L 313.10 392.16 L 320.17 384.06 L 326.90 376.30 L 332.27 370.06 L 335.22 366.53 L 328.95 364.66 L 328.35 364.35 L 327.95 363.80 L 327.83 363.14 L 328.02 362.49 Z" fill="#fac896" fill-rule="nonzero" group-id="1,5,11" id="Path_492" node-id="77" stroke="none" target-height="68.38583" target-width="57.735535" target-x="280.74847" target-y="340.31995"></path><path d="M 242.68 489.05 L 242.58 488.26 L 242.28 487.55 L 241.81 486.93 L 241.18 486.45 L 224.47 476.83 L 223.62 476.34 L 222.66 476.01 L 221.13 475.80 L 219.41 475.93 L 217.07 476.61 L 214.65 477.84 L 211.53 480.15 L 206.07 484.53 L 203.60 486.15 L 201.05 487.55 L 198.29 488.80 L 194.77 490.17 L 185.51 493.35 L 183.53 494.27 L 182.33 495.10 L 181.66 495.83 L 181.41 496.62 L 181.68 497.36 L 182.66 498.18 L 183.96 498.76 L 186.11 499.34 L 189.45 499.89 L 194.85 500.31 L 202.94 500.42 L 218.88 500.13 L 231.51 499.82 L 239.79 499.57 L 240.93 499.30 L 241.85 498.66 L 242.46 497.72 L 242.69 496.57 L 242.68 489.05 Z" fill="#192684" fill-rule="nonzero" group-id="1,5,11" id="Path_493" node-id="78" stroke="none" target-height="24.61441" target-width="61.28409" target-x="181.40591" target-y="475.8016"></path><path d="M 236.13 483.82 L 232.74 481.63 L 232.40 481.53 L 232.06 481.63 L 231.82 481.90 L 231.77 482.25 L 233.93 499.47 L 234.14 499.86 L 234.56 500.02 L 236.51 500.02 L 236.97 499.83 L 237.15 499.36 L 236.42 484.32 L 236.13 483.82 L 236.13 483.82 Z" fill="#142160" fill-rule="nonzero" group-id="1,5,11" id="Path_494" node-id="79" stroke="none" target-height="18.488953" target-width="5.380005" target-x="231.767" target-y="481.53305"></path><path d="M 292.79 354.62 L 284.06 380.37 L 283.57 381.43 L 282.88 382.34 L 282.01 383.09 L 280.99 383.65 L 279.87 383.98 L 278.73 384.07 L 277.59 383.92 L 276.50 383.52 L 261.63 376.28 L 260.46 375.50 L 259.58 374.55 L 258.95 373.39 L 258.61 372.11 L 258.59 370.81 L 258.91 369.45 L 269.36 341.69 L 269.93 340.58 L 270.73 339.64 L 271.71 338.90 L 272.86 338.40 L 274.09 338.17 L 275.32 338.22 L 276.51 338.55 L 277.61 339.15 L 290.76 348.40 L 292.03 349.65 L 292.81 351.18 L 293.08 352.87 L 292.79 354.62 L 292.79 354.62 Z" fill="#fac896" fill-rule="nonzero" group-id="1,5,11" id="Path_495" node-id="80" stroke="none" target-height="45.90277" target-width="34.488068" target-x="258.59225" target-y="338.16852"></path><path d="M 290.36 361.48 L 292.11 356.13 L 292.29 354.90 L 292.10 353.76 L 291.59 352.82 L 290.91 352.36 L 279.67 349.80 L 279.24 349.97 L 279.13 350.47 L 279.31 351.16 L 280.07 352.35 L 288.92 362.05 L 289.32 362.30 L 289.72 362.27 L 290.07 362.01 L 290.36 361.48 Z" fill="#f39c55" fill-rule="nonzero" group-id="1,5,11" id="Path_496" node-id="81" stroke="none" target-height="12.502991" target-width="13.160645" target-x="279.12567" target-y="349.798"></path><path d="M 278.59 314.12 L 279.75 312.88 L 281.04 311.71 L 282.98 310.22 L 285.21 308.88 L 287.91 307.72 L 289.83 307.20 L 291.90 306.94 L 294.16 306.96 L 296.37 307.33 L 298.75 308.16 L 301.35 309.52 L 304.30 311.70 L 306.41 313.80 L 307.83 315.83 L 308.87 318.08 L 309.42 320.21 L 309.55 322.24 L 309.13 325.23 L 308.16 327.82 L 306.77 330.07 L 305.34 331.61 L 304.60 331.94 L 303.54 331.95 L 301.97 331.51 L 299.60 330.40 L 296.63 328.61 L 293.62 326.53 L 290.46 324.16 L 284.64 319.42 L 280.29 315.66 L 278.59 314.12 Z" fill="#f97700" fill-rule="nonzero" group-id="1,5,11" id="Path_497" node-id="82" stroke="none" target-height="25.016144" target-width="30.960236" target-x="278.587" target-y="306.93646"></path><path d="M 290.70 355.98 L 292.82 356.06 L 294.98 356.00 L 297.89 355.70 L 300.88 355.08 L 303.94 353.99 L 305.86 352.98 L 307.55 351.67 L 309.04 350.05 L 310.16 348.18 L 310.91 345.86 L 311.23 342.97 L 311.04 340.05 L 310.21 336.40 L 308.57 331.85 L 306.44 327.49 L 304.31 324.08 L 302.20 321.47 L 299.76 319.17 L 297.39 317.49 L 295.06 316.36 L 292.58 315.61 L 290.17 315.24 L 287.83 315.25 L 284.37 315.79 L 281.21 316.85 L 278.28 318.30 L 275.88 319.89 L 273.83 321.65 L 272.55 323.11 L 271.81 324.38 L 271.15 326.18 L 270.58 328.64 L 270.21 332.46 L 270.42 336.87 L 270.93 339.84 L 271.80 342.75 L 273.05 345.63 L 274.70 348.27 L 276.82 350.63 L 279.48 352.73 L 281.66 353.94 L 284.21 354.91 L 287.20 355.60 L 290.70 355.98 Z" fill="#fac896" fill-rule="nonzero" group-id="1,5,11" id="Path_498" node-id="83" stroke="none" target-height="40.81427" target-width="41.019318" target-x="270.2148" target-y="315.2443"></path><path d="M 290.09 317.72 L 291.92 316.88 L 293.86 316.58 L 295.81 316.81 L 297.67 317.57 L 298.49 318.18 L 299.13 318.98 L 299.58 320.14 L 299.87 321.80 L 299.82 323.60 L 299.27 325.65 L 298.63 326.95 L 297.63 328.29 L 296.22 329.68 L 293.75 331.36 L 291.09 332.61 L 288.34 333.56 L 285.75 334.28 L 281.30 335.56 L 280.67 335.56 L 280.28 335.14 L 280.10 334.02 L 280.34 332.01 L 281.22 329.07 L 282.60 326.06 L 284.59 322.90 L 286.19 320.94 L 288.02 319.22 L 290.09 317.72 Z" fill="#f39c55" fill-rule="nonzero" group-id="1,5,11" id="Path_499" node-id="84" stroke="none" target-height="18.982971" target-width="19.774078" target-x="280.0975" target-y="316.58112"></path><path d="M 227.68 423.33 L 222.17 421.39 L 218.64 420.48 L 214.04 419.72 L 209.04 419.39 L 202.74 419.62 L 198.44 420.12 L 193.47 421.03 L 187.77 422.42 L 189.85 423.43 L 195.15 426.24 L 202.24 430.49 L 206.00 433.04 L 209.71 435.85 L 213.93 438.91 L 218.34 441.66 L 222.96 444.09 L 223.93 437.03 L 225.51 430.12 L 227.68 423.33 Z" fill="#b01f1a" fill-rule="nonzero" group-id="1,5,11" id="Path_500" node-id="85" stroke="none" target-height="24.692566" target-width="39.914" target-x="187.768" target-y="419.39444"></path><path d="M 234.82 484.81 L 234.50 499.00 L 234.64 499.89 L 235.07 500.63 L 235.72 501.19 L 236.56 501.49 L 243.50 502.62 L 253.88 504.13 L 266.23 505.65 L 279.09 506.79 L 285.36 507.10 L 290.99 507.16 L 296.32 506.92 L 300.46 506.38 L 307.12 504.86 L 313.61 502.82 L 317.82 501.14 L 321.67 499.23 L 325.20 497.10 L 328.46 494.62 L 331.14 491.92 L 333.32 488.98 L 334.59 486.58 L 335.47 484.02 L 335.97 481.25 L 336.08 478.25 L 335.19 476.95 L 333.58 475.79 L 330.96 474.77 L 328.19 474.13 L 324.72 473.63 L 320.43 473.32 L 313.84 473.23 L 306.13 473.47 L 298.19 474.00 L 289.76 474.76 L 272.97 476.75 L 257.44 478.99 L 244.84 481.03 L 236.84 482.43 L 236.04 482.73 L 235.41 483.26 L 234.98 483.97 L 234.82 484.81 L 234.82 484.81 Z" fill="#129f72" fill-rule="nonzero" group-id="1,5,11" id="Path_501" node-id="86" stroke="none" target-height="33.93396" target-width="101.57399" target-x="234.502" target-y="473.22577"></path><path d="M 245.09 475.46 L 244.74 475.73 L 244.90 476.15 L 250.09 479.06 L 255.45 481.56 L 260.98 483.65 L 266.66 485.32 L 272.44 486.56 L 278.33 487.37 L 286.04 487.99 L 293.33 488.36 L 300.40 488.50 L 306.58 488.40 L 312.39 488.05 L 316.83 487.50 L 319.64 486.92 L 321.55 486.29 L 322.78 485.65 L 322.96 485.30 L 322.51 484.87 L 320.49 484.17 L 316.95 483.41 L 311.31 482.48 L 297.61 480.70 L 281.77 478.97 L 266.16 477.44 L 253.14 476.22 L 245.09 475.46 Z" fill="#037a4a" fill-rule="nonzero" group-id="1,5,11" id="Path_502" node-id="87" stroke="none" target-height="13.039185" target-width="78.221954" target-x="244.74228" target-y="475.462"></path><path d="M 309.71 453.44 L 286.77 442.23 L 271.63 434.76 L 267.94 432.63 L 266.19 431.27 L 265.57 430.44 L 264.91 429.78 L 262.72 428.66 L 256.34 426.35 L 248.13 423.87 L 239.79 421.57 L 233.00 419.80 L 231.37 419.70 L 229.88 420.17 L 228.65 421.13 L 227.81 422.52 L 226.66 425.81 L 225.28 430.38 L 224.08 435.32 L 223.12 440.95 L 222.73 444.79 L 222.63 448.69 L 222.81 452.66 L 223.37 456.57 L 224.37 460.32 L 225.82 463.95 L 227.23 466.50 L 228.98 468.89 L 231.09 471.15 L 233.62 473.27 L 236.30 475.03 L 239.49 476.59 L 243.25 477.94 L 247.66 479.06 L 260.41 481.30 L 273.04 483.02 L 285.53 484.28 L 297.00 485.05 L 308.00 485.41 L 317.11 485.36 L 325.42 484.89 L 330.95 484.16 L 333.68 483.50 L 335.18 482.85 L 335.88 482.25 L 336.10 481.68 L 336.06 479.67 L 335.69 476.99 L 335.19 475.19 L 334.26 473.09 L 332.80 470.63 L 331.07 468.37 L 328.52 465.76 L 324.97 462.74 L 321.20 460.02 L 316.19 456.94 L 309.71 453.44 Z" fill="#129f72" fill-rule="nonzero" group-id="1,5,11" id="Path_503" node-id="88" stroke="none" target-height="65.71301" target-width="113.47217" target-x="222.62784" target-y="419.6959"></path><path d="M 372.02 352.13 L 371.21 350.01 L 370.53 348.88 L 369.73 347.99 L 368.78 347.50 L 367.70 347.60 L 367.20 348.14 L 367.17 349.27 L 367.72 352.81 L 367.83 355.14 L 367.49 358.12 L 366.98 360.12 L 366.05 362.43 L 364.61 365.09 L 363.84 366.02 L 363.24 366.39 L 362.74 366.41 L 361.99 366.06 L 361.40 365.43 L 360.89 364.55 L 360.73 362.80 L 360.75 361.04 L 360.55 359.56 L 359.85 357.92 L 358.82 356.45 L 357.75 355.51 L 356.99 355.19 L 356.40 355.29 L 355.88 355.79 L 355.48 356.98 L 355.42 358.33 L 355.58 361.47 L 355.43 363.24 L 354.84 365.36 L 354.54 367.99 L 354.29 370.76 L 354.12 372.10 L 348.82 375.49 L 343.81 378.34 L 339.07 380.69 L 331.92 383.70 L 325.67 385.81 L 319.65 387.40 L 314.81 388.36 L 310.37 388.98 L 307.41 389.23 L 306.26 389.53 L 305.33 390.26 L 304.74 391.29 L 304.61 392.46 L 305.03 397.60 L 305.56 403.90 L 306.11 410.26 L 306.60 415.58 L 307.02 416.84 L 307.94 417.80 L 309.18 418.27 L 310.50 418.15 L 317.52 415.72 L 323.98 413.14 L 329.90 410.41 L 335.33 407.55 L 342.40 403.24 L 348.55 398.85 L 353.85 394.37 L 358.78 389.46 L 362.84 384.63 L 366.11 379.88 L 368.89 374.81 L 370.88 369.99 L 372.16 365.37 L 372.71 361.78 L 372.86 358.40 L 372.62 355.19 L 372.02 352.13 Z" fill="#fac896" fill-rule="nonzero" group-id="1,5,11" id="Path_504" node-id="89" stroke="none" target-height="70.76929" target-width="68.24902" target-x="304.608" target-y="347.49872"></path><path d="M 233.37 421.60 L 231.14 422.11 L 229.17 423.16 L 227.54 424.70 L 226.36 426.66 L 225.49 428.79 L 224.71 431.18 L 224.16 433.61 L 223.96 435.90 L 224.26 436.66 L 225.18 437.42 L 227.12 438.17 L 230.41 438.87 L 235.09 439.44 L 240.09 439.79 L 245.66 440.01 L 256.64 440.16 L 265.82 440.18 L 270.99 440.38 L 271.57 440.25 L 271.67 439.77 L 271.09 438.50 L 269.52 436.47 L 266.50 433.50 L 262.86 430.61 L 258.09 427.55 L 254.66 425.76 L 250.89 424.19 L 246.76 422.86 L 242.53 421.95 L 238.08 421.52 L 233.37 421.60 Z" fill="#037a4a" fill-rule="nonzero" group-id="1,5,11" id="Path_505" node-id="90" stroke="none" target-height="18.856018" target-width="47.70851" target-x="223.963" target-y="421.52197"></path><path d="M 318.74 417.62 L 319.30 416.53 L 319.79 414.07 L 320.03 411.22 L 320.14 407.58 L 320.05 399.86 L 319.76 392.61 L 319.53 387.52 L 319.41 387.04 L 319.13 386.65 L 318.73 386.39 L 318.24 386.31 L 314.43 386.16 L 310.70 385.59 L 307.02 384.61 L 304.59 383.61 L 301.54 382.02 L 295.34 378.22 L 289.91 374.52 L 289.85 374.47 L 286.52 372.07 L 286.46 372.02 L 286.46 372.03 L 283.59 370.56 L 280.68 369.49 L 277.72 368.78 L 274.69 368.45 L 270.59 368.48 L 266.45 368.99 L 262.25 369.99 L 258.13 371.36 L 254.10 373.02 L 250.15 374.98 L 244.48 378.29 L 239.37 381.76 L 234.66 385.41 L 230.91 388.66 L 227.67 391.84 L 225.76 394.02 L 223.84 396.09 L 220.74 398.81 L 217.21 401.56 L 212.99 404.61 L 203.99 410.66 L 195.19 416.23 L 188.05 420.57 L 187.54 421.17 L 187.51 421.96 L 187.97 422.60 L 188.73 422.82 L 197.42 422.74 L 202.65 422.99 L 208.51 423.56 L 214.44 424.52 L 220.44 425.96 L 224.36 427.23 L 228.08 428.77 L 231.63 430.60 L 236.62 433.12 L 242.32 435.34 L 248.27 437.18 L 254.37 438.70 L 260.48 439.95 L 266.15 440.89 L 276.03 442.10 L 282.35 442.53 L 282.84 442.43 L 283.24 442.13 L 283.48 441.70 L 283.52 441.20 L 283.56 439.20 L 284.02 436.75 L 285.01 433.75 L 286.88 429.23 L 289.33 423.94 L 289.74 423.46 L 290.33 423.24 L 295.35 422.72 L 300.27 422.02 L 309.24 420.32 L 315.85 418.68 L 318.12 417.94 L 318.74 417.62 Z" fill="#e62822" fill-rule="nonzero" group-id="1,5,11" id="Path_506" node-id="91" stroke="none" target-height="74.08444" target-width="132.63177" target-x="187.50937" target-y="368.44858"></path><path d="M 296.03 337.23 L 295.94 337.68 L 295.69 338.04 L 295.33 338.28 L 294.89 338.37 L 294.44 338.28 L 294.08 338.04 L 293.84 337.68 L 293.75 337.23 L 293.84 336.79 L 294.08 336.43 L 294.44 336.18 L 294.89 336.09 L 295.33 336.18 L 295.69 336.43 L 295.94 336.79 L 296.03 337.23 Z" fill="#231f20" fill-rule="nonzero" group-id="1,5,11" id="Ellipse_17" node-id="92" stroke="none" target-height="2.2799988" target-width="2.2799683" target-x="293.747" target-y="336.094"></path><path d="M 305.83 333.14 L 305.74 333.58 L 305.50 333.94 L 305.14 334.19 L 304.69 334.28 L 304.24 334.19 L 303.88 333.94 L 303.64 333.58 L 303.55 333.14 L 303.64 332.69 L 303.88 332.33 L 304.24 332.09 L 304.69 332.00 L 305.14 332.09 L 305.50 332.33 L 305.74 332.69 L 305.83 333.14 Z" fill="#231f20" fill-rule="nonzero" group-id="1,5,11" id="Ellipse_18" node-id="93" stroke="none" target-height="2.2799988" target-width="2.2799683" target-x="303.549" target-y="331.997"></path><path d="M 290.29 335.63 L 290.02 335.44 L 290.09 335.12 L 290.88 334.47 L 292.58 333.40 L 293.57 333.02 L 294.48 332.93 L 294.68 333.03 L 294.75 333.25 L 294.65 333.45 L 294.43 333.52 L 293.43 333.70 L 292.24 334.28 L 290.49 335.56 L 290.29 335.63 Z" fill="#231f20" fill-rule="nonzero" group-id="1,5,11,18" id="Path_507" node-id="95" stroke="none" target-height="2.7080078" target-width="4.7339478" target-x="290.01807" target-y="332.926"></path><path d="M 299.91 330.38 L 299.72 330.31 L 299.63 330.11 L 299.70 329.90 L 300.39 329.23 L 301.89 328.06 L 302.79 327.61 L 303.63 327.43 L 303.89 327.56 L 303.90 327.85 L 303.64 327.99 L 302.72 328.25 L 301.65 328.91 L 300.12 330.29 L 299.91 330.38 L 299.91 330.38 Z" fill="#231f20" fill-rule="nonzero" group-id="1,5,11,19" id="Path_508" node-id="97" stroke="none" target-height="2.947998" target-width="4.2678833" target-x="299.6298" target-y="327.431"></path><path d="M 302.90 342.12 L 302.65 341.87 L 302.90 341.62 L 303.79 341.20 L 304.23 340.74 L 304.43 340.19 L 304.23 339.72 L 303.34 338.62 L 300.95 336.28 L 300.87 336.11 L 300.93 335.93 L 301.28 335.91 L 302.63 337.16 L 304.21 338.86 L 304.78 339.70 L 304.93 340.23 L 304.67 340.93 L 304.21 341.49 L 303.62 341.90 L 302.90 342.12 Z" fill="#f97700" fill-rule="nonzero" group-id="1,5,11,20" id="Path_509" node-id="99" stroke="none" target-height="6.2109985" target-width="4.067566" target-x="300.86545" target-y="335.906"></path><path d="M 301.77 346.95 L 302.84 346.63 L 305.08 345.72 L 306.21 345.04 L 307.04 344.28 L 307.13 345.13 L 307.00 345.98 L 306.65 346.90 L 306.04 347.63 L 305.05 348.02 L 303.82 347.91 L 301.77 346.95 Z" fill="#edf2f9" fill-rule="nonzero" group-id="1,5,11" id="Path_510" node-id="100" stroke="none" target-height="3.7385254" target-width="5.3522034" target-x="301.775" target-y="344.283"></path><path d="M 292.13 341.90 L 291.84 342.60 L 291.13 342.90 L 290.42 342.60 L 290.13 341.90 L 290.42 341.19 L 291.13 340.90 L 291.84 341.19 L 292.13 341.90 Z" fill="#f97700" fill-rule="nonzero" group-id="1,5,11" id="Ellipse_19" node-id="101" stroke="none" target-height="2" target-width="2" target-x="290.13" target-y="340.896"></path><path d="M 295.44 341.49 L 295.15 342.20 L 294.44 342.49 L 293.74 342.20 L 293.44 341.49 L 293.74 340.78 L 294.44 340.49 L 295.15 340.78 L 295.44 341.49 Z" fill="#f97700" fill-rule="nonzero" group-id="1,5,11" id="Ellipse_20" node-id="102" stroke="none" target-height="2" target-width="2" target-x="293.444" target-y="340.488"></path><path d="M 294.34 343.49 L 294.05 344.19 L 293.34 344.49 L 292.63 344.19 L 292.34 343.49 L 292.63 342.78 L 293.34 342.49 L 294.05 342.78 L 294.34 343.49 Z" fill="#f97700" fill-rule="nonzero" group-id="1,5,11" id="Ellipse_21" node-id="103" stroke="none" target-height="2" target-width="2" target-x="292.34" target-y="342.485"></path><path d="M 307.34 336.62 L 307.05 337.33 L 306.34 337.62 L 305.63 337.33 L 305.34 336.62 L 305.63 335.91 L 306.34 335.62 L 307.05 335.91 L 307.34 336.62 Z" fill="#f97700" fill-rule="nonzero" group-id="1,5,11" id="Ellipse_22" node-id="104" stroke="none" target-height="2" target-width="2" target-x="305.34" target-y="335.62"></path><path d="M 309.58 334.78 L 309.29 335.49 L 308.58 335.78 L 307.88 335.49 L 307.58 334.78 L 307.88 334.08 L 308.58 333.78 L 309.29 334.08 L 309.58 334.78 Z" fill="#f97700" fill-rule="nonzero" group-id="1,5,11" id="Ellipse_23" node-id="105" stroke="none" target-height="2" target-width="2" target-x="307.583" target-y="333.784"></path><path d="M 309.70 336.76 L 309.41 337.47 L 308.70 337.76 L 307.99 337.47 L 307.70 336.76 L 307.99 336.05 L 308.70 335.76 L 309.41 336.05 L 309.70 336.76 Z" fill="#f97700" fill-rule="nonzero" group-id="1,5,11" id="Ellipse_24" node-id="106" stroke="none" target-height="2" target-width="2" target-x="307.699" target-y="335.761"></path><path d="M 280.39 344.48 L 281.62 343.89 L 281.07 342.80 L 280.73 341.65 L 280.64 340.08 L 280.81 339.02 L 281.31 337.87 L 282.19 336.58 L 283.31 335.49 L 285.04 334.35 L 287.57 333.14 L 290.09 331.88 L 292.21 330.36 L 293.96 328.58 L 295.41 326.54 L 296.48 324.42 L 297.18 322.20 L 297.52 319.90 L 297.47 317.69 L 297.04 315.54 L 296.22 313.53 L 295.00 311.75 L 293.34 310.17 L 291.55 309.05 L 289.61 308.19 L 287.48 307.60 L 284.18 307.15 L 280.79 307.14 L 277.45 307.48 L 274.42 308.07 L 270.72 309.18 L 267.27 310.78 L 264.05 312.90 L 262.44 314.44 L 261.14 316.10 L 258.91 319.68 L 257.75 321.45 L 256.40 323.16 L 254.43 324.88 L 252.12 326.18 L 249.63 327.14 L 247.05 327.89 L 240.28 329.50 L 233.53 330.89 L 220.14 333.73 L 213.58 335.50 L 207.15 337.74 L 203.00 339.55 L 198.91 341.72 L 194.87 344.28 L 191.67 346.05 L 188.30 347.36 L 181.28 349.27 L 177.76 350.20 L 174.35 351.32 L 171.09 352.79 L 168.03 354.79 L 165.40 357.39 L 163.19 360.32 L 161.44 363.54 L 160.16 367.01 L 159.06 370.78 L 158.19 374.80 L 157.71 378.88 L 157.76 382.92 L 158.15 385.57 L 158.89 388.11 L 159.99 390.57 L 161.69 393.06 L 163.71 395.14 L 166.07 396.85 L 168.67 398.23 L 171.41 399.30 L 174.29 400.07 L 178.22 400.74 L 182.20 401.09 L 186.23 401.13 L 192.27 400.75 L 198.20 400.00 L 204.16 399.26 L 208.62 398.96 L 215.82 398.96 L 221.19 398.99 L 223.60 398.71 L 226.14 398.04 L 228.73 396.97 L 232.05 395.12 L 235.58 392.76 L 240.33 389.20 L 242.24 388.07 L 244.96 386.91 L 251.69 384.03 L 255.53 381.92 L 260.04 378.79 L 262.94 376.38 L 266.10 373.29 L 269.55 369.42 L 272.71 365.35 L 276.10 360.30 L 279.74 354.14 L 279.51 353.63 L 278.39 353.07 L 275.09 351.79 L 273.33 350.72 L 271.74 349.11 L 270.96 347.82 L 270.44 346.11 L 270.20 343.89 L 270.37 342.10 L 270.73 340.94 L 271.23 340.21 L 272.33 339.55 L 273.70 339.49 L 275.15 339.89 L 276.67 340.66 L 278.08 341.65 L 279.22 342.68 L 280.09 343.76 L 280.39 344.48 Z" fill="#f97700" fill-rule="nonzero" group-id="1,5,11" id="Path_511" node-id="107" stroke="none" target-height="93.9859" target-width="139.80502" target-x="157.71469" target-y="307.1411"></path></g></g><g node-id="208"><path d="M 392.82 587.95 L 430.07 560.06 L 574.84 560.06 L 538.83 587.37 Z" fill="#f7a90d" fill-rule="nonzero" group-id="1,6" id="Path_512" node-id="109" stroke="none" target-height="27.890991" target-width="182.02301" target-x="392.818" target-y="560.057"></path><path d="M 383.14 743.50 L 559.26 743.50 L 560.56 743.29 L 561.67 742.75 L 562.63 741.84 L 599.90 693.59 L 600.49 692.54 L 600.76 691.41 L 600.72 690.24 L 600.35 689.11 L 599.67 688.11 L 598.78 687.37 L 597.71 686.89 L 596.53 686.72 L 395.85 686.72 L 394.45 686.96 L 393.25 687.61 L 392.31 688.61 L 391.73 689.90 L 379.02 738.15 L 378.89 739.47 L 379.13 740.68 L 379.76 741.84 L 380.72 742.74 L 381.83 743.29 L 383.14 743.50 L 383.14 743.50 Z" fill="#97bff7" fill-rule="nonzero" group-id="1,6" id="Path_513" node-id="110" stroke="none" target-height="56.772034" target-width="221.87564" target-x="378.88712" target-y="686.724"></path><path d="M 430.07 560.06 L 439.77 529.57 L 440.39 528.35 L 441.32 527.42 L 442.49 526.82 L 443.83 526.60 L 578.33 526.60 L 579.64 526.81 L 580.75 527.36 L 581.71 528.27 L 582.34 529.44 L 582.58 530.65 L 582.44 531.97 L 574.84 560.06 L 430.07 560.06 Z" fill="#fdbd28" fill-rule="nonzero" group-id="1,6" id="Path_514" node-id="111" stroke="none" target-height="33.454956" target-width="152.5036" target-x="430.073" target-y="526.60205"></path><path d="M 446.03 600.82 L 450.36 594.83 L 456.83 584.96 L 460.34 579.05 L 463.92 572.43 L 467.21 565.57 L 470.07 558.50 L 471.69 553.68 L 472.91 548.98 L 473.77 544.40 L 473.90 544.00 L 474.18 543.69 L 474.56 543.51 L 474.97 543.49 L 480.30 544.08 L 488.59 544.62 L 493.30 544.74 L 498.16 544.69 L 502.96 544.43 L 507.28 543.92 L 511.30 543.04 L 514.26 541.88 L 514.79 541.75 L 515.32 541.90 L 515.70 542.30 L 515.83 542.83 L 515.44 550.81 L 514.30 563.09 L 513.36 570.14 L 512.09 577.74 L 510.49 585.36 L 508.50 592.82 L 506.91 597.71 L 505.14 602.23 L 503.21 606.40 L 500.94 610.38 L 498.50 613.73 L 495.89 616.52 L 495.40 616.77 L 494.85 616.75 L 490.09 615.32 L 481.85 612.87 L 471.76 609.89 L 461.43 606.84 L 452.49 604.22 L 446.58 602.48 L 446.14 602.22 L 445.86 601.79 L 445.83 601.29 L 446.03 600.82 L 446.03 600.82 Z" fill="#8dbffc" fill-rule="nonzero" group-id="1,6" id="Path_515" node-id="112" stroke="none" target-height="75.02307" target-width="70.00165" target-x="445.82538" target-y="541.75006"></path><path d="M 393.17 587.95 L 373.28 575.57 L 372.46 574.90 L 371.84 574.07 L 371.43 573.11 L 371.27 572.07 L 371.38 571.01 L 371.73 570.04 L 372.30 569.17 L 373.09 568.46 L 404.27 546.68 L 405.43 546.11 L 406.66 545.91 L 407.90 546.08 L 409.07 546.63 L 430.07 560.64 L 393.17 587.95 Z" fill="#fdbd28" fill-rule="nonzero" group-id="1,6" id="Path_516" node-id="113" stroke="none" target-height="42.035522" target-width="58.79724" target-x="371.27374" target-y="545.9125"></path><path d="M 425.68 579.43 L 425.17 575.09 L 424.75 568.26 L 424.76 564.36 L 425.01 560.27 L 425.56 556.23 L 426.48 552.47 L 426.91 551.90 L 427.59 551.74 L 433.05 552.32 L 441.51 553.08 L 446.15 553.31 L 450.56 553.35 L 454.74 553.09 L 457.82 552.51 L 458.36 552.50 L 458.84 552.77 L 459.12 553.24 L 459.13 553.79 L 457.87 559.14 L 456.50 566.01 L 455.56 572.66 L 455.44 575.54 L 455.62 577.34 L 455.53 578.13 L 454.92 578.83 L 453.51 579.49 L 450.97 580.10 L 447.34 580.52 L 443.47 580.72 L 439.32 580.77 L 431.69 580.59 L 426.66 580.33 L 426.01 580.05 L 425.68 579.43 L 425.68 579.43 Z" fill="#f97700" fill-rule="nonzero" group-id="1,6" id="Path_517" node-id="114" stroke="none" target-height="29.039734" target-width="34.372498" target-x="424.7535" target-y="551.73505"></path><path d="M 452.62 553.77 L 445.99 554.99 L 436.12 556.80 L 424.97 558.85 L 424.67 565.80 L 424.90 572.72 L 425.65 579.63 L 426.00 580.30 L 426.69 580.59 L 430.97 580.83 L 437.49 581.04 L 444.83 581.00 L 448.44 580.82 L 451.56 580.50 L 451.95 572.00 L 452.76 563.54 L 453.99 555.11 L 453.95 554.56 L 453.66 554.08 L 453.18 553.80 L 452.62 553.77 Z" fill="#ff5a25" fill-rule="nonzero" group-id="1,6" id="Path_518" node-id="115" stroke="none" target-height="27.269775" target-width="29.31778" target-x="424.67422" target-y="553.768"></path><path d="M 505.04 602.22 L 506.61 598.70 L 509.79 590.00 L 511.52 584.46 L 513.22 578.13 L 514.62 571.64 L 515.56 565.14 L 515.93 564.43 L 516.68 564.19 L 521.65 564.41 L 528.99 564.61 L 536.71 564.77 L 542.82 564.88 L 545.34 564.92 L 558.28 565.31 L 558.74 565.43 L 559.10 565.74 L 559.29 566.17 L 559.27 566.65 L 558.11 570.22 L 555.31 577.24 L 550.15 588.82 L 541.94 606.08 L 541.85 606.75 L 542.18 608.36 L 542.15 608.88 L 541.88 609.33 L 541.42 609.59 L 540.89 609.60 L 534.59 608.16 L 525.66 606.16 L 516.37 604.09 L 509.00 602.45 L 505.83 601.74 L 505.43 601.98 L 505.04 602.22 Z" fill="#ff5a25" fill-rule="nonzero" group-id="1,6" id="Path_519" node-id="116" stroke="none" target-height="45.414978" target-width="54.244507" target-x="505.042" target-y="564.18805"></path><path d="M 514.23 565.37 L 504.88 565.39 L 496.15 565.40 L 490.07 565.37 L 489.57 565.47 L 489.17 565.77 L 488.93 566.23 L 488.92 566.73 L 489.16 569.84 L 488.82 574.02 L 488.05 578.40 L 486.97 583.05 L 484.47 591.66 L 482.44 597.68 L 482.38 598.23 L 482.58 598.74 L 482.99 599.10 L 483.52 599.23 L 489.18 599.32 L 497.30 599.42 L 506.18 599.50 L 508.07 594.14 L 509.74 588.45 L 511.17 582.65 L 512.38 576.81 L 513.40 570.97 L 514.23 565.37 Z" fill="#69b6f4" fill-rule="nonzero" group-id="1,6" id="Path_520" node-id="117" stroke="none" target-height="34.128296" target-width="31.85083" target-x="482.3802" target-y="565.36774"></path><path d="M 485.22 598.30 L 487.08 592.80 L 489.36 584.94 L 490.35 580.69 L 491.05 576.69 L 491.36 572.87 L 491.14 570.03 L 491.16 569.57 L 491.37 569.16 L 491.74 568.88 L 492.19 568.79 L 497.33 568.81 L 504.72 568.81 L 512.79 568.79 L 520.00 568.76 L 524.79 568.74 L 525.21 568.82 L 525.55 569.06 L 525.78 569.41 L 525.86 569.82 L 525.63 575.28 L 524.84 583.48 L 524.13 587.97 L 523.14 592.32 L 521.81 596.43 L 520.20 599.70 L 519.86 599.79 L 517.37 599.92 L 510.24 599.97 L 501.13 599.92 L 492.35 599.81 L 486.21 599.72 L 485.72 599.60 L 485.35 599.26 L 485.17 598.80 L 485.22 598.30 L 485.22 598.30 Z" fill="#4174f2" fill-rule="nonzero" group-id="1,6" id="Path_521" node-id="118" stroke="none" target-height="31.229187" target-width="40.690308" target-x="485.16968" target-y="568.742"></path><path d="M 528.18 595.35 L 528.20 591.50 L 527.59 582.26 L 526.94 576.49 L 525.95 570.01 L 524.60 563.51 L 522.85 557.18 L 522.90 556.39 L 523.49 555.86 L 528.12 554.06 L 534.92 551.28 L 542.05 548.31 L 547.69 545.95 L 550.00 544.97 L 562.00 540.10 L 562.47 540.03 L 562.92 540.16 L 563.27 540.48 L 563.45 540.93 L 563.82 544.66 L 564.10 552.21 L 564.06 564.89 L 563.50 583.99 L 563.70 584.65 L 564.64 585.99 L 564.83 586.48 L 564.76 587.00 L 564.45 587.43 L 563.97 587.65 L 557.62 588.87 L 548.64 590.64 L 539.31 592.50 L 531.91 593.97 L 528.72 594.60 L 528.44 594.98 L 528.18 595.35 Z" fill="#f97700" fill-rule="nonzero" group-id="1,6" id="Path_522" node-id="119" stroke="none" target-height="55.32312" target-width="41.983154" target-x="522.847" target-y="540.0259"></path><path d="M 402.84 597.27 L 402.43 592.62 L 402.03 585.65 L 402.01 577.77 L 402.25 573.87 L 402.71 570.44 L 403.48 567.30 L 404.47 565.09 L 404.78 564.79 L 405.19 564.63 L 409.41 563.90 L 416.86 562.55 L 426.07 560.87 L 435.54 559.14 L 443.80 557.62 L 449.36 556.59 L 449.86 556.62 L 450.30 556.88 L 450.56 557.31 L 450.60 557.81 L 449.73 563.52 L 448.81 572.00 L 448.50 576.75 L 448.39 581.64 L 448.56 586.47 L 449.06 590.84 L 449.05 591.27 L 448.87 591.66 L 448.55 591.95 L 448.14 592.08 L 441.72 592.93 L 431.68 594.31 L 420.44 595.89 L 410.43 597.30 L 404.04 598.21 L 403.62 598.18 L 403.24 597.99 L 402.97 597.67 L 402.84 597.27 L 402.84 597.27 Z" fill="#129f72" fill-rule="nonzero" group-id="1,6" id="Path_523" node-id="120" stroke="none" target-height="41.614014" target-width="48.588104" target-x="402.0099" target-y="556.593"></path><path d="M 449.91 590.34 L 449.35 585.51 L 449.16 580.18 L 449.27 574.78 L 449.60 569.52 L 450.61 560.07 L 445.60 560.87 L 441.25 562.01 L 437.20 563.44 L 433.96 564.87 L 431.09 566.40 L 429.19 567.57 L 427.69 568.67 L 427.35 569.02 L 426.64 571.14 L 426.14 574.18 L 425.93 577.46 L 425.90 581.16 L 426.26 588.50 L 426.85 594.73 L 436.12 593.45 L 443.86 592.39 L 448.88 591.73 L 449.33 591.58 L 449.69 591.26 L 449.90 590.82 L 449.91 590.34 L 449.91 590.34 Z" fill="#037a4a" fill-rule="nonzero" group-id="1,6" id="Path_524" node-id="121" stroke="none" target-height="34.66797" target-width="24.706116" target-x="425.9029" target-y="560.06604"></path><path d="M 431.14 598.21 L 430.72 598.19 L 430.34 598.01 L 430.06 597.69 L 429.93 597.30 L 429.38 592.38 L 428.88 585.28 L 428.81 581.49 L 428.94 578.03 L 429.38 574.81 L 430.07 572.64 L 430.54 572.19 L 432.75 570.70 L 435.52 569.18 L 439.67 567.40 L 442.65 566.39 L 446.07 565.56 L 449.98 564.92 L 453.90 564.64 L 458.17 564.81 L 462.81 565.46 L 463.41 565.82 L 463.67 566.46 L 463.81 570.86 L 464.12 577.63 L 464.72 585.19 L 465.18 588.86 L 465.74 591.94 L 465.74 592.37 L 465.57 592.77 L 465.26 593.06 L 464.85 593.21 L 459.76 593.96 L 452.15 595.09 L 443.71 596.34 L 436.13 597.47 L 431.14 598.21 Z" fill="#c6ddff" fill-rule="nonzero" group-id="1,6" id="Path_525" node-id="122" stroke="none" target-height="33.56244" target-width="36.92621" target-x="428.81256" target-y="564.6446"></path><path d="M 527.78 582.12 L 528.78 582.65 L 531.30 583.53 L 532.89 583.77 L 534.65 583.71 L 536.37 583.22 L 538.12 582.12 L 541.56 579.11 L 546.79 574.46 L 552.73 569.16 L 558.30 564.16 L 562.43 560.46 L 564.04 559.00 L 564.06 560.95 L 564.00 565.85 L 563.66 572.35 L 563.39 573.46 L 562.73 574.85 L 561.53 576.59 L 559.38 579.06 L 556.49 581.85 L 553.29 584.54 L 549.78 587.16 L 546.15 589.57 L 542.66 591.57 L 539.20 593.18 L 536.38 594.10 L 534.53 594.38 L 533.17 594.25 L 532.17 593.81 L 531.43 593.21 L 530.91 592.96 L 530.45 592.69 L 529.98 592.13 L 529.59 591.25 L 529.04 589.22 L 527.78 582.12 Z" fill="#e56a05" fill-rule="nonzero" group-id="1,6" id="Path_526" node-id="123" stroke="none" target-height="35.37732" target-width="36.285706" target-x="527.778" target-y="559.00305"></path><path d="M 538.83 587.37 L 574.84 560.06 L 574.84 693.79 L 574.68 694.93 L 574.26 695.93 L 573.55 696.84 L 537.49 731.85 L 538.83 587.37 Z" fill="#f7a90d" fill-rule="nonzero" group-id="1,6" id="Path_527" node-id="124" stroke="none" target-height="171.79297" target-width="37.350037" target-x="537.49097" target-y="560.06006"></path><path d="M 538.83 587.37 L 567.33 608.27 L 568.72 608.94 L 570.20 609.08 L 571.63 608.70 L 572.89 607.80 L 597.04 583.00 L 597.75 582.02 L 598.14 580.94 L 598.23 579.72 L 597.97 578.53 L 597.42 577.52 L 596.57 576.65 L 574.84 560.06 L 538.83 587.37 Z" fill="#fdbd28" fill-rule="nonzero" group-id="1,6" id="Path_528" node-id="125" stroke="none" target-height="49.016052" target-width="59.404297" target-x="538.826" target-y="560.06104"></path><path d="M 393.17 587.37 L 538.83 587.37 L 538.83 728.76 L 538.50 730.39 L 537.58 731.78 L 536.20 732.70 L 534.57 733.02 L 397.43 733.02 L 396.27 732.86 L 395.28 732.45 L 394.42 731.78 L 393.75 730.91 L 393.33 729.92 L 393.17 728.76 L 393.17 587.37 Z" fill="#fdbd28" fill-rule="nonzero" group-id="1,6" id="Path_2216" node-id="126" stroke="none" target-height="145.65796" target-width="145.655" target-x="393.171" target-y="587.36505"></path><path d="M 393.17 587.37 L 377.04 604.89 L 376.34 605.92 L 375.97 607.07 L 375.94 608.28 L 376.27 609.48 L 376.93 610.54 L 377.84 611.34 L 378.94 611.85 L 380.17 612.03 L 521.12 612.03 L 522.19 611.89 L 523.18 611.49 L 524.04 610.86 L 524.73 610.02 L 538.83 587.37 L 393.17 587.37 Z" fill="#ffc248" fill-rule="nonzero" group-id="1,6" id="Path_529" node-id="127" stroke="none" target-height="24.66101" target-width="162.88574" target-x="375.94427" target-y="587.36804"></path></g><g node-id="209"><path d="M 695.02 385.53 L 693.09 385.27 L 691.37 384.54 L 689.91 383.41 L 688.78 381.95 L 688.05 380.24 L 687.79 378.30 L 688.05 376.36 L 688.78 374.65 L 689.91 373.18 L 691.37 372.05 L 693.09 371.33 L 695.03 371.06 L 696.96 371.33 L 698.68 372.05 L 700.14 373.18 L 701.27 374.65 L 702.00 376.36 L 702.26 378.30 L 702.00 380.24 L 701.27 381.95 L 700.14 383.41 L 698.68 384.54 L 696.96 385.27 L 695.02 385.53 Z M 695.02 373.33 L 693.68 373.52 L 692.52 374.01 L 691.51 374.79 L 690.73 375.79 L 690.25 376.95 L 690.06 378.30 L 690.25 379.65 L 690.73 380.80 L 691.52 381.81 L 692.52 382.59 L 693.68 383.07 L 695.03 383.26 L 696.37 383.07 L 697.53 382.59 L 698.54 381.81 L 699.32 380.80 L 699.80 379.65 L 699.99 378.30 L 699.80 376.95 L 699.32 375.80 L 698.54 374.79 L 697.53 374.01 L 696.37 373.52 L 695.02 373.33 L 695.02 373.33 Z M 736.04 325.56 L 736.04 320.55 L 735.95 320.11 L 735.71 319.75 L 735.35 319.51 L 734.90 319.42 L 734.46 319.51 L 734.10 319.75 L 733.86 320.11 L 733.77 320.55 L 733.77 325.56 L 733.86 326.00 L 734.10 326.36 L 734.46 326.60 L 734.90 326.69 L 735.35 326.60 L 735.71 326.36 L 735.95 326.00 L 736.04 325.56 Z M 736.04 334.32 L 736.04 329.31 L 735.95 328.86 L 735.71 328.51 L 735.35 328.27 L 734.90 328.18 L 734.46 328.27 L 734.10 328.51 L 733.86 328.86 L 733.77 329.31 L 733.77 334.32 L 733.86 334.76 L 734.10 335.12 L 734.46 335.36 L 734.90 335.45 L 735.35 335.36 L 735.71 335.12 L 735.95 334.76 L 736.04 334.32 Z M 743.06 327.43 L 742.97 326.99 L 742.73 326.63 L 742.37 326.39 L 741.93 326.30 L 737.43 326.30 L 736.86 326.45 L 736.45 326.87 L 736.29 327.43 L 736.45 328.00 L 736.86 328.42 L 737.43 328.57 L 741.93 328.57 L 742.36 328.48 L 742.73 328.24 L 742.98 327.87 L 743.06 327.43 L 743.06 327.43 Z M 733.51 327.43 L 733.42 326.99 L 733.18 326.63 L 732.82 326.39 L 732.37 326.30 L 727.87 326.30 L 727.31 326.45 L 726.89 326.87 L 726.74 327.43 L 726.89 328.00 L 727.31 328.42 L 727.87 328.57 L 732.37 328.57 L 732.81 328.48 L 733.18 328.24 L 733.42 327.87 L 733.51 327.43 L 733.51 327.43 Z" fill="#f3c04c" fill-rule="nonzero" group-id="1,7" id="Path_530" node-id="129" stroke="none" target-height="66.116974" target-width="55.27301" target-x="687.791" target-y="319.41602"></path><g node-id="214"><g node-id="223"><path d="M 214.30 172.67 L 212.78 172.58 L 211.37 172.22 L 210.06 171.58 L 208.89 170.70 L 207.92 169.62 L 207.15 168.31 L 206.66 166.86 L 206.48 165.42 L 206.58 163.97 L 206.96 162.55 L 207.61 161.25 L 208.54 160.05 L 209.70 159.06 L 210.97 158.35 L 212.36 157.90 L 213.81 157.73 L 215.26 157.85 L 216.72 158.27 L 218.07 158.98 L 219.20 159.89 L 220.13 161.02 L 220.83 162.30 L 221.26 163.69 L 221.42 165.21 L 221.20 167.16 L 220.51 168.91 L 219.40 170.41 L 217.95 171.58 L 216.25 172.35 L 214.30 172.67 L 214.30 172.67 Z M 214.30 160.08 L 212.77 160.24 L 211.39 160.83 L 210.24 161.78 L 209.39 163.08 L 208.97 164.56 L 209.00 166.06 L 209.46 167.48 L 210.35 168.74 L 211.57 169.69 L 212.97 170.21 L 214.46 170.32 L 215.96 169.96 L 217.29 169.18 L 218.30 168.08 L 218.95 166.73 L 219.19 165.21 L 219.02 163.84 L 218.56 162.67 L 217.80 161.63 L 216.81 160.82 L 215.65 160.31 L 214.30 160.08 L 214.30 160.08 Z" fill="#499d75" fill-rule="nonzero" group-id="1,7,12,21" id="Path_531" node-id="132" stroke="none" target-height="14.934097" target-width="14.94043" target-x="206.47757" target-y="157.7339"></path></g><path d="M 209.41 131.70 L 207.89 131.62 L 206.49 131.25 L 205.17 130.62 L 204.00 129.74 L 203.03 128.65 L 202.26 127.34 L 201.78 125.90 L 201.59 124.46 L 201.69 123.00 L 202.07 121.59 L 202.72 120.29 L 203.65 119.08 L 204.81 118.09 L 206.08 117.39 L 207.47 116.94 L 208.93 116.77 L 210.37 116.89 L 211.84 117.30 L 213.18 118.01 L 214.31 118.93 L 215.25 120.05 L 215.95 121.34 L 216.37 122.72 L 216.53 124.24 L 216.31 126.20 L 215.62 127.94 L 214.51 129.44 L 213.06 130.62 L 211.36 131.39 L 209.41 131.70 L 209.41 131.70 Z M 243.83 132.11 L 243.83 126.94 L 243.70 126.37 L 243.29 125.94 L 242.72 125.78 L 242.14 125.94 L 241.73 126.37 L 241.60 126.94 L 241.60 132.11 L 241.73 132.69 L 242.14 133.12 L 242.72 133.27 L 243.29 133.12 L 243.70 132.69 L 243.83 132.11 L 243.83 132.11 Z M 243.83 141.14 L 243.83 135.98 L 243.70 135.40 L 243.29 134.97 L 242.72 134.81 L 242.14 134.97 L 241.73 135.40 L 241.60 135.98 L 241.60 141.14 L 241.73 141.72 L 242.14 142.15 L 242.72 142.31 L 243.29 142.15 L 243.70 141.72 L 243.83 141.14 L 243.83 141.14 Z M 250.75 134.04 L 250.67 133.59 L 250.43 133.23 L 250.08 132.97 L 249.63 132.87 L 245.21 132.87 L 244.77 132.98 L 244.42 133.24 L 244.18 133.60 L 244.09 134.04 L 244.18 134.49 L 244.42 134.85 L 244.77 135.10 L 245.21 135.21 L 249.63 135.21 L 250.08 135.11 L 250.43 134.86 L 250.66 134.49 L 250.75 134.04 L 250.75 134.04 Z M 241.35 134.04 L 241.27 133.59 L 241.03 133.23 L 240.68 132.97 L 240.23 132.87 L 235.80 132.87 L 235.36 132.98 L 235.01 133.24 L 234.77 133.60 L 234.69 134.04 L 234.77 134.49 L 235.01 134.85 L 235.36 135.10 L 235.80 135.21 L 240.22 135.21 L 240.66 135.12 L 241.03 134.86 L 241.27 134.48 L 241.34 134.04 L 241.35 134.04 Z" fill="#2355f5" fill-rule="nonzero" group-id="1,7,12" id="Path_532" node-id="133" stroke="none" target-height="25.539421" target-width="49.15645" target-x="201.58955" target-y="116.767845"></path></g></g><g node-id="210"><path d="M 696.50 673.60 L 696.16 674.45 L 695.03 675.38 L 692.58 676.44 L 688.40 677.51 L 682.27 678.45 L 675.60 679.01 L 667.77 679.22 L 659.93 679.01 L 653.27 678.45 L 647.14 677.51 L 642.96 676.44 L 640.50 675.38 L 639.38 674.45 L 639.04 673.60 L 639.38 672.75 L 640.50 671.82 L 642.96 670.76 L 647.14 669.69 L 653.27 668.75 L 659.93 668.19 L 667.77 667.98 L 675.60 668.19 L 682.27 668.75 L 688.40 669.69 L 692.58 670.76 L 695.03 671.82 L 696.16 672.75 L 696.50 673.60 Z" fill="#97bff7" fill-rule="nonzero" group-id="1,8" id="Ellipse_25" node-id="135" stroke="none" target-height="11.237976" target-width="57.462036" target-x="639.037" target-y="667.982"></path><g node-id="215"><path d="M 667.34 493.17 L 665.84 490.61 L 662.47 484.16 L 660.63 480.09 L 658.92 475.64 L 657.59 471.11 L 656.88 466.89 L 656.82 464.11 L 657.23 461.75 L 658.04 459.72 L 658.97 458.43 L 660.24 457.38 L 661.92 456.54 L 664.11 455.96 L 664.99 455.94 L 665.85 456.12 L 667.01 456.71 L 668.07 457.70 L 669.21 459.56 L 670.03 461.92 L 670.64 465.73 L 670.77 470.13 L 670.33 476.51 L 669.31 483.60 L 667.34 493.17 Z M 682.29 480.99 L 679.89 480.44 L 677.95 480.56 L 676.32 481.24 L 674.91 482.39 L 673.67 483.96 L 672.60 486.03 L 671.43 489.43 L 670.60 493.32 L 670.08 497.31 L 669.81 501.07 L 669.71 507.21 L 669.79 509.72 L 676.01 502.29 L 679.87 496.90 L 681.98 493.35 L 683.32 490.62 L 684.06 488.55 L 684.53 486.39 L 684.63 484.83 L 684.47 483.73 L 683.86 482.28 L 683.18 481.52 L 682.29 480.99 L 682.29 480.99 Z M 694.02 502.69 L 691.73 501.31 L 689.69 500.67 L 687.80 500.63 L 685.94 501.10 L 684.13 502.01 L 682.34 503.42 L 679.98 506.06 L 677.73 509.42 L 675.76 513.09 L 674.02 516.96 L 672.50 520.87 L 671.28 524.40 L 669.59 530.07 L 669.02 532.33 L 677.49 526.85 L 683.45 522.46 L 688.47 518.13 L 691.61 514.81 L 693.96 511.57 L 695.11 509.21 L 695.64 506.99 L 695.59 505.46 L 695.18 504.14 L 694.69 503.35 L 694.02 502.69 Z M 699.85 526.27 L 697.53 524.52 L 695.39 523.59 L 693.36 523.33 L 691.29 523.62 L 689.24 524.39 L 687.15 525.71 L 684.31 528.28 L 681.50 531.65 L 678.97 535.39 L 676.65 539.37 L 674.57 543.42 L 672.87 547.08 L 670.41 553.02 L 669.53 555.39 L 679.30 550.44 L 686.23 546.39 L 690.43 543.56 L 693.59 541.14 L 695.89 539.09 L 698.01 536.83 L 699.43 534.97 L 700.30 533.44 L 701.12 531.11 L 701.24 529.45 L 700.94 527.98 L 700.50 527.06 L 699.85 526.27 Z M 668.51 516.03 L 667.84 513.62 L 665.92 507.79 L 664.54 504.30 L 662.86 500.66 L 660.90 497.21 L 658.78 494.33 L 657.14 492.69 L 655.49 491.58 L 653.80 490.92 L 652.05 490.77 L 650.17 491.26 L 648.04 492.53 L 647.35 493.31 L 646.93 494.24 L 646.78 495.81 L 646.95 496.92 L 647.51 498.37 L 648.61 500.27 L 649.93 502.02 L 652.02 504.20 L 655.09 506.93 L 660.37 510.87 L 668.51 516.03 L 668.51 516.03 Z M 670.63 543.46 L 669.73 541.31 L 667.26 535.94 L 665.56 532.63 L 663.50 528.99 L 661.22 525.41 L 658.76 522.07 L 656.06 519.07 L 653.34 516.82 L 651.37 515.68 L 649.46 515.04 L 647.55 514.85 L 645.69 515.17 L 643.75 516.10 L 641.68 517.81 L 641.11 518.56 L 640.74 519.41 L 640.52 520.78 L 640.69 522.30 L 641.53 524.42 L 643.00 526.58 L 645.79 529.45 L 649.36 532.26 L 654.94 535.81 L 661.46 539.28 L 670.63 543.46 Z M 667.97 569.46 L 667.18 567.06 L 664.94 561.03 L 663.37 557.31 L 661.44 553.18 L 659.27 549.12 L 656.87 545.29 L 654.19 541.82 L 651.43 539.14 L 649.40 537.74 L 647.37 536.89 L 645.32 536.52 L 643.28 536.71 L 641.11 537.56 L 638.73 539.23 L 638.05 539.99 L 637.58 540.88 L 637.22 542.34 L 637.28 544.01 L 638.02 546.37 L 638.83 547.93 L 640.18 549.84 L 642.22 552.18 L 644.44 554.31 L 647.51 556.85 L 651.61 559.84 L 658.38 564.15 L 667.97 569.46 L 667.97 569.46 Z" fill="#8dbffc" fill-rule="nonzero" group-id="1,8,13" id="Path_533" node-id="137" stroke="none" target-height="113.522156" target-width="64.01306" target-x="637.22473" target-y="455.93787"></path><path d="M 667.23 570.13 L 667.62 570.39 L 666.23 583.29 L 666.19 584.61 L 668.01 584.70 L 669.53 571.19 L 670.43 558.16 L 671.66 555.26 L 673.42 552.40 L 675.47 549.72 L 677.56 547.37 L 681.25 543.80 L 682.89 542.41 L 683.27 541.74 L 683.07 541.00 L 682.41 540.62 L 681.68 540.82 L 679.54 542.65 L 677.60 544.47 L 675.16 547.02 L 672.81 549.86 L 670.63 553.05 L 670.81 543.78 L 670.81 543.41 L 670.71 532.20 L 673.49 527.95 L 677.28 522.84 L 680.65 518.52 L 682.13 516.65 L 682.36 515.91 L 682.00 515.23 L 681.28 515.01 L 680.61 515.37 L 679.40 516.88 L 676.79 520.21 L 673.59 524.43 L 670.61 528.62 L 669.99 516.11 L 670.01 516.06 L 670.34 513.75 L 671.48 508.01 L 672.41 504.41 L 673.70 500.33 L 675.28 496.26 L 677.25 492.23 L 677.34 491.46 L 676.87 490.86 L 676.12 490.77 L 675.52 491.24 L 672.97 496.71 L 670.93 502.35 L 669.39 508.19 L 667.78 492.87 L 666.35 482.79 L 665.71 479.02 L 665.30 478.38 L 664.55 478.22 L 663.92 478.65 L 663.77 479.40 L 665.50 490.60 L 666.85 501.84 L 667.81 513.13 L 658.67 503.08 L 657.99 502.76 L 657.28 503.03 L 656.96 503.73 L 657.23 504.45 L 668.03 516.33 L 668.59 527.54 L 668.85 540.24 L 667.18 538.30 L 665.21 536.26 L 661.18 532.51 L 657.83 529.67 L 656.27 528.41 L 655.54 528.21 L 654.88 528.59 L 654.69 529.33 L 655.06 530.00 L 656.92 531.51 L 661.08 535.10 L 665.67 539.59 L 667.64 541.91 L 668.84 543.78 L 668.57 555.46 L 667.85 567.81 L 660.82 559.98 L 655.87 554.64 L 653.97 552.63 L 653.27 552.32 L 652.57 552.61 L 652.27 553.32 L 652.55 554.03 L 654.58 556.18 L 659.82 561.86 L 667.23 570.13 Z" fill="#3478f6" fill-rule="nonzero" group-id="1,8,13" id="Path_534" node-id="138" stroke="none" target-height="106.47302" target-width="30.995972" target-x="652.2711" target-y="478.224"></path></g><g node-id="216"><path d="M 707.43 517.72 L 707.00 515.19 L 706.27 508.94 L 706.05 505.09 L 706.04 500.97 L 706.38 496.91 L 707.13 493.30 L 707.95 491.06 L 709.02 489.29 L 710.33 487.92 L 711.48 487.19 L 712.85 486.75 L 714.49 486.62 L 716.46 486.85 L 717.46 487.26 L 718.26 487.94 L 719.09 489.33 L 719.41 490.43 L 719.52 492.02 L 719.32 494.27 L 718.83 496.47 L 717.81 499.43 L 716.11 503.33 L 714.15 507.08 L 711.32 511.82 L 707.43 517.72 Z M 723.46 512.74 L 721.67 511.53 L 720.05 511.00 L 718.51 511.03 L 716.99 511.50 L 715.48 512.37 L 713.96 513.68 L 711.94 516.03 L 710.04 518.89 L 708.36 521.92 L 706.96 524.84 L 704.95 529.74 L 704.23 531.78 L 711.65 527.81 L 716.49 524.72 L 720.41 521.62 L 722.54 519.36 L 723.94 517.14 L 724.38 515.63 L 724.34 514.27 L 724.02 513.45 L 723.46 512.74 Z M 726.24 533.89 L 724.97 532.24 L 723.68 531.11 L 722.35 530.41 L 720.96 530.08 L 718.98 530.10 L 716.87 530.59 L 714.59 531.61 L 711.33 533.68 L 708.04 536.40 L 704.96 539.41 L 702.24 542.39 L 698.09 547.50 L 696.50 549.67 L 703.76 548.28 L 709.38 546.94 L 713.63 545.66 L 717.80 544.10 L 720.75 542.70 L 722.76 541.46 L 724.59 539.96 L 725.71 538.71 L 726.30 537.67 L 726.74 536.04 L 726.66 534.94 L 726.24 533.89 Z M 723.60 554.67 L 722.42 552.74 L 721.15 551.37 L 719.80 550.46 L 718.33 549.95 L 716.19 549.75 L 713.86 550.03 L 711.28 550.87 L 707.53 552.75 L 703.66 555.31 L 699.99 558.20 L 696.71 561.12 L 691.65 566.17 L 689.69 568.32 L 699.22 567.48 L 706.15 566.45 L 712.26 565.05 L 716.34 563.68 L 719.73 562.01 L 721.71 560.56 L 723.12 558.95 L 723.74 557.65 L 723.96 556.38 L 723.88 555.51 L 723.60 554.67 Z M 701.21 536.43 L 701.42 534.28 L 701.68 528.99 L 701.65 525.75 L 701.41 522.29 L 700.90 518.90 L 700.07 515.91 L 699.24 514.08 L 698.24 512.66 L 697.07 511.58 L 695.69 510.91 L 694.00 510.70 L 691.86 511.04 L 691.05 511.44 L 690.41 512.05 L 689.80 513.27 L 689.56 514.82 L 689.89 517.43 L 690.86 520.38 L 693.10 524.85 L 696.17 529.69 L 701.21 536.43 L 701.21 536.43 Z M 694.33 559.11 L 694.24 556.42 L 693.71 549.86 L 693.15 545.86 L 692.31 541.63 L 691.13 537.53 L 689.63 533.98 L 688.32 531.85 L 686.86 530.26 L 685.24 529.12 L 683.90 528.60 L 682.41 528.43 L 680.71 528.63 L 678.73 529.27 L 677.79 529.91 L 677.10 530.76 L 676.53 532.36 L 676.43 533.55 L 676.65 535.21 L 677.31 537.48 L 678.27 539.64 L 679.91 542.46 L 682.46 546.12 L 685.24 549.57 L 689.12 553.85 L 694.32 559.11 L 694.33 559.11 Z M 683.99 579.11 L 684.13 576.19 L 684.10 569.04 L 683.83 564.67 L 683.27 560.02 L 682.34 555.48 L 681.00 551.51 L 679.77 549.09 L 678.32 547.25 L 676.66 545.88 L 675.26 545.21 L 673.66 544.90 L 671.79 544.97 L 669.59 545.51 L 668.80 545.90 L 668.13 546.47 L 667.39 547.53 L 666.91 548.88 L 666.77 551.02 L 667.15 553.44 L 668.38 557.01 L 670.30 560.86 L 673.65 566.16 L 677.83 571.78 L 683.99 579.11 L 683.99 579.11 Z" fill="#c6ddff" fill-rule="nonzero" group-id="1,8,14" id="Path_535" node-id="140" stroke="none" target-height="92.489624" target-width="59.965515" target-x="666.7704" target-y="486.6164"></path><path d="M 715.33 518.26 L 714.76 517.97 L 714.15 518.18 L 710.35 521.73 L 706.89 525.58 L 703.76 529.74 L 707.53 517.25 L 709.73 508.93 L 710.47 505.78 L 710.35 505.16 L 709.81 504.83 L 709.18 504.98 L 708.81 505.53 L 706.48 514.83 L 703.84 524.04 L 700.88 533.17 L 697.02 522.67 L 696.57 522.22 L 695.94 522.24 L 695.47 522.68 L 695.43 523.34 L 700.00 535.75 L 696.76 544.71 L 692.77 554.75 L 691.23 550.60 L 689.30 546.50 L 687.61 543.31 L 686.79 541.87 L 686.27 541.51 L 685.64 541.62 L 685.25 542.14 L 685.32 542.78 L 686.28 544.50 L 688.37 548.50 L 690.50 553.34 L 691.27 555.72 L 691.61 557.53 L 687.55 566.62 L 682.92 576.12 L 679.97 567.97 L 677.84 562.36 L 677.01 560.24 L 676.55 559.80 L 675.92 559.83 L 675.46 560.29 L 675.44 560.94 L 676.32 563.20 L 678.58 569.15 L 681.67 577.76 L 681.89 578.09 L 677.93 585.35 L 679.73 585.50 L 684.14 577.31 L 688.12 569.27 L 690.04 567.35 L 692.36 565.60 L 694.86 564.08 L 697.27 562.84 L 701.35 561.09 L 703.09 560.46 L 703.60 560.05 L 703.70 559.40 L 703.30 558.91 L 702.67 558.87 L 698.21 560.59 L 693.98 562.74 L 689.96 565.32 L 693.15 558.09 L 693.28 557.80 L 696.88 548.97 L 700.47 546.43 L 705.13 543.49 L 709.20 541.06 L 710.98 540.02 L 711.39 539.51 L 711.34 538.87 L 710.83 538.48 L 710.20 538.58 L 708.76 539.42 L 705.61 541.29 L 701.70 543.69 L 697.98 546.13 L 701.62 536.13 L 701.65 536.10 L 702.67 534.38 L 705.45 530.19 L 707.37 527.64 L 709.72 524.80 L 712.31 522.05 L 715.18 519.45 L 715.50 518.88 L 715.33 518.26 L 715.33 518.26 Z" fill="#3478f6" fill-rule="nonzero" group-id="1,8,14" id="Path_536" node-id="141" stroke="none" target-height="80.672" target-width="40.05951" target-x="675.439" target-y="504.828"></path></g><g node-id="217"><g node-id="224"><path d="M 636.24 538.17 L 636.53 536.42 L 637.02 532.09 L 637.17 529.43 L 637.16 526.58 L 636.91 523.77 L 636.39 521.28 L 635.81 519.73 L 635.07 518.51 L 634.16 517.57 L 633.06 516.94 L 631.68 516.68 L 629.92 516.84 L 629.23 517.13 L 628.67 517.60 L 628.11 518.56 L 627.83 519.82 L 627.96 521.98 L 628.61 524.45 L 630.20 528.24 L 632.47 532.37 L 636.24 538.17 Z" fill="#edf2f9" fill-rule="nonzero" group-id="1,8,15,22" id="Path_537" node-id="144" stroke="none" target-height="21.489258" target-width="9.33429" target-x="627.8314" target-y="516.6787"></path></g><path d="M 625.14 534.76 L 626.62 533.82 L 627.94 533.51 L 629.22 533.73 L 630.44 534.36 L 631.65 535.32 L 632.86 536.68 L 634.43 538.97 L 635.80 541.47 L 637.77 545.92 L 638.49 547.88 L 633.35 545.15 L 629.99 543.03 L 627.28 540.89 L 625.80 539.34 L 624.82 537.80 L 624.51 536.76 L 624.54 535.83 L 624.75 535.25 L 625.14 534.76 Z M 643.88 560.23 L 642.77 558.74 L 639.89 555.21 L 638.00 553.16 L 635.86 551.09 L 633.58 549.22 L 631.33 547.79 L 629.75 547.09 L 628.29 546.76 L 626.92 546.75 L 625.65 547.11 L 624.45 547.95 L 623.28 549.40 L 622.99 550.12 L 622.94 550.88 L 623.24 552.01 L 623.98 553.14 L 625.70 554.62 L 628.02 555.94 L 632.02 557.51 L 636.78 558.83 L 643.88 560.23 L 643.88 560.23 Z M 648.63 573.12 L 647.27 571.63 L 643.76 568.15 L 641.48 566.15 L 638.94 564.15 L 636.26 562.39 L 633.66 561.10 L 631.87 560.53 L 630.26 560.34 L 628.78 560.48 L 627.45 561.02 L 626.25 562.07 L 625.15 563.76 L 624.92 564.58 L 624.95 565.40 L 625.41 566.59 L 626.34 567.72 L 628.36 569.12 L 631.02 570.28 L 635.52 571.52 L 640.80 572.41 L 648.63 573.12 L 648.63 573.12 Z M 646.99 533.51 L 645.25 533.29 L 643.92 533.58 L 642.87 534.33 L 642.03 535.42 L 641.36 536.81 L 640.85 538.57 L 640.42 541.31 L 640.25 544.15 L 640.39 549.01 L 640.59 551.09 L 644.06 546.42 L 646.17 543.06 L 647.70 539.96 L 648.37 537.92 L 648.59 536.12 L 648.42 535.05 L 647.99 534.21 L 647.55 533.79 L 646.99 533.51 L 646.99 533.51 Z M 656.12 546.09 L 654.33 545.57 L 652.87 545.57 L 651.61 546.00 L 650.50 546.79 L 649.49 547.89 L 648.59 549.37 L 647.56 551.83 L 646.75 554.67 L 646.18 557.59 L 645.81 560.36 L 645.46 564.90 L 645.40 566.76 L 650.43 561.55 L 653.57 557.74 L 655.96 554.17 L 657.11 551.76 L 657.67 549.57 L 657.64 548.22 L 657.25 547.12 L 656.77 546.52 L 656.12 546.09 L 656.12 546.09 Z M 662.48 557.29 L 660.50 556.88 L 658.91 557.00 L 657.59 557.57 L 656.45 558.51 L 655.45 559.79 L 654.60 561.47 L 653.68 564.22 L 653.05 567.36 L 652.68 570.57 L 652.50 573.60 L 652.50 578.55 L 652.60 580.56 L 657.60 574.50 L 660.69 570.12 L 662.98 566.05 L 664.02 563.35 L 664.45 560.92 L 664.30 559.47 L 663.78 558.31 L 663.21 557.70 L 662.48 557.29 Z" fill="#c6ddff" fill-rule="nonzero" group-id="1,8,15" id="Path_538" node-id="145" stroke="none" target-height="47.268066" target-width="41.511475" target-x="622.93567" target-y="533.2909"></path><path d="M 648.74 574.85 L 650.95 579.56 L 653.38 584.35 L 654.72 584.33 L 653.00 581.00 L 653.16 580.77 L 655.53 574.53 L 657.25 570.22 L 657.92 568.58 L 657.99 568.26 L 657.88 567.95 L 657.63 567.74 L 657.30 567.70 L 657.00 567.84 L 656.82 568.12 L 656.19 569.66 L 654.57 573.72 L 652.31 579.62 L 649.20 572.94 L 646.49 566.53 L 646.76 565.23 L 647.36 563.51 L 648.97 560.00 L 650.53 557.08 L 651.25 555.83 L 651.34 555.53 L 651.26 555.23 L 651.05 555.00 L 650.74 554.91 L 650.44 555.00 L 650.22 555.22 L 647.75 559.80 L 645.72 564.58 L 643.07 557.49 L 640.94 551.16 L 644.43 542.17 L 644.41 541.72 L 644.09 541.41 L 643.64 541.42 L 643.32 541.73 L 640.37 549.33 L 637.55 539.61 L 635.25 529.75 L 635.00 529.39 L 634.56 529.30 L 634.18 529.54 L 634.08 529.97 L 634.54 532.21 L 635.94 538.11 L 638.39 546.95 L 636.24 544.06 L 633.85 541.39 L 631.22 538.93 L 630.93 538.79 L 630.61 538.82 L 630.36 539.01 L 630.23 539.30 L 630.27 539.61 L 630.46 539.86 L 633.09 542.30 L 635.32 544.85 L 637.25 547.43 L 638.56 549.41 L 639.76 551.45 L 639.78 551.47 L 642.17 558.54 L 638.65 556.32 L 635.28 554.36 L 633.63 553.43 L 633.32 553.35 L 633.01 553.43 L 632.79 553.65 L 632.72 553.96 L 632.81 554.27 L 633.05 554.48 L 634.30 555.18 L 637.14 556.82 L 640.40 558.81 L 642.90 560.54 L 645.29 566.77 L 645.38 566.97 L 647.51 572.07 L 644.69 570.32 L 641.72 568.88 L 638.60 567.76 L 638.01 567.90 L 637.84 568.48 L 638.26 568.91 L 639.49 569.32 L 642.35 570.47 L 645.79 572.33 L 647.41 573.52 L 648.74 574.85 Z" fill="#3478f6" fill-rule="nonzero" group-id="1,8,15" id="Path_539" node-id="146" stroke="none" target-height="55.049744" target-width="27.765198" target-x="630.2274" target-y="529.2982"></path></g><path d="M 640.60 595.70 L 648.52 669.66 L 648.88 671.15 L 649.54 672.42 L 650.49 673.51 L 651.68 674.35 L 653.01 674.86 L 654.53 675.06 L 679.07 675.06 L 680.60 674.86 L 681.94 674.34 L 683.12 673.49 L 684.08 672.40 L 684.73 671.12 L 685.08 669.61 L 692.52 594.95 L 692.51 593.66 L 692.24 592.43 L 691.71 591.28 L 690.95 590.25 L 689.98 589.40 L 688.88 588.79 L 687.67 588.41 L 686.39 588.30 L 646.50 589.01 L 645.25 589.16 L 644.08 589.57 L 643.01 590.20 L 642.08 591.06 L 641.35 592.08 L 640.85 593.22 L 640.60 594.44 L 640.60 595.70 Z" fill="#013bff" fill-rule="nonzero" group-id="1,8" id="Path_540" node-id="147" stroke="none" target-height="86.76001" target-width="51.921326" target-x="640.5967" target-y="588.299"></path><path d="M 639.46 581.75 L 693.46 581.75 L 694.07 581.87 L 694.57 582.21 L 694.90 582.70 L 695.03 583.32 L 695.03 593.28 L 694.91 593.88 L 694.57 594.39 L 694.06 594.73 L 693.46 594.85 L 639.46 594.85 L 638.85 594.73 L 638.34 594.39 L 638.00 593.88 L 637.88 593.28 L 637.88 583.32 L 638.01 582.70 L 638.34 582.21 L 638.84 581.87 L 639.46 581.75 Z" fill="#007aff" fill-rule="nonzero" group-id="1,8" id="Path_2215" node-id="148" stroke="none" target-height="13.106995" target-width="57.145996" target-x="637.882" target-y="581.747"></path></g></g></svg>