<?xml version="1.0" standalone="no"?><!DOCTYPE svg PUBLIC "-//W3C//DTD SVG 1.1//EN" "http://www.w3.org/Graphics/SVG/1.1/DTD/svg11.dtd"><svg height="800" node-id="1" sillyvg="true" template-height="800" template-width="800" version="1.1" viewBox="0 0 800 800" width="800" xmlns="http://www.w3.org/2000/svg" xmlns:xlink="http://www.w3.org/1999/xlink"><defs node-id="130"></defs><g node-id="132"><g node-id="133"><path d="M 0.00 0.00 L 800.00 0.00 L 800.00 800.00 L 0.00 800.00 Z" fill="#ffffff" fill-rule="nonzero" group-id="1,2" id="bg-white" node-id="9" stroke="none" target-height="800" target-width="800" target-x="0" target-y="0"></path><path d="M -0.00 795.76 L 3.63 800.37 L 800.00 800.37 L 800.00 450.20 L 795.22 447.25 L 790.29 444.64 L 785.19 442.35 L 779.95 440.41 L 774.60 438.82 L 769.13 437.57 L 764.31 436.36 L 759.68 434.77 L 755.22 432.81 L 750.92 430.46 L 746.83 427.78 L 742.94 424.78 L 739.25 421.47 L 735.75 417.82 L 731.52 412.59 L 727.73 406.91 L 724.36 400.74 L 721.55 394.29 L 719.26 387.49 L 717.50 380.31 L 716.58 374.85 L 716.01 369.26 L 715.78 363.52 L 715.92 357.63 L 716.23 346.26 L 715.94 334.90 L 715.05 323.53 L 713.56 312.22 L 711.53 301.16 L 708.94 290.33 L 705.77 279.65 L 702.12 269.47 L 697.99 259.75 L 694.49 252.60 L 690.75 245.85 L 686.79 239.50 L 682.60 233.51 L 678.03 227.73 L 673.27 222.47 L 668.32 217.68 L 663.17 213.36 L 657.68 209.43 L 652.01 206.07 L 646.16 203.27 L 640.10 201.01 L 635.14 199.63 L 630.04 198.65 L 624.80 198.09 L 619.39 197.93 L 613.79 198.20 L 608.89 198.41 L 604.10 198.16 L 599.40 197.48 L 594.76 196.36 L 590.25 194.83 L 585.86 192.92 L 581.61 190.61 L 577.46 187.90 L 573.56 184.88 L 569.85 181.52 L 566.31 177.81 L 562.96 173.72 L 559.93 169.43 L 557.15 164.85 L 554.62 159.96 L 552.34 154.72 L 549.21 147.46 L 545.77 140.60 L 542.03 134.13 L 538.00 128.03 L 533.66 122.29 L 527.73 115.42 L 521.43 109.10 L 514.76 103.28 L 507.69 97.96 L 500.28 93.13 L 492.59 88.77 L 484.62 84.90 L 476.34 81.49 L 467.89 78.58 L 459.27 76.13 L 450.48 74.15 L 441.49 72.62 L 432.45 71.56 L 423.37 70.95 L 414.24 70.79 L 405.04 71.09 L 395.87 71.82 L 386.80 73.00 L 377.80 74.60 L 368.88 76.64 L 360.06 79.12 L 351.47 82.01 L 343.09 85.31 L 334.91 89.02 L 326.92 93.18 L 319.29 97.72 L 311.99 102.65 L 305.01 107.97 L 298.36 113.73 L 292.16 119.85 L 286.41 126.35 L 281.07 133.24 L 277.76 137.49 L 274.26 141.34 L 270.57 144.79 L 266.69 147.89 L 262.54 150.67 L 258.28 153.04 L 253.90 155.01 L 249.40 156.60 L 244.76 157.78 L 240.08 158.54 L 235.34 158.88 L 230.52 158.80 L 223.93 158.62 L 217.39 158.92 L 210.90 159.68 L 204.43 160.92 L 197.97 162.64 L 191.68 164.78 L 185.48 167.34 L 179.36 170.35 L 173.31 173.81 L 167.31 177.74 L 161.63 181.96 L 156.10 186.58 L 150.69 191.62 L 145.42 197.10 L 140.27 203.04 L 134.37 210.71 L 128.79 218.98 L 123.53 227.90 L 118.60 237.49 L 115.11 245.23 L 111.90 253.34 L 108.98 261.83 L 106.35 270.71 L 104.01 280.01 L 102.12 289.20 L 100.59 298.74 L 99.43 308.63 L 98.64 318.89 L 98.25 329.55 L 97.90 336.26 L 97.09 342.75 L 95.82 349.04 L 94.11 355.15 L 91.94 361.15 L 89.39 366.82 L 86.46 372.19 L 83.14 377.28 L 79.42 382.10 L 75.38 386.50 L 71.03 390.50 L 66.35 394.12 L 61.65 397.65 L 56.94 401.73 L 52.21 406.39 L 47.46 411.68 L 43.13 417.13 L 38.94 423.13 L 34.90 429.72 L 31.01 436.94 L 27.61 444.23 L 24.51 452.08 L 21.72 460.52 L 19.26 469.60 L 17.35 478.62 L 15.89 488.23 L 14.92 498.45 L 14.46 509.34 L 14.50 517.83 L 14.95 526.70 L 15.80 535.98 L 17.10 545.69 L 18.86 555.86 L 19.91 562.66 L 20.45 569.38 L 20.49 576.03 L 20.02 582.63 L 19.06 589.21 L 17.65 595.57 L 15.79 601.75 L 13.48 607.74 L 10.70 613.56 L 7.54 619.05 L 3.97 624.22 L -0.01 629.09 L -0.00 795.76 Z" fill="#edf2f9" fill-rule="nonzero" group-id="1,2" id="Path_1114" node-id="10" stroke="none" target-height="729.5756" target-width="800.004" target-x="-0.0069999695" target-y="70.79438"></path><path d="M 800.00 642.18 L 796.79 638.36 L 792.99 634.47 L 788.54 630.52 L 783.37 626.50 L 778.15 622.92 L 772.19 619.35 L 765.43 615.78 L 757.79 612.22 L 750.27 609.14 L 741.87 606.14 L 732.52 603.23 L 722.14 600.43 L 712.03 598.09 L 700.90 595.92 L 688.68 593.95 L 675.30 592.19 L 662.29 590.85 L 648.15 589.78 L 632.79 589.01 L 616.14 588.56 L 599.96 588.49 L 582.51 588.79 L 563.73 589.49 L 543.55 590.62 L 395.29 600.23 L 276.01 607.68 L 188.00 612.98 L 133.52 616.15 L 114.85 617.21 L 110.42 617.77 L 98.51 619.50 L 81.22 622.45 L 71.37 624.38 L 60.64 626.70 L 49.79 629.32 L 38.85 632.30 L 28.07 635.65 L 17.94 639.31 L 11.35 642.05 L 5.38 644.88 L -0.00 647.81 L -0.00 701.24 L 4.06 705.06 L 8.27 708.52 L 12.64 711.63 L 17.18 714.39 L 21.88 716.80 L 26.95 718.94 L 32.43 720.80 L 38.33 722.37 L 44.18 723.56 L 50.64 724.51 L 57.77 725.21 L 65.62 725.62 L 75.91 725.72 L 87.72 725.39 L 101.19 724.55 L 122.03 722.62 L 147.20 719.61 L 173.95 715.93 L 205.82 711.21 L 224.68 708.51 L 240.92 706.50 L 254.80 705.08 L 268.70 704.00 L 280.34 703.44 L 289.96 703.30 L 299.61 703.57 L 307.34 704.16 L 313.44 705.02 L 319.49 706.33 L 324.05 707.79 L 327.39 709.33 L 330.46 711.35 L 332.57 713.36 L 333.94 715.38 L 334.84 717.66 L 335.27 719.95 L 335.24 722.29 L 334.59 725.78 L 333.43 729.17 L 330.65 735.15 L 327.44 741.12 L 325.65 744.50 L 324.00 748.10 L 322.71 751.80 L 322.01 755.44 L 321.95 757.86 L 322.33 760.18 L 323.15 762.46 L 324.42 764.50 L 326.35 766.51 L 329.10 768.50 L 332.13 770.05 L 336.20 771.53 L 341.54 772.89 L 346.95 773.81 L 353.74 774.52 L 362.14 774.96 L 370.54 775.03 L 380.61 774.75 L 392.59 774.06 L 406.25 772.88 L 417.48 771.58 L 426.57 770.21 L 435.62 768.43 L 442.56 766.63 L 447.75 764.86 L 451.66 763.13 L 454.56 761.46 L 456.66 759.86 L 458.10 758.32 L 459.24 756.47 L 459.85 754.65 L 459.98 752.81 L 459.63 750.89 L 458.60 748.42 L 456.89 745.76 L 454.35 742.86 L 451.53 740.22 L 448.18 737.46 L 444.24 734.56 L 438.08 730.45 L 431.30 726.28 L 426.84 723.34 L 424.01 720.99 L 422.38 719.11 L 421.50 717.48 L 421.19 716.11 L 421.33 714.90 L 421.92 713.77 L 423.21 712.48 L 425.26 711.21 L 428.33 709.98 L 433.33 708.65 L 439.98 707.50 L 447.09 706.68 L 455.26 706.06 L 463.69 705.64 L 472.58 705.38 L 490.33 705.22 L 497.17 705.35 L 507.86 705.80 L 534.52 707.25 L 567.99 709.15 L 605.95 711.07 L 625.81 711.90 L 646.06 712.58 L 666.29 713.06 L 686.01 713.26 L 705.43 713.15 L 723.47 712.68 L 740.92 711.76 L 756.13 710.41 L 766.02 709.14 L 774.48 707.66 L 781.64 706.02 L 787.12 704.40 L 791.52 702.68 L 795.00 700.91 L 797.71 699.10 L 800.00 697.11 L 800.00 642.18 Z" fill="#c6ddff" fill-rule="nonzero" group-id="1,2" id="Path_1115" node-id="11" stroke="none" target-height="186.54572" target-width="800.00006" target-x="-0.0019999743" target-y="588.48914"></path></g><path d="M 151.42 663.50 L 150.81 657.79 L 149.60 641.85 L 149.08 631.05 L 148.72 617.43 L 148.69 602.97 L 149.10 586.32 L 149.65 574.99 L 150.50 562.98 L 151.68 550.26 L 153.15 537.59 L 155.05 524.52 L 157.37 511.02 L 160.10 497.61 L 163.34 484.07 L 167.11 470.38 L 171.40 456.84 L 176.30 443.41 L 181.83 430.08 L 186.38 420.27 L 191.33 410.64 L 196.69 401.19 L 202.45 391.91 L 208.62 382.92 L 215.24 374.21 L 222.34 365.78 L 229.92 357.63 L 236.25 351.43 L 242.93 345.47 L 249.96 339.74 L 257.37 334.25 L 265.15 328.99 L 273.06 324.16 L 281.39 319.62 L 290.15 315.37 L 299.38 311.42 L 309.08 307.76 L 318.71 304.63 L 328.85 301.85 L 339.54 299.43 L 350.79 297.38 L 362.63 295.72 L 378.13 294.21 L 392.87 293.29 L 406.87 292.93 L 420.18 293.11 L 432.83 293.80 L 445.86 295.05 L 458.25 296.76 L 470.03 298.90 L 481.23 301.45 L 491.88 304.42 L 502.64 307.95 L 512.88 311.82 L 522.62 316.02 L 531.89 320.55 L 540.70 325.41 L 549.42 330.74 L 557.71 336.33 L 565.60 342.18 L 573.10 348.27 L 580.22 354.62 L 588.80 363.03 L 596.84 371.71 L 604.36 380.67 L 611.36 389.91 L 617.97 399.50 L 624.11 409.23 L 629.79 419.10 L 635.03 429.13 L 639.92 439.38 L 644.40 449.63 L 648.47 459.87 L 652.16 470.11 L 656.61 483.96 L 660.44 497.49 L 663.66 510.72 L 666.44 524.06 L 668.70 536.74 L 670.45 548.78 L 671.86 560.91 L 672.85 572.02 L 673.45 582.17 L 673.82 596.93 L 673.59 608.72 L 673.10 616.29 L 672.48 622.03 L 671.78 626.27 L 671.13 628.14 L 669.98 630.02 L 668.23 631.93 L 665.74 633.90 L 662.36 635.94 L 658.28 637.90 L 653.26 639.88 L 647.16 641.88 L 639.83 643.88 L 630.27 646.07 L 619.18 648.21 L 606.40 650.27 L 586.75 652.87 L 564.28 655.25 L 540.98 657.24 L 515.67 658.99 L 489.83 660.44 L 462.80 661.66 L 435.52 662.63 L 407.88 663.40 L 380.25 663.98 L 353.10 664.39 L 300.68 664.79 L 252.84 664.75 L 211.78 664.45 L 179.72 664.03 L 158.86 663.66 L 151.42 663.50 Z" fill="#013bff" fill-rule="nonzero" group-id="1" id="Path_1116" node-id="12" stroke="none" target-height="371.85898" target-width="525.1313" target-x="148.69234" target-y="292.9326"></path><path d="M 130.64 664.41 L 130.58 664.20 L 131.27 661.23 L 133.50 651.54 L 134.65 644.93 L 135.67 636.58 L 136.10 630.81 L 136.27 624.49 L 136.15 617.56 L 135.68 610.68 L 134.74 603.40 L 133.31 595.71 L 131.83 588.24 L 129.84 580.62 L 127.33 572.84 L 124.41 565.20 L 121.11 557.73 L 117.43 550.43 L 113.37 543.32 L 109.11 536.71 L 104.64 530.57 L 99.79 524.72 L 94.91 519.66 L 90.01 515.33 L 86.03 512.37 L 82.14 509.99 L 78.33 508.15 L 74.58 506.80 L 67.40 504.93 L 61.57 503.90 L 56.89 503.54 L 53.26 503.65 L 50.28 504.06 L 47.85 504.72 L 45.88 505.59 L 44.01 506.81 L 42.56 508.18 L 41.45 509.72 L 40.67 511.43 L 40.09 513.91 L 39.99 516.61 L 40.41 519.58 L 41.25 522.49 L 42.50 525.47 L 44.21 528.54 L 46.22 531.43 L 48.54 534.18 L 51.21 536.81 L 54.12 539.16 L 57.22 541.18 L 60.54 542.88 L 63.70 544.86 L 65.78 546.65 L 67.05 548.29 L 67.90 550.17 L 68.24 552.00 L 68.11 553.82 L 67.33 556.57 L 65.99 559.43 L 62.93 565.08 L 61.73 567.94 L 61.17 570.72 L 61.24 572.54 L 61.81 574.40 L 62.96 576.34 L 64.52 578.01 L 66.96 579.85 L 70.56 581.88 L 76.31 585.47 L 80.45 588.48 L 84.02 591.52 L 86.53 594.09 L 88.64 596.70 L 90.21 599.02 L 92.91 603.54 L 94.31 605.70 L 96.05 607.95 L 98.12 610.11 L 101.04 612.55 L 103.36 614.35 L 105.80 616.72 L 108.39 619.75 L 111.96 624.64 L 115.53 630.28 L 118.85 636.17 L 121.88 642.08 L 124.66 647.95 L 126.90 653.08 L 128.83 657.89 L 130.01 661.21 L 130.73 663.97 L 130.64 664.41 Z" fill="#3478f6" fill-rule="nonzero" group-id="1,3,6,16" id="Path_1117" node-id="16" stroke="none" target-height="160.86853" target-width="96.27607" target-x="39.991905" target-y="503.54346"></path><path d="M 130.62 662.08 L 129.80 657.04 L 127.31 644.13 L 125.45 635.69 L 122.95 625.48 L 120.05 614.86 L 116.49 603.23 L 112.44 591.49 L 107.74 579.49 L 104.27 571.59 L 100.52 563.89 L 96.48 556.40 L 92.09 549.13 L 87.43 542.37 L 82.51 536.09 L 78.50 531.61 L 74.36 527.56 L 70.06 523.92 L 65.60 520.67 L 66.11 519.93 L 71.12 523.61 L 75.92 527.79 L 80.52 532.48 L 84.81 537.49 L 88.89 542.83 L 92.77 548.53 L 98.11 557.42 L 102.96 566.66 L 107.34 576.11 L 111.20 585.45 L 114.67 594.77 L 117.61 603.47 L 121.92 617.90 L 125.68 632.45 L 128.87 647.14 L 131.52 661.96 L 130.62 662.08 Z" fill="#ffffff" fill-rule="nonzero" group-id="1,3,6,17" id="Path_1118" node-id="18" stroke="none" target-height="142.15002" target-width="65.91499" target-x="65.604996" target-y="519.933"></path><path d="M 132.45 661.74 L 132.31 661.62 L 131.56 659.30 L 129.07 651.76 L 127.11 646.76 L 124.35 640.61 L 121.05 634.32 L 116.79 627.37 L 113.61 622.83 L 109.95 618.22 L 105.77 613.52 L 101.66 608.98 L 97.13 604.55 L 92.18 600.22 L 87.00 596.16 L 81.64 592.36 L 76.09 588.83 L 70.36 585.59 L 64.69 582.77 L 59.07 580.35 L 53.31 578.29 L 47.87 576.79 L 42.71 575.79 L 37.49 575.30 L 32.81 575.44 L 28.58 576.15 L 21.93 578.08 L 17.03 580.03 L 13.53 581.97 L 11.05 583.83 L 9.30 585.59 L 8.12 587.28 L 7.43 588.92 L 7.10 590.73 L 7.14 592.47 L 7.55 594.20 L 8.36 595.94 L 9.85 598.04 L 11.83 600.04 L 14.37 601.93 L 17.14 603.51 L 20.18 604.81 L 23.53 605.84 L 26.97 606.50 L 30.42 606.74 L 33.91 606.57 L 36.90 606.66 L 39.07 607.05 L 40.62 607.67 L 41.99 608.61 L 42.98 609.73 L 43.65 611.03 L 44.25 613.24 L 44.52 615.73 L 44.76 620.84 L 45.13 623.29 L 45.89 625.43 L 46.70 626.65 L 47.86 627.69 L 49.45 628.56 L 51.21 629.08 L 53.66 629.36 L 56.97 629.30 L 63.42 629.53 L 68.00 630.07 L 72.06 630.97 L 74.99 631.97 L 77.62 633.18 L 79.83 634.37 L 82.01 635.54 L 84.41 636.61 L 87.05 637.45 L 90.61 638.07 L 92.95 638.38 L 95.61 639.02 L 98.64 640.05 L 103.12 641.97 L 107.91 644.41 L 112.63 647.11 L 117.17 649.94 L 125.18 655.47 L 130.68 659.80 L 132.33 661.40 L 132.45 661.74 Z" fill="#98bef7" fill-rule="nonzero" group-id="1,3,7,18" id="Path_1119" node-id="21" stroke="none" target-height="86.440735" target-width="125.34775" target-x="7.098255" target-y="575.30023"></path><path d="M 132.10 662.02 L 129.43 658.88 L 122.43 650.97 L 111.91 639.80 L 105.70 633.56 L 98.72 626.87 L 91.42 620.26 L 83.70 613.71 L 75.73 607.49 L 67.69 601.82 L 62.17 598.33 L 56.79 595.30 L 51.52 592.70 L 46.09 590.48 L 40.94 588.88 L 36.03 587.87 L 36.16 586.99 L 41.12 588.01 L 46.31 589.62 L 51.78 591.85 L 57.08 594.46 L 62.51 597.50 L 68.06 601.01 L 76.15 606.70 L 84.17 612.96 L 91.93 619.53 L 99.27 626.17 L 106.29 632.89 L 112.52 639.15 L 123.09 650.36 L 130.13 658.31 L 132.80 661.46 L 132.10 662.02 Z" fill="#ffffff" fill-rule="nonzero" group-id="1,3,7,19" id="Path_1120" node-id="23" stroke="none" target-height="75.03302" target-width="96.767" target-x="36.031998" target-y="586.988"></path><path d="M 611.79 663.88 L 611.85 663.67 L 611.15 660.70 L 608.93 651.01 L 607.78 644.40 L 606.76 636.05 L 606.33 630.29 L 606.16 623.96 L 606.28 617.03 L 606.75 610.15 L 607.69 602.87 L 609.12 595.18 L 610.60 587.71 L 612.59 580.09 L 615.10 572.31 L 618.02 564.67 L 621.32 557.20 L 625.00 549.90 L 629.05 542.80 L 633.32 536.18 L 637.79 530.04 L 642.64 524.19 L 647.52 519.13 L 652.42 514.80 L 656.40 511.84 L 660.29 509.46 L 664.09 507.62 L 667.85 506.27 L 675.03 504.40 L 680.86 503.37 L 685.54 503.01 L 689.17 503.12 L 692.15 503.53 L 694.58 504.19 L 696.55 505.06 L 698.41 506.28 L 699.87 507.65 L 700.97 509.19 L 701.75 510.90 L 702.33 513.38 L 702.44 516.08 L 702.02 519.05 L 701.18 521.96 L 699.93 524.94 L 698.22 528.01 L 696.21 530.90 L 693.88 533.65 L 691.22 536.28 L 688.31 538.63 L 685.21 540.65 L 681.88 542.35 L 678.73 544.33 L 676.65 546.12 L 675.38 547.77 L 674.53 549.64 L 674.19 551.47 L 674.31 553.29 L 675.10 556.04 L 676.44 558.90 L 679.50 564.55 L 680.70 567.42 L 681.26 570.20 L 681.19 572.02 L 680.62 573.87 L 679.46 575.81 L 677.91 577.48 L 675.47 579.32 L 671.87 581.35 L 666.12 584.95 L 661.98 587.95 L 658.41 590.99 L 655.90 593.56 L 653.79 596.17 L 652.22 598.49 L 649.52 603.01 L 648.12 605.17 L 646.38 607.42 L 644.31 609.58 L 641.38 612.02 L 639.07 613.82 L 636.62 616.19 L 634.04 619.22 L 630.47 624.11 L 626.90 629.75 L 623.58 635.64 L 620.54 641.55 L 617.77 647.42 L 615.53 652.55 L 613.60 657.36 L 612.42 660.69 L 611.69 663.44 L 611.79 663.88 Z" fill="#98bef7" fill-rule="nonzero" group-id="1,3,8,20" id="Path_1121" node-id="26" stroke="none" target-height="160.86859" target-width="96.276245" target-x="606.1602" target-y="503.0144"></path><path d="M 611.80 661.55 L 612.63 656.51 L 615.11 643.60 L 616.98 635.16 L 619.48 624.95 L 622.38 614.33 L 625.93 602.70 L 629.98 590.95 L 634.69 578.96 L 638.16 571.06 L 641.91 563.36 L 645.94 555.87 L 650.34 548.60 L 655.00 541.84 L 659.92 535.56 L 663.92 531.08 L 668.07 527.03 L 672.37 523.39 L 676.82 520.14 L 676.32 519.40 L 671.31 523.08 L 666.51 527.26 L 661.91 531.95 L 657.62 536.96 L 653.54 542.30 L 649.66 548.00 L 644.32 556.89 L 639.47 566.13 L 635.09 575.58 L 631.22 584.92 L 627.75 594.24 L 624.82 602.94 L 620.51 617.37 L 616.75 631.92 L 613.55 646.60 L 610.91 661.43 L 611.80 661.55 Z" fill="#ffffff" fill-rule="nonzero" group-id="1,3,8,21" id="Path_1122" node-id="28" stroke="none" target-height="142.151" target-width="65.91498" target-x="610.908" target-y="519.402"></path><path d="M 609.98 660.07 L 610.11 659.95 L 610.87 657.63 L 613.36 650.09 L 615.31 645.08 L 618.08 638.94 L 621.37 632.65 L 625.64 625.70 L 628.82 621.16 L 632.48 616.55 L 636.66 611.85 L 640.77 607.31 L 645.29 602.88 L 650.25 598.55 L 655.42 594.49 L 660.79 590.69 L 666.34 587.16 L 672.07 583.92 L 677.74 581.10 L 683.36 578.68 L 689.12 576.62 L 694.56 575.12 L 699.72 574.12 L 704.94 573.63 L 709.62 573.77 L 713.85 574.48 L 720.49 576.41 L 725.39 578.36 L 728.90 580.30 L 731.38 582.15 L 733.13 583.92 L 734.30 585.61 L 734.99 587.25 L 735.33 589.06 L 735.29 590.80 L 734.88 592.53 L 734.07 594.27 L 732.58 596.37 L 730.60 598.37 L 728.06 600.26 L 725.29 601.83 L 722.24 603.14 L 718.89 604.17 L 715.46 604.82 L 712.00 605.07 L 708.51 604.90 L 705.53 604.99 L 703.36 605.38 L 701.81 606.00 L 700.44 606.94 L 699.45 608.06 L 698.78 609.36 L 698.18 611.57 L 697.91 614.06 L 697.67 619.17 L 697.30 621.62 L 696.53 623.76 L 695.73 624.98 L 694.57 626.02 L 692.97 626.89 L 691.21 627.41 L 688.77 627.69 L 685.46 627.63 L 679.01 627.85 L 674.43 628.40 L 670.37 629.30 L 667.43 630.30 L 664.80 631.51 L 662.60 632.70 L 660.42 633.87 L 658.02 634.94 L 655.38 635.78 L 651.82 636.40 L 649.48 636.70 L 646.82 637.35 L 643.78 638.38 L 639.31 640.30 L 634.52 642.73 L 629.80 645.44 L 625.26 648.27 L 617.25 653.80 L 611.74 658.13 L 610.10 659.73 L 609.98 660.07 Z" fill="#3478f6" fill-rule="nonzero" group-id="1,3,9,22" id="Path_1123" node-id="31" stroke="none" target-height="86.44141" target-width="125.34772" target-x="609.982" target-y="573.6286"></path><path d="M 610.33 660.35 L 612.99 657.21 L 620.00 649.30 L 630.52 638.12 L 636.73 631.89 L 643.71 625.20 L 651.01 618.59 L 658.73 612.04 L 666.70 605.81 L 674.74 600.15 L 680.26 596.66 L 685.64 593.63 L 690.91 591.03 L 696.33 588.81 L 701.49 587.21 L 706.40 586.20 L 706.26 585.32 L 701.31 586.34 L 696.12 587.94 L 690.65 590.18 L 685.35 592.79 L 679.92 595.83 L 674.37 599.34 L 666.28 605.03 L 658.26 611.29 L 650.50 617.86 L 643.16 624.50 L 636.14 631.22 L 629.91 637.48 L 619.34 648.69 L 612.30 656.64 L 609.63 659.79 L 610.33 660.35 Z" fill="#ffffff" fill-rule="nonzero" group-id="1,3,9,23" id="Path_1124" node-id="33" stroke="none" target-height="75.034" target-width="96.76703" target-x="609.63" target-y="585.316"></path><path d="M 528.47 385.84 L 526.62 385.58 L 525.04 384.92 L 523.66 383.85 L 522.59 382.47 L 521.93 380.89 L 521.67 379.04 L 521.93 377.20 L 522.59 375.61 L 523.66 374.23 L 525.04 373.17 L 526.62 372.50 L 528.47 372.24 L 530.31 372.50 L 531.89 373.17 L 533.27 374.23 L 534.34 375.61 L 535.00 377.20 L 535.26 379.04 L 535.00 380.89 L 534.34 382.47 L 533.27 383.85 L 531.89 384.92 L 530.31 385.58 L 528.47 385.84 L 528.47 385.84 Z M 528.47 374.38 L 527.09 374.59 L 525.87 375.17 L 524.87 376.07 L 524.16 377.26 L 523.82 378.61 L 523.89 379.96 L 524.34 381.23 L 525.17 382.34 L 526.28 383.17 L 527.55 383.62 L 528.90 383.69 L 530.25 383.36 L 531.44 382.64 L 532.34 381.64 L 532.92 380.42 L 533.13 379.05 L 532.95 377.78 L 532.50 376.70 L 531.76 375.75 L 530.82 375.02 L 529.73 374.56 L 528.47 374.38 L 528.47 374.38 Z" fill="#ef4923" fill-rule="nonzero" group-id="1,4,10,24" id="Path_1125" node-id="37" stroke="none" target-height="13.600006" target-width="13.599976" target-x="521.66504" target-y="372.24298"></path><path d="M 523.80 348.53 L 521.95 348.27 L 520.37 347.61 L 518.99 346.54 L 517.92 345.16 L 517.26 343.58 L 517.00 341.73 L 517.26 339.88 L 517.92 338.30 L 518.99 336.92 L 520.37 335.85 L 521.95 335.19 L 523.80 334.93 L 525.64 335.19 L 527.23 335.85 L 528.61 336.92 L 529.67 338.30 L 530.34 339.88 L 530.60 341.73 L 530.33 343.58 L 529.67 345.16 L 528.60 346.54 L 527.23 347.61 L 525.64 348.27 L 523.80 348.53 L 523.80 348.53 Z M 523.80 337.07 L 522.53 337.25 L 521.44 337.70 L 520.50 338.44 L 519.76 339.38 L 519.31 340.47 L 519.13 341.73 L 519.31 343.00 L 519.76 344.09 L 520.50 345.03 L 521.44 345.77 L 522.53 346.22 L 523.80 346.40 L 525.06 346.22 L 526.15 345.77 L 527.10 345.03 L 527.83 344.09 L 528.28 343.00 L 528.46 341.73 L 528.28 340.47 L 527.83 339.38 L 527.09 338.44 L 526.15 337.70 L 525.06 337.25 L 523.80 337.07 Z" fill="#f3c04c" fill-rule="nonzero" group-id="1,4,10,25" id="Path_1126" node-id="39" stroke="none" target-height="13.600006" target-width="13.600037" target-x="516.997" target-y="334.931"></path><path d="M 555.60 349.97 L 555.18 349.88 L 554.85 349.65 L 554.62 349.32 L 554.54 348.90 L 554.54 344.20 L 554.62 343.78 L 554.85 343.45 L 555.18 343.22 L 555.60 343.13 L 556.02 343.22 L 556.36 343.45 L 556.58 343.78 L 556.67 344.20 L 556.67 348.90 L 556.58 349.32 L 556.36 349.65 L 556.02 349.88 L 555.60 349.97 Z" fill="#f3c04c" fill-rule="nonzero" group-id="1,4,10,26,32,39" id="Path_1127" node-id="43" stroke="none" target-height="6.8320007" target-width="2.132019" target-x="554.536" target-y="343.135"></path><path d="M 555.60 358.20 L 555.18 358.11 L 554.85 357.88 L 554.62 357.55 L 554.54 357.13 L 554.54 352.43 L 554.62 352.01 L 554.85 351.68 L 555.18 351.45 L 555.60 351.36 L 556.02 351.45 L 556.36 351.68 L 556.58 352.01 L 556.67 352.43 L 556.67 357.13 L 556.36 357.88 L 555.60 358.20 Z" fill="#f3c04c" fill-rule="nonzero" group-id="1,4,10,26,32,40" id="Path_1128" node-id="45" stroke="none" target-height="6.8329773" target-width="2.132019" target-x="554.536" target-y="351.363"></path><path d="M 562.20 351.73 L 557.98 351.73 L 557.56 351.64 L 557.22 351.42 L 557.00 351.08 L 556.91 350.66 L 557.00 350.25 L 557.22 349.91 L 557.56 349.68 L 557.98 349.60 L 562.20 349.60 L 562.62 349.68 L 562.96 349.91 L 563.18 350.25 L 563.27 350.66 L 563.18 351.08 L 562.96 351.42 L 562.62 351.64 L 562.20 351.73 L 562.20 351.73 Z" fill="#f3c04c" fill-rule="nonzero" group-id="1,4,10,26,33,41,53" id="Path_1129" node-id="49" stroke="none" target-height="2.1319885" target-width="6.355957" target-x="556.91205" target-y="349.598"></path><path d="M 553.23 351.73 L 549.00 351.73 L 548.58 351.64 L 548.25 351.42 L 548.02 351.08 L 547.94 350.66 L 548.02 350.25 L 548.25 349.91 L 548.58 349.68 L 549.00 349.60 L 553.23 349.60 L 553.64 349.68 L 553.98 349.91 L 554.21 350.25 L 554.29 350.66 L 554.21 351.08 L 553.98 351.42 L 553.64 351.64 L 553.23 351.73 L 553.23 351.73 Z" fill="#f3c04c" fill-rule="nonzero" group-id="1,4,10,26,33,42" id="Path_1130" node-id="51" stroke="none" target-height="2.1319885" target-width="6.355957" target-x="547.93604" target-y="349.598"></path><path d="M 551.11 313.07 L 550.36 312.76 L 550.05 312.00 L 550.05 307.30 L 550.13 306.88 L 550.36 306.55 L 550.70 306.32 L 551.11 306.24 L 551.53 306.32 L 551.87 306.55 L 552.10 306.88 L 552.18 307.30 L 552.18 312.00 L 551.87 312.76 L 551.11 313.07 Z" fill="#ef4923" fill-rule="nonzero" group-id="1,4,10,27,34,43,54,59" id="Path_1131" node-id="57" stroke="none" target-height="6.833008" target-width="2.131958" target-x="550.04803" target-y="306.237"></path><path d="M 551.11 321.30 L 550.70 321.21 L 550.36 320.99 L 550.13 320.65 L 550.05 320.23 L 550.05 315.53 L 550.13 315.11 L 550.36 314.78 L 550.70 314.55 L 551.11 314.47 L 551.53 314.55 L 551.87 314.78 L 552.10 315.11 L 552.18 315.53 L 552.18 320.23 L 552.10 320.65 L 551.87 320.99 L 551.53 321.21 L 551.11 321.30 L 551.11 321.30 Z" fill="#ef4923" fill-rule="nonzero" group-id="1,4,10,27,34,43,55,60" id="Path_1132" node-id="60" stroke="none" target-height="6.8329773" target-width="2.131958" target-x="550.04803" target-y="314.466"></path><path d="M 557.71 314.83 L 553.49 314.83 L 553.07 314.75 L 552.74 314.52 L 552.51 314.18 L 552.42 313.77 L 552.51 313.35 L 552.74 313.01 L 553.07 312.79 L 553.49 312.70 L 557.71 312.70 L 558.13 312.79 L 558.47 313.01 L 558.70 313.35 L 558.78 313.77 L 558.70 314.18 L 558.47 314.52 L 558.13 314.75 L 557.71 314.83 Z" fill="#ef4923" fill-rule="nonzero" group-id="1,4,10,27,34,44,56,61" id="Path_1133" node-id="64" stroke="none" target-height="2.1330261" target-width="6.3569946" target-x="552.4235" target-y="312.69998"></path><path d="M 548.74 314.83 L 544.51 314.83 L 544.09 314.75 L 543.76 314.52 L 543.53 314.18 L 543.45 313.77 L 543.53 313.35 L 543.76 313.01 L 544.09 312.79 L 544.51 312.70 L 548.74 312.70 L 549.16 312.79 L 549.49 313.01 L 549.72 313.35 L 549.80 313.77 L 549.72 314.18 L 549.49 314.52 L 549.16 314.75 L 548.74 314.83 L 548.74 314.83 Z" fill="#ef4923" fill-rule="nonzero" group-id="1,4,10,27,34,44,57,62" id="Path_1134" node-id="67" stroke="none" target-height="2.1330261" target-width="6.357971" target-x="543.44653" target-y="312.69998"></path><path d="M 94.76 167.63 L 91.77 167.42 L 89.14 166.89 L 86.80 166.08 L 84.74 164.99 L 82.22 163.10 L 80.17 160.90 L 78.54 158.37 L 77.34 155.60 L 76.58 152.72 L 76.25 149.69 L 76.36 146.66 L 76.92 143.73 L 77.92 140.89 L 79.37 138.26 L 81.26 135.94 L 83.63 133.89 L 85.62 132.67 L 87.89 131.72 L 90.48 131.02 L 93.45 130.62 L 94.13 130.58 L 94.12 130.14 L 94.44 124.75 L 95.35 119.55 L 96.86 114.52 L 98.92 109.70 L 101.50 105.18 L 104.60 100.94 L 108.16 97.09 L 112.16 93.65 L 116.64 90.63 L 121.44 88.15 L 126.37 86.29 L 131.47 85.02 L 136.67 84.34 L 141.87 84.25 L 147.10 84.75 L 152.23 85.85 L 157.22 87.54 L 162.11 89.85 L 164.96 85.20 L 168.21 81.02 L 171.87 77.27 L 175.92 73.95 L 180.24 71.12 L 184.86 68.77 L 189.70 66.94 L 194.70 65.64 L 199.88 64.89 L 205.12 64.70 L 210.40 65.12 L 215.76 66.14 L 220.97 67.77 L 225.82 69.90 L 230.34 72.54 L 234.55 75.65 L 238.35 79.16 L 241.75 83.06 L 244.71 87.31 L 247.18 91.85 L 249.18 96.69 L 250.63 101.72 L 251.52 106.94 L 251.83 112.39 L 251.64 116.58 L 257.51 115.23 L 263.33 114.53 L 269.14 114.45 L 274.92 114.98 L 280.54 116.09 L 286.03 117.77 L 291.32 120.02 L 296.34 122.79 L 301.10 126.11 L 305.49 129.90 L 309.49 134.19 L 313.12 139.00 L 314.48 141.41 L 315.43 143.80 L 316.01 146.20 L 316.22 148.62 L 316.00 151.87 L 315.24 154.95 L 313.94 157.89 L 312.17 160.58 L 309.99 162.89 L 307.37 164.87 L 304.45 166.35 L 301.22 167.27 L 297.59 167.63 L 94.76 167.63 Z" fill="#98bef7" fill-rule="nonzero" group-id="1,4" id="Path_1135" node-id="68" stroke="none" target-height="102.92451" target-width="239.9714" target-x="76.24775" target-y="64.7035"></path><path d="M 547.00 206.76 L 544.30 206.47 L 542.09 205.74 L 540.28 204.61 L 538.74 203.11 L 537.58 201.40 L 536.77 199.45 L 536.32 197.37 L 536.25 195.30 L 536.55 193.21 L 537.22 191.21 L 538.25 189.43 L 539.68 187.83 L 541.41 186.59 L 543.56 185.73 L 546.24 185.26 L 546.63 185.23 L 546.63 184.98 L 546.82 181.84 L 547.35 178.82 L 548.22 175.90 L 549.42 173.10 L 550.92 170.47 L 552.72 168.01 L 554.79 165.77 L 557.12 163.77 L 559.72 162.02 L 562.51 160.58 L 565.38 159.50 L 568.34 158.76 L 571.36 158.36 L 574.38 158.31 L 577.42 158.60 L 580.40 159.24 L 583.30 160.22 L 586.14 161.56 L 588.42 158.00 L 591.09 154.94 L 594.16 152.32 L 597.58 150.18 L 601.21 148.57 L 605.10 147.49 L 609.10 146.98 L 613.16 147.07 L 617.32 147.78 L 621.33 149.12 L 624.95 150.96 L 628.24 153.30 L 631.15 156.09 L 633.59 159.23 L 635.59 162.73 L 637.06 166.49 L 637.96 170.45 L 638.29 174.66 L 638.18 177.10 L 642.74 176.14 L 647.23 175.83 L 651.69 176.16 L 656.07 177.11 L 660.21 178.62 L 664.17 180.71 L 667.79 183.33 L 671.03 186.45 L 673.91 190.13 L 674.83 191.87 L 675.41 193.68 L 675.66 195.57 L 675.57 197.48 L 675.14 199.33 L 674.37 201.14 L 673.27 202.78 L 671.95 204.15 L 670.40 205.26 L 668.68 206.09 L 666.85 206.59 L 664.88 206.76 L 547.00 206.76 Z" fill="#b3d9ff" fill-rule="nonzero" group-id="1,4" id="Path_1136" node-id="69" stroke="none" target-height="59.7874" target-width="139.40582" target-x="536.2514" target-y="146.97661"></path><path d="M 209.37 217.91 L 207.27 217.69 L 205.39 216.89 L 203.81 215.58 L 202.66 213.81 L 202.08 211.78 L 202.12 209.73 L 202.75 207.78 L 203.97 206.05 L 205.64 204.76 L 207.55 204.04 L 209.60 203.90 L 211.65 204.38 L 213.47 205.45 L 214.86 206.96 L 215.75 208.81 L 216.06 210.90 L 215.84 212.76 L 215.21 214.37 L 214.17 215.78 L 212.80 216.89 L 211.23 217.60 L 209.37 217.91 L 209.37 217.91 Z M 209.37 206.08 L 207.93 206.24 L 206.64 206.78 L 205.56 207.68 L 204.77 208.90 L 204.37 210.29 L 204.40 211.70 L 204.83 213.03 L 205.66 214.22 L 206.81 215.11 L 208.12 215.60 L 209.53 215.70 L 210.94 215.37 L 212.19 214.63 L 213.14 213.60 L 213.75 212.33 L 213.97 210.90 L 213.81 209.62 L 213.38 208.51 L 212.67 207.54 L 211.73 206.78 L 210.65 206.30 L 209.37 206.08 L 209.37 206.08 Z" fill="#499d75" fill-rule="nonzero" group-id="1,4,11,28" id="Path_1137" node-id="72" stroke="none" target-height="14.008743" target-width="13.982727" target-x="202.08026" target-y="203.89925"></path><path d="M 204.79 179.42 L 202.68 179.21 L 200.80 178.41 L 199.22 177.10 L 198.07 175.33 L 197.49 173.30 L 197.53 171.25 L 198.16 169.30 L 199.37 167.57 L 201.05 166.28 L 202.96 165.56 L 205.01 165.42 L 207.06 165.90 L 208.88 166.97 L 210.27 168.48 L 211.16 170.33 L 211.47 172.41 L 211.25 174.28 L 210.62 175.89 L 209.58 177.30 L 208.22 178.41 L 206.64 179.12 L 204.79 179.42 Z M 204.79 167.60 L 203.34 167.75 L 202.05 168.30 L 200.97 169.20 L 200.18 170.41 L 199.78 171.81 L 199.81 173.21 L 200.24 174.55 L 201.07 175.74 L 202.22 176.62 L 203.53 177.12 L 204.94 177.22 L 206.35 176.89 L 207.60 176.15 L 208.55 175.11 L 209.16 173.85 L 209.37 172.41 L 209.22 171.13 L 208.79 170.03 L 208.07 169.06 L 207.14 168.30 L 206.06 167.81 L 204.79 167.60 L 204.79 167.60 Z" fill="#2355f5" fill-rule="nonzero" group-id="1,4,11,29" id="Path_1138" node-id="74" stroke="none" target-height="14.008728" target-width="13.982651" target-x="197.49034" target-y="165.41626"></path><path d="M 236.07 180.91 L 235.65 180.81 L 235.32 180.57 L 235.10 180.23 L 235.03 179.81 L 235.03 174.96 L 235.33 174.21 L 236.07 173.91 L 236.82 174.21 L 237.12 174.96 L 237.12 179.81 L 237.05 180.22 L 236.83 180.57 L 236.48 180.81 L 236.07 180.91 Z" fill="#2355f5" fill-rule="nonzero" group-id="1,4,11,30,35,45" id="Path_1139" node-id="78" stroke="none" target-height="7" target-width="2.0999908" target-x="235.025" target-y="173.905"></path><path d="M 236.07 189.39 L 235.65 189.30 L 235.32 189.06 L 235.10 188.72 L 235.03 188.29 L 235.03 183.44 L 235.33 182.70 L 236.07 182.39 L 236.82 182.70 L 237.12 183.44 L 237.12 188.29 L 237.05 188.71 L 236.83 189.06 L 236.48 189.30 L 236.07 189.39 L 236.07 189.39 Z" fill="#2355f5" fill-rule="nonzero" group-id="1,4,11,30,35,46" id="Path_1140" node-id="80" stroke="none" target-height="6.999008" target-width="2.0999908" target-x="235.025" target-y="182.39299"></path><path d="M 242.57 182.72 L 238.41 182.72 L 237.98 182.64 L 237.63 182.40 L 237.40 182.06 L 237.31 181.62 L 237.40 181.19 L 237.63 180.85 L 237.98 180.61 L 238.41 180.52 L 242.57 180.52 L 243.00 180.61 L 243.35 180.85 L 243.58 181.19 L 243.67 181.62 L 243.58 182.06 L 243.35 182.40 L 243.00 182.64 L 242.57 182.72 Z" fill="#2355f5" fill-rule="nonzero" group-id="1,4,11,30,36,47,58" id="Path_1141" node-id="84" stroke="none" target-height="2.199997" target-width="6.3559875" target-x="237.312" target-y="180.524"></path><path d="M 233.74 182.72 L 229.58 182.72 L 229.15 182.64 L 228.80 182.40 L 228.57 182.06 L 228.48 181.62 L 228.57 181.19 L 228.80 180.85 L 229.15 180.61 L 229.58 180.52 L 233.74 180.52 L 234.17 180.61 L 234.51 180.85 L 234.75 181.19 L 234.84 181.62 L 234.75 182.06 L 234.51 182.40 L 234.17 182.64 L 233.74 182.72 Z" fill="#2355f5" fill-rule="nonzero" group-id="1,4,11,30,36,48" id="Path_1142" node-id="86" stroke="none" target-height="2.199997" target-width="6.356003" target-x="228.48099" target-y="180.524"></path><path d="M 231.66 142.85 L 231.25 142.76 L 230.91 142.52 L 230.68 142.16 L 230.61 141.75 L 230.61 136.90 L 230.73 136.35 L 231.12 135.95 L 231.66 135.80 L 232.20 135.95 L 232.58 136.35 L 232.71 136.90 L 232.71 141.75 L 232.64 142.16 L 232.41 142.52 L 232.07 142.76 L 231.66 142.85 L 231.66 142.85 Z" fill="#499d75" fill-rule="nonzero" group-id="1,4,11,31,37,49" id="Path_1143" node-id="90" stroke="none" target-height="7.0468445" target-width="2.0999908" target-x="230.609" target-y="135.80215"></path><path d="M 231.66 151.34 L 231.25 151.24 L 230.91 151.00 L 230.68 150.65 L 230.61 150.24 L 230.61 145.38 L 230.73 144.84 L 231.12 144.43 L 231.66 144.29 L 232.20 144.43 L 232.58 144.84 L 232.71 145.38 L 232.71 150.23 L 232.64 150.65 L 232.41 151.00 L 232.07 151.24 L 231.66 151.34 Z" fill="#499d75" fill-rule="nonzero" group-id="1,4,11,31,37,50" id="Path_1144" node-id="92" stroke="none" target-height="7.049835" target-width="2.0999908" target-x="230.609" target-y="144.28616"></path><path d="M 238.15 144.67 L 234.00 144.67 L 233.57 144.58 L 233.22 144.35 L 232.98 144.00 L 232.90 143.57 L 232.98 143.14 L 233.22 142.79 L 233.57 142.56 L 234.00 142.47 L 238.15 142.47 L 238.58 142.56 L 238.93 142.79 L 239.17 143.14 L 239.25 143.57 L 239.17 144.00 L 238.93 144.35 L 238.58 144.58 L 238.15 144.67 L 238.15 144.67 Z" fill="#499d75" fill-rule="nonzero" group-id="1,4,11,31,38,51" id="Path_1145" node-id="95" stroke="none" target-height="2.199997" target-width="6.356003" target-x="232.89699" target-y="142.468"></path><path d="M 229.32 144.67 L 225.16 144.67 L 224.73 144.58 L 224.39 144.35 L 224.15 144.00 L 224.06 143.57 L 224.15 143.14 L 224.39 142.79 L 224.73 142.56 L 225.16 142.47 L 229.32 142.47 L 229.75 142.56 L 230.10 142.79 L 230.33 143.14 L 230.42 143.57 L 230.33 144.00 L 230.10 144.35 L 229.75 144.58 L 229.32 144.67 Z" fill="#499d75" fill-rule="nonzero" group-id="1,4,11,31,38,52" id="Path_1146" node-id="97" stroke="none" target-height="2.199997" target-width="6.356003" target-x="224.06499" target-y="142.468"></path><path d="M 86.06 657.54 L 761.98 657.54 L 763.41 657.83 L 764.55 658.60 L 765.33 659.75 L 765.62 661.18 L 765.62 661.18 L 765.33 662.61 L 764.55 663.75 L 763.41 664.53 L 761.98 664.82 L 86.06 664.82 L 84.63 664.53 L 83.48 663.75 L 82.71 662.61 L 82.42 661.18 L 82.42 661.18 L 82.71 659.75 L 83.48 658.60 L 84.63 657.83 L 86.06 657.54 Z" fill="#8dbffc" fill-rule="nonzero" group-id="1" id="Line" node-id="98" stroke="none" target-height="7.2819824" target-width="683.205" target-x="82.415" target-y="657.538"></path><path d="M 568.97 577.80 L 568.71 572.74 L 568.02 567.85 L 566.92 563.12 L 565.39 558.51 L 562.80 552.57 L 559.67 546.86 L 555.97 541.36 L 551.86 536.15 L 547.43 531.19 L 542.65 526.48 L 537.64 522.02 L 532.56 517.86 L 527.40 514.00 L 519.53 508.62 L 512.15 504.06 L 512.15 447.49 L 511.90 443.67 L 511.16 440.00 L 509.95 436.45 L 508.30 433.08 L 506.22 429.97 L 503.70 427.09 L 500.82 424.57 L 497.71 422.49 L 494.34 420.83 L 490.78 419.62 L 487.11 418.89 L 483.29 418.63 L 163.14 418.63 L 159.18 418.91 L 155.44 419.67 L 151.91 420.90 L 148.56 422.59 L 145.51 424.64 L 142.73 427.09 L 140.29 429.86 L 138.23 432.91 L 136.55 436.26 L 135.31 439.80 L 134.56 443.53 L 134.28 447.49 L 134.28 565.18 L 134.52 570.76 L 135.17 576.15 L 136.24 581.36 L 137.71 586.42 L 139.58 591.37 L 141.79 596.08 L 144.34 600.58 L 147.24 604.86 L 150.47 608.92 L 153.96 612.69 L 157.73 616.18 L 161.79 619.41 L 166.08 622.31 L 170.57 624.86 L 175.28 627.07 L 180.23 628.94 L 185.29 630.42 L 190.50 631.48 L 195.89 632.13 L 201.47 632.37 L 512.15 632.37 L 512.15 631.86 L 568.97 631.86 L 568.97 577.80 Z" fill="#fdbd28" fill-rule="nonzero" group-id="1,5" id="Path_1147" node-id="100" stroke="none" target-height="213.737" target-width="434.68597" target-x="134.281" target-y="418.633"></path><path d="M 568.08 621.42 L 167.84 621.42 L 165.39 621.18 L 163.14 620.43 L 161.02 619.17 L 161.02 619.24 L 166.79 623.33 L 172.85 626.96 L 177.75 629.70 L 182.72 632.04 L 186.14 633.32 L 189.81 634.33 L 193.76 635.06 L 202.91 636.04 L 212.09 636.65 L 221.29 636.91 L 234.93 636.92 L 248.56 636.63 L 262.19 636.29 L 275.83 636.13 L 370.58 636.13 L 568.08 636.13 L 570.64 635.86 L 572.88 635.12 L 574.83 633.95 L 576.29 632.49 L 577.00 631.33 L 577.43 630.10 L 577.59 628.77 L 577.43 627.45 L 577.00 626.22 L 576.29 625.06 L 574.83 623.59 L 572.88 622.42 L 570.64 621.69 L 568.08 621.42 Z" fill="#f97700" fill-rule="nonzero" group-id="1,5" id="Path_1148" node-id="101" stroke="none" target-height="17.747925" target-width="416.57397" target-x="161.01501" target-y="619.17"></path><path d="M 185.28 552.17 L 185.42 553.11 L 185.76 553.99 L 186.16 554.41 L 186.66 554.66 L 187.21 554.73 L 187.78 554.61 L 188.24 554.20 L 188.51 553.67 L 188.57 553.09 L 188.39 552.50 L 186.70 549.86 L 183.26 544.80 L 182.32 543.18 L 181.70 541.45 L 181.41 539.60 L 181.53 538.28 L 181.91 537.04 L 182.55 535.91 L 183.43 534.92 L 185.13 533.73 L 186.98 533.00 L 189.04 532.71 L 191.13 532.99 L 192.92 533.82 L 193.84 534.69 L 194.41 535.81 L 194.63 537.29 L 194.53 538.11 L 194.27 538.67 L 193.82 539.07 L 193.04 539.34 L 192.08 539.22 L 191.34 538.61 L 190.82 537.72 L 190.50 536.81 L 189.70 536.50 L 188.85 536.38 L 187.65 536.60 L 186.52 537.20 L 185.69 538.12 L 185.34 539.24 L 185.46 540.21 L 185.86 541.09 L 187.38 543.56 L 189.04 545.93 L 191.97 550.12 L 192.74 551.57 L 193.17 552.98 L 193.30 554.37 L 192.98 555.79 L 192.35 556.91 L 191.40 557.79 L 189.61 558.66 L 187.58 558.95 L 185.56 558.68 L 183.80 557.90 L 182.83 557.09 L 182.16 556.07 L 181.77 554.79 L 181.77 552.84 L 182.00 551.89 L 182.40 551.12 L 183.00 550.58 L 183.85 550.38 L 184.48 550.53 L 184.89 550.92 L 185.28 552.17 Z" fill="#2c327e" fill-rule="nonzero" group-id="1,5,12" id="Path_1149" node-id="103" stroke="none" target-height="26.236023" target-width="13.216003" target-x="181.41101" target-y="532.71497"></path><path d="M 208.36 556.16 L 205.83 556.21 L 203.40 555.81 L 201.02 554.96 L 199.17 553.78 L 197.78 552.17 L 196.91 550.22 L 196.64 548.05 L 196.69 545.41 L 197.17 542.88 L 198.10 540.42 L 199.16 538.66 L 200.50 537.11 L 202.34 535.67 L 204.38 534.73 L 206.67 534.25 L 208.04 534.35 L 209.33 534.76 L 210.48 535.47 L 211.44 536.46 L 212.27 538.14 L 212.55 539.99 L 212.48 541.24 L 212.11 542.38 L 211.44 543.44 L 210.39 544.39 L 209.64 544.73 L 208.91 544.74 L 208.26 544.44 L 207.80 544.00 L 207.56 543.41 L 207.60 542.77 L 207.90 542.20 L 208.46 540.83 L 208.52 539.35 L 208.28 538.76 L 207.89 538.28 L 207.38 537.95 L 206.77 537.79 L 205.61 537.95 L 204.52 538.49 L 202.71 539.99 L 201.50 541.58 L 200.79 543.25 L 200.43 545.03 L 200.34 546.91 L 200.51 548.47 L 200.91 549.62 L 201.50 550.46 L 202.82 551.42 L 204.95 552.14 L 206.71 552.42 L 208.49 552.43 L 210.20 552.11 L 211.76 551.46 L 213.20 550.48 L 213.66 550.29 L 214.17 550.33 L 214.61 550.58 L 214.89 551.00 L 215.08 551.78 L 215.01 552.55 L 214.70 553.26 L 214.17 553.86 L 212.41 555.10 L 210.49 555.86 L 208.36 556.16 L 208.36 556.16 Z" fill="#2c327e" fill-rule="nonzero" group-id="1,5,12" id="Path_1150" node-id="104" stroke="none" target-height="21.960632" target-width="18.437195" target-x="196.638" target-y="534.247"></path><path d="M 223.06 548.08 L 222.97 551.78 L 222.93 555.45 L 222.80 556.29 L 222.53 556.92 L 222.08 557.36 L 221.31 557.56 L 220.20 557.40 L 219.51 556.88 L 219.04 556.08 L 218.71 555.06 L 218.29 552.30 L 217.96 546.72 L 217.73 538.63 L 217.73 534.61 L 217.84 533.67 L 218.26 532.87 L 218.93 532.27 L 219.81 531.94 L 220.59 532.05 L 221.15 532.45 L 221.55 533.07 L 221.81 533.81 L 222.02 535.16 L 222.41 542.01 L 222.57 543.54 L 224.51 543.32 L 226.40 542.89 L 226.21 539.85 L 226.24 536.82 L 226.39 535.95 L 226.64 535.43 L 227.08 535.10 L 227.80 534.93 L 228.63 535.02 L 229.27 535.43 L 229.77 536.07 L 230.14 536.84 L 230.53 538.34 L 231.86 547.27 L 232.80 553.08 L 232.92 554.01 L 232.88 554.91 L 232.52 555.65 L 231.63 556.13 L 230.97 556.16 L 230.34 556.00 L 229.80 555.66 L 229.36 555.16 L 228.58 553.81 L 228.09 552.34 L 227.58 549.91 L 227.22 547.63 L 223.06 548.08 L 223.06 548.08 Z" fill="#2c327e" fill-rule="nonzero" group-id="1,5,12" id="Path_1151" node-id="105" stroke="none" target-height="25.619019" target-width="15.187958" target-x="217.73401" target-y="531.944"></path><path d="M 238.03 537.33 L 239.92 535.25 L 240.91 534.63 L 242.02 534.39 L 243.14 534.51 L 244.20 535.03 L 245.18 535.60 L 246.22 535.86 L 247.35 535.80 L 248.55 535.67 L 249.75 535.84 L 251.10 536.49 L 252.24 537.41 L 253.15 538.57 L 253.78 539.93 L 254.52 542.79 L 254.72 545.74 L 254.58 547.67 L 254.14 549.44 L 253.40 551.09 L 252.39 552.59 L 251.16 553.88 L 249.71 554.96 L 248.10 555.78 L 246.34 556.30 L 244.43 556.52 L 242.32 556.25 L 240.41 555.54 L 238.65 554.35 L 237.25 552.65 L 236.31 550.76 L 235.79 548.63 L 235.59 545.51 L 235.85 542.61 L 236.66 539.90 L 238.03 537.33 Z M 239.53 546.20 L 239.75 548.22 L 240.50 550.12 L 241.14 550.96 L 241.95 551.60 L 242.90 552.01 L 243.94 552.17 L 245.25 552.13 L 246.50 551.81 L 247.66 551.24 L 248.68 550.42 L 249.69 548.70 L 250.27 546.88 L 250.44 544.90 L 250.34 542.79 L 250.11 541.72 L 249.59 540.82 L 248.80 540.12 L 247.80 539.70 L 244.43 539.02 L 243.06 538.95 L 242.13 539.11 L 241.39 539.60 L 240.69 540.71 L 239.82 543.39 L 239.53 546.20 L 239.53 546.20 Z" fill="#2c327e" fill-rule="nonzero" group-id="1,5,12" id="Path_1152" node-id="106" stroke="none" target-height="22.135254" target-width="19.125" target-x="235.59401" target-y="534.38574"></path><path d="M 259.17 537.33 L 261.05 535.25 L 262.05 534.63 L 263.15 534.39 L 264.28 534.51 L 265.34 535.03 L 266.31 535.60 L 267.35 535.86 L 268.49 535.80 L 269.69 535.67 L 270.89 535.84 L 272.23 536.49 L 273.38 537.41 L 274.28 538.57 L 274.91 539.93 L 275.66 542.79 L 275.85 545.74 L 275.72 547.67 L 275.28 549.44 L 274.54 551.09 L 273.52 552.60 L 272.30 553.88 L 270.84 554.96 L 269.23 555.78 L 267.48 556.30 L 265.56 556.52 L 263.45 556.25 L 261.54 555.53 L 259.78 554.35 L 258.39 552.65 L 257.44 550.76 L 256.92 548.63 L 256.72 545.51 L 256.99 542.61 L 257.80 539.90 L 259.17 537.33 L 259.17 537.33 Z M 260.66 546.20 L 260.88 548.22 L 261.63 550.12 L 262.28 550.96 L 263.09 551.60 L 264.03 552.01 L 265.08 552.17 L 266.39 552.13 L 267.64 551.81 L 268.80 551.24 L 269.82 550.42 L 270.83 548.70 L 271.41 546.88 L 271.57 544.90 L 271.47 542.79 L 271.25 541.72 L 270.72 540.82 L 269.94 540.12 L 268.94 539.70 L 265.56 539.02 L 264.20 538.95 L 263.27 539.11 L 262.52 539.60 L 261.83 540.71 L 260.96 543.39 L 260.66 546.20 L 260.66 546.20 Z" fill="#2c327e" fill-rule="nonzero" group-id="1,5,12" id="Path_1153" node-id="107" stroke="none" target-height="22.135254" target-width="19.130005" target-x="256.724" target-y="534.38574"></path><path d="M 291.99 553.63 L 289.71 553.62 L 287.57 554.12 L 285.53 555.12 L 283.13 556.75 L 282.48 557.00 L 281.80 557.03 L 281.15 556.86 L 280.56 556.49 L 279.84 555.35 L 279.62 554.02 L 279.59 550.32 L 279.22 542.89 L 278.52 535.45 L 278.60 534.81 L 279.09 534.29 L 280.21 533.86 L 281.18 533.92 L 281.89 534.34 L 282.42 535.01 L 282.81 535.86 L 283.19 537.59 L 284.00 547.79 L 284.07 549.68 L 284.13 551.46 L 285.10 551.15 L 285.89 550.87 L 288.10 550.18 L 290.37 549.70 L 291.86 549.65 L 293.32 549.90 L 294.03 550.21 L 294.56 550.72 L 294.89 551.38 L 294.98 552.14 L 294.59 552.97 L 293.85 553.45 L 292.92 553.64 L 291.99 553.63 Z" fill="#2c327e" fill-rule="nonzero" group-id="1,5,12" id="Path_1154" node-id="108" stroke="none" target-height="23.174438" target-width="16.462006" target-x="278.518" target-y="533.859"></path><path d="M 309.68 537.62 L 309.69 536.71 L 310.17 535.93 L 312.07 534.59 L 314.20 533.66 L 315.62 533.27 L 317.09 533.11 L 318.57 533.33 L 319.79 533.88 L 320.81 534.77 L 321.59 535.90 L 322.09 537.13 L 322.31 538.50 L 322.15 540.31 L 321.57 542.04 L 322.79 542.73 L 323.87 543.63 L 324.87 544.83 L 325.61 546.19 L 326.06 547.66 L 326.21 549.21 L 325.87 551.09 L 324.94 552.75 L 323.49 554.39 L 321.85 555.79 L 320.01 556.98 L 317.93 557.76 L 315.72 557.95 L 314.29 557.62 L 313.12 556.85 L 312.27 555.72 L 311.86 554.31 L 311.73 551.85 L 311.89 539.54 L 311.02 539.23 L 310.38 538.86 L 309.93 538.35 L 309.68 537.62 Z M 315.17 551.00 L 315.25 551.99 L 315.59 552.92 L 316.26 553.31 L 317.02 553.40 L 318.55 553.27 L 319.96 552.77 L 321.21 551.93 L 322.22 550.77 L 322.69 549.64 L 322.68 548.40 L 322.01 547.11 L 320.96 546.21 L 319.65 545.77 L 318.19 545.87 L 316.75 546.20 L 315.27 546.13 L 315.17 551.00 L 315.17 551.00 Z M 315.56 542.20 L 316.97 541.85 L 318.25 541.16 L 318.72 540.64 L 319.02 540.03 L 319.12 539.36 L 319.03 538.66 L 318.83 538.13 L 318.47 537.71 L 318.00 537.42 L 317.44 537.30 L 316.34 537.30 L 315.33 537.75 L 315.56 542.20 L 315.56 542.20 Z" fill="#2c327e" fill-rule="nonzero" group-id="1,5,12" id="Path_1155" node-id="109" stroke="none" target-height="24.840027" target-width="16.527039" target-x="309.68298" target-y="533.11"></path><path d="M 340.07 550.16 L 341.04 547.56 L 341.57 544.83 L 341.70 540.67 L 341.46 538.42 L 341.05 536.19 L 340.96 534.95 L 341.40 533.79 L 342.28 533.13 L 343.38 533.05 L 344.09 533.31 L 344.58 533.79 L 345.14 535.09 L 345.73 538.68 L 345.90 542.28 L 345.62 545.90 L 345.16 548.83 L 344.11 551.55 L 342.54 554.00 L 340.46 556.11 L 339.32 556.85 L 338.08 557.30 L 336.73 557.47 L 335.19 557.27 L 333.78 556.72 L 332.53 555.86 L 331.50 554.71 L 330.39 552.82 L 329.65 550.82 L 329.26 548.67 L 328.74 543.11 L 328.68 537.53 L 328.76 536.31 L 329.06 535.28 L 329.68 534.56 L 330.88 534.25 L 331.61 534.41 L 332.09 534.79 L 332.60 535.88 L 332.70 536.72 L 333.06 546.33 L 333.34 548.32 L 333.94 550.23 L 334.43 551.20 L 335.11 552.08 L 335.98 552.71 L 337.09 552.96 L 338.07 552.69 L 338.91 552.02 L 339.58 551.11 L 340.07 550.16 Z" fill="#2c327e" fill-rule="nonzero" group-id="1,5,12" id="Path_1156" node-id="110" stroke="none" target-height="24.421997" target-width="17.220093" target-x="328.67603" target-y="533.047"></path><path d="M 352.34 552.17 L 352.48 553.11 L 352.83 553.99 L 353.23 554.41 L 353.73 554.66 L 354.28 554.73 L 354.84 554.61 L 355.31 554.20 L 355.58 553.67 L 355.63 553.09 L 355.46 552.50 L 353.77 549.86 L 350.33 544.80 L 349.38 543.18 L 348.77 541.45 L 348.48 539.60 L 348.60 538.28 L 348.98 537.04 L 349.62 535.91 L 350.49 534.92 L 352.20 533.73 L 354.05 533.00 L 356.11 532.71 L 358.19 532.99 L 359.99 533.82 L 360.91 534.69 L 361.48 535.81 L 361.69 537.29 L 361.59 538.11 L 361.34 538.67 L 360.89 539.07 L 360.10 539.34 L 359.14 539.22 L 358.41 538.61 L 357.89 537.72 L 357.57 536.81 L 356.77 536.50 L 355.92 536.38 L 354.71 536.60 L 353.59 537.20 L 352.76 538.12 L 352.41 539.24 L 352.53 540.21 L 352.93 541.09 L 354.45 543.56 L 356.11 545.93 L 359.04 550.12 L 359.81 551.57 L 360.24 552.98 L 360.36 554.37 L 360.05 555.79 L 359.42 556.91 L 358.47 557.79 L 356.68 558.66 L 354.65 558.95 L 352.63 558.68 L 350.87 557.90 L 349.90 557.09 L 349.23 556.07 L 348.84 554.79 L 348.83 552.84 L 349.07 551.89 L 349.47 551.12 L 350.07 550.58 L 350.92 550.38 L 351.55 550.53 L 351.96 550.92 L 352.34 552.17 Z" fill="#2c327e" fill-rule="nonzero" group-id="1,5,12" id="Path_1157" node-id="111" stroke="none" target-height="26.236023" target-width="13.216003" target-x="348.479" target-y="532.71497"></path><path d="M 167.42 566.39 L 375.97 566.39 L 375.97 570.90 L 167.42 570.90 Z" fill="#f97700" fill-rule="nonzero" group-id="1,5" id="Path_2257" node-id="112" stroke="none" target-height="4.508972" target-width="208.555" target-x="167.419" target-y="566.395"></path><path d="M 300.69 620.01 L 300.46 624.27 L 299.84 628.34 L 298.84 632.23 L 297.46 635.98 L 295.71 639.60 L 293.67 642.96 L 291.33 646.10 L 288.67 649.03 L 285.75 651.68 L 282.61 654.03 L 279.24 656.07 L 275.63 657.82 L 271.88 659.20 L 267.98 660.20 L 263.91 660.82 L 259.65 661.04 L 255.39 660.82 L 251.33 660.20 L 247.43 659.20 L 243.68 657.82 L 240.07 656.07 L 236.70 654.03 L 233.56 651.68 L 230.64 649.03 L 227.98 646.10 L 225.63 642.96 L 223.59 639.60 L 221.84 635.98 L 220.46 632.23 L 219.46 628.34 L 218.85 624.27 L 218.62 620.01 L 218.85 615.75 L 219.46 611.68 L 220.46 607.79 L 221.84 604.04 L 223.59 600.42 L 225.63 597.06 L 227.98 593.92 L 230.64 590.99 L 233.56 588.34 L 236.70 585.99 L 240.07 583.95 L 243.68 582.20 L 247.43 580.82 L 251.33 579.82 L 255.39 579.20 L 259.65 578.98 L 263.91 579.20 L 267.98 579.82 L 271.88 580.82 L 275.63 582.20 L 279.24 583.95 L 282.61 585.99 L 285.75 588.34 L 288.67 590.99 L 291.33 593.92 L 293.67 597.06 L 295.71 600.42 L 297.46 604.04 L 298.84 607.79 L 299.84 611.68 L 300.46 615.75 L 300.69 620.01 Z" fill="#2c327e" fill-rule="nonzero" group-id="1,5" id="Ellipse_107" node-id="113" stroke="none" target-height="82.06799" target-width="82.06801" target-x="218.619" target-y="578.976"></path><path d="M 548.24 620.01 L 548.01 624.27 L 547.40 628.34 L 546.40 632.23 L 545.02 635.98 L 543.27 639.60 L 541.23 642.96 L 538.88 646.10 L 536.22 649.03 L 533.30 651.68 L 530.16 654.03 L 526.79 656.07 L 523.18 657.82 L 519.43 659.20 L 515.53 660.20 L 511.47 660.82 L 507.21 661.04 L 502.95 660.82 L 498.88 660.20 L 494.98 659.20 L 491.23 657.82 L 487.62 656.07 L 484.25 654.03 L 481.11 651.68 L 478.19 649.03 L 475.53 646.10 L 473.19 642.96 L 471.15 639.60 L 469.40 635.98 L 468.02 632.23 L 467.02 628.34 L 466.40 624.27 L 466.17 620.01 L 466.40 615.75 L 467.02 611.68 L 468.02 607.79 L 469.40 604.04 L 471.15 600.42 L 473.19 597.06 L 475.53 593.92 L 478.19 590.99 L 481.11 588.34 L 484.25 585.99 L 487.62 583.95 L 491.23 582.20 L 494.98 580.82 L 498.88 579.82 L 502.95 579.20 L 507.21 578.98 L 511.47 579.20 L 515.53 579.82 L 519.43 580.82 L 523.18 582.20 L 526.79 583.95 L 530.16 585.99 L 533.30 588.34 L 536.22 590.99 L 538.88 593.92 L 541.23 597.06 L 543.27 600.42 L 545.02 604.04 L 546.40 607.79 L 547.40 611.68 L 548.01 615.75 L 548.24 620.01 Z" fill="#2c327e" fill-rule="nonzero" group-id="1,5" id="Ellipse_108" node-id="114" stroke="none" target-height="82.06799" target-width="82.06799" target-x="466.17303" target-y="578.976"></path><path d="M 548.24 581.85 L 548.50 583.71 L 549.23 585.46 L 550.46 587.12 L 552.01 588.54 L 553.93 589.79 L 556.28 590.87 L 558.75 591.63 L 561.47 592.11 L 564.47 592.29 L 566.73 592.19 L 568.97 591.88 L 568.97 575.15 L 568.86 571.81 L 566.67 571.51 L 564.47 571.41 L 561.47 571.59 L 558.75 572.07 L 556.28 572.84 L 553.93 573.91 L 552.01 575.16 L 550.46 576.58 L 549.23 578.25 L 548.50 579.99 L 548.24 581.85 Z" fill="#ffffff" fill-rule="nonzero" group-id="1,5" id="Path_1158" node-id="115" stroke="none" target-height="20.88501" target-width="20.724976" target-x="548.241" target-y="571.40796"></path><path d="M 406.94 451.10 L 452.33 451.10 L 454.31 451.29 L 456.12 451.78 L 457.79 452.58 L 459.31 453.65 L 460.60 454.94 L 461.67 456.46 L 462.47 458.14 L 462.97 459.95 L 463.15 461.92 L 463.15 593.29 L 462.97 595.26 L 462.47 597.07 L 461.67 598.75 L 460.60 600.27 L 459.31 601.56 L 457.79 602.63 L 456.12 603.43 L 454.31 603.93 L 452.33 604.11 L 406.94 604.11 L 404.96 603.93 L 403.15 603.43 L 401.47 602.63 L 399.96 601.56 L 398.67 600.27 L 397.59 598.75 L 396.79 597.07 L 396.30 595.26 L 396.12 593.29 L 396.12 461.92 L 396.30 459.95 L 396.79 458.14 L 397.59 456.46 L 398.67 454.94 L 399.96 453.65 L 401.47 452.58 L 403.15 451.78 L 404.96 451.29 L 406.94 451.10 Z" fill="#f97700" fill-rule="nonzero" group-id="1,5" id="Path_2256" node-id="116" stroke="none" target-height="153.00897" target-width="67.03699" target-x="396.115" target-y="451.102"></path><path d="M 474.88 455.61 L 474.88 508.52 L 475.05 509.74 L 475.49 510.79 L 476.20 511.70 L 477.11 512.41 L 478.16 512.85 L 479.38 513.02 L 502.70 513.02 L 503.92 512.85 L 504.97 512.41 L 505.89 511.70 L 506.59 510.79 L 507.03 509.74 L 507.21 508.52 L 507.21 488.06 L 506.89 486.08 L 505.97 484.31 L 492.98 466.72 L 492.33 465.45 L 492.10 464.04 L 492.10 455.61 L 491.93 454.39 L 491.49 453.34 L 490.78 452.42 L 489.87 451.71 L 488.82 451.28 L 487.59 451.10 L 479.38 451.10 L 478.16 451.28 L 477.11 451.71 L 476.20 452.42 L 475.49 453.34 L 475.05 454.39 L 474.88 455.61 Z" fill="#c6ddff" fill-rule="nonzero" group-id="1,5" id="Path_1159" node-id="117" stroke="none" target-height="61.923035" target-width="32.330994" target-x="474.875" target-y="451.102"></path><path d="M 400.82 429.60 L 458.45 429.60 L 460.69 429.91 L 462.66 430.74 L 464.35 432.05 L 465.66 433.74 L 466.50 435.72 L 466.80 437.96 L 466.80 438.26 L 466.50 440.49 L 465.66 442.47 L 464.35 444.16 L 462.66 445.46 L 460.68 446.30 L 458.45 446.60 L 400.82 446.60 L 398.58 446.30 L 396.60 445.46 L 394.91 444.16 L 393.61 442.47 L 392.77 440.49 L 392.47 438.25 L 392.47 437.95 L 392.77 435.72 L 393.61 433.74 L 394.91 432.05 L 396.60 430.74 L 398.58 429.91 L 400.82 429.60 Z" fill="#f97700" fill-rule="nonzero" group-id="1,5" id="Path_2255" node-id="118" stroke="none" target-height="17" target-width="74.333984" target-x="392.466" target-y="429.604"></path><path d="M 463.15 526.21 L 431.63 526.21 L 431.63 451.11 L 427.63 451.11 L 427.63 526.21 L 396.11 526.21 L 396.11 530.21 L 427.63 530.21 L 427.63 604.11 L 431.63 604.11 L 431.63 530.21 L 463.15 530.21 Z" fill="#fdbd28" fill-rule="nonzero" group-id="1,5" id="Path_1160" node-id="119" stroke="none" target-height="153.00003" target-width="67.03699" target-x="396.114" target-y="451.106"></path><path d="M 274.52 620.87 L 274.26 623.63 L 273.57 626.15 L 272.45 628.49 L 270.95 630.61 L 269.16 632.41 L 267.04 633.91 L 264.69 635.03 L 262.17 635.72 L 259.41 635.98 L 256.65 635.72 L 254.13 635.03 L 251.79 633.91 L 249.67 632.41 L 247.87 630.61 L 246.37 628.49 L 245.25 626.15 L 244.56 623.63 L 244.31 620.87 L 244.56 618.11 L 245.25 615.59 L 246.37 613.25 L 247.87 611.13 L 249.67 609.33 L 251.79 607.83 L 254.13 606.71 L 256.65 606.02 L 259.41 605.76 L 262.17 606.02 L 264.69 606.71 L 267.04 607.83 L 269.16 609.33 L 270.95 611.13 L 272.45 613.25 L 273.57 615.59 L 274.26 618.11 L 274.52 620.87 Z" fill="#ffffff" fill-rule="nonzero" group-id="1,5" id="Ellipse_109" node-id="120" stroke="none" target-height="30.212036" target-width="30.21202" target-x="244.30501" target-y="605.764"></path><path d="M 522.31 620.87 L 522.06 623.63 L 521.37 626.15 L 520.25 628.49 L 518.75 630.61 L 516.95 632.41 L 514.83 633.91 L 512.49 635.03 L 509.96 635.72 L 507.21 635.98 L 504.45 635.72 L 501.92 635.03 L 499.58 633.91 L 497.46 632.41 L 495.66 630.61 L 494.16 628.49 L 493.05 626.15 L 492.36 623.63 L 492.10 620.87 L 492.36 618.11 L 493.05 615.59 L 494.16 613.25 L 495.66 611.13 L 497.46 609.33 L 499.58 607.83 L 501.92 606.71 L 504.45 606.02 L 507.21 605.76 L 509.96 606.02 L 512.49 606.71 L 514.83 607.83 L 516.95 609.33 L 518.75 611.13 L 520.25 613.25 L 521.37 615.59 L 522.06 618.11 L 522.31 620.87 Z" fill="#ffffff" fill-rule="nonzero" group-id="1,5" id="Ellipse_110" node-id="121" stroke="none" target-height="30.212036" target-width="30.211975" target-x="492.101" target-y="605.764"></path><path d="M 178.24 451.10 L 365.15 451.10 L 367.13 451.29 L 368.94 451.78 L 370.61 452.58 L 372.13 453.65 L 373.42 454.94 L 374.50 456.46 L 375.30 458.14 L 375.79 459.95 L 375.97 461.92 L 375.97 510.04 L 375.79 512.01 L 375.30 513.82 L 374.50 515.50 L 373.42 517.02 L 372.13 518.31 L 370.61 519.38 L 368.94 520.18 L 367.13 520.68 L 365.15 520.86 L 178.24 520.86 L 176.27 520.68 L 174.46 520.18 L 172.78 519.38 L 171.26 518.31 L 169.97 517.02 L 168.90 515.50 L 168.10 513.82 L 167.60 512.01 L 167.42 510.04 L 167.42 461.92 L 167.60 459.95 L 168.10 458.14 L 168.90 456.46 L 169.97 454.94 L 171.26 453.65 L 172.78 452.58 L 174.46 451.78 L 176.27 451.29 L 178.24 451.10 Z" fill="#c6ddff" fill-rule="nonzero" group-id="1,5" id="Path_2254" node-id="122" stroke="none" target-height="69.75702" target-width="208.555" target-x="167.419" target-y="451.102"></path><path d="M 218.36 451.10 L 223.36 451.10 L 223.36 520.86 L 218.36 520.86 Z" fill="#ff5a25" fill-rule="nonzero" group-id="1,5,13" id="Path_2253" node-id="124" stroke="none" target-height="69.75702" target-width="5" target-x="218.35701" target-y="451.102"></path><path d="M 270.66 451.10 L 275.66 451.10 L 275.66 520.86 L 270.66 520.86 Z" fill="#ff5a25" fill-rule="nonzero" group-id="1,5,14" id="Path_2252" node-id="126" stroke="none" target-height="69.75702" target-width="5" target-x="270.66403" target-y="451.102"></path><path d="M 322.97 451.10 L 327.97 451.10 L 327.97 520.86 L 322.97 520.86 Z" fill="#ff5a25" fill-rule="nonzero" group-id="1,5,15" id="Path_2251" node-id="128" stroke="none" target-height="69.75702" target-width="5" target-x="322.971" target-y="451.102"></path></g></svg>