<?xml version="1.0" standalone="no"?><!DOCTYPE svg PUBLIC "-//W3C//DTD SVG 1.1//EN" "http://www.w3.org/Graphics/SVG/1.1/DTD/svg11.dtd"><svg class="icon" width="200px" height="200.00px" viewBox="0 0 1024 1024" version="1.1" xmlns="http://www.w3.org/2000/svg"><path d="M903.542822 256.685726L657.599976 10.74288A36.506284 36.506284 0 0 0 631.771405 0.000023H146.285713A36.53257 36.53257 0 0 0 109.714286 36.57145v950.8571a36.53257 36.53257 0 0 0 36.571427 36.571427h731.428538a36.53257 36.53257 0 0 0 36.571427-36.571427V282.628582a36.771427 36.771427 0 0 0-10.742856-25.942856zM829.942825 299.428581H614.85712V84.342876z m2.057143 642.285686H191.999996V82.285733h345.142842v246.857132a47.999998 47.999998 0 0 0 47.999998 47.999998h246.857132zM548.571409 466.285716a9.170285 9.170285 0 0 0-9.142857-9.142856h-54.85714a9.170285 9.170285 0 0 0-9.142857 9.142856v123.428566H351.999989a9.170285 9.170285 0 0 0-9.142857 9.142857v54.85714a9.170285 9.170285 0 0 0 9.142857 9.142857h123.428566v123.428566a9.170285 9.170285 0 0 0 9.142857 9.142857h54.85714a9.169142 9.169142 0 0 0 9.142857-9.142857V662.857136h123.428566a9.169142 9.169142 0 0 0 9.142857-9.142857v-54.85714a9.169142 9.169142 0 0 0-9.142857-9.142857H548.571409z" /></svg>
