<?xml version="1.0" standalone="no"?><!DOCTYPE svg PUBLIC "-//W3C//DTD SVG 1.1//EN" "http://www.w3.org/Graphics/SVG/1.1/DTD/svg11.dtd"><svg class="icon" width="200px" height="200.00px" viewBox="0 0 1024 1024" version="1.1" xmlns="http://www.w3.org/2000/svg"><path d="M960.2 420.7V279.8c0-19.9-16.1-36-36-36H590L472.3 136.9c-6.6-6-15.2-9.3-24.2-9.3H100.3c-19.9 0-36 16.1-36 36v259c-0.1 1-0.1 2.1-0.1 3.2v433.9c0 9.6 3.8 18.8 10.6 25.5 6.7 6.7 15.9 10.5 25.4 10.5h0.2l824.1-4c19.8-0.1 35.8-16.2 35.8-36V421.8c-0.1-0.4-0.1-0.7-0.1-1.1z m-72 399.1l-752.1 3.7V429c0.1-1 0.1-2.1 0.1-3.2V199.6h297.9l117.7 106.8c6.6 6 15.2 9.3 24.2 9.3h312.1v504.1z" /><path d="M648.4 515.5H549V416c0-19.9-16.1-36-36-36s-36 16.1-36 36v99.4h-99.4c-19.9 0-36 16.1-36 36s16.1 36 36 36H477v99.4c0 19.9 16.1 36 36 36s36-16.1 36-36v-99.4h99.4c19.9 0 36-16.1 36-36s-16.1-35.9-36-35.9z" /></svg>
