<?xml version="1.0" standalone="no"?><!DOCTYPE svg PUBLIC "-//W3C//DTD SVG 1.1//EN" "http://www.w3.org/Graphics/SVG/1.1/DTD/svg11.dtd"><svg class="icon" width="200px" height="200.00px" viewBox="0 0 1024 1024" version="1.1" xmlns="http://www.w3.org/2000/svg"><path d="M344.064 588.288C414.72 766.976 460.8 891.904 484.352 935.936c6.144 11.776 14.336 17.92 27.648 17.92 13.312 0.512 20.48-5.632 26.624-16.896 22.528-43.008 65.024-161.28 138.752-349.184 11.264-21.504 19.968-22.016 41.472-17.92 106.496 16.896 186.368 95.232 200.192 196.608l17.92 128c8.704 62.464-40.448 119.296-109.568 127.488-5.12 0.512-10.24 1.024-15.872 1.024H212.992c-69.632 0-126.464-51.2-126.464-114.176 0-4.608 0.512-9.216 1.024-14.336l17.92-128c14.336-102.4 95.744-182.272 204.8-197.12 23.04-1.024 23.552 3.072 33.792 18.944z"  /><path d="M477.696 574.976h67.584c16.384 0 30.208 13.312 30.208 30.208v32.256c-33.792 147.968-54.784 221.696-64 221.696-8.704 0-30.208-73.728-64-221.696v-32.256c0-16.896 13.312-30.208 30.208-30.208z"  /><path d="M512 275.968m-275.968 0a275.968 275.968 0 1 0 551.936 0 275.968 275.968 0 1 0-551.936 0Z"  /></svg>