<svg xmlns="http://www.w3.org/2000/svg" width="100%" height="auto" viewBox="0 0 833 833" version="1.1">
	<path d="M 398.527 88.524 C 347.384 96.836, 304.984 123.790, 276.836 165.884 C 249.066 207.413, 240.171 258.212, 252.127 307 C 257.391 328.479, 264.580 344.787, 276.919 363.240 C 303.344 402.758, 342.778 429.105, 390.610 439.201 C 400.161 441.217, 404.329 441.500, 424.500 441.500 C 444.423 441.500, 448.990 441.198, 458.636 439.242 C 493.527 432.166, 522.675 416.833, 548.301 392.075 C 583.504 358.065, 602.347 313.585, 602.347 264.500 C 602.347 225.868, 590.555 189.732, 567.850 158.794 C 558.679 146.297, 538.456 126.802, 525.667 118.132 C 505.825 104.678, 483.106 95.011, 459.500 89.977 C 446.198 87.141, 412.048 86.327, 398.527 88.524 M 542.684 453.477 C 540.585 454.210, 537.968 455.624, 536.868 456.619 C 532.969 460.148, 528.346 471.550, 484.039 586.914 C 467.917 628.892, 453.668 664.485, 447.622 677.883 C 438.641 697.787, 434.970 701.328, 423.890 700.778 C 412.619 700.219, 409.512 696.609, 398.092 670.803 C 389.761 651.978, 374.598 614.186, 351.190 553.902 C 315.691 462.482, 314.266 459.186, 308.626 455.491 C 304.556 452.824, 298.011 452.658, 286.182 454.921 C 227.297 466.187, 181.704 507.154, 166.457 562.500 C 163.183 574.385, 150.661 661.845, 150.636 673 C 150.566 705.130, 174.520 733.408, 210.092 743.188 L 218.500 745.500 424.500 745.500 L 630.500 745.500 639 743.238 C 666.666 735.877, 687.095 717.839, 695.786 693.096 C 700.258 680.365, 699.700 668.469, 692.172 616 C 685.818 571.715, 683.395 559.829, 677.942 546.178 C 659.381 499.721, 616.951 465.521, 565 455.143 C 550.663 452.279, 546.916 451.999, 542.684 453.477 M 394.500 458.866 C 385.399 463.121, 383 468.599, 383 485.127 C 383 495.821, 383.498 499.480, 387.056 514.910 C 398.004 562.385, 409.995 607.511, 416.496 625.700 C 420.246 636.192, 422.357 640, 424.424 640 C 429.552 640, 440.735 603.624, 457.606 532.069 L 466.196 495.638 465.847 483.569 C 465.438 469.416, 463.874 465.304, 457.077 460.500 L 452.833 457.500 425.666 457.248 C 400.904 457.018, 398.146 457.161, 394.500 458.866" stroke="none" />
</svg>
