<?xml version="1.0" standalone="no"?><!DOCTYPE svg PUBLIC "-//W3C//DTD SVG 1.1//EN" "http://www.w3.org/Graphics/SVG/1.1/DTD/svg11.dtd"><svg class="icon" width="200px" height="200.00px" viewBox="0 0 1024 1024" version="1.1" xmlns="http://www.w3.org/2000/svg"><path d="M271.36 392.192l28.672 118.784-119.808 0 29.696-118.784 61.44 0zM943.104 0q32.768 0 56.832 23.552t24.064 57.344l0 862.208q0 33.792-24.064 57.344t-56.832 23.552l-863.232 0q-32.768 0-56.32-23.552t-23.552-57.344l0-862.208q0-33.792 23.552-57.344t56.32-23.552l863.232 0zM420.864 693.248l-120.832-392.192-119.808 0-120.832 392.192 91.136 0 29.696-90.112 91.136 0q20.48 2.048 25.6 6.144t12.288 21.504l21.504 62.464 90.112 0zM692.224 603.136l-120.832 0q-13.312 0-21.504-8.704t-8.192-22.016l0-271.36-90.112 0 0 302.08q0 37.888 24.064 64t66.048 26.112l150.528 0 0-90.112zM962.56 603.136l-120.832 0q-12.288 0-20.48-8.704t-8.192-22.016l0-271.36-90.112 0 0 302.08q0 37.888 24.064 64t66.048 26.112l149.504 0 0-90.112z" /></svg>