<?xml version="1.0" standalone="no"?><!DOCTYPE svg PUBLIC "-//W3C//DTD SVG 1.1//EN" "http://www.w3.org/Graphics/SVG/1.1/DTD/svg11.dtd"><svg class="icon" width="200px" height="200.00px" viewBox="0 0 1024 1024" version="1.1" xmlns="http://www.w3.org/2000/svg"><path d="M149.769641 0C104.9391 0 66.559734 35.204979 66.559734 79.99456v860.811917C66.559734 988.770445 104.95958 1023.995904 149.769641 1023.995904h732.771469A79.216323 79.216323 0 0 0 962.55615 944.001344V323.173107L658.552246 0H149.769641z" fill="#84A9BC" /><path d="M962.55615 326.408934v15.974336H757.756969q-99.204723-19.189683-96.009856-105.573977 3.215347 89.579162 96.009856 89.579161h204.799181z" fill="#0D4A6B" /><path d="M571.184915 638.993924c5.201899 0 9.687001 1.658873 13.332427 4.95614 3.338227 3.071988 5.570538 7.47517 6.696933 13.230027l0.266239 1.474554 25.825177 168.385887 0.204799 1.535994a29.695881 29.695881 0 0 1-0.696317 10.444758c-1.187835 4.628461-5.324779 7.004132-11.796433 7.229411-4.177903 0-7.43421-1.310715-9.502682-4.014064-1.658873-2.191351-2.867189-5.509098-3.686385-9.9942l-0.245759-1.372154-16.629694-114.359863-2.150391-13.475786a138.321367 138.321367 0 0 0-2.805749-13.660105 35.594098 35.594098 0 0 0-1.126395-3.522546l-0.286719-0.696318-0.2048-0.450558-0.348158 0.962556-0.163839 0.511998-42.966869 147.865009-0.327678 1.228795a20.213679 20.213679 0 0 1-3.788785 7.679969c-1.986552 2.232311-4.91518 3.297267-8.663005 3.297267-3.891184 0-6.860773-0.921596-8.765405-2.969588-1.495034-1.617914-2.785269-4.239343-3.932145-7.925728l-0.368638-1.269755c-7.208931-24.473502-14.520262-48.947004-21.913513-73.379547a3445.684777 3445.684777 0 0 1-21.381034-73.420506 27.156371 27.156371 0 0 0-1.290235-3.604466l-0.266239-0.552958-0.102399 0.286719a18.513846 18.513846 0 0 0-0.511998 1.925113l-0.14336 0.757757-0.163839 0.839676-21.421994 144.833981a24.227743 24.227743 0 0 1-3.481587 9.768921c-2.170871 3.194867-6.000616 4.710381-11.161555 4.710381-8.785885 0-12.55419-5.939176-11.038676-16.179135l0.204799-1.105916 26.296215-172.031312c0.962556-5.550058 2.990068-9.871321 6.123496-12.902348a18.534326 18.534326 0 0 1 13.393866-5.03806c5.324779 0 9.850841 1.433594 13.475786 4.280303 3.358707 2.641909 5.980136 6.963172 7.987168 12.963788l0.491518 1.535994 38.215528 134.839781 37.43729-135.16746 0.409598-1.413114c1.843193-5.836777 4.403182-10.11708 7.782369-12.758989 3.604466-2.867189 8.048608-4.280303 13.189067-4.280303z m133.631466 3.153907l2.31423 0.02048c21.012396 0.327679 36.822893 5.345259 47.308611 15.15514 10.895316 10.198999 16.281535 26.111896 16.281535 47.595329 0 41.717593-21.647273 63.282947-64.020224 63.897345l-1.904632 0.02048h-36.433774v63.446786l-0.04096 1.249275a14.397382 14.397382 0 0 1-3.153908 8.806365c-2.273271 2.662389-5.857257 3.911664-10.547157 3.911664-4.91518 0-8.642525-1.372155-10.915797-4.280303a15.03226 15.03226 0 0 1-3.071988-8.499166l-0.040959-1.249275V658.429366l0.02048-1.290235c0.163839-5.468138 1.351675-9.359323 3.829744-11.612113 2.45759-2.211831 6.922212-3.235827 13.578186-3.358707l1.474554-0.02048h45.322059z m-389.937641 0l2.58047 0.02048c9.482202 0.204799 17.756089 1.413114 24.842141 3.686386 7.782369 2.49855 14.233543 6.062056 19.312563 10.731477 4.9971 4.567022 8.867805 10.239959 11.263954 16.588733 2.39615 6.348775 3.604466 13.373387 3.604466 21.135276 0 11.489234-3.317747 21.094316-9.95324 28.630925a47.165251 47.165251 0 0 1-14.315463 11.100116l-1.843192 0.880636-0.286719 0.12288 1.433594 0.409598a59.596562 59.596562 0 0 1 20.725677 10.956756l1.576954 1.351675 1.433594 1.331195c9.052124 8.642525 13.557706 20.725677 13.557706 36.106095 0 18.042808-5.365739 32.358271-16.138176 42.700629-10.342359 9.95324-24.637341 15.0937-42.803028 15.462339l-2.109432 0.020479h-58.572566l-1.228795-0.040959c-4.055024-0.204799-7.270371-1.495034-9.584601-3.891185a13.455306 13.455306 0 0 1-3.686386-8.663005l-0.02048-1.146876v-173.833544l0.04096-1.167356a13.230027 13.230027 0 0 1 3.850225-8.601565 14.069704 14.069704 0 0 1 9.502682-3.870705l1.208315-0.02048h45.608777z m-2.600949 107.191892h-29.839241v69.140203h36.147056c14.766021 0 25.599898-2.785269 32.542589-8.191967 6.758373-5.324779 10.198999-13.782985 10.199-25.661338 0-12.758989-4.034544-21.647273-12.042192-26.972052-7.946208-5.263339-19.537842-8.048608-34.815861-8.294366l-2.191351-0.02048z m392.51811-82.001592h-36.433774v76.881612h36.433774c14.069704 0 23.920544-3.133427 29.675401-9.215963 5.795817-6.143975 8.765405-16.056256 8.765405-29.798281 0-13.660105-3.297267-23.285667-9.748441-29.061004-6.225895-5.550058-15.155139-8.499166-26.828693-8.785884l-1.863672-0.02048z m-390.224359-0.286719h-32.153472v56.811293h32.153472c11.468754 0 20.07032-2.53951 25.845656-7.53661 5.734377-4.95614 8.581086-11.734993 8.581086-20.582318 0-8.499166-2.744309-15.339459-8.253407-20.684717-5.201899-5.01758-13.311947-7.741409-24.391582-7.987168l-1.781753-0.02048zM658.552246 0L962.55615 326.408934H754.562102c-80.01504 0-96.009856-64.020224-96.009856-92.814988V0z" fill="#FFFFFF" /></svg>