<?xml version="1.0" standalone="no"?><!DOCTYPE svg PUBLIC "-//W3C//DTD SVG 1.1//EN" "http://www.w3.org/Graphics/SVG/1.1/DTD/svg11.dtd"><svg class="icon" width="200px" height="200.00px" viewBox="0 0 1024 1024" version="1.1" xmlns="http://www.w3.org/2000/svg"><path d="M895.168 293.312c14.272 14.496 24.448 32.704 29.408 52.608a115.84 115.84 0 0 1-1.248 60.512c-5.76 19.68-16.64 37.44-31.52 51.328a111.424 111.424 0 0 1-52.896 27.712c-60.32 12.8-109.76 39.616-150.56 81.088-3.2 3.264-4.48 5.312-5.12 12.16l-0.384 5.376-0.16 3.328 0.736 56.704v30.848l-0.32 18.08-0.32 7.52c-4.832 87.84-39.36 157.984-104.416 200.576a88.48 88.48 0 0 1-111.904-12.192l-121.536-123.616-201.792 182.4a47.072 47.072 0 0 1-65.216-1.92 48.832 48.832 0 0 1-1.888-66.336l179.36-205.216-137.632-139.968a92.48 92.48 0 0 1-14.848-108.928l2.24-3.872C144.64 357.216 212.48 322.72 299.712 314.56c9.984-0.864 20-1.44 30.016-1.76l17.44-0.512 8.896-0.16 25.888-0.32 40-0.16 5.28-0.384 1.728-0.192 2.496-0.416a5.344 5.344 0 0 0 2.144-0.96l1.12-1.056c38.08-38.72 64.512-90.016 79.2-155.904a114.624 114.624 0 0 1 27.776-52.992c13.76-14.848 31.168-25.632 50.432-31.296a110.272 110.272 0 0 1 59.04-0.864c19.424 5.088 37.12 15.36 51.296 29.76l192.64 195.936z" /></svg>
