<?xml version="1.0" standalone="no"?><!DOCTYPE svg PUBLIC "-//W3C//DTD SVG 1.1//EN" "http://www.w3.org/Graphics/SVG/1.1/DTD/svg11.dtd"><svg class="icon" width="200px" height="200.00px" viewBox="0 0 1024 1024" version="1.1" xmlns="http://www.w3.org/2000/svg"><path d="M176.241778 230.172444h113.664c18.887111 0 33.450667 4.664889 43.576889 14.108445a45.511111 45.511111 0 0 1 15.246222 34.816c0 11.605333-3.640889 21.617778-10.808889 29.923555a48.241778 48.241778 0 0 1-21.276444 13.084445c14.108444 3.413333 24.576 9.216 31.175111 17.521778a48.014222 48.014222 0 0 1 10.012444 31.175111 53.475556 53.475556 0 0 1-26.510222 46.762666 64.170667 64.170667 0 0 1-23.096889 6.485334c-13.653333 1.706667-22.755556 2.616889-27.192889 2.616889h-104.789333V230.172444z m61.212444 77.027556h26.396445c9.443556 0 16.042667-1.592889 19.797333-4.892444 3.754667-3.185778 5.575111-7.964444 5.575111-14.108445 0-5.688889-1.820444-10.24-5.575111-13.425778-3.754667-3.185778-10.24-4.778667-19.342222-4.778666h-26.851556V307.2z m0 77.255111h30.947556c10.467556 0 17.863111-1.820444 22.186666-5.575111A18.773333 18.773333 0 0 0 296.96 364.088889a17.294222 17.294222 0 0 0-6.371556-13.994667c-4.209778-3.527111-11.605333-5.347556-22.300444-5.347555h-30.833778v39.822222z m298.552889 42.211556h-50.972444v-22.983111a75.093333 75.093333 0 0 1-22.983111 20.138666 61.212444 61.212444 0 0 1-28.444445 6.144 46.307556 46.307556 0 0 1-35.271111-13.539555c-8.647111-8.988444-12.856889-22.755556-12.856889-41.528889V284.444444h54.840889v78.279112c0 8.988444 1.592889 15.246222 4.892444 19.000888 3.413333 3.754667 7.964444 5.688889 13.994667 5.688889a19.911111 19.911111 0 0 0 15.928889-7.509333c4.209778-5.006222 6.257778-13.994667 6.257778-26.965333v-68.494223h54.613333V426.666667zM668.216889 284.444444h51.086222V418.702222l0.113778 6.257778a59.619556 59.619556 0 0 1-20.821333 45.169778 59.392 59.392 0 0 1-24.007112 10.922666c-9.784889 2.275556-20.821333 3.413333-33.336888 3.413334-28.558222 0-48.241778-4.437333-58.936889-12.970667a41.984 41.984 0 0 1-15.928889-34.474667c0-1.820444 0-4.209778 0.227555-7.168l52.906667 5.916445c1.365333 5.006222 3.413333 8.419556 6.144 10.24a26.168889 26.168889 0 0 0 15.246222 4.209778c7.850667 0 13.653333-2.161778 17.521778-6.371556 3.868444-4.209778 5.916444-11.491556 5.916444-21.959111v-21.617778a56.888889 56.888889 0 0 1-16.156444 13.880889 56.888889 56.888889 0 0 1-27.192889 6.599111 54.044444 54.044444 0 0 1-46.08-24.917333 79.758222 79.758222 0 0 1-12.515555-46.648889c0-22.300444 5.347556-39.139556 16.156444-50.744889a54.613333 54.613333 0 0 1 42.097778-17.408c11.036444 0 20.138667 1.820444 27.306666 5.688889a59.733333 59.733333 0 0 1 20.252445 18.545778v-21.048889z m-51.313778 69.063112c0 10.24 2.161778 17.863111 6.485333 22.755555 4.437333 5.006222 10.24 7.509333 17.294223 7.509333 6.826667 0 12.515556-2.616889 17.066666-7.736888 4.664889-5.12 6.940444-12.856889 6.940445-23.210667 0-10.353778-2.389333-18.318222-7.168-23.893333a22.755556 22.755556 0 0 0-17.749334-8.192 20.48 20.48 0 0 0-16.725333 7.623111c-4.096 5.006222-6.144 13.425778-6.144 25.031111z m-36.408889 270.677333H212.081778a31.971556 31.971556 0 1 1 0-64.170667h368.412444a31.971556 31.971556 0 1 1 0 64.170667z m-86.812444 144.156444H212.081778a31.971556 31.971556 0 1 1 0-64.170666H493.795556a31.971556 31.971556 0 1 1 0 64.170666zM129.365333 960.625778C58.026667 960.625778 0 902.599111 0 831.260444V129.365333C0 58.026667 58.026667 0 129.365333 0H762.311111c71.338667 0 129.365333 58.026667 129.365333 129.365333V414.151111a31.971556 31.971556 0 1 1-64.056888 0V129.365333A65.422222 65.422222 0 0 0 762.311111 64.056889H129.365333a65.422222 65.422222 0 0 0-65.308444 65.308444v701.895111c0 36.067556 29.354667 65.308444 65.308444 65.308445h539.306667a31.971556 31.971556 0 1 1 0 64.056889h-539.306667zM1024 739.555556a170.666667 170.666667 0 1 1-341.333333 0 170.666667 170.666667 0 0 1 341.333333 0z m-29.354667 0a141.312 141.312 0 1 0-282.624 0 141.312 141.312 0 0 0 282.624 0z m-161.564444 64.512a12.174222 12.174222 0 0 1-8.874667-3.868445l-49.720889-52.337778a13.653333 13.653333 0 0 1 0-18.432 12.060444 12.060444 0 0 1 17.521778 0l40.96 43.008 78.279111-82.147555a11.946667 11.946667 0 0 1 17.635556 0 13.539556 13.539556 0 0 1 0 18.432l-87.04 91.477333a12.174222 12.174222 0 0 1-8.874667 3.868445z" /></svg>
