<?xml version="1.0" standalone="no"?><!DOCTYPE svg PUBLIC "-//W3C//DTD SVG 1.1//EN" "http://www.w3.org/Graphics/SVG/1.1/DTD/svg11.dtd"><svg class="icon" width="200px" height="200.00px" viewBox="0 0 1024 1024" version="1.1" xmlns="http://www.w3.org/2000/svg"><path d="M860.159826 1023.999488H163.840174a112.127944 112.127944 0 0 1-96.255952-54.527973 114.175943 114.175943 0 0 1-3.583998-111.359944L334.592089 332.799834a31.231984 31.231984 0 0 0 3.583998-14.335993V0h343.807828v317.695841a30.463985 30.463985 0 0 0 3.583998 14.335993L959.743776 857.599571a113.407943 113.407943 0 0 1-3.327998 111.615944A111.359944 111.359944 0 0 1 860.159826 1023.999488zM420.096046 83.455958v234.495883a115.711942 115.711942 0 0 1-12.799994 51.199974L136.704188 895.999552a30.207985 30.207985 0 0 0 0 30.207985 29.439985 29.439985 0 0 0 25.599987 14.847992H860.159826a29.439985 29.439985 0 0 0 25.599987-14.847992 30.719985 30.719985 0 0 0 0-30.463985L614.399949 370.687815a115.967942 115.967942 0 0 1-13.055994-52.991974V83.455958z" /><path d="M275.712118 0m40.70398 0l386.815806 0q40.70398 0 40.70398 40.70398l0 1.279999q0 40.70398-40.70398 40.70398l-386.815806 0q-40.70398 0-40.70398-40.70398l0-1.279999q0-40.70398 40.70398-40.70398Z" /><path d="M381.696065 881.151559a83.967958 83.967958 0 1 1 83.199959-83.967958 83.711958 83.711958 0 0 1-83.199959 83.967958z m0-113.151943a29.439985 29.439985 0 1 0 29.183986 29.183985A29.183985 29.183985 0 0 0 381.696065 767.999616zM701.695905 809.215595a51.199974 51.199974 0 1 1 51.199975-51.199974 51.199974 51.199974 0 0 1-51.199975 51.199974z m0-68.095966a17.663991 17.663991 0 1 0 17.407991 17.663992 17.407991 17.407991 0 0 0-17.407991-16.383992zM627.455942 610.559695a374.271813 374.271813 0 0 1-139.77593-29.439986c-121.087939-49.151975-184.319908-6.655997-186.879906-4.863997l-48.895976-67.327966a188.415906 188.415906 0 0 1 75.007963-29.951985 336.639832 336.639832 0 0 1 191.743904 25.599987c120.83194 48.895976 183.551908 6.655997 186.111907 4.863997l49.663975 66.815967a192.511904 192.511904 0 0 1-74.751963 29.951985 267.007866 267.007866 0 0 1-52.223974 4.351998zM586.495963 698.879651A27.647986 27.647986 0 1 1 614.399949 671.231664a27.647986 27.647986 0 0 1-27.903986 27.647987z m0-37.375982a9.727995 9.727995 0 0 0-9.471996 9.727995 9.727995 9.727995 0 0 0 19.199991 0 9.727995 9.727995 0 0 0-9.727995-9.727995z" /></svg>
