<?xml version="1.0" standalone="no"?><!DOCTYPE svg PUBLIC "-//W3C//DTD SVG 1.1//EN" "http://www.w3.org/Graphics/SVG/1.1/DTD/svg11.dtd"><svg class="icon" width="200px" height="200.00px" viewBox="0 0 1024 1024" version="1.1" xmlns="http://www.w3.org/2000/svg"><path d="M832.682667 995.555556H191.317333a114.346667 114.346667 0 0 1-99.441777-56.888889 114.119111 114.119111 0 0 1-1.422223-114.517334l259.640889-395.491555V238.250667a56.888889 56.888889 0 0 1 56.888889-56.888889h210.033778a56.888889 56.888889 0 0 1 56.888889 56.888889v190.407111l257.479111 391.907555 2.161778 3.584a114.119111 114.119111 0 0 1-1.422223 114.517334 114.346667 114.346667 0 0 1-99.441777 56.888889zM463.872 295.139556v150.528a56.888889 56.888889 0 0 1-9.329778 31.232L187.733333 882.972444l646.997334-2.389333-265.272889-403.683555a57.116444 57.116444 0 0 1-9.329778-31.288889V295.139556H463.872zM625.322667 141.027556H398.677333a56.888889 56.888889 0 0 1 0-113.777778h226.645334a56.888889 56.888889 0 0 1 0 113.777778z" /><path d="M373.304889 828.416a51.2 51.2 0 0 1-43.178667-78.620444l92.444445-145.806223a51.2 51.2 0 0 1 86.471111 54.840889l-92.444445 145.806222a51.313778 51.313778 0 0 1-43.292444 23.779556z" /></svg>
