<?xml version="1.0" standalone="no"?><!DOCTYPE svg PUBLIC "-//W3C//DTD SVG 1.1//EN" "http://www.w3.org/Graphics/SVG/1.1/DTD/svg11.dtd"><svg class="icon" width="200px" height="200.00px" viewBox="0 0 1024 1024" version="1.1" xmlns="http://www.w3.org/2000/svg"><path d="M830.25 768.97c-9.83 0-19.31 1.49-28.24 4.24l-92.62-160.42 110.76-191.85c4.42-7.65 1.8-17.44-5.86-21.86l-27.71-16c-7.65-4.42-17.44-1.8-21.86 5.86l-92.29 159.85-92.29-159.85c-4.42-7.65-14.2-10.27-21.86-5.86l-27.71 16c-7.65 4.42-10.27 14.2-5.86 21.86l110.76 191.85-92.97 161.02a95.586 95.586 0 0 0-30.11-4.84c-52.93 0-96 43.07-96 96s43.07 96 96 96 96-43.07 96-96c0-18.89-5.49-36.52-14.95-51.39l78.98-136.79 77.94 134.99c-10.18 15.24-16.12 33.53-16.12 53.19 0 52.93 43.07 96 96 96s96-43.07 96-96-43.06-96-95.99-96z m-317.85 128c-17.65 0-32-14.36-32-32s14.35-32 32-32c17.64 0 32 14.36 32 32s-14.35 32-32 32z m317.85 0c-17.64 0-32-14.36-32-32s14.36-32 32-32 32 14.36 32 32-14.36 32-32 32z"  /><path d="M304.35 895.03h-110.6c-17.67 0-32-14.33-32-32v-640c0-17.67 14.33-32 32-32h64v16c0 26.47 21.53 48 48 48h288c26.47 0 48-21.53 48-48v-16h64c17.67 0 32 14.33 32 32v79.7c0 8.84 7.16 16 16 16h32c8.84 0 16-7.16 16-16v-79.7c0-53.02-42.98-96-96-96h-64v-16c0-26.47-21.53-48-48-48h-288c-26.47 0-48 21.53-48 48v16h-64c-53.02 0-96 42.98-96 96v640c0 53.02 42.98 96 96 96h110.6c8.84 0 16-7.16 16-16v-32c0-8.84-7.16-16-16-16z m17.4-768h256v64h-256v-64z"  /></svg>