<?xml version="1.0" standalone="no"?><!DOCTYPE svg PUBLIC "-//W3C//DTD SVG 1.1//EN" "http://www.w3.org/Graphics/SVG/1.1/DTD/svg11.dtd"><svg class="icon" width="200px" height="200.00px" viewBox="0 0 1024 1024" version="1.1" xmlns="http://www.w3.org/2000/svg"><path d="M890.88 358.4h-40.96c-5.12-10.24-10.24-25.6-15.36-35.84l30.72-30.72c30.72-30.72 30.72-81.92 0-117.76l-66.56-66.56c-30.72-30.72-81.92-30.72-117.76 0l-30.72 30.72c-10.24-5.12-25.6-10.24-35.84-15.36v-35.84c0-46.08-30.72-87.04-66.56-87.04H424.96C389.12 0 358.4 40.96 358.4 87.04v40.96c-15.36 0-25.6 5.12-35.84 10.24l-25.6-25.6c-35.84-35.84-87.04-40.96-112.64-10.24L102.4 184.32c-30.72 25.6-25.6 76.8 10.24 112.64l25.6 25.6c-5.12 10.24-10.24 25.6-15.36 35.84h-40.96C35.84 358.4 0 394.24 0 440.32v92.16c0 46.08 35.84 81.92 81.92 81.92h40.96c5.12 10.24 10.24 25.6 15.36 35.84l-30.72 30.72c-30.72 30.72-30.72 81.92 0 117.76l66.56 66.56c30.72 30.72 81.92 30.72 117.76 0l30.72-30.72c10.24 5.12 25.6 10.24 35.84 15.36v40.96c0 40.96 30.72 81.92 66.56 81.92h117.76c35.84 0 66.56-40.96 66.56-87.04v-40.96c10.24-5.12 25.6-10.24 35.84-15.36l25.6 25.6c35.84 35.84 81.92 40.96 107.52 10.24l87.04-87.04c25.6-25.6 20.48-76.8-10.24-107.52l-25.6-25.6c5.12-10.24 10.24-25.6 15.36-35.84h40.96c46.08 0 81.92-35.84 81.92-81.92V440.32c5.12-46.08-30.72-81.92-76.8-81.92z m30.72 153.6c0 30.72-20.48 51.2-51.2 51.2h-61.44c-10.24 35.84-20.48 66.56-40.96 97.28l40.96 40.96c20.48 20.48 20.48 51.2 0 71.68l-35.84 35.84c-20.48 20.48-51.2 20.48-71.68 0l-40.96-40.96c-30.72 20.48-61.44 30.72-97.28 40.96V870.4c0 30.72-20.48 51.2-51.2 51.2H460.8c-30.72 0-51.2-20.48-51.2-51.2v-61.44c-35.84-10.24-66.56-20.48-97.28-40.96l-40.96 40.96c-20.48 20.48-51.2 20.48-71.68 0l-35.84-35.84c-20.48-20.48-20.48-51.2 0-71.68l40.96-40.96c-20.48-30.72-30.72-61.44-40.96-97.28H102.4c-30.72 0-51.2-20.48-51.2-51.2V460.8c0-30.72 20.48-51.2 51.2-51.2h61.44c5.12-35.84 20.48-66.56 40.96-97.28l-46.08-40.96c-20.48-20.48-20.48-51.2 0-71.68l35.84-35.84c20.48-20.48 51.2-20.48 71.68 0l46.08 40.96c30.72-20.48 61.44-35.84 97.28-40.96V102.4c0-30.72 20.48-51.2 51.2-51.2h51.2c30.72 0 51.2 20.48 51.2 51.2v61.44c35.84 10.24 66.56 20.48 97.28 40.96l40.96-40.96c20.48-20.48 51.2-20.48 71.68 0l35.84 35.84c20.48 20.48 20.48 51.2 0 71.68l-40.96 40.96c20.48 30.72 30.72 61.44 40.96 97.28H870.4c30.72 0 51.2 20.48 51.2 51.2v51.2zM486.4 307.2C389.12 307.2 307.2 389.12 307.2 486.4S389.12 665.6 486.4 665.6 665.6 583.68 665.6 486.4 583.68 307.2 486.4 307.2z m0 307.2C414.72 614.4 358.4 558.08 358.4 486.4S414.72 358.4 486.4 358.4 614.4 414.72 614.4 486.4 558.08 614.4 486.4 614.4z"  /></svg>