<?xml version="1.0" standalone="no"?><!DOCTYPE svg PUBLIC "-//W3C//DTD SVG 1.1//EN" "http://www.w3.org/Graphics/SVG/1.1/DTD/svg11.dtd"><svg class="icon" width="200px" height="200.00px" viewBox="0 0 1024 1024" version="1.1" xmlns="http://www.w3.org/2000/svg"><path d="M881.232 56a102.768 102.768 0 0 1 102.704 99.072l0.064 3.68V702.72a102.768 102.768 0 0 1-99.072 102.72l-3.68 0.048h-75.776v75.76a102.768 102.768 0 0 1-99.072 102.704l-3.68 0.064H158.752A102.768 102.768 0 0 1 56 881.232V337.296a102.768 102.768 0 0 1 102.768-102.768l75.744-0.016V158.768a102.768 102.768 0 0 1 99.088-102.704l3.68-0.064h543.952zM702.72 314.528H158.768c-12.576 0-22.768 10.192-22.768 22.768v543.936c0 12.576 10.192 22.768 22.768 22.768h543.936c12.576 0 22.768-10.192 22.768-22.768V337.296c0-12.576-10.192-22.768-22.768-22.768zM881.232 136H337.296c-11.84 0-21.568 9.024-22.672 20.576l-0.096 2.192-0.016 75.744h388.192a102.768 102.768 0 0 1 102.72 99.088l0.048 3.68v388.192h75.76c11.84 0 21.568-9.024 22.656-20.576l0.112-2.192V158.768c0-11.84-9.024-21.568-20.576-22.656l-2.192-0.112z" /></svg>
