<?xml version="1.0" standalone="no"?><!DOCTYPE svg PUBLIC "-//W3C//DTD SVG 1.1//EN" "http://www.w3.org/Graphics/SVG/1.1/DTD/svg11.dtd"><svg class="icon" width="200px" height="200.00px" viewBox="0 0 1024 1024" version="1.1" xmlns="http://www.w3.org/2000/svg"><path d="M850.3 324.5h-64.8v489.7c0 28.7 0 52.3-13.7 66-7.5 7.5-7.5 12.5-24.9 12.5H289.6c-51.1 0-51.1-44.9-51.1-87.2v-481h-64.8v479.8c0 87.2 0 155.8 112.2 155.8h464.8c112.2 0 99.7-66 99.7-155.8V324.5zM417.9 809.2c16.2 0 29.9-13.7 29.9-29.9v-405c0-16.2-13.7-29.9-29.9-29.9h-15c-16.2 0-29.9 13.7-29.9 29.9v405c0 16.2 13.7 29.9 29.9 29.9h15z m200.6 0c17.4 0 29.9-13.7 29.9-29.9v-405c0-16.2-13.7-29.9-29.9-29.9h-15c-16.2 0-29.9 13.7-29.9 29.9v405c0 16.2 13.7 29.9 29.9 29.9h15z m304.1-613.1H704.5c-0.2-72.3-5-132.1-103.4-132.1h-177c-98.5 0-103.2 57.7-103.4 132.1H102.6c-16.2 0-29.9 13.7-29.9 29.9v15c0 16.2 13.7 29.9 29.9 29.9h818.7c16.2 0 29.9-13.7 29.9-29.9v-15c0.1-16.2-13.6-29.9-28.6-29.9z m-530.9-58.6c7.5-7.5 18.7-11.2 34.9-11.2h170.7c42.4 0 46.8 34 47.3 69.8H379.3c0-25.1 0.4-46.5 12.4-58.6z" /></svg>