<?xml version="1.0" standalone="no"?><!DOCTYPE svg PUBLIC "-//W3C//DTD SVG 1.1//EN" "http://www.w3.org/Graphics/SVG/1.1/DTD/svg11.dtd"><svg class="icon" width="200px" height="200.00px" viewBox="0 0 1024 1024" version="1.1" xmlns="http://www.w3.org/2000/svg"><path d="M775.41875 71.2953125H246.6125c-96.9609375 0-176.3015625 79.340625-176.3015625 176.3015625v528.80625c0 96.9609375 79.340625 176.3015625 176.3015625 176.3015625h528.80625c96.9609375 0 176.3015625-79.340625 176.3015625-176.3015625V247.596875c0-96.9609375-79.340625-176.3015625-176.3015625-176.3015625zM594.7859375 767.6421875c0 17.6203125-13.190625 26.4796875-26.4796875 26.4796875H453.725c-17.6203125 0-26.4796875-13.190625-26.4796875-26.4796875v-26.4796875H594.6875v26.4796875z m26.38125-176.3015625v61.7203125c0 17.6203125-13.190625 26.4796875-26.4796875 26.4796875H422.9140625c-17.6203125 0-26.4796875-13.190625-26.4796875-26.4796875v-61.7203125c-52.8609375-35.240625-83.7703125-92.53125-83.7703125-163.0125 0-110.1515625 88.1015625-198.3515625 198.3515625-198.3515625S709.3671875 318.078125 709.3671875 428.2296875c-4.4296875 66.15-35.3390625 127.8703125-88.2 163.1109375z" /></svg>
