<?xml version="1.0" standalone="no"?><!DOCTYPE svg PUBLIC "-//W3C//DTD SVG 1.1//EN" "http://www.w3.org/Graphics/SVG/1.1/DTD/svg11.dtd"><svg class="icon" width="200px" height="200.00px" viewBox="0 0 1024 1024" version="1.1" xmlns="http://www.w3.org/2000/svg"><path d="M349.12 471.264a40.736 40.736 0 0 1 4.736 81.184l-4.768 0.288H206.56a61.12 61.12 0 0 0-5.888 121.92l5.888 0.256h610.88a142.56 142.56 0 0 1 7.84 284.864l-7.84 0.224H389.824a40.736 40.736 0 0 1-4.768-81.184l4.768-0.256h427.616a61.12 61.12 0 0 0 5.888-121.92l-5.888-0.288H206.56a142.56 142.56 0 0 1-7.84-284.864l7.84-0.224h142.528zM788.64 75.936a40.736 40.736 0 0 1 57.6 0l101.792 101.824a40.736 40.736 0 0 1 0 57.6L642.624 540.8a40.736 40.736 0 0 1-28.8 11.936H512c-22.496 0-40.736-18.24-40.736-40.736v-101.824c0-10.784 4.288-21.152 11.936-28.8z" /></svg>
