<?xml version="1.0" standalone="no"?><!DOCTYPE svg PUBLIC "-//W3C//DTD SVG 1.1//EN" "http://www.w3.org/Graphics/SVG/1.1/DTD/svg11.dtd"><svg class="icon" width="200px" height="200.00px" viewBox="0 0 1024 1024" version="1.1" xmlns="http://www.w3.org/2000/svg"><path d="M600.76158 68.191078 245.714238 68.191078c-49.040926 0-88.317465 39.720653-88.317465 88.76158l-0.444115 710.09366c0 49.040926 39.277562 88.76158 88.317465 88.76158l533.014616 0c49.040926 0 88.76158-39.720653 88.76158-88.76158L867.046319 334.476841 600.76158 68.191078zM689.523159 778.284739 334.475817 778.284739l0-88.76158 355.047342 0L689.523159 778.284739zM689.523159 600.76158 334.475817 600.76158l0-88.76158 355.047342 0L689.523159 600.76158zM556.38079 378.857631 556.38079 134.762263 800.475134 378.857631 556.38079 378.857631z" /></svg>