<?xml version="1.0" standalone="no"?><!DOCTYPE svg PUBLIC "-//W3C//DTD SVG 1.1//EN" "http://www.w3.org/Graphics/SVG/1.1/DTD/svg11.dtd"><svg t="1710765612263" class="icon" viewBox="0 0 1024 1024" version="1.1" xmlns="http://www.w3.org/2000/svg" p-id="4473" xmlns:xlink="http://www.w3.org/1999/xlink" width="200" height="200"><path d="M288 938.666667h618.666667a10.666667 10.666667 0 0 0 10.666666-10.666667V298.666667H736c-17.642667 0-32-14.357333-32-32V85.333333H288a10.666667 10.666667 0 0 0-10.666667 10.666667v832a10.666667 10.666667 0 0 0 10.666667 10.666667z" fill="#FFFFFF" p-id="4474"></path><path d="M912.917333 277.333333L725.333333 89.749333V266.666667a10.666667 10.666667 0 0 0 10.666667 10.666666h176.917333z" fill="#FFFFFF" p-id="4475"></path><path d="M929.290667 263.541333L739.125333 73.376A31.765333 31.765333 0 0 0 716.501333 64H288c-17.642667 0-32 14.357333-32 32v832c0 17.642667 14.357333 32 32 32h618.666667c17.642667 0 32-14.357333 32-32V286.165333c0-8.533333-3.338667-16.576-9.376-22.624zM725.333333 89.749333L912.917333 277.333333H736a10.666667 10.666667 0 0 1-10.666667-10.666666V89.749333zM906.666667 938.666667H288a10.666667 10.666667 0 0 1-10.666667-10.666667V96a10.666667 10.666667 0 0 1 10.666667-10.666667h416v181.333334c0 17.642667 14.357333 32 32 32h181.333333v629.333333a10.666667 10.666667 0 0 1-10.666666 10.666667z" fill="#605E5C" opacity=".64" p-id="4476"></path><path d="M842.666667 661.333333H544v21.333334h298.666667a10.666667 10.666667 0 0 0 0-21.333334z" fill="#103F91" p-id="4477"></path><path d="M842.666667 597.333333H544v21.333334h298.666667a10.666667 10.666667 0 0 0 0-21.333334z" fill="#185ABD" p-id="4478"></path><path d="M544 554.666667h298.666667a10.666667 10.666667 0 1 0 0-21.333334H544v21.333334z" fill="#2B7CD3" p-id="4479"></path><path d="M842.666667 469.333333H544v21.333334h298.666667a10.666667 10.666667 0 0 0 0-21.333334z" fill="#41A5EE" p-id="4480"></path><path d="M128 789.333333h341.333333a42.666667 42.666667 0 0 0 42.666667-42.666666V405.333333a42.666667 42.666667 0 0 0-42.666667-42.666666H128a42.666667 42.666667 0 0 0-42.666667 42.666666v341.333334a42.666667 42.666667 0 0 0 42.666667 42.666666z" fill="#185ABD" p-id="4481"></path><path d="M230.666667 646.88c0.704 5.568 1.162667 10.421333 1.386666 14.570667h0.8a251.456 251.456 0 0 1 4.554667-28.309334L275.104 469.333333h48.746667l38.997333 161.354667c1.952 7.968 3.584 18.101333 4.874667 30.432h0.650666c0.544-8.501333 1.898667-18.325333 4.064-29.450667L403.637333 469.333333H448l-54.592 234.666667h-51.84l-37.216-155.456c-1.077333-4.48-2.304-10.314667-3.658667-17.514667a204.437333 204.437333 0 0 1-2.517333-15.701333h-0.64c-0.437333 3.818667-1.28 9.493333-2.528 17.013333a434.656 434.656 0 0 1-3.008 16.693334L257.066667 704h-52.650667L149.333333 469.333333h45.173334l33.962666 164.138667c0.757333 3.381333 1.493333 7.850667 2.197334 13.418667z" fill="#F9F7F7" p-id="4482"></path></svg>