<?xml version="1.0" standalone="no"?><!DOCTYPE svg PUBLIC "-//W3C//DTD SVG 1.1//EN" "http://www.w3.org/Graphics/SVG/1.1/DTD/svg11.dtd"><svg class="icon" width="200px" height="200.00px" viewBox="0 0 1024 1024" version="1.1" xmlns="http://www.w3.org/2000/svg"><path d="M853.333 54c40.823 0 73.998 32.754 74.657 73.415l0.01 1.235v767.7c0 40.82-32.766 73.98-73.432 74.64l-1.235 0.01H256c-40.822 0-73.997-32.754-74.657-73.415l-0.01-1.235V736.424l-53.333 0.001c-17.496 0-31.713-14.042-31.996-31.47l-0.004-0.53v-383.85c0-17.496 14.042-31.713 31.47-31.996l0.53-0.004 53.333-0.001V128.65c0-40.819 32.767-73.98 73.432-74.64L256 54h597.333z m0 64H256c-5.799 0-10.512 4.618-10.663 10.366l-0.004 0.284v159.924l266.667 0.001c17.496 0 31.713 14.042 31.996 31.47l0.004 0.53v383.85c0 17.496-14.042 31.713-31.47 31.996l-0.53 0.004-266.667-0.001V896.35c0 5.785 4.62 10.496 10.383 10.646L256 907h597.333c5.8 0 10.513-4.618 10.663-10.366l0.004-0.284v-767.7c0-5.785-4.62-10.496-10.382-10.646l-0.285-0.004zM768 629.775c17.673 0 32 14.327 32 32 0 17.496-14.042 31.713-31.47 31.996l-0.53 0.004H640c-17.673 0-32-14.327-32-32 0-17.496 14.042-31.713 31.47-31.996l0.53-0.004h128zM233.368 425.902c-12.37 12.374-12.489 32.356-0.362 44.878l0.371 0.377 41.36 41.343-41.36 41.343-0.371 0.377c-12.127 12.522-12.007 32.504 0.362 44.878 12.37 12.374 32.351 12.502 44.878 0.38l0.377-0.371L320 557.745l41.377 41.362 0.377 0.37c12.527 12.123 32.508 11.995 44.878-0.379 12.37-12.374 12.489-32.356 0.362-44.878l-0.371-0.377-41.361-41.343 41.361-41.343 0.371-0.377c12.127-12.522 12.007-32.504-0.362-44.878-12.37-12.374-32.351-12.502-44.878-0.38l-0.377 0.371L320 467.254l-41.377-41.36-0.377-0.372c-12.527-12.122-32.508-11.994-44.878 0.38zM768 459.175c17.673 0 32 14.327 32 32 0 17.496-14.042 31.713-31.47 31.996l-0.53 0.004H640c-17.673 0-32-14.327-32-32 0-17.496 14.042-31.713 31.47-31.996l0.53-0.004h128z m0-170.6c17.673 0 32 14.327 32 32 0 17.496-14.042 31.713-31.47 31.996l-0.53 0.004h-64c-17.673 0-32-14.327-32-32 0-17.496 14.042-31.713 31.47-31.996l0.53-0.004h64z" /></svg>