<?xml version="1.0" standalone="no"?><!DOCTYPE svg PUBLIC "-//W3C//DTD SVG 1.1//EN" "http://www.w3.org/Graphics/SVG/1.1/DTD/svg11.dtd"><svg class="icon" width="200px" height="200.00px" viewBox="0 0 1024 1024" version="1.1" xmlns="http://www.w3.org/2000/svg"><path d="M549.03125 166.8640625c0-16.5890625-16.7896875-30.0375-37.5-30.0375-20.503125 0-37.1634375 13.18125-37.4953125 29.540625l-0.0046875 0.496875v539.926875c0 16.588125 16.7896875 30.0365625 37.5 30.0365625 20.503125 0 37.1634375-13.18125 37.4953125-29.540625l0.0046875-0.496875V166.865zM849.0425 812c20.71125 0 37.5 16.7896875 37.5 37.5 0 20.503125-16.455 37.1634375-36.879375 37.4953125l-0.620625 0.0046875H174.9575c-20.71125 0-37.5-16.7896875-37.5-37.5 0-20.503125 16.455-37.1634375 36.879375-37.4953125l0.620625-0.0046875h674.085z" /><path d="M212.185625 488.3440625c-14.64375-14.6446875-14.64375-38.38875 0-53.0334375 14.4984375-14.4984375 37.914375-14.64375 52.5909375-0.435l0.4425 0.435 273.7828125 273.7828125c14.64375 14.6446875 14.64375 38.38875 0 53.0334375-14.4984375 14.4984375-37.914375 14.64375-52.5909375 0.435l-0.4425-0.435-273.7828125-273.7828125z" /><path d="M758.5953125 436.43375c14.6446875-14.64375 38.38875-14.64375 53.0334375 0 14.4984375 14.4984375 14.64375 37.914375 0.435 52.5909375l-0.435 0.4425-273.4125 273.4115625c-14.64375 14.64375-38.3878125 14.64375-53.0325 0-14.4984375-14.4984375-14.64375-37.914375-0.435-52.5909375l0.435-0.4425 273.4125-273.4115625z"/></svg>
