<?xml version="1.0" standalone="no"?><!DOCTYPE svg PUBLIC "-//W3C//DTD SVG 1.1//EN" "http://www.w3.org/Graphics/SVG/1.1/DTD/svg11.dtd"><svg class="icon" width="200px" height="200.00px" viewBox="0 0 1024 1024" version="1.1" xmlns="http://www.w3.org/2000/svg"><path d="M159.402667 385.365333c1.058133 0.136533 2.030933 0.6144 2.798933 1.365334 52.258133 49.442133 327.168 313.821867 568.797867 303.701333a155.136 155.136 0 0 0 59.682133-17.066667c9.8816-5.137067 19.643733 3.1232 12.458667 11.639467-44.680533 52.992-133.666133 130.901333-280.149334 149.026133a528.247467 528.247467 0 0 1-350.6688-75.844266 42.7008 42.7008 0 0 1-18.568533-35.413334l-0.085333-331.5712a5.0688 5.0688 0 0 1 5.7344-5.853866z m686.609066-6.536533c40.669867 0.682667 80.7936 9.454933 118.016 25.856a2.850133 2.850133 0 0 1 0.8192 3.498667 2.850133 2.850133 0 0 1-0.8192 0.989866 543.044267 543.044267 0 0 0-72.533333 121.941334c-6.1952 15.906133-17.885867 39.4752-27.221333 57.6-8.994133 17.442133-21.2992 33.7408-38.741334 42.734933a142.557867 142.557867 0 0 1-53.896533 15.36c-73.130667 2.850133-151.005867-16.605867-227.140267-48.0768-12.356267-5.12-13.824-21.9136-3.191466-30.020267a505.429333 505.429333 0 0 0 75.434666-70.843733 317.525333 317.525333 0 0 1 229.2736-119.04zM662.818133 187.767467c0.648533 0.733867 57.258667 63.5392 88.098134 140.3392 6.912 17.2032-3.413333 35.703467-20.548267 42.8032a351.624533 351.624533 0 0 0-139.434667 104.6016c-3.549867 4.096-7.168 8.0896-10.8544 12.032-7.236267 7.765333-19.677867 6.638933-25.787733-2.048-52.087467-74.018133-163.464533-222.2592-265.710933-291.549867a3.3792 3.3792 0 0 1 2.269866-6.178133h371.968z" /></svg>