<?xml version="1.0" standalone="no"?><!DOCTYPE svg PUBLIC "-//W3C//DTD SVG 1.1//EN" "http://www.w3.org/Graphics/SVG/1.1/DTD/svg11.dtd"><svg class="icon" width="200px" height="200.00px" viewBox="0 0 1024 1024" version="1.1" xmlns="http://www.w3.org/2000/svg"><path d="M192.000427 576m32 0l576 0q32 0 32 32l0 0q0 32-32 32l-576 0q-32 0-32-32l0 0q0-32 32-32Z"  /><path d="M662.632809 425.334881m22.627417 22.627417l137.373562 137.373563q22.627417 22.627417 0 45.254834l0 0q-22.627417 22.627417-45.254834 0l-137.373562-137.373563q-22.627417-22.627417 0-45.254834l0 0q22.627417-22.627417 45.254834 0Z"  /><path d="M617.346227 745.376306m22.627417-22.627417l137.373563-137.373562q22.627417-22.627417 45.254834 0l0 0q22.627417 22.627417 0 45.254834l-137.373563 137.373562q-22.627417 22.627417-45.254834 0l0 0q-22.627417-22.627417 0-45.254834Z"  /><path d="M394.169316 129.706667l117.831111 128h348.444444a99.982222 99.982222 0 0 1 99.555556 100.48v437.333333A99.911111 99.911111 0 0 1 860.444871 896H163.555982a99.911111 99.911111 0 0 1-99.555555-100.48v-565.333333a99.982222 99.982222 0 0 1 99.555555-100.48h230.613334m28.017777-64H163.555982A164.124444 164.124444 0 0 0 0.000427 230.186667v565.333333A164.124444 164.124444 0 0 0 163.555982 960h696.888889a164.124444 164.124444 0 0 0 163.555556-164.48v-437.333333a164.124444 164.124444 0 0 0-163.555556-164.48H540.444871L441.244871 86.4l-19.057778-20.693333z"  /></svg>