<?xml version="1.0" standalone="no"?><!DOCTYPE svg PUBLIC "-//W3C//DTD SVG 1.1//EN" "http://www.w3.org/Graphics/SVG/1.1/DTD/svg11.dtd"><svg class="icon" width="200px" height="200.00px" viewBox="0 0 1024 1024" version="1.1" xmlns="http://www.w3.org/2000/svg"><path d="M646.519287 374.177901c19.900056 19.843198 53.900722 19.843198 76.529928 0l192.859966-189.903387V337.391227c0 22.629206 17.05719 39.686396 39.62954 39.686397h28.371793c22.742921 0 39.686396-14.214325 39.686396-34.057524V62.37246c0-16.943476 1.307718-33.432093-8.528595-48.214992-12.963465-13.020322-31.442088-11.37146-48.271849-11.37146l-280.590783-2.786008c-22.742921 0-39.743254 19.843198-39.743253 39.629539v28.371794c2.899722 25.528928 22.742921 39.686396 45.485841 39.686396h147.317268l-189.903387 189.903387c-25.528928 19.900056-25.528928 53.957579-2.842865 76.586785z m-269.389895 272.175902c-19.843198-19.900056-53.843865-19.900056-76.586785 0l-192.803109 189.903387v-150.21699c0-22.686063-17.05719-39.686396-39.686397-39.686397H39.738165c-22.742921 0-39.743254 14.157468-39.743253 34.057524v277.804775c0 16.829761-1.307718 33.375236 8.471738 48.158135 13.077179 12.906607 31.442088 11.314603 48.271848 11.314603l280.647641 2.842865c22.742921 0 39.743254-19.786341 39.743253-39.62954v-28.42865c-2.842865-25.415214-22.742921-39.629539-45.428983-39.629539H184.326283l192.803109-189.960245c19.843198-19.900056 19.843198-53.900722 0-76.529928z m643.624653 314.648307v-277.804775c0-22.742921-19.843198-34.000666-39.686396-34.000666h-28.314936c-22.742921 0-39.743254 19.786341-39.743254 39.629539v150.330705l-192.746252-189.960244c-19.900056-19.900056-53.900722-19.900056-76.586785 0-19.843198 19.786341-19.843198 53.843865 0 76.47307l192.746252 189.960244h-147.430983c-22.629206 0-42.529262 14.214325-45.315269 39.686397v28.428651c0 22.629206 19.843198 39.686396 39.629539 39.686396l275.075625-2.842865c17.341477 0 34.853526 1.933148 48.214991-11.37146 10.632315-10.74603 10.063742-33.830094 14.157468-48.214992zM187.112291 107.687729h147.430983c22.742921 0 42.529262-14.214325 45.372126-39.686396V39.629539a40.539256 40.539256 0 0 0-39.800111-39.629539l-280.64764 2.842865C42.239887 2.786008 24.67098 0.796002 11.309515 14.100611-0.289375 25.813215 2.894634 47.248418 2.894634 62.37246v280.64764c0 22.686063 16.943476 34.000666 39.629539 34.000666h28.371794c22.742921 0 39.686396-17.05719 39.686396-39.686396V184.274514l192.746252 189.903387c19.900056 19.843198 54.014436 19.843198 76.643643 0 19.900056-19.843198 19.900056-53.843865 0-76.529928L187.112291 107.687729z" /></svg>
