<?xml version="1.0" standalone="no"?><!DOCTYPE svg PUBLIC "-//W3C//DTD SVG 1.1//EN" "http://www.w3.org/Graphics/SVG/1.1/DTD/svg11.dtd"><svg class="icon" width="200px" height="200.00px" viewBox="0 0 1024 1024" version="1.1" xmlns="http://www.w3.org/2000/svg"><path d="M148.696338 0C104.27493 0 67.785915 34.902535 67.785915 79.323944v855.112112c0 44.421408 36.489014 80.910423 80.910423 80.910423h726.607324c44.421408 0 80.910423-36.489014 80.910423-80.910423V322.055211L656.369577 0H148.696338z" fill="#5ACC9B" /><path d="M656.369577 0v231.625915c0 25.383662 17.451268 92.015775 96.775212 92.015775H956.214085L656.369577 0z" fill="#BDEBD7" /><path d="M283.114366 690.781746c23.883718 0 42.575324 5.192113 56.334423 15.835944 13.239887 10.384225 21.547268 25.700958 24.922141 46.469409H333.737465c-2.596056-11.941859-8.30738-20.768451-16.614761-26.739381-8.566986-5.97093-19.989634-8.826592-34.008338-8.826591-17.393577 0-31.152676 5.711324-41.277296 17.653183-11.163042 12.46107-16.614761 29.854648-16.61476 52.699944 0 21.806873 4.932507 38.681239 14.797521 50.363492 10.643831 12.46107 27.258592 18.691606 49.844282 18.691606 8.826592 0 17.133972-1.038423 24.922141-3.115267a85.987155 85.987155 0 0 0 19.989633-8.566986V807.08507H285.710423v-25.960563h79.439323v78.400901c-9.865014 7.788169-21.028056 13.499493-33.748732 17.653184-13.499493 4.15369-28.297014 6.230535-44.911775 6.230535-29.595042 0-52.440338-9.345803-68.795493-28.037409-15.316732-17.393577-22.845296-39.979268-22.845295-67.497464 0-27.777803 7.528563-50.623099 22.845295-68.535888 16.095549-19.210817 37.902423-28.55662 65.42062-28.55662z m115.784113 3.634479h30.373859V879.774648h-30.373859V694.416225z m66.718648 0h126.427943v25.960564h-96.054084v51.401915h90.602366v25.960564H495.990986V879.774648h-30.373859V694.416225z" fill="#FFFFFF" /></svg>