<?xml version="1.0" standalone="no"?><!DOCTYPE svg PUBLIC "-//W3C//DTD SVG 1.1//EN" "http://www.w3.org/Graphics/SVG/1.1/DTD/svg11.dtd"><svg class="icon" width="200px" height="200.00px" viewBox="0 0 1024 1024" version="1.1" xmlns="http://www.w3.org/2000/svg"><path d="M876.8 128h-256c-25.6 0-44.8 19.2-44.8 44.8v172.8h83.2v-128h211.2v595.2h-211.2v-128H576v172.8c0 19.2 19.2 38.4 44.8 38.4h300.8c25.6 0 44.8-19.2 44.8-44.8V172.8c-6.4-25.6-25.6-44.8-51.2-44.8h-38.4zM403.2 128H108.8c-25.6 0-44.8 19.2-44.8 44.8v684.8c0 19.2 19.2 38.4 44.8 38.4h300.8c19.2 0 38.4-19.2 38.4-44.8V556.8h224l-19.2 19.2c-12.8 6.4-12.8 19.2-12.8 25.6s6.4 19.2 12.8 32c19.2 19.2 44.8 19.2 57.6 0l89.6-89.6c6.4-6.4 12.8-19.2 12.8-32 0-6.4 0-19.2-6.4-25.6l-6.4-6.4-12.8-12.8-76.8-76.8c-19.2-19.2-44.8-19.2-57.6 0-12.8 12.8-12.8 19.2-12.8 32s6.4 19.2 12.8 32l19.2 19.2H448V172.8c0-25.6-19.2-44.8-44.8-44.8z m-38.4 83.2v595.2H147.2V211.2h217.6z" /></svg>