<?xml version="1.0" standalone="no"?><!DOCTYPE svg PUBLIC "-//W3C//DTD SVG 1.1//EN" "http://www.w3.org/Graphics/SVG/1.1/DTD/svg11.dtd"><svg class="icon" width="200px" height="200.00px" viewBox="0 0 1024 1024" version="1.1" xmlns="http://www.w3.org/2000/svg"><path d="M147.2 128h256c25.6 0 44.8 19.2 44.8 44.8v172.8H364.8v-128H147.2v595.2h211.2v-128H448v172.8c0 19.2-19.2 38.4-44.8 38.4H108.8c-25.6 0-44.8-19.2-44.8-44.8V172.8c0-25.6 19.2-44.8 44.8-44.8h38.4z m473.6 0h300.8c19.2 0 38.4 19.2 38.4 44.8v684.8c0 25.6-19.2 44.8-44.8 44.8H620.8c-25.6-6.4-44.8-25.6-44.8-51.2V556.8H352l19.2 19.2c6.4 6.4 12.8 19.2 12.8 25.6s-6.4 25.6-12.8 32c-19.2 19.2-44.8 19.2-57.6 0L224 544c-12.8-6.4-12.8-19.2-12.8-32 0-6.4 0-19.2 6.4-25.6l6.4-6.4 12.8-12.8 76.8-76.8c19.2-19.2 44.8-19.2 57.6 0 6.4 12.8 12.8 19.2 12.8 32s-6.4 19.2-12.8 32l-12.8 12.8H576V172.8c0-25.6 19.2-44.8 44.8-44.8z m38.4 83.2v595.2h211.2V211.2h-211.2z" /></svg>