<?xml version="1.0" standalone="no"?><!DOCTYPE svg PUBLIC "-//W3C//DTD SVG 1.1//EN" "http://www.w3.org/Graphics/SVG/1.1/DTD/svg11.dtd"><svg class="icon" width="200px" height="200.00px" viewBox="0 0 1024 1024" version="1.1" xmlns="http://www.w3.org/2000/svg"><path d="M546.71679688 730.71582031c0 15.55136719-15.74033203 28.15839844-35.15625 28.15839844-19.22167969 0-34.84072266-12.35654297-35.15185547-27.69345703l-0.00439453-0.46582031V224.53349609c0-15.55136719 15.74033203-28.15927734 35.15625-28.15927734 19.22167969 0 34.84072266 12.35742188 35.15185546 27.69433594l0.00439454 0.46582031v506.18056641z" /><path d="M230.92402344 429.32744141c-13.72851563 13.72939453-13.72851563 35.98945313 0 49.71884765 13.59228516 13.59140625 35.54472656 13.72851563 49.3040039 0.4078125l0.41484375-0.4078125L537.31425781 222.37402344c13.72851563-13.72939453 13.72851563-35.98945313 0-49.71884766-13.59228516-13.59228516-35.54472656-13.72851563-49.3040039-0.4078125l-0.41484375 0.4078125-256.67138672 256.67138672z" /><path d="M743.18310547 477.99335937c13.72939453 13.72851563 35.98945313 13.72851563 49.71884766 0 13.59228516-13.59228516 13.72851563-35.54472656 0.4078125-49.3040039l-0.4078125-0.41484375-256.32421876-256.32421875c-13.72851563-13.72851563-35.98857422-13.72851563-49.71796874 0-13.59228516 13.59316406-13.72851563 35.54560547-0.4078125 49.30488281l0.4078125 0.41396485 256.32421874 256.32421874zM827.97734375 793.25c19.41679687 0 35.15625 15.74033203 35.15625 35.15625 0 19.22167969-15.4265625 34.84072266-34.57441406 35.15185547l-0.58183594 0.00439453H196.02265625c-19.41679687 0-35.15625-15.74033203-35.15625-35.15625 0-19.22167969 15.4265625-34.84072266 34.57441406-35.15185547l0.58183594-0.00439453h631.9546875z" /></svg>
