<?xml version="1.0" standalone="no"?><!DOCTYPE svg PUBLIC "-//W3C//DTD SVG 1.1//EN" "http://www.w3.org/Graphics/SVG/1.1/DTD/svg11.dtd"><svg class="icon" width="200px" height="200.00px" viewBox="0 0 1024 1024" version="1.1" xmlns="http://www.w3.org/2000/svg"><path d="M146.4 0c-44.8 0-81.6 35.2-81.6 80v862.4c0 44.8 35.2 81.6 81.6 81.6h731.2c44.8 0 81.6-36.8 81.6-81.6V324.8L656.8 0H146.4z" fill="#E986A5" /><path d="M352.2 669.7h75.8c42.5 0 63.8 18.2 63.8 54.5 0 36.6-21.5 55-64.1 55H373.5V855h-21.3V669.7z m21.3 18.4v72.7h53.2c15.1 0 26-3.1 33.2-9.1 7-6 10.6-15.1 10.6-27.5s-3.6-21.6-10.9-27c-7.3-6.2-18.2-9.1-33-9.1H373.5zM600.6 666c-27.2 0-48.8 9.6-64.6 29.1-15.1 17.9-22.3 40.5-22.3 68s7.5 50.1 22.6 67.5c16.1 18.7 38.9 28 68.2 28 15.3 0 29.6-2.1 43.1-6.2 12.7-4.2 23.6-9.6 32.4-16.8v-75.8h-79.1v18.4h58.1v47.2c-6.5 4.2-14.3 7.8-23.4 10.4-9.5 2.7-19.2 4.1-29.1 4.2-24.1 0-42.3-7.3-54.5-21.5-11.4-13.5-17.1-31.9-17.1-55.3 0-23.9 5.7-42.8 17.6-56.8 12-14.3 27.7-21.3 48-21.3 16.3 0 29.6 3.9 39.7 12 10 8.1 16.6 19.5 18.7 32.2h21.3c-3.4-20.2-11.4-35.5-24.4-46.2-13.7-11.7-32.2-17.1-55.2-17.1z" fill="#FFFFFF" /><path d="M959.2 324.8v16H754.4s-100.8-19.2-97.6-107.2c0 0 3.2 91.2 96 91.2h206.4z" fill="#D06385" /><path d="M656.8 0v232c0 27.2 17.6 92.8 97.6 92.8h204.8L656.8 0zM313.3 786.3c0 22.1-4.8 39.4-14.3 51.6-9.5 12.1-22.1 18.2-38.6 18.2-7.4 0-13.9-1.3-18.6-3.5v-23c4.8 3.5 11.3 5.2 18.6 5.2 19.1 0 29-16 29-48.5v-117h23.8l0.1 117z" fill="#FFFFFF" /></svg>