<?xml version="1.0" standalone="no"?><!DOCTYPE svg PUBLIC "-//W3C//DTD SVG 1.1//EN" "http://www.w3.org/Graphics/SVG/1.1/DTD/svg11.dtd"><svg class="icon" width="200px" height="200.00px" viewBox="0 0 1024 1024" version="1.1" xmlns="http://www.w3.org/2000/svg"><path d="M0 288v464c0 35.3 28.7 64 64 64h896c35.3 0 64-28.7 64-64V288c0-35.3-28.7-64-64-64H64c-35.3 0-64 28.7-64 64z m952 464H72c-4.4 0-8-3.6-8-8V296c0-4.4 3.6-8 8-8h880c4.4 0 8 3.6 8 8v448c0 4.4-3.6 8-8 8z"  /><path d="M632 672H264c-4.4 0-8-3.6-8-8v-48c0-4.4 3.6-8 8-8h368c4.4 0 8 3.6 8 8v48c0 4.4-3.6 8-8 8zM184 544h-48c-4.4 0-8-3.6-8-8v-48c0-4.4 3.6-8 8-8h48c4.4 0 8 3.6 8 8v48c0 4.4-3.6 8-8 8zM184 672h-48c-4.4 0-8-3.6-8-8v-48c0-4.4 3.6-8 8-8h48c4.4 0 8 3.6 8 8v48c0 4.4-3.6 8-8 8zM888 672h-48c-4.4 0-8-3.6-8-8v-48c0-4.4 3.6-8 8-8h48c4.4 0 8 3.6 8 8v48c0 4.4-3.6 8-8 8zM760 672h-48c-4.4 0-8-3.6-8-8v-48c0-4.4 3.6-8 8-8h48c4.4 0 8 3.6 8 8v48c0 4.4-3.6 8-8 8zM312 544h-48c-4.4 0-8-3.6-8-8v-48c0-4.4 3.6-8 8-8h48c4.4 0 8 3.6 8 8v48c0 4.4-3.6 8-8 8zM440 544h-48c-4.4 0-8-3.6-8-8v-48c0-4.4 3.6-8 8-8h48c4.4 0 8 3.6 8 8v48c0 4.4-3.6 8-8 8zM568 544h-48c-4.4 0-8-3.6-8-8v-48c0-4.4 3.6-8 8-8h48c4.4 0 8 3.6 8 8v48c0 4.4-3.6 8-8 8zM696 544h-48c-4.4 0-8-3.6-8-8v-48c0-4.4 3.6-8 8-8h48c4.4 0 8 3.6 8 8v48c0 4.4-3.6 8-8 8zM216 432h-80c-4.4 0-8-3.6-8-8v-48c0-4.4 3.6-8 8-8h80c4.4 0 8 3.6 8 8v48c0 4.4-3.6 8-8 8zM360 432h-80c-4.4 0-8-3.6-8-8v-48c0-4.4 3.6-8 8-8h80c4.4 0 8 3.6 8 8v48c0 4.4-3.6 8-8 8zM504 432h-80c-4.4 0-8-3.6-8-8v-48c0-4.4 3.6-8 8-8h80c4.4 0 8 3.6 8 8v48c0 4.4-3.6 8-8 8zM792 432h-80c-4.4 0-8-3.6-8-8v-48c0-4.4 3.6-8 8-8h80c4.4 0 8 3.6 8 8v48c0 4.4-3.6 8-8 8zM648 432h-80c-4.4 0-8-3.6-8-8v-48c0-4.4 3.6-8 8-8h80c4.4 0 8 3.6 8 8v48c0 4.4-3.6 8-8 8z"  /><path d="M896 376v136c0 17.7-14.3 32-32 32H760c-4.4 0-8-3.6-8-8v-48c0-4.4 3.6-8 8-8h64c4.4 0 8-3.6 8-8v-96c0-4.4 3.6-8 8-8h48c4.4 0 8 3.6 8 8z"  /></svg>