<?xml version="1.0" standalone="no"?><!DOCTYPE svg PUBLIC "-//W3C//DTD SVG 1.1//EN" "http://www.w3.org/Graphics/SVG/1.1/DTD/svg11.dtd"><svg t="1710905064320" class="icon" viewBox="0 0 1027 1024" version="1.1" xmlns="http://www.w3.org/2000/svg" p-id="12417" xmlns:xlink="http://www.w3.org/1999/xlink" width="200.5859375" height="200"><path d="M0 166.144h1026.702222V860.444444H0V166.144z" fill="#DE2910" p-id="12418"></path><path d="M170.268444 245.077333l21.646223 67.584H262.257778l-56.832 41.813334 21.646222 67.726222-56.832-41.813333-56.832 41.813333 21.646222-67.726222-56.832-41.813334h70.343111l21.703111-67.584z m183.210667-35.299555l-1.365333 23.381333 21.418666 8.590222-22.442666 5.831111-1.507556 23.381334-12.373333-19.939556-22.328889 5.831111 14.791111-17.976889-12.373333-19.825777 21.418666 8.590222 14.762667-17.863111z m78.933333 75.747555l-10.552888 20.849778 16.384 16.611556-22.812445-3.783111-10.666667 20.849777-3.555555-23.267555-22.812445-3.669334 20.622223-10.666666-3.498667-23.125334 16.270222 16.611556 20.622222-10.410667z m-23.608888 94.862223l6.997333 22.328888h23.153778l-18.688 13.738667 6.997333 22.215111-18.688-13.852444-18.688 13.738666 7.111111-22.101333-18.688-13.738667h23.153778l7.338667-22.328888z m-55.438223 71.367111l-1.479111 23.381333 21.418667 8.590222-22.328889 5.831111-1.479111 23.381334-12.373333-19.825778-22.442667 5.831111 14.791111-17.976889-12.373333-19.825778 21.532444 8.590223 14.734222-17.976889z" fill="#FFDE00" p-id="12419"></path></svg>