<?xml version="1.0" standalone="no"?><!DOCTYPE svg PUBLIC "-//W3C//DTD SVG 1.1//EN" "http://www.w3.org/Graphics/SVG/1.1/DTD/svg11.dtd"><svg t="1710909455973" class="icon" viewBox="0 0 1024 1024" version="1.1" xmlns="http://www.w3.org/2000/svg" p-id="17798" xmlns:xlink="http://www.w3.org/1999/xlink" width="200" height="200"><path d="M0 175.872h1024.672v682.848H0V175.872z" fill="#00458F" p-id="17799"></path><path d="M1023.808 414.752H614.464V175.872h-205.12v238.88H0v205.088h409.344v238.88h205.12V619.84h409.344v-205.088z" fill="#FFFFFF" p-id="17800"></path><path d="M1023.808 780.224L117.344 175.872H0v79.328l905.664 603.488h118.144v-78.464z" fill="#FFFFFF" p-id="17801"></path><path d="M0 780.224L906.496 175.872h117.312v79.328L118.144 858.72H0v-78.496z" fill="#FFFFFF" p-id="17802"></path><path d="M1023.808 457.76H571.424V175.872h-119.04v281.888H0v119.008h452.384v281.952h119.04v-281.952h452.384v-119.008z" fill="#CC3440" p-id="17803"></path><path d="M1023.808 857.024v-54.016l-275.168-183.168h-81.024l356.192 237.184z m0-681.152h-81.056l-328.288 218.592v20.288h50.624l358.72-238.88zM356.192 619.84L0 857.024v1.696h77.664l331.68-220.32v-18.56h-53.152zM0 175.872v54.016l276.832 184.864h81.888L0 175.872z" fill="#CC3440" p-id="17804"></path></svg>