<?xml version="1.0" standalone="no"?><!DOCTYPE svg PUBLIC "-//W3C//DTD SVG 1.1//EN" "http://www.w3.org/Graphics/SVG/1.1/DTD/svg11.dtd"><svg class="icon" width="200px" height="133.33px" viewBox="0 0 1536 1024" version="1.1" xmlns="http://www.w3.org/2000/svg"><path d="M6.2976 1017.7024h1523.4048V7.424H6.2976v1010.176z m1525.76 2.5088zM0 1024V0h1536v1022.72H0z" fill="#353636" /><path d="M3.7888 3.7888h1529.7024v1016.4224H3.7888z" fill="#FFFFFF" /><path d="M1018.1632 488.704a251.7504 251.7504 0 1 1-273.408-228.0448 251.5968 251.5968 0 0 1 273.408 228.0448z" fill="#CE2E3B" /><path d="M553.1648 381.3376a125.7472 125.7472 0 1 0 215.4496 129.792 125.7472 125.7472 0 0 1 215.4496 129.792 251.6992 251.6992 0 0 1-345.2416 84.4288 248.9344 248.9344 0 0 1-85.6576-344.0128z" fill="#0047A0" /><path d="M233.6256 310.1696l140.9024-208.1792 32.3584 21.76-140.9024 208.1792z m50.432 33.792l140.9536-208.128 32.3584 21.76L316.416 365.7216z m49.92 34.304l32.768 21.3504 141.1072-208.4352-32.768-22.5792z m769.8432 341.8112l65.5872-96.768 32.3584 21.76-65.5872 96.768z m-75.52 113.4592l65.4848-96.8192 32.4096 21.76-65.4848 96.8192z m125.184-78.6944l65.6384-96.7168 32.3584 21.8112-65.6384 96.7168z m-74.8032 111.872l32.768 21.3504 65.536-96.6656-32.768-21.3504z m125.3376-78.0288l65.4848-96.8192 32.4096 21.76-65.4848 96.8192z m-75.7248 111.7696l65.3312-96.9216 32.4096 21.7088-65.3312 96.9216z m91.4944-534.6816l32.768-21.3504-141.1072-208.4352-32.768 21.3504zM1128.448 123.1872l32.3584-21.8112 65.5872 96.768-32.3584 21.76z m76.1856 112.9984l32.3584-21.8112 65.6384 96.7168-32.3584 21.8112z m-176.7936-45.1072l32.4096-21.7088L1125.6832 266.24l-32.4096 21.7088z m75.4688 111.8208l32.3584-21.76 65.4848 96.8192-32.4096 21.76z m-770.0992 343.04l32.3584-21.76 141.056 208.0768-32.3584 21.76z m-99.5328 67.072l32.3584-21.76 140.8512 208.2304-32.4096 21.76z m49.8688-32.3584l32.3584-21.76 65.536 96.8192-32.4096 21.76z m141.1072 207.4112l32.768-21.3504-65.536-96.6656-32.768 21.3504z" fill="#231815" /></svg>