<?xml version="1.0" standalone="no"?><!DOCTYPE svg PUBLIC "-//W3C//DTD SVG 1.1//EN" "http://www.w3.org/Graphics/SVG/1.1/DTD/svg11.dtd"><svg class="icon" width="200px" height="200.00px" viewBox="0 0 1024 1024" version="1.1" xmlns="http://www.w3.org/2000/svg"><path d="M170.666667 277.333333a85.333333 85.333333 0 1 0 0-170.666666 85.333333 85.333333 0 0 0 0 170.666666zM405.333333 128a64 64 0 1 0 0 128h469.333334a64 64 0 0 0 0-128h-469.333334zM341.333333 490.666667A64 64 0 0 1 405.333333 426.666667h469.333334a64 64 0 0 1 0 128h-469.333334A64 64 0 0 1 341.333333 490.666667z m0 298.666666A64 64 0 0 1 405.333333 725.333333h469.333334a64 64 0 0 1 0 128h-469.333334A64 64 0 0 1 341.333333 789.333333z m-85.333333-298.666666a85.333333 85.333333 0 1 1-170.666667 0 85.333333 85.333333 0 0 1 170.666667 0z m-85.333333 384a85.333333 85.333333 0 1 0 0-170.666667 85.333333 85.333333 0 0 0 0 170.666667z" /></svg>
