<?xml version="1.0" standalone="no"?><!DOCTYPE svg PUBLIC "-//W3C//DTD SVG 1.1//EN" "http://www.w3.org/Graphics/SVG/1.1/DTD/svg11.dtd"><svg class="icon" width="200px" height="200.00px" viewBox="0 0 1024 1024" version="1.1" xmlns="http://www.w3.org/2000/svg"><path d="M648.0624450370373 555.3023051851852A58.06004148148148 58.06004148148148 0 0 0 667.3445925925926 512c3.2337589396370783e-15-17.184995555555552-7.4565404444444425-32.63207348148148-19.282147555555554-43.3023051851852l-194.18074074074067-174.7626666666667a58.254222222222225 58.254222222222225 0 0 0-77.94414933333337 86.60461037037037L457.2798672592592 453.7457777777778 104.22044444444447 453.7457777777779a58.254222222222225 58.254222222222225 0 0 0-1.7246714344731083e-14 116.50844444444445l353.0594228148148 6.898685737892433e-14-81.34231229629631 73.20613925925925a58.254222222222225 58.254222222222225 0 0 0 77.94414933333331 86.60461037037041l194.18074074074067-174.7626666666667zM968.3247407407407 511.94174577777795L968.3247407407409 65.38429629629633a58.254222222222225 58.254222222222225 0 0 0-58.254222222222225-58.25422222222223L618.7994074074073 7.130074074074059a58.254222222222225 58.254222222222225 0 0 0-1.7246714344731083e-14 116.50844444444445l233.0168888888889 3.4493428689462167e-14L851.8162962962963 900.3614814814816 618.7994074074073 900.3614814814813a58.254222222222225 58.254222222222225 0 0 0-1.7246714344731083e-14 116.50844444444445l291.2711111111111 5.1740143034193253e-14a58.254222222222225 58.254222222222225 0 0 0 58.25422222222223-58.254222222222225l6.898685737892433e-14-446.67395792592595z"  /></svg>