<?xml version="1.0" standalone="no"?><!DOCTYPE svg PUBLIC "-//W3C//DTD SVG 1.1//EN" "http://www.w3.org/Graphics/SVG/1.1/DTD/svg11.dtd"><svg class="icon" width="200px" height="200.00px" viewBox="0 0 1024 1024" version="1.1" xmlns="http://www.w3.org/2000/svg"><path d="M878.355692 429.292308h-84.440615V258.914462c0-142.769231-133.671385-258.875077-298.141539-258.875077C331.224615 0 197.395692 116.105846 197.395692 258.875077v170.456615H113.033846c-40.684308 0-73.649231 28.593231-73.649231 63.921231v466.707692C39.384615 995.406769 72.388923 1024 113.033846 1024h765.400616c40.684308 0 73.570462-28.632615 73.570461-64v-466.707692c0-35.367385-32.964923-63.960615-73.649231-63.960616z m-341.267692 309.484307v101.927385c0 4.608-4.332308 8.349538-9.649231 8.388923h-63.330461c-5.356308 0-9.688615-3.780923-9.728-8.388923v-101.927385c-29.735385-13.193846-50.333538-39.660308-50.333539-70.695384 0-43.874462 41.038769-79.596308 91.648-79.596308 50.648615 0 91.726769 35.721846 91.726769 79.556923 0.039385 31.074462-20.558769 57.501538-50.333538 70.734769z m142.375385-309.444923h-367.458462V263.089231c0-87.945846 82.510769-159.547077 183.808-159.547077 101.297231 0 183.650462 71.601231 183.650462 159.507692v166.281846z" /></svg>
