<?xml version="1.0" standalone="no"?><!DOCTYPE svg PUBLIC "-//W3C//DTD SVG 1.1//EN" "http://www.w3.org/Graphics/SVG/1.1/DTD/svg11.dtd"><svg class="icon" width="200px" height="200.00px" viewBox="0 0 1024 1024" version="1.1" xmlns="http://www.w3.org/2000/svg"><path d="M840.533333 599.808c24.405333 0 44.16 19.754667 44.16 44.16v189.44c0 24.405333-19.754667 44.16-44.16 44.16h-263.978666a44.16 44.16 0 0 1-44.16-44.202667v-189.397333c0-24.405333 19.754667-44.16 44.16-44.16zM488.021333 146.432a200.96 200.96 0 0 1 200.789334 200.789333 200.832 200.832 0 0 1-97.621334 172.202667c38.101333 9.130667 73.813333 24.746667 105.984 45.44h-120.618666a79.232 79.232 0 0 0-79.104 79.104v189.44c0 9.770667 1.834667 19.072 5.12 27.733333H139.306667v-2.133333c0-158.592 107.008-293.376 252.416-335.744a200.746667 200.746667 0 0 1-104.448-176.042667 200.96 200.96 0 0 1 200.746666-200.789333z m234.325334 617.386667h-75.690667a19.413333 19.413333 0 0 0-18.816 19.626666c0 10.410667 8.362667 19.541333 18.816 19.541334h75.690667a19.413333 19.413333 0 0 0 18.816-19.584 19.413333 19.413333 0 0 0-18.816-19.541334z m37.845333-63.36h-113.493333a19.413333 19.413333 0 0 0-18.858667 19.584c0 10.453333 8.362667 19.584 18.816 19.584h113.493333a19.413333 19.413333 0 0 0 18.858667-19.626667 19.413333 19.413333 0 0 0-18.816-19.541333z" /></svg>
