<?xml version="1.0" standalone="no"?><!DOCTYPE svg PUBLIC "-//W3C//DTD SVG 1.1//EN" "http://www.w3.org/Graphics/SVG/1.1/DTD/svg11.dtd"><svg class="icon" width="200px" height="200.00px" viewBox="0 0 1024 1024" version="1.1" xmlns="http://www.w3.org/2000/svg"><path d="M512 0a512 512 0 1 1 0 1024A512 512 0 0 1 512 0z m0 71.68a440.32 440.32 0 1 0 0 880.64A440.32 440.32 0 0 0 512 71.68z m0 111.0016a51.2 51.2 0 0 1 51.2 51.2v286.0032L701.8496 658.432a51.2 51.2 0 0 1 5.8368 65.3312l-5.8368 7.168a51.2 51.2 0 0 1-72.4992 0l-153.6-153.6a51.2 51.2 0 0 1-14.9504-36.2496v-307.2a51.2 51.2 0 0 1 51.2-51.2z" /></svg>