<?xml version="1.0" standalone="no"?><!DOCTYPE svg PUBLIC "-//W3C//DTD SVG 1.1//EN" "http://www.w3.org/Graphics/SVG/1.1/DTD/svg11.dtd"><svg class="icon" width="200px" height="200.00px" viewBox="0 0 1024 1024" version="1.1" xmlns="http://www.w3.org/2000/svg"><path d="M93.330286 500.809143a416.036571 416.036571 0 0 1 121.929143-285.257143 414.793143 414.793143 0 0 1 294.912-122.148571 413.988571 413.988571 0 0 1 294.692571 122.148571c11.995429 11.922286 23.259429 24.649143 33.645714 38.034286l-72.923428 56.978285a9.728 9.728 0 0 0 3.657143 17.042286l212.918857 52.150857a9.728 9.728 0 0 0 11.995428-9.362285l1.024-219.282286a9.654857 9.654857 0 0 0-15.652571-7.606857l-68.388572 53.467428A509.074286 509.074286 0 0 0 1.243429 500.370286a9.728 9.728 0 0 0 9.654857 9.947428h72.704a9.654857 9.654857 0 0 0 9.728-9.508571z m916.333714 9.508571c5.485714 0 9.874286 4.388571 9.728 9.947429a509.074286 509.074286 0 0 1-909.897143 303.542857l-68.388571 53.394286a9.654857 9.654857 0 0 1-15.652572-7.606857l0.804572-219.428572c0-6.217143 5.997714-10.752 11.995428-9.362286l212.992 52.150858a9.728 9.728 0 0 1 3.657143 17.115428l-72.996571 56.978286a414.866286 414.866286 0 0 0 328.484571 160.182857 414.793143 414.793143 0 0 0 294.912-122.148571 414.72 414.72 0 0 0 121.929143-285.257143 9.654857 9.654857 0 0 1 9.728-9.508572h72.704z m-470.162286-289.645714c5.339429 0 9.728 4.315429 9.728 9.581714V530.285714l172.836572 124.928a9.508571 9.508571 0 0 1 2.048 13.604572l-34.669715 47.323428a9.654857 9.654857 0 0 1-13.531428 2.048l-200.411429-146.285714a9.581714 9.581714 0 0 1-4.022857-7.899429V230.253714c0-5.266286 4.388571-9.654857 9.728-9.654857h58.368z" /></svg>
