<?xml version="1.0" standalone="no"?><!DOCTYPE svg PUBLIC "-//W3C//DTD SVG 1.1//EN" "http://www.w3.org/Graphics/SVG/1.1/DTD/svg11.dtd"><svg class="icon" width="200px" height="200.00px" viewBox="0 0 1024 1024" version="1.1" xmlns="http://www.w3.org/2000/svg"><path d="M202.96 174.88l280.624-48.272A805.136 805.136 0 0 1 591.36 390.4c52.528-77.76 92.224-132.16 119.04-163.216 35.888-41.856 65.536-69.056 88.8-81.664a154.288 154.288 0 0 1 74.4-18.864c29.536 0 52.16 8 68 24.08 15.776 16.128 23.68 37.824 23.68 65.152 0 25.728-7.904 46.784-23.68 63.152a78.992 78.992 0 0 1-59.136 24.528c-17.152 0-36.912-3.12-59.056-9.264-22.32-6.176-37.712-9.248-46.288-9.248-22.544 0-43.952 8.064-64.352 24.128-27.824 21.984-62.176 68.896-102.896 140.736 45.536 160.832 82 258.976 109.312 294.352 16.144 20.912 32.48 31.36 49.072 31.36a62.48 62.48 0 0 0 36.176-10.448c15.568-11.312 39.408-39.424 71.568-84.464l28.96 16.88c-47.136 76.096-93.248 129.76-138.288 160.832-34.304 24.128-68.16 36.16-101.312 36.16-34.368 0-62.88-7.6-85.648-22.88-22.832-15.328-43.04-40.208-60.768-74.8-17.664-34.576-38.624-89.952-62.704-166.048-62.688 79.904-111.872 138.176-147.536 174.912-35.68 36.688-65.312 60.72-88.88 71.952a173.248 173.248 0 0 1-75.6 16.88c-27.888 0-49.968-8-66.336-24.08-16.352-16.128-24.528-37.04-24.528-62.752 0-27.328 8.864-49.872 26.528-67.584 17.712-17.6 40.208-26.528 67.584-26.528 14.416 0 30.768 4.32 49.008 12.896 26.8 12.896 46.112 19.312 57.92 19.312 15.568 0 29.472-3.248 41.808-9.664 16.064-8.064 36.464-25.44 61.104-52.24 15.04-16.64 42.592-52.032 82.864-106.208-51.456-190.816-91.68-305.024-120.64-342.56-18.224-24.16-41.28-36.192-69.168-36.192-14.48 0-32.144 2.16-53.088 6.416l5.664-30.56z" /></svg>