<?xml version="1.0" standalone="no"?><!DOCTYPE svg PUBLIC "-//W3C//DTD SVG 1.1//EN" "http://www.w3.org/Graphics/SVG/1.1/DTD/svg11.dtd"><svg class="icon" width="200px" height="200.00px" viewBox="0 0 1024 1024" version="1.1" xmlns="http://www.w3.org/2000/svg"><path d="M217.6 64c25.6 6.4 38.4 19.2 38.4 38.4s-12.8 38.4-38.4 38.4c-38.4 0-57.6 12.8-57.6 57.6v217.6c0 44.8-12.8 76.8-44.8 89.6 25.6 12.8 38.4 38.4 44.8 83.2v211.2c0 57.6 12.8 70.4 57.6 70.4 19.2 0 38.4 12.8 38.4 38.4 0 19.2-12.8 38.4-38.4 38.4-83.2 0-121.6-44.8-128-134.4V601.6c0-38.4-12.8-57.6-44.8-57.6H32c-19.2-6.4-32-19.2-32-38.4s12.8-32 32-38.4h6.4c38.4 0 44.8-12.8 44.8-51.2V204.8c6.4-96 44.8-134.4 128-140.8h6.4z m588.8 0h6.4c83.2 6.4 121.6 51.2 121.6 140.8v217.6c0 38.4 12.8 44.8 44.8 51.2h6.4c25.6 0 38.4 19.2 38.4 32 0 19.2-12.8 32-32 38.4h-6.4c-38.4 0-44.8 12.8-44.8 57.6v211.2c-6.4 89.6-51.2 134.4-134.4 134.4-19.2 0-38.4-12.8-38.4-38.4 0-19.2 12.8-38.4 38.4-38.4 44.8 0 57.6-12.8 57.6-64V595.2c0-44.8 12.8-70.4 44.8-83.2-32-12.8-44.8-44.8-44.8-89.6V198.4c0-44.8-12.8-57.6-57.6-57.6-19.2 0-38.4-12.8-38.4-38.4 0-19.2 19.2-32 38.4-38.4z m-44.8 243.2c19.2 19.2 19.2 64-6.4 89.6-19.2 32-51.2 38.4-83.2 32-6.4 0-19.2 0-19.2-6.4-12.8-6.4-19.2 0-38.4 12.8-6.4 6.4-19.2 19.2-25.6 32 0 6.4-6.4 12.8 0 19.2l38.4 134.4c12.8 44.8 38.4 57.6 83.2 44.8 12.8 0 19.2-6.4 32-6.4 0 32-6.4 38.4-32 44.8-38.4 19.2-76.8 32-115.2 19.2-38.4-6.4-64-19.2-76.8-64-6.4-19.2-12.8-51.2-19.2-83.2-12.8 19.2-12.8 25.6-19.2 32-19.2 32-38.4 64-57.6 89.6-12.8 19.2-32 32-44.8 38.4-32 12.8-57.6 0-70.4-19.2-12.8-19.2-12.8-64 6.4-89.6 19.2-32 51.2-38.4 89.6-32 6.4 0 12.8 0 19.2 6.4 12.8 12.8 25.6 6.4 32-6.4 6.4-12.8 19.2-19.2 19.2-38.4 6.4-6.4 6.4-12.8 0-19.2-6.4-38.4-12.8-83.2-25.6-115.2-19.2-51.2-38.4-70.4-89.6-51.2-19.2-12.8-19.2-12.8-32-12.8 0-19.2 6.4-38.4 32-44.8 38.4-12.8 76.8-32 115.2-19.2 38.4 6.4 57.6 19.2 76.8 64 6.4 19.2 12.8 51.2 19.2 76.8 6.4-6.4 6.4-12.8 12.8-19.2 19.2-32 38.4-64 57.6-89.6 12.8-12.8 19.2-32 38.4-38.4 32-12.8 64 0 83.2 19.2z" /></svg>
