<?xml version="1.0" standalone="no"?><!DOCTYPE svg PUBLIC "-//W3C//DTD SVG 1.1//EN" "http://www.w3.org/Graphics/SVG/1.1/DTD/svg11.dtd"><svg class="icon" width="200px" height="142.92px" viewBox="0 0 1433 1024" version="1.1" xmlns="http://www.w3.org/2000/svg"><path d="M341.333333 0v136.533333H273.066667a34.133333 34.133333 0 0 0-33.8944 30.139734L238.933333 170.666667v191.726933a204.731733 204.731733 0 0 1-62.600533 147.387733l-2.389333 2.218667 2.389333 2.218667a204.765867 204.765867 0 0 1 62.429867 138.922666l0.170666 8.465067V853.333333a34.133333 34.133333 0 0 0 30.139734 33.8944L273.066667 887.466667h68.266666v136.533333H273.066667a170.666667 170.666667 0 0 1-170.496-163.259733L102.4 853.333333v-191.726933a68.266667 68.266667 0 0 0-41.5744-62.805333l-5.12-1.9456L0 578.286933v-132.573866l55.7056-18.568534a68.266667 68.266667 0 0 0 46.4896-59.2896l0.2048-5.461333V170.666667A170.666667 170.666667 0 0 1 265.659733 0.170667L273.066667 0h68.266666z m750.933334 0v136.533333h68.266666a34.133333 34.133333 0 0 1 33.8944 30.139734L1194.666667 170.666667v191.726933c0 56.866133 23.483733 109.636267 62.600533 147.387733l2.389333 2.218667-2.389333 2.218667a204.765867 204.765867 0 0 0-62.429867 138.922666l-0.170666 8.465067V853.333333a34.133333 34.133333 0 0 1-30.139734 33.8944L1160.533333 887.466667h-68.266666v136.533333h68.266666a170.666667 170.666667 0 0 0 170.496-163.259733L1331.2 853.333333v-191.726933a68.266667 68.266667 0 0 1 41.5744-62.805333l5.12-1.9456L1433.6 578.286933v-132.573866l-55.7056-18.568534a68.266667 68.266667 0 0 1-46.4896-59.2896l-0.2048-5.461333V170.666667A170.666667 170.666667 0 0 0 1167.940267 0.170667L1160.533333 0h-68.266666z m-235.383467 127.112533A68.266667 68.266667 0 0 1 897.706667 214.596267l-233.472 641.501866a68.266667 68.266667 0 1 1-128.341334-46.6944l233.472-641.501866a68.266667 68.266667 0 0 1 87.517867-40.789334z" /></svg>
