<?xml version="1.0" standalone="no"?><!DOCTYPE svg PUBLIC "-//W3C//DTD SVG 1.1//EN" "http://www.w3.org/Graphics/SVG/1.1/DTD/svg11.dtd"><svg class="icon" width="200px" height="200.00px" viewBox="0 0 1024 1024" version="1.1" xmlns="http://www.w3.org/2000/svg"><path d="M371.2 547.2c-19.2 0-33.6-16-33.6-33.6 0-19.2 16-33.6 33.6-33.6 59.2 0 108.8-48 108.8-108.8v-78.4c0-46.4 17.6-91.2 51.2-124.8s76.8-52.8 123.2-52.8h3.2c19.2 0 35.2 14.4 35.2 33.6s-14.4 35.2-33.6 35.2H656c-59.2 1.6-107.2 49.6-107.2 108.8v78.4c0 96-80 176-177.6 176z" /><path d="M659.2 910.4h-4.8c-46.4 0-91.2-19.2-123.2-52.8-33.6-33.6-51.2-78.4-51.2-124.8V656c0-59.2-48-108.8-108.8-108.8-19.2 0-33.6-16-33.6-33.6s16-33.6 33.6-33.6c97.6 0 177.6 80 177.6 177.6V736c0 59.2 48 107.2 107.2 108.8h3.2c19.2 0 33.6 16 33.6 35.2 0 16-16 30.4-33.6 30.4z" /><path d="M659.2 547.2h-288c-19.2 0-33.6-16-33.6-33.6 0-19.2 16-33.6 33.6-33.6h288c19.2 0 33.6 16 33.6 33.6s-14.4 33.6-33.6 33.6z" /><path d="M320 657.6H83.2c-44.8 0-80-35.2-80-80v-128c0-44.8 35.2-80 80-80H320c44.8 0 80 35.2 80 80v128c0 43.2-36.8 80-80 80zM83.2 436.8c-6.4 0-11.2 4.8-11.2 11.2v128c0 6.4 4.8 11.2 11.2 11.2H320c6.4 0 11.2-4.8 11.2-11.2v-128c0-6.4-4.8-11.2-11.2-11.2H83.2zM876.8 288H768c-80 0-144-64-144-144s64-144 144-144h107.2c80 0 144 64 144 144 1.6 80-64 144-142.4 144zM768 68.8c-41.6 0-75.2 33.6-75.2 75.2s33.6 75.2 75.2 75.2h107.2c41.6 0 75.2-33.6 75.2-75.2s-33.6-75.2-75.2-75.2H768z m108.8 588.8H768c-80 0-144-64-144-144s64-144 144-144h107.2c80 0 144 64 144 144 1.6 78.4-64 144-142.4 144zM768 436.8c-41.6 0-75.2 33.6-75.2 75.2s33.6 75.2 75.2 75.2h107.2c41.6 0 75.2-33.6 75.2-75.2s-33.6-75.2-75.2-75.2H768zM876.8 1024H768c-80 0-144-64-144-144s64-144 144-144h107.2c80 0 144 64 144 144s-64 144-142.4 144zM768 804.8c-41.6 0-75.2 33.6-75.2 75.2s33.6 75.2 75.2 75.2h107.2c41.6 0 75.2-33.6 75.2-75.2s-33.6-75.2-75.2-75.2H768z" /></svg>
