<?xml version="1.0" standalone="no"?><!DOCTYPE svg PUBLIC "-//W3C//DTD SVG 1.1//EN" "http://www.w3.org/Graphics/SVG/1.1/DTD/svg11.dtd"><svg class="icon" width="200px" height="200.00px" viewBox="0 0 1024 1024" version="1.1" xmlns="http://www.w3.org/2000/svg"><path d="M796.8 336l204.8-204.8c28.8-28.8 28.8-76.8 0-108.8-28.8-28.8-76.8-28.8-105.6 0l-204.8 204.8h-6.4c-80-44.8-169.6-44.8-240 22.4-3.2 3.2-3.2 6.4 0 6.4l326.4 326.4c3.2 3.2 6.4 3.2 6.4 0 67.2-70.4 67.2-163.2 22.4-240-3.2 0-3.2-3.2-3.2-6.4zM384 313.6l323.2 323.2c3.2 3.2 3.2 6.4 0 9.6-16 28.8-105.6 176-131.2 374.4 0 3.2-3.2 3.2-3.2 3.2l-108.8-67.2v-3.2c9.6-22.4 108.8-230.4 99.2-220.8-9.6 9.6-80 83.2-131.2 156.8l-28.8 41.6s-115.2-76.8-150.4-128V800c22.4-28.8 147.2-188.8 147.2-188.8L192 736h-3.2c-9.6-12.8-80-89.6-99.2-124.8V608c19.2-16 131.2-112 131.2-112L64 550.4h-3.2L0 448v-3.2c28.8-6.4 259.2-54.4 371.2-131.2 6.4-3.2 9.6-3.2 12.8 0z" /></svg>