<?xml version="1.0" standalone="no"?><!DOCTYPE svg PUBLIC "-//W3C//DTD SVG 1.1//EN" "http://www.w3.org/Graphics/SVG/1.1/DTD/svg11.dtd"><svg class="icon" width="200px" height="200.00px" viewBox="0 0 1024 1024" version="1.1" xmlns="http://www.w3.org/2000/svg"><path d="M896.35 139c41.235 0 74.65 33.445 74.65 74.688v597.625C971 852.556 937.585 886 896.35 886h-767.7C87.415 886 54 852.555 54 811.312V213.688C54 172.446 87.416 139 128.65 139z m0 64h-767.7c-5.876 0-10.65 4.779-10.65 10.688v597.625c0 5.909 4.774 10.687 10.65 10.687h767.7c5.876 0 10.65-4.778 10.65-10.688V213.688c0-5.909-4.774-10.687-10.65-10.687zM768.4 651.25c17.673 0 32 14.327 32 32 0 17.496-14.042 31.713-31.47 31.996l-0.53 0.004H256.6c-17.673 0-32-14.327-32-32 0-17.496 14.042-31.713 31.47-31.996l0.53-0.004h511.8z m0-341.5c17.673 0 32 14.327 32 32V512.5c0 17.673-14.327 32-32 32H597.8c-17.673 0-32-14.327-32-32V341.75c0-17.673 14.327-32 32-32zM384.55 480.5c17.673 0 32 14.327 32 32 0 17.496-14.042 31.713-31.47 31.996l-0.53 0.004H256.6c-17.673 0-32-14.327-32-32 0-17.496 14.042-31.713 31.47-31.996l0.53-0.004h127.95zM736.4 373.75H629.8V480.5h106.6V373.75z m-351.85-64c17.673 0 32 14.327 32 32 0 17.496-14.042 31.713-31.47 31.996l-0.53 0.004H256.6c-17.673 0-32-14.327-32-32 0-17.496 14.042-31.713 31.47-31.996l0.53-0.004h127.95z" /></svg>