<?xml version="1.0" standalone="no"?><!DOCTYPE svg PUBLIC "-//W3C//DTD SVG 1.1//EN" "http://www.w3.org/Graphics/SVG/1.1/DTD/svg11.dtd"><svg class="icon" width="200px" height="200.00px" viewBox="0 0 1024 1024" version="1.1" xmlns="http://www.w3.org/2000/svg"><path d="M840.921212 37.236364H183.078788C80.678788 37.236364 0 117.915152 0 214.109091V806.787879c0 96.193939 80.678788 176.872727 183.078788 176.872727h657.842424c99.29697 0 183.078788-80.678788 183.078788-176.872727V214.109091c0-96.193939-80.678788-176.872727-183.078788-176.872727z m99.29697 772.654545c0 52.751515-43.442424 96.193939-99.29697 96.193939H183.078788c-55.854545 0-99.29697-43.442424-99.29697-96.193939V214.109091c0-52.751515 43.442424-96.193939 99.29697-96.193939h657.842424c55.854545 0 99.29697 43.442424 99.29697 96.193939v595.781818zM335.127273 484.072727c80.678788 0 148.945455-65.163636 148.945454-142.739394 0-77.575758-65.163636-142.739394-148.945454-142.739394C254.448485 198.593939 186.181818 263.757576 186.181818 341.333333c3.10303 77.575758 68.266667 142.739394 148.945455 142.739394z m0-204.8c34.133333 0 65.163636 27.927273 65.163636 62.060606s-27.927273 62.060606-65.163636 62.060606c-34.133333 0-65.163636-27.927273-65.163637-62.060606 3.10303-34.133333 31.030303-62.060606 65.163637-62.060606zM183.078788 803.684848z m651.636364-456.145454L512 660.945455 372.363636 524.412121l-217.212121 211.006061c-6.206061 6.206061-12.412121 18.618182-12.412121 27.927273 0 21.721212 18.618182 40.339394 40.339394 40.339393 12.412121 0 21.721212-3.10303 27.927273-12.412121l158.254545-155.151515 139.636364 136.533333L893.672727 403.393939c15.515152-15.515152 15.515152-40.339394 0-55.854545s-40.339394-15.515152-58.957575 0z" /></svg>
