<?xml version="1.0" encoding="utf-8"?>
<!-- Generator: Adobe Illustrator 19.0.0, SVG Export Plug-In . SVG Version: 6.00 Build 0)  -->
<svg version="1.1" id="图层_1" xmlns="http://www.w3.org/2000/svg" xmlns:xlink="http://www.w3.org/1999/xlink" x="0px" y="0px"
	 viewBox="-205 308.2 214.3 177.8" style="enable-background:new -205 308.2 214.3 177.8;" xml:space="preserve">
<style type="text/css">
	.st0{}
</style>
<image style="overflow:visible;" width="760" height="616" xlink:href="A7D8CB81.jpg"  transform="matrix(1 0 0 1 -8091 -7487.7798)">
</image>
<image style="overflow:visible;" width="760" height="616" xlink:href="A7D8CB80.jpg"  transform="matrix(1 0 0 1 -8091 -7487.7798)">
</image>
<path class="st0" d="M-130.2,363.9c0.2-11.5-9-21-20.5-21.2c-0.3,0-0.5,0-0.8,0c-11.5,0.2-20.6,9.7-20.4,21.2
	c0.2,11.5,9.7,20.6,21.2,20.4C-139.3,384.1-130.3,375.1-130.2,363.9z M-199.2,327.3l0.2,141.9c0,6.8,5.4,12.3,12.2,12.2l169.9-0.3
	c6.8,0,12.1-5.5,12.1-12.3L-5,327c0-6.8-5.4-12.3-12.2-12.2l-169.9,0.3C-193.8,315.1-199.2,320.6-199.2,327.3z M-142.2,400.7
	l-42.9,46.3l-0.1-112.8c0.2-3,2.6-5.2,5.6-5.2l155-0.3c2.9,0,5.2,2.1,5.7,5.1l0.2,112.9l-54.9-66c-1.7-1.9-4.4-3.4-7.3-3.4
	c-2.8,0-5.4,1.2-7.2,3.3l-23.3,25.3c-0.6,0.6-1.2,1.2-1.9,1.8c-1.3,1.2-3,1.8-4.8,1.8c-1.9,0-3.3-0.8-5-2l-8.1-6.8
	c-1.8-1.4-3.3-2.5-5.6-2.5C-138.8,398-140.9,399-142.2,400.7L-142.2,400.7z"/>
</svg>
