<?xml version="1.0" encoding="utf-8"?>
<!-- Generator: Adobe Illustrator 19.0.0, SVG Export Plug-In . SVG Version: 6.00 Build 0)  -->
<svg version="1.1" id="图层_1" xmlns="http://www.w3.org/2000/svg" xmlns:xlink="http://www.w3.org/1999/xlink" x="0px" y="0px"
	 viewBox="-205 308.2 214.3 177.8" style="enable-background:new -205 308.2 214.3 177.8;" xml:space="preserve">
<style type="text/css">
	.st0{}
</style>
<image style="overflow:visible;" width="760" height="616" xlink:href="A7D8CB84.jpg"  transform="matrix(1 0 0 1 -8091 -7487.7798)">
</image>
<image style="overflow:visible;" width="760" height="616" xlink:href="A7D8CB85.jpg"  transform="matrix(1 0 0 1 -8091 -7487.7798)">
</image>
<g>
	<path class="st0" d="M-51.6,397.1c-2.4,2.5-6.5,2.6-9,0.1c-2.1-2.1-2.5-5.3-1-7.8l11.3-14.9c10.9-13.7,30.9-16,44.6-5.1
		c13.4,10.6,15.9,30,5.8,43.7l-11.7,15c-1.9,2.9-5.8,3.8-8.8,1.9c-2.9-1.9-3.8-5.8-1.9-8.8c0.2-0.3,0.4-0.5,0.6-0.8l11.5-15
		c6.1-8.6,4.1-20.5-4.5-26.6c-8.1-5.8-19.4-4.3-25.7,3.4L-51.6,397.1z M-37,440.7c1.7-3.1,5.6-4.2,8.6-2.5s4.2,5.6,2.5,8.6
		c-0.3,0.5-0.7,1-1.1,1.4l-11.5,15c-11.4,13.3-31.4,14.9-44.7,3.5c-12.3-10.5-14.7-28.6-5.6-41.9l11.6-14.8c1.6-3.1,5.4-4.4,8.5-2.8
		c3.1,1.6,4.4,5.4,2.8,8.5c-0.3,0.6-0.7,1.2-1.2,1.7l-11.6,15c-6.1,8.6-4.1,20.5,4.5,26.6c8.1,5.8,19.4,4.3,25.7-3.4L-37,440.7z
		 M-52.9,440.7c-1.9,2.9-5.8,3.8-8.8,1.9s-3.8-5.8-1.9-8.8c0.2-0.3,0.4-0.5,0.6-0.8l27-35.3c2.3-2.6,6.4-2.8,9-0.5
		c2.3,2.1,2.8,5.6,1.1,8.2L-52.9,440.7z"/>
</g>
<g>
	<path class="st0" d="M-64.9,480.2l-0.2,0C-65,480.2-64.9,480.2-64.9,480.2C-64.8,480.2-64.8,480.2-64.9,480.2z"/>
	<path class="st0" d="M-70.2,380.6l-1.7-2.1c-1.7-1.9-4.4-3.4-7.3-3.4c-2.8,0-5.4,1.2-7.2,3.3l-23.2,25.3c-0.6,0.6-1.2,1.2-1.9,1.8
		c-1.3,1.2-3,1.8-4.8,1.8c-1.9,0-3.3-0.8-5-2l-8.1-6.8c-1.8-1.4-3.4-2.5-5.6-2.4c-2.2,0.1-4.2,1-5.5,2.7l0,0l-42.8,46.4l-0.3-112.8
		c0.2-3,2.6-5.2,5.6-5.2l155-0.6c2.9,0,5.3,2.1,5.7,5.1l0.1,18.4h13.9l-0.1-25.1c0-6.8-5.4-12.2-12.2-12.2l-169.9,0.7
		c-6.8,0-12.1,5.6-12.1,12.3l0.6,141.9c0,6.8,5.4,12.2,12.2,12.2l95.4-0.5c-3.4-3.5-9.6-6.8-12.9-12.9c-7.4-13.5-7.9-21.2-8.2-27.3
		C-111.8,415.5-80.5,396.1-70.2,380.6z"/>
	<path class="st0" d="M-151.4,341.8c-11.5,0.3-20.6,9.8-20.3,21.3c0.3,11.5,9.8,20.6,21.3,20.3c11.2-0.2,20.2-9.3,20.3-20.5
		c0.2-11.5-9-20.9-20.5-21.1C-150.9,341.8-151.1,341.8-151.4,341.8z"/>
</g>
</svg>
