<?xml version="1.0" standalone="no"?><!DOCTYPE svg PUBLIC "-//W3C//DTD SVG 1.1//EN" "http://www.w3.org/Graphics/SVG/1.1/DTD/svg11.dtd"><svg class="icon" width="200px" height="200.00px" viewBox="0 0 1024 1024" version="1.1" xmlns="http://www.w3.org/2000/svg"><path d="M775.3728 86.4256l-10.4448 50.176h-15.7696c-38.0928 0-65.3312 7.168-82.1248 21.504-16.7936 14.336-27.8528 35.6352-33.792 64.1024L509.952 806.7072c-3.4816 16.7936-5.3248 27.8528-5.3248 33.1776 0 31.744 28.672 47.7184 86.2208 47.7184h15.1552l-10.4448 49.9712H248.6272l9.216-49.9712h15.7696c65.9456 0 105.0624-28.4672 116.9408-85.6064l124.1088-584.4992c3.072-14.7456 4.7104-25.8048 4.7104-33.1776 0-31.744-28.672-47.7184-86.2208-47.7184h-15.1552l10.4448-50.176h346.9312z" /></svg>