<?xml version="1.0" encoding="utf-8"?>
<!-- Generator: Adobe Illustrator 19.0.0, SVG Export Plug-In . SVG Version: 6.00 Build 0)  -->
<svg version="1.1" id="图层_1" xmlns="http://www.w3.org/2000/svg" xmlns:xlink="http://www.w3.org/1999/xlink" x="0px" y="0px"
	 viewBox="-205 308.2 214.3 177.8" style="enable-background:new -205 308.2 214.3 177.8;" xml:space="preserve">
<style type="text/css">
	.st0{}
</style>
<image style="overflow:visible;" width="760" height="616" xlink:href="A7D8CB86.jpg"  transform="matrix(1 0 0 1 -8091 -7487.7798)">
</image>
<image style="overflow:visible;" width="760" height="616" xlink:href="A7D8CB83.jpg"  transform="matrix(1 0 0 1 -8091 -7487.7798)">
</image>
<path class="st0" d="M-24.1,480.9c-5,0-8.3-3.6-8.3-9V382c0-5.4,3.3-9,8.3-9s8.3,3.6,8.3,9v89.9C-15.7,477.3-19.1,480.9-24.1,480.9z
	"/>
<path class="st0" d="M-49.1,417.6c-2.5,0-4.2-1-5.8-3.1c-3.3-4.1-3.3-10.2,0-14.3l25-30.5c3.3-4.1,8.3-4.1,11.7,0
	c3.3,4.1,3.3,10.2,0,14.3l-25,30.5C-44.9,416.6-46.6,417.6-49.1,417.6z"/>
<path class="st0" d="M1,418.6c-2.5,0-4.2-1-5.8-3.1l-25-30.5c-3.3-4.1-3.3-10.2,0-14.3c3.3-4.1,8.3-4.1,11.7,0l25,30.5
	c3.3,4.1,3.3,10.2,0,14.3C5.2,417.6,3.5,418.6,1,418.6z"/>
<g>
	<path class="st0" d="M-151.1,342.3c-11.5,0.2-20.6,9.7-20.4,21.2c0.2,11.5,9.7,20.6,21.2,20.4c11.2-0.2,20.2-9.3,20.4-20.5
		c0.2-11.5-9-21-20.5-21.1C-150.6,342.3-150.9,342.3-151.1,342.3z"/>
	<path class="st0" d="M-4.8,326.6c0-6.8-5.4-12.3-12.2-12.2l-169.9,0.3c-6.8,0-12.1,5.5-12.1,12.3l0.3,141.9
		c0,6.8,5.4,12.3,12.2,12.2l137.3-0.2l-0.2-49.1c-12.1-0.2-21.8-13.3-21.8-25.8c0-4.7,3.4-15.1,5.8-18.7l-7.9-7.1
		c-1.7-1.9-4.4-3.4-7.3-3.4c-2.8,0-5.4,1.2-7.2,3.3l-23.3,25.3c-0.6,0.6-1.2,1.2-1.9,1.8c-1.3,1.2-3,1.8-4.8,1.8c-1.9,0-3.3-0.8-5-2
		l-8.1-6.8c-1.8-1.4-3.3-2.5-5.6-2.5c-2.2,0.1-4.2,1-5.5,2.7l0,0l-42.9,46.3l-0.1-112.8c0.2-3,2.6-5.2,5.6-5.2l155-0.3
		c2.9,0,5.2,2.1,5.7,5.1l0,18.7h13.9L-4.8,326.6z"/>
</g>
</svg>
