<?xml version="1.0" standalone="no"?><!DOCTYPE svg PUBLIC "-//W3C//DTD SVG 1.1//EN" "http://www.w3.org/Graphics/SVG/1.1/DTD/svg11.dtd"><svg class="icon" width="200px" height="200.00px" viewBox="0 0 1024 1024" version="1.1" xmlns="http://www.w3.org/2000/svg"><path d="M565.6 634.6c105.7 0 191.4 85.7 191.4 191.5V941H22V826.1c0-105.8 85.7-191.5 191.4-191.5h352.2z m168.2-17.3h104.7c90.3 0 163.5 73.2 163.5 163.4v98H833.6V826c0-84.3-39-159.5-99.8-208.7zM389.5 83c135.3 0 245 109.8 245 245.1s-109.7 245.1-245 245.1-245-109.8-245-245.1S254.2 83 389.5 83z m299.6 62.2c115.8 0 209.6 93.9 209.6 209.7s-93.8 209.7-209.6 209.7c-24.3 0-47.7-4.2-69.4-11.8 56.6-58 91.5-137.3 91.5-224.7 0-66.8-20.4-128.9-55.2-180.3 10.7-1.7 21.8-2.6 33.1-2.6z" /></svg>
