<?xml version="1.0" standalone="no"?><!DOCTYPE svg PUBLIC "-//W3C//DTD SVG 1.1//EN" "http://www.w3.org/Graphics/SVG/1.1/DTD/svg11.dtd"><svg class="icon" width="200px" height="200.00px" viewBox="0 0 1024 1024" version="1.1" xmlns="http://www.w3.org/2000/svg"><path d="M159.584 1022.977c-24.04-3.58-43.988-20.46-50.637-42.965-1.534-5.115-2.046-10.23-2.046-15.856V59.844c0-32.735 28.132-59.333 62.402-59.333h685.906c34.27 0 62.401 26.598 62.401 59.333v904.312c0 4.603-0.511 9.718-1.534 14.322-5.626 22.505-25.063 39.896-49.103 44.499l-5.115 1.023-325.307-325.307c-5.626-5.626-13.81-9.206-21.994-9.206-9.206 0-18.413 3.58-25.574 10.74L164.188 1023.49l-4.604-0.512zM216.871 75.7c-19.436 0-34.781 14.322-34.781 32.224v791.273l286.433-286.434c12.276-12.275 28.132-18.925 45.011-18.925 15.857 0 30.178 6.138 40.92 16.88l286.945 286.944V108.436c0-17.903-15.857-32.224-34.782-32.224H216.871z" /></svg>