<?xml version="1.0" standalone="no"?><!DOCTYPE svg PUBLIC "-//W3C//DTD SVG 1.1//EN" "http://www.w3.org/Graphics/SVG/1.1/DTD/svg11.dtd"><svg class="icon" width="200px" height="200.00px" viewBox="0 0 1024 1024" version="1.1" xmlns="http://www.w3.org/2000/svg"><path d="M31.2 349.7c222.2 345.4 727.1 342.2 946.7 0.8l-20.3 0.5-53.8-43.2c-186.8 284.8-609.5 287.4-798.5-0.6H64.6l-26.8 41.5-6.7 1z" /><path d="M110.1 326.5a43 43 0 1 1-85.9 0 43 43 0 0 1 86 0z m875.8-0.8a43 43 0 1 1-85.9 0 43 43 0 0 1 85.9 0zM634 549.3a42.7 42.7 0 0 1 54.7 25.5l58.4 160.4a42.7 42.7 0 1 1-80.2 29.2L608.5 604a42.7 42.7 0 0 1 25.5-54.7z m-211 0a42.7 42.7 0 0 0-54.7 25.5l-58.4 160.4a42.7 42.7 0 1 0 80.2 29.1L448.4 604a42.7 42.7 0 0 0-25.5-54.7z m-204.5-70a42.7 42.7 0 0 0-60.1 5.2L48.7 615.2a42.7 42.7 0 0 0 65.4 54.9l109.7-130.7a42.7 42.7 0 0 0-5.2-60.1z m611.2-35.1a42.7 42.7 0 0 1 60.1 5.2l109.7 130.7a42.7 42.7 0 1 1-65.3 54.9L824.5 504.3a42.7 42.7 0 0 1 5.2-60.1z" /></svg>
