<?xml version="1.0" standalone="no"?><!DOCTYPE svg PUBLIC "-//W3C//DTD SVG 1.1//EN" "http://www.w3.org/Graphics/SVG/1.1/DTD/svg11.dtd"><svg class="icon" width="200px" height="185.84px" viewBox="0 0 1102 1024" version="1.1" xmlns="http://www.w3.org/2000/svg"><path d="M352.054787 65.104944h646.089812c35.740804 0 64.632598 29.521589 64.632598 65.813462a65.183668 65.183668 0 0 1-64.553874 65.813462H351.976063a65.183668 65.183668 0 0 1-64.553874-65.813462c0-36.291873 28.891795-65.813462 64.553874-65.813462z m0 394.880772h646.089812c35.740804 0 64.632598 29.442865 64.632598 65.734738a65.183668 65.183668 0 0 1-64.553874 65.813462H351.976063a65.183668 65.183668 0 0 1-64.553874-65.813462c0-36.291873 28.891795-65.734738 64.553874-65.734738z m0 394.802048h646.089812c35.740804 0 64.632598 29.442865 64.632598 65.813462a65.183668 65.183668 0 0 1-64.553874 65.734737H351.976063a65.183668 65.183668 0 0 1-64.553874-65.734737c0-36.370597 28.891795-65.813462 64.553874-65.813462zM51.643099 69.11988V38.181255c9.919254 0.787242 19.838508 0.787242 29.679038 0a40.306809 40.306809 0 0 0 31.017349-28.970519 38.889773 38.889773 0 0 0 0-9.210736h41.408949v229.638599h-48.49413V69.041156H51.643099z m0 509.975606a130.682233 130.682233 0 0 1 45.187712-49.360096c14.170363-9.683081 27.553483-20.468302 40.149361-32.276937a48.49413 48.49413 0 0 0 14.170363-33.536525 37.315288 37.315288 0 0 0-7.7937-24.404514 28.183277 28.183277 0 0 0-23.22365-9.840529 27.632207 27.632207 0 0 0-31.017349 15.115053 78.251891 78.251891 0 0 0-5.1958 28.340725H41.960018c-0.078724-16.610814 3.463866-33.064179 10.312875-48.021784a64.317701 64.317701 0 0 1 64.553874-34.874837c21.098095-1.102139 41.723846 6.219215 57.547418 20.389577 14.327811 14.012914 22.121511 33.693973 21.334268 53.926103a74.630577 74.630577 0 0 1-14.878881 46.053678c-9.446908 11.493739-20.547026 21.412992-32.906731 29.600313l-18.106574 13.225672-23.22365 17.712953a51.800548 51.800548 0 0 0-10.3916 12.517154h99.507436v40.149361H39.362118c0.236173-15.744847 3.700039-31.174798 10.312875-45.423885l1.968106 0.708518z m32.276937 369.137947c-0.157448 7.872424 1.338312 15.744847 4.566006 22.987477 5.510697 11.415014 17.319332 18.106574 29.679037 17.161884a32.51311 32.51311 0 0 0 20.704475-6.612836 34.638664 34.638664 0 0 0 9.683081-26.293895 30.308831 30.308831 0 0 0-18.106575-30.938626 91.713736 91.713736 0 0 0-32.276937-8.580941v-32.906731c10.234151 0.393621 20.62575-1.180864 30.387556-4.566006a27.081137 27.081137 0 0 0 14.800156-28.340725 30.623728 30.623728 0 0 0-7.714975-21.72789 27.553483 27.553483 0 0 0-21.334268-8.502217 26.923689 26.923689 0 0 0-23.22365 10.470323 44.085573 44.085573 0 0 0-7.085181 27.710932H41.881294c0.314897-11.257566 2.361727-22.357683 5.825594-32.906731a74.31568 74.31568 0 0 1 17.398056-25.034308 60.538938 60.538938 0 0 1 20.704474-12.517153c9.683081-2.755348 19.681059-3.857488 29.679037-3.306418a78.488064 78.488064 0 0 1 52.981412 17.161883c13.38312 11.33629 20.704474 28.340725 20.07468 46.053679a51.957996 51.957996 0 0 1-12.280981 34.874837 40.779155 40.779155 0 0 1-15.508674 11.808635c6.770284 1.574485 12.910775 5.1958 17.47678 10.549048 11.808636 11.415014 18.106574 27.553483 17.398057 44.085573a75.102922 75.102922 0 0 1-19.995957 51.957996c-15.744847 15.823572-37.394012 24.010892-59.436798 22.436407a71.953952 71.953952 0 0 1-64.632599-32.276937 97.460605 97.460605 0 0 1-11.021393-44.715366l43.29833 1.968106z" /></svg>
