<?xml version="1.0" standalone="no"?><!DOCTYPE svg PUBLIC "-//W3C//DTD SVG 1.1//EN" "http://www.w3.org/Graphics/SVG/1.1/DTD/svg11.dtd"><svg class="icon" width="200px" height="200.00px" viewBox="0 0 1024 1024" version="1.1" xmlns="http://www.w3.org/2000/svg"><path d="M972.8 153.6H481.792l-87.04-87.552A51.2 51.2 0 0 0 358.4 51.2H51.2a51.2 51.2 0 0 0-51.2 51.2v819.2a51.2 51.2 0 0 0 51.2 51.2h921.6a51.2 51.2 0 0 0 51.2-51.2V204.8a51.2 51.2 0 0 0-51.2-51.2z m-51.2 716.8H102.4V153.6h235.008l87.04 87.552A51.2 51.2 0 0 0 460.8 256h460.8z" /><path d="M281.6 460.8m-51.2 0a51.2 51.2 0 1 0 102.4 0 51.2 51.2 0 1 0-102.4 0Z" /><path d="M435.2 460.8a51.2 51.2 0 0 0 51.2 51.2h256a51.2 51.2 0 0 0 0-102.4h-256a51.2 51.2 0 0 0-51.2 51.2z" /><path d="M281.6 665.6m-51.2 0a51.2 51.2 0 1 0 102.4 0 51.2 51.2 0 1 0-102.4 0Z" /><path d="M742.4 614.4h-256a51.2 51.2 0 0 0 0 102.4h256a51.2 51.2 0 0 0 0-102.4z" /></svg>
