<?xml version="1.0" standalone="no"?><!DOCTYPE svg PUBLIC "-//W3C//DTD SVG 1.1//EN" "http://www.w3.org/Graphics/SVG/1.1/DTD/svg11.dtd"><svg class="icon" width="200px" height="200.00px" viewBox="0 0 1024 1024" version="1.1" xmlns="http://www.w3.org/2000/svg"><path d="M65.76 63.95m59.39 0l533.51 0q59.39 0 59.39 59.39l0 0q0 59.39-59.39 59.39l-533.51 0q-59.39 0-59.39-59.39l0 0q0-59.39 59.39-59.39Z"  /><path d="M558.19 607.12m59.39 0l276.03 0q59.39 0 59.39 59.39l0 0q0 59.39-59.39 59.39l-276.03 0q-59.39 0-59.39-59.39l0 0q0-59.39 59.39-59.39Z"  /><path d="M558.19 390.1m59.39 0l276.03 0q59.39 0 59.39 59.39l0 0q0 59.39-59.39 59.39l-276.03 0q-59.39 0-59.39-59.39l0 0q0-59.39 59.39-59.39Z"  /><path d="M67.14 834.56m59.39 0l774.44 0q59.39 0 59.39 59.39l0 0q0 59.39-59.39 59.39l-774.44 0q-59.39 0-59.39-59.39l0 0q0-59.39 59.39-59.39Z"  /><path d="M393 771.8a59.38 59.38 0 0 1-59.38-59.39V63.87h118.75v648.54A59.39 59.39 0 0 1 393 771.8z"  /></svg>