<?xml version="1.0" standalone="no"?><!DOCTYPE svg PUBLIC "-//W3C//DTD SVG 1.1//EN" "http://www.w3.org/Graphics/SVG/1.1/DTD/svg11.dtd"><svg class="icon" width="200px" height="200.00px" viewBox="0 0 1024 1024" version="1.1" xmlns="http://www.w3.org/2000/svg"><path d="M186.520373 819.205671a51.828719 51.828719 0 0 0 7.640404-0.630136l215.270346-37.808184a12.602728 12.602728 0 0 0 6.852734-3.544517l542.547437-542.547437a12.760262 12.760262 0 0 0 0-18.116422L746.16026 3.730407A12.602728 12.602728 0 0 0 736.944515 0.028356a12.602728 12.602728 0 0 0-9.136977 3.702051L185.338868 546.277845a12.996563 12.996563 0 0 0-3.623285 6.852733l-37.729416 215.270346a43.321877 43.321877 0 0 0 42.534206 50.804747z m86.24992-223.225818l464.252989-464.095456 93.732789 93.732789-464.174222 464.174223-113.818387 20.085597 20.006831-113.897153z m710.242485 330.742841H40.958866a40.958866 40.958866 0 0 0-40.958866 40.958866v46.078724c0 5.671228 4.568489 10.239716 10.239716 10.239716h1003.492211a10.239716 10.239716 0 0 0 10.239717-10.239716v-46.078724a40.958866 40.958866 0 0 0-40.958866-40.958866z" /></svg>
