<?xml version="1.0" standalone="no"?><!DOCTYPE svg PUBLIC "-//W3C//DTD SVG 1.1//EN" "http://www.w3.org/Graphics/SVG/1.1/DTD/svg11.dtd"><svg class="icon" width="200px" height="200.00px" viewBox="0 0 1024 1024" version="1.1" xmlns="http://www.w3.org/2000/svg"><path d="M746.88 896.128a149.333333 149.333333 0 1 1 0-298.666667 149.333333 149.333333 0 0 1 0 298.666667z m0-85.333333a64 64 0 1 0 0-128 64 64 0 0 0 0 128z m-469.333333-384a149.333333 149.333333 0 1 1 0-298.666667 149.333333 149.333333 0 0 1 0 298.666667z m0-85.333334a64 64 0 1 0 0-128 64 64 0 0 0 0 128z m536.362666-191.402666l60.330667 60.373333L210.517333 874.154667 150.186667 813.824 813.909333 150.058667z" /></svg>
