<?xml version="1.0" standalone="no"?><!DOCTYPE svg PUBLIC "-//W3C//DTD SVG 1.1//EN" "http://www.w3.org/Graphics/SVG/1.1/DTD/svg11.dtd"><svg class="icon" width="200px" height="200.00px" viewBox="0 0 1024 1024" version="1.1" xmlns="http://www.w3.org/2000/svg"><path d="M160 144l704 0c26.512 0 48-21.488 48-48s-21.488-48-48-48L160 48C133.488 48 112 69.488 112 96S133.488 144 160 144zM934 192 90 192 0 432c0 70.688 57.312 128 128 128s128-57.312 128-128c0 70.688 57.312 128 128 128s128-57.312 128-128c0 70.688 57.312 128 128 128s128-57.312 128-128c0 70.688 57.312 128 128 128s128-57.312 128-128L934 192zM880 607.232 880 607.2c-4.592-0.416-9.12-1.104-13.6-1.872-0.976-0.16-1.968-0.24-2.928-0.416-2.08-0.368-4.096-0.976-6.144-1.44C848.672 601.488 840.16 599.024 832 595.84L832 832 192 832 192 595.824c-8.16 3.2-16.672 5.664-25.376 7.648-2.048 0.464-4.048 1.04-6.112 1.44-0.96 0.192-1.952 0.272-2.928 0.432C153.104 606.08 148.592 606.784 144 607.2l0 0.032C138.736 607.712 133.408 608 128 608c-10.944 0-21.616-1.12-32-3.024L96 928c0 26.512 21.488 48 48 48l736 0c26.512 0 48-21.488 48-48L928 604.976C917.632 606.88 906.944 608 896 608 890.608 608 885.264 607.712 880 607.232z" /></svg>