<?xml version="1.0" standalone="no"?><!DOCTYPE svg PUBLIC "-//W3C//DTD SVG 1.1//EN" "http://www.w3.org/Graphics/SVG/1.1/DTD/svg11.dtd"><svg class="icon" width="200px" height="200.00px" viewBox="0 0 1024 1024" version="1.1" xmlns="http://www.w3.org/2000/svg"><path d="M934.4 460.288h-289.792c-24.576-12.288-55.296-26.624-91.136-43.008-28.672-14.336-50.176-21.504-64.512-28.672-64.512-21.504-100.864-50.176-122.368-71.68-14.336-21.504-28.672-50.176-28.672-86.016 0-43.008 14.336-71.68 50.176-100.864 35.84-28.672 78.848-43.008 136.704-43.008 57.344 0 100.864 14.336 136.704 50.176 28.672 28.672 43.008 78.848 43.008 136.704v7.168h71.68v-143.36c7.168-21.504 7.168-43.008 7.168-64.512-50.176-14.336-93.184-28.672-136.704-35.84-35.84-7.168-78.848-14.336-115.2-14.336-93.184 0-172.544 21.504-229.888 71.68C244.224 144.896 215.552 202.752 215.552 281.6c0 57.344 14.336 108.032 50.176 151.04 9.216 9.216 19.968 18.944 33.28 28.672H93.184v64.512h308.224c17.92 9.728 37.376 18.944 57.856 28.672 14.336 7.168 28.672 14.336 50.176 28.672 64.512 28.672 108.032 50.176 136.704 71.68 21.504 14.336 35.84 28.672 43.008 50.176s14.336 43.008 14.336 71.68c0 43.008-14.336 86.016-50.176 115.2-35.84 28.672-86.016 43.008-143.872 43.008-71.68 0-129.536-21.504-158.208-71.68-35.84-35.84-57.344-93.184-57.344-172.544v-21.504H215.04v143.872c0 43.008-7.168 78.848-7.168 122.368 78.848 28.672 136.704 43.008 172.544 43.008 43.008 7.168 78.848 14.336 115.2 14.336 100.864 0 179.712-28.672 237.056-78.848 57.344-50.176 86.016-122.368 86.016-208.384 0-35.84-7.168-71.68-21.504-108.032-16.384-27.136-32.256-50.176-54.784-71.68h191.488V460.288z" /></svg>
