<?xml version="1.0" standalone="no"?><!DOCTYPE svg PUBLIC "-//W3C//DTD SVG 1.1//EN" "http://www.w3.org/Graphics/SVG/1.1/DTD/svg11.dtd"><svg class="icon" width="200px" height="200.00px" viewBox="0 0 1024 1024" version="1.1" xmlns="http://www.w3.org/2000/svg"><path d="M611.626667 217.856a44.8 44.8 0 0 1 5.546666 63.104L423.253333 511.957333l193.92 231.082667a44.8 44.8 0 0 1-68.693333 57.6L364.8 581.632l-183.68 219.008a44.8 44.8 0 1 1-68.650667-57.6L306.261333 512 112.426667 280.96a44.8 44.8 0 1 1 68.693333-57.6l183.637333 218.88 183.765334-218.88a44.8 44.8 0 0 1 63.146666-5.546667z m182.869333-138.624c25.514667 0 47.274667 4.010667 65.28 12.032a98.133333 98.133333 0 0 1 30.72 21.973333c8.832 9.344 15.701333 20.138667 20.608 32.426667 4.949333 12.202667 7.381333 24.917333 7.381333 38.101333a106.666667 106.666667 0 0 1-15.36 56.32c-10.24 16.938667-20.693333 30.208-31.36 39.808l-25.344 21.76-28.288 23.338667c-21.504 17.578667-37.205333 31.786667-47.146666 42.624l-4.48 5.12c-2.688 2.986667-5.376 6.4-8.106667 10.24l-4.138667 6.016h130.474667c13.013333 0 22.912 2.688 29.781333 8.021333 6.826667 5.333333 10.24 12.586667 10.24 21.76a28.928 28.928 0 0 1-8.106666 20.736 29.013333 29.013333 0 0 1-18.346667 8.149334l-6.314667 0.341333h-183.978666c-12.501333 0-22.272-3.456-29.269334-10.368a33.152 33.152 0 0 1-10.496-24.362667c0-6.016 2.261333-13.994667 6.741334-23.893333 4.522667-9.898667 9.429333-17.706667 14.762666-23.381333l25.6-26.026667c12.202667-12.202667 23.68-23.253333 34.389334-33.109333l20.138666-18.005334c3.84-3.285333 7.253333-6.144 10.325334-8.533333l7.808-5.802667c13.653333-9.685333 25.045333-19.413333 34.133333-29.141333 9.045333-9.770667 16-19.754667 20.736-29.994667 4.736-10.24 7.125333-20.309333 7.125333-30.122666 0-10.666667-2.56-20.224-7.637333-28.629334a52.821333 52.821333 0 0 0-20.736-19.626666 59.861333 59.861333 0 0 0-28.629333-6.997334c-21.845333 0-38.997333 9.557333-51.498667 28.757334l-2.56 5.077333a255.914667 255.914667 0 0 0-5.802667 15.402667 85.546667 85.546667 0 0 1-13.226666 25.770666c-4.949333 5.973333-12.16 8.96-21.674667 8.96a28.16 28.16 0 0 1-20.736-8.234666c-5.504-5.504-8.234667-12.970667-8.234667-22.485334 0-11.52 2.56-23.466667 7.722667-36.010666 5.162667-12.501333 12.885333-23.808 23.125333-34.005334 10.24-10.154667 23.253333-18.346667 38.997334-24.618666 15.786667-6.229333 34.218667-9.386667 55.381333-9.386667z" fill="#212329" /></svg>