<?xml version="1.0" standalone="no"?><!DOCTYPE svg PUBLIC "-//W3C//DTD SVG 1.1//EN" "http://www.w3.org/Graphics/SVG/1.1/DTD/svg11.dtd"><svg class="icon" width="200px" height="200.00px" viewBox="0 0 1024 1024" version="1.1" xmlns="http://www.w3.org/2000/svg"><path d="M961 960q-25 0-76-2-50-2-76-2-25 0-75 2-51 2-76 2-13 0-21-12-7-11-7-26 0-17 9-26 10-9 23-10 12-1 29-4 16-3 26-8 18-12 18-80V570q0-12-1-17-7-3-28-3H320q-22 0-29 3-1 5-1 17v212q0 81 21 94 9 6 27 7 19 2 33 2 14 1 26 9 11 8 11 26 0 15-7 27-7 13-21 13-27 0-80-2t-79-2q-24 0-73 2t-73 2q-13 0-20-12t-7-26q0-17 9-25 9-9 20-10 12-2 28-5 15-3 24-8 18-13 18-82V259l-1-22q0-14-2-24-1-10-3-21-3-11-7-18t-9-10q-8-6-26-7-17-1-30-1t-23-8q-11-8-11-26 0-15 7-27 7-13 21-13 26 0 79 2t79 2q24 0 72-2 49-2 73-2 14 0 21 13 7 12 7 27 0 17-9 25-10 8-22 8-13 1-29 3-16 1-24 7-20 12-20 92v182q0 12 1 19 7 1 22 1h400q14 0 21-1 1-7 1-19V257q0-80-20-92-10-6-33-7t-38-7q-14-7-14-29 0-15 7-27 7-13 21-13 25 0 76 2 50 2 75 2t74-2 74-2q14 0 21 13 7 12 7 27 0 17-10 25t-23 9q-13 0-29 1-17 2-25 8-20 13-20 92v538q0 68 20 80 9 6 26 8t31 3q13 0 23 9 11 8 11 25 0 15-7 27-7 13-21 13z" /></svg>