<?xml version="1.0" standalone="no"?><!DOCTYPE svg PUBLIC "-//W3C//DTD SVG 1.1//EN" "http://www.w3.org/Graphics/SVG/1.1/DTD/svg11.dtd"><svg class="icon" width="200px" height="200.00px" viewBox="0 0 1024 1024" version="1.1" xmlns="http://www.w3.org/2000/svg"><path d="M1024 834.56c0 24.405333-107.463111 189.44-512 189.44-448.967111 0-512-165.034667-512-189.44V216.348444C0 96.881778 229.262222 0 512 0s512 96.881778 512 216.348444V834.56z m-952.547556-26.908444c0 79.644444 197.233778 144.213333 440.547556 144.213333 243.313778 0 440.547556-64.568889 440.547556-144.213333v-71.224889C863.459556 800.085333 699.733333 842.922667 512 842.922667s-351.459556-42.837333-440.547556-106.496v71.224889z m0-181.134223c0 79.644444 197.233778 144.270222 440.547556 144.270223 243.313778 0 440.547556-64.568889 440.547556-144.270223V531.228444c-89.031111 63.715556-252.700444 106.609778-440.547556 106.609778-187.847111 0-351.573333-42.894222-440.547556-106.609778v95.288889z m0-181.020444C106.552889 513.649778 293.831111 565.703111 512 565.703111s440.547556-120.206222 440.547556-120.206222V326.200889C863.459556 389.916444 699.733333 432.753778 512 432.753778s-351.459556-42.894222-440.547556-106.552889v119.296zM512 72.135111c-243.313778 0-440.547556 64.568889-440.547556 144.213333 0 79.644444 197.233778 144.270222 440.547556 144.270223 243.313778 0 440.547556-64.568889 440.547556-144.270223 0-79.644444-197.233778-144.213333-440.547556-144.213333z" /></svg>