<?xml version="1.0" standalone="no"?><!DOCTYPE svg PUBLIC "-//W3C//DTD SVG 1.1//EN" "http://www.w3.org/Graphics/SVG/1.1/DTD/svg11.dtd"><svg class="icon" width="200px" height="175.04px" viewBox="0 0 1170 1024" version="1.1" xmlns="http://www.w3.org/2000/svg"><path d="M365.802812 0h731.510287a73.122428 73.122428 0 1 1 0 146.244856H365.802812a73.122428 73.122428 0 1 1 0-146.244856zM73.217764 146.244856a73.122428 73.122428 0 1 1 73.122428-73.122428 73.122428 73.122428 0 0 1-73.217764 73.122428z m0 438.543897a73.122428 73.122428 0 1 1 73.122428-73.122428 73.122428 73.122428 0 0 1-73.217764 73.503771z m0 438.543898a73.122428 73.122428 0 1 1 73.122428-73.122428 73.122428 73.122428 0 0 1-73.217764 73.789777z m292.585048-585.170096h731.510287a73.122428 73.122428 0 1 1 0 146.244856H365.802812a73.122428 73.122428 0 1 1 0-146.244856z m0 438.543897h731.510287a73.122428 73.122428 0 1 1 0 146.244856H365.802812a73.122428 73.122428 0 1 1 0-146.244856z" /></svg>
