<?xml version="1.0" standalone="no"?><!DOCTYPE svg PUBLIC "-//W3C//DTD SVG 1.1//EN" "http://www.w3.org/Graphics/SVG/1.1/DTD/svg11.dtd"><svg class="icon" width="200px" height="200.00px" viewBox="0 0 1024 1024" version="1.1" xmlns="http://www.w3.org/2000/svg"><path d="M0 945.230769 945.230769 945.230769 945.230769 1024 0 1024 0 945.230769ZM0 0 407.076943 0 407.076943 61.934356 319.153861 68.127823 299.076923 86.088783 299.076923 530.158041C299.076923 614.802038 317.076716 675.290663 353.076933 711.625649 389.077071 747.960635 448.153442 766.127892 530.307702 766.127892 606.000364 766.127892 660.807522 746.825177 694.730752 708.219274 728.653982 669.613371 745.61536 606.337733 745.61536 518.390469L745.61536 91.043525 724.153817 69.366469 633.461524 61.934356 633.461524 0 955.384596 0 955.384596 61.934356 868.846119 69.366469 849.461563 91.043525 849.461563 531.396687C849.461563 649.072561 819.923338 734.334661 760.846178 787.185585 701.76894 840.03651 606.462188 866.461538 474.923087 866.461538 406.153531 866.461538 345.807951 857.481137 293.884613 839.520098 241.961275 821.55906 201.230887 795.856581 171.692347 762.411796 149.076834 735.986373 133.038474 705.74206 123.57695 671.677991 114.115348 637.613922 109.384625 588.789524 109.384625 525.203298L109.384625 86.088783 89.307687 68.127823 0 61.934356 0 0Z" /></svg>
