<?xml version="1.0" standalone="no"?><!DOCTYPE svg PUBLIC "-//W3C//DTD SVG 1.1//EN" "http://www.w3.org/Graphics/SVG/1.1/DTD/svg11.dtd"><svg class="icon" width="200px" height="200.00px" viewBox="0 0 1024 1024" version="1.1" xmlns="http://www.w3.org/2000/svg"><path d="M425.80613295 873.5847539c-13.92134695-33.54452041-8.66381652-141.73115246-8.6638165-181.64394901 0-60.72076468 0.59239845-122.03392786 0.59239843-183.42114216 16.21688735-5.77587767 41.0975912-5.77587767 58.42522429-5.7758777 93.15453941 0 170.6845899 4.66513197 224.44468222 91.37734842 19.1048262 30.65658156 23.69590918 68.27383551 23.69590919 104.11389637 0 141.13875405-85.60146859 193.78810066-217.55806099 193.7881028a206.22845258 206.22845258 0 0 1-80.93633664-18.43837872z m-8.07141807-431.56173358c-0.59239845-13.32894853-0.59239845-26.58384804-0.59239843-39.91279651 0-30.65658156 0.59239845-61.31316314 0.59239843-91.96974472 0-58.42522427-4.66513197-116.85044861-4.665132-175.27567289a464.29170639 464.29170639 0 0 1 75.23450794-7.55307081c96.63487669 0 196.67603949 38.72799966 196.67604164 151.57976588 0 133.65973439-85.00907232 167.20425477-204.22911246 167.20425261a391.72298601 391.72298601 0 0 1-63.01630512-4.07273356zM104.72657408 956.29828364c103.0031528-4.07273353 207.70944757-13.32894853 311.23094766-13.32894853 50.94620249 0 101.81835595 3.48033727 152.76455839 3.48033726 169.49979521 0 350.55134578-65.97829514 350.55134579-264.94987716 0-121.51558055-97.74562239-196.08364322-207.70944758-220.9643471 81.60278405-37.02485771 160.24358022-75.75285733 160.24358242-179.34840648 0-150.39496901-144.02669289-212.89292686-274.79848844-212.89292682-25.9914496 0-52.57529765-0.59239845-78.64079619-0.59239845-137.14006948 0-274.79848842 9.84861123-412.45690736 12.14415385l2.29554042 47.98421462c19.1048262 2.29554042 104.11389851 6.36827613 112.77771504 23.17755974 13.92134695 27.17624428 12.73655008 580.25355839 12.73655008 592.99010846 0 38.72799966 2.88793886 98.93041712-17.32763307 133.06733596-35.84006083 15.03209264-73.45731696 15.62448892-110.48217247 24.88070387L104.72657408 956.29828364z" /></svg>