<?xml version="1.0" standalone="no"?><!DOCTYPE svg PUBLIC "-//W3C//DTD SVG 1.1//EN" "http://www.w3.org/Graphics/SVG/1.1/DTD/svg11.dtd"><svg class="icon" width="200px" height="200.00px" viewBox="0 0 1024 1024" version="1.1" xmlns="http://www.w3.org/2000/svg"><path d="M145.6 0C100.8 0 64 36.8 64 81.6v860.8C64 987.2 100.8 1024 145.6 1024h732.8c44.8 0 81.6-36.8 81.6-81.6V324.8L657.6 0h-512z" fill="#9B64B2" /><path d="M960 326.4v16H755.2s-100.8-20.8-99.2-108.8c0 0 4.8 92.8 97.6 92.8H960z" fill="#824B9E" /><path d="M657.6 0v233.6c0 25.6 17.6 92.8 97.6 92.8H960L657.6 0z" fill="#FFFFFF" /><path d="M401.6 862.4c-6.4 0-11.2-4.8-11.2-12.8v-147.2l-64 155.2c-1.6 3.2-3.2 4.8-6.4 4.8s-4.8-1.6-6.4-4.8l-64-155.2v147.2c0 8-4.8 12.8-11.2 12.8-6.4 0-12.8-4.8-12.8-12.8V686.4c0-11.2 9.6-19.2 20.8-19.2 8 0 16 4.8 19.2 11.2l54.4 134.4 56-134.4c3.2-6.4 9.6-11.2 17.6-11.2 11.2 0 20.8 8 20.8 19.2v163.2c0 8-4.8 12.8-12.8 12.8zM544 784h-54.4v65.6c0 8-4.8 12.8-11.2 12.8-6.4 0-12.8-4.8-12.8-12.8V684.8c0-9.6 8-16 17.6-16H544c38.4 0 59.2 25.6 59.2 57.6 0 30.4-22.4 57.6-59.2 57.6z m-3.2-94.4h-51.2v73.6h51.2c22.4 0 38.4-16 38.4-36.8 0-22.4-16-36.8-38.4-36.8z m222.4 121.6h-19.2v38.4c0 8-4.8 12.8-11.2 12.8-6.4 0-12.8-4.8-12.8-12.8v-38.4h-80c-6.4 0-12.8-4.8-12.8-12.8 0-1.6 1.6-4.8 3.2-8l76.8-115.2c3.2-4.8 9.6-8 17.6-8 9.6 0 19.2 8 19.2 19.2v104h19.2c4.8 0 9.6 4.8 9.6 11.2 0 4.8-4.8 9.6-9.6 9.6zM720 689.6l-67.2 100.8H720v-100.8z" fill="#FFFFFF" /></svg>