<?xml version="1.0" standalone="no"?><!DOCTYPE svg PUBLIC "-//W3C//DTD SVG 1.1//EN" "http://www.w3.org/Graphics/SVG/1.1/DTD/svg11.dtd"><svg class="icon" width="200px" height="200.00px" viewBox="0 0 1024 1024" version="1.1" xmlns="http://www.w3.org/2000/svg"><path d="M721.92 841.6256a37.8112 37.8112 0 0 1-34.4832-22.784 177.1008 177.1008 0 0 0-325.12 0 37.8112 37.8112 0 0 1-34.4832 22.784 38.4 38.4 0 0 1-35.328-53.376 256.9728 256.9728 0 0 1 112.64-123.4944 182.8864 182.8864 0 0 1-55.68-167.1936 178.2016 178.2016 0 0 1 353.8688 33.0496 182.1696 182.1696 0 0 1-58.5728 134.144 256.9728 256.9728 0 0 1 112.64 123.4944 38.4 38.4 0 0 1-35.4816 53.376z m-197.12-414.72a103.68 103.68 0 1 0 101.9392 103.6544 102.8096 102.8096 0 0 0-101.9392-103.6032z" /><path d="M870.4 1024H153.6a102.4 102.4 0 0 1-102.4-102.4V102.4a102.4 102.4 0 0 1 102.4-102.4h716.8a102.4 102.4 0 0 1 102.4 102.4v819.2a102.4 102.4 0 0 1-102.4 102.4z m25.6-921.6a25.6 25.6 0 0 0-25.6-25.6H153.6a25.6 25.6 0 0 0-25.6 25.6v819.2a25.6 25.6 0 0 0 25.6 25.6h716.8a25.6 25.6 0 0 0 25.6-25.6V102.4zM345.6 179.2h332.8a38.4 38.4 0 0 1 0 76.8h-332.8a38.4 38.4 0 0 1 0-76.8z" /></svg>
