<?xml version="1.0" encoding="UTF-8" standalone="no"?>
<!DOCTYPE svg PUBLIC "-//W3C//DTD SVG 1.1//EN" "http://www.w3.org/Graphics/SVG/1.1/DTD/svg11.dtd">
<svg width="100%" height="100%" viewBox="0 0 200 200" version="1.1" xmlns="http://www.w3.org/2000/svg" xmlns:xlink="http://www.w3.org/1999/xlink" xml:space="preserve" xmlns:serif="http://www.serif.com/" style="fill-rule:evenodd;clip-rule:evenodd;stroke-linejoin:round;stroke-miterlimit:2;">
    <path d="M161.664,166.262C157.164,167.915 152.264,168.75 146.973,168.75C129.219,168.75 115.879,159.375 107.246,141.172C106.191,138.926 106.191,136.309 107.246,134.063L107.246,134.043C110.968,126.194 115.566,119.983 121.015,115.456L115.18,108.163L126.104,99.423L133.4,108.542C137.59,107.148 142.116,106.445 146.973,106.445C164.727,106.445 178.066,115.82 186.68,134.043L186.719,134.082C187.754,136.309 187.754,138.906 186.699,141.152C183.172,148.589 178.859,154.556 173.781,159.013L180.196,167.03L169.272,175.77L161.664,166.262ZM128.812,125.202C125.24,128.198 122.13,132.304 119.414,137.598C125.996,150.391 134.844,156.25 146.973,156.25C149.15,156.25 151.223,156.061 153.195,155.677L147.551,148.622C147.391,148.629 147.231,148.633 147.07,148.633C141.07,148.633 136.133,143.695 136.133,137.695C136.133,136.706 136.267,135.747 136.518,134.833L128.812,125.202ZM165.976,149.258C169.198,146.337 172.032,142.471 174.531,137.598C167.949,124.805 159.102,118.945 146.973,118.945C145.253,118.945 143.599,119.063 142.008,119.302L148.006,126.798C153.575,127.279 158.008,132.01 158.008,137.695C158.008,138.196 157.973,138.689 157.907,139.172L165.976,149.258ZM26.563,45.313L26.563,131.25L87.5,131.25L87.5,145.313L18.75,145.313C15.293,145.313 12.5,142.52 12.5,139.063L12.5,37.5C12.5,34.043 15.293,31.25 18.75,31.25L171.875,31.25C175.332,31.25 178.125,34.043 178.125,37.5L178.125,94.727L164.063,94.727L164.063,45.313L26.563,45.313ZM141.582,66.035C142.207,66.641 142.207,67.637 141.582,68.242L97.383,112.48C96.777,113.086 95.781,113.086 95.176,112.48L78.359,95.645L58.477,115.527C57.871,116.133 56.875,116.133 56.27,115.527L49.082,108.34C48.477,107.734 48.477,106.738 49.082,106.133L77.266,77.949C77.871,77.344 78.867,77.344 79.473,77.949L96.289,94.785L132.188,58.848C132.793,58.242 133.789,58.242 134.395,58.848L141.582,66.035Z"/>
</svg>
