<?xml version="1.0" standalone="no"?><!DOCTYPE svg PUBLIC "-//W3C//DTD SVG 1.1//EN" "http://www.w3.org/Graphics/SVG/1.1/DTD/svg11.dtd"><svg class="icon" width="200px" height="200.00px" viewBox="0 0 1024 1024" version="1.1" xmlns="http://www.w3.org/2000/svg"><path d="M512 0c-70.530246 0-136.89862 13.308008-199.111111 39.922027s-116.438581 63.042869-162.682261 109.28655-82.67253 100.46977-109.28655 162.682261C14.306058 374.103329 0.998051 440.471704 0.998051 511.001949s13.308008 136.89862 39.922027 199.111111 63.042869 116.438581 109.28655 162.682262 100.46977 82.67253 162.682261 109.286549c62.212491 26.614019 128.580865 39.922027 199.111111 39.922028s136.89862-13.308008 199.111111-39.922028 116.438581-63.042869 162.682261-109.286549 82.67253-100.46977 109.28655-162.682262c26.614019-62.212491 39.922027-128.580865 39.922027-199.111111s-13.308008-136.89862-39.922027-199.111111-63.042869-116.438581-109.28655-162.682261-100.46977-82.67253-162.682261-109.28655C648.89862 13.308008 582.530246 0 512 0z m203.602339 324.366472c6.653006-6.653006 14.306058-9.980507 22.955166-9.980507s16.30216 3.327501 22.955166 9.980507c5.988304 5.988304 8.982456 13.473684 8.982456 22.45614S767.500975 363.290448 761.512671 369.278752L439.1423 693.645224c-5.988304 6.653006-13.473684 9.980507-22.45614 9.980507s-16.467836-3.327501-22.456141-9.980507l-158.690058-157.692008c-5.988304-5.988304-8.982456-13.473684-8.982456-22.45614s2.994152-16.467836 8.982456-22.45614c6.653006-6.653006 14.306058-9.980507 22.955166-9.980507s16.30216 3.327501 22.955165 9.980507l134.736843 134.736842 299.415204-301.411306z" /></svg>
