<?xml version="1.0" standalone="no"?><!DOCTYPE svg PUBLIC "-//W3C//DTD SVG 1.1//EN" "http://www.w3.org/Graphics/SVG/1.1/DTD/svg11.dtd"><svg class="icon" width="200px" height="200.00px" viewBox="0 0 1024 1024" version="1.1" xmlns="http://www.w3.org/2000/svg"><path d="M512.84992 5.12C232.43776 5.12 5.12 232.44288 5.12 512.84992c0 280.40704 227.31776 507.72992 507.72992 507.72992 280.40704 0 507.72992-227.32288 507.72992-507.72992C1020.57984 232.44288 793.25696 5.12 512.84992 5.12zM311.20896 585.38496a72.52992 72.52992 0 0 1 19.584-39.16288l263.296-268.37504a34.816 34.816 0 0 1 49.23392-0.08704c0.03584 0.0256 0.06144 0.05632 0.08704 0.08704l61.65504 61.65504a34.81088 34.81088 0 0 1 0.08704 49.23904l-0.08704 0.08704L438.144 657.92a72.6016 72.6016 0 0 1-39.16288 19.59424l-83.41504 11.60192a17.408 17.408 0 0 1-19.58912-19.584l15.232-84.1472z m459.13088 188.58496a15.22688 15.22688 0 0 1-17.408 17.408H261.88288a15.22688 15.22688 0 0 1-17.408-17.41312v-34.816a15.23712 15.23712 0 0 1 17.41312-17.408h484.52096a15.22176 15.22176 0 0 1 17.40288 17.41312l6.528 34.816z" /></svg>