<svg xmlns="http://www.w3.org/2000/svg" width="100%" height="auto" viewBox="0 0 833 833" version="1.1">
	<path d="M 260.500 87.607 C 250.219 89.071, 238.421 91.496, 231.500 93.568 C 221.155 96.666, 211.766 99.974, 210.500 100.969 C 209.950 101.402, 208.514 102.057, 207.309 102.426 C 202.448 103.915, 183.956 114.693, 175.500 120.966 C 163.126 130.145, 158.195 134.673, 146.057 148 C 133.614 161.663, 119.136 186.058, 112.823 204 C 100.918 237.835, 99.458 278.553, 108.934 312.500 C 112.867 326.592, 118.453 339.931, 125.145 351.215 C 126.869 354.122, 129.160 358.054, 130.237 359.954 C 132.599 364.121, 141.647 376.157, 146.057 381 C 158.216 394.351, 163.155 398.883, 175.500 408.018 C 183.167 413.691, 190.445 418.072, 203 424.569 C 214.639 430.593, 227.125 434.729, 247 439.144 C 256.317 441.214, 260.091 441.478, 280.500 441.484 C 299.004 441.490, 305.162 441.135, 312 439.668 C 323.295 437.246, 339.252 432.968, 340.500 432.029 C 341.050 431.615, 342.850 430.957, 344.500 430.567 C 348.505 429.621, 369.531 419.062, 376.743 414.375 C 395.783 402.001, 415.244 383.152, 426.689 366 C 435.893 352.205, 437 350.437, 437 349.525 C 437 349.048, 437.592 347.947, 438.316 347.079 C 439.914 345.162, 447.035 328.770, 449.863 320.500 C 454.733 306.257, 458.987 280.148, 458.987 264.500 C 458.987 254.244, 456.217 232.567, 453.429 221 C 450.486 208.791, 442.033 186.690, 438.513 182 C 437.893 181.175, 436.846 179.375, 436.185 178 C 431.038 167.290, 418.580 150.926, 405.378 137.535 C 399.486 131.559, 387.934 122.253, 378.500 115.882 C 370.018 110.155, 349.529 99.645, 344.500 98.442 C 342.850 98.047, 341.050 97.391, 340.500 96.983 C 338.978 95.854, 322.560 91.377, 313 89.483 C 304.814 87.861, 267.963 86.544, 260.500 87.607 M 567.500 131.925 C 554.025 133.997, 548.467 135.269, 538.566 138.547 C 526.706 142.474, 518.818 145.964, 518.333 147.500 C 518.159 148.050, 520.516 151.200, 523.569 154.500 C 526.623 157.800, 529.866 161.738, 530.776 163.250 C 531.686 164.762, 532.784 166, 533.216 166 C 533.647 166, 534 166.620, 534 167.378 C 534 168.135, 534.657 169.301, 535.460 169.967 C 538.089 172.148, 549.216 192.290, 553.986 203.500 C 571.244 244.059, 571.244 298.941, 553.986 339.500 C 549.216 350.710, 538.089 370.852, 535.460 373.033 C 534.657 373.699, 534 374.635, 534 375.111 C 534 376.058, 531.760 379.022, 528.250 382.720 C 527.013 384.024, 526 385.356, 526 385.681 C 526 386.005, 524.987 387.256, 523.750 388.460 C 522.513 389.664, 518.733 393.653, 515.351 397.324 C 511.969 400.996, 508.744 404, 508.184 404 C 507.625 404, 507.017 404.412, 506.833 404.916 C 506.650 405.420, 503.650 408.104, 500.166 410.881 L 493.832 415.931 501.542 420.964 C 517.878 431.628, 534.847 438.634, 555.500 443.241 C 564.169 445.175, 568.429 445.474, 587.500 445.486 C 604.944 445.497, 611.260 445.126, 618 443.695 C 649.652 436.972, 679.036 421.007, 700.585 398.823 C 713.603 385.423, 721.104 374.892, 729.306 358.500 C 737.582 341.963, 741.460 328.905, 744.601 307 C 746.367 294.688, 746.123 276.887, 744.034 265.500 C 741.667 252.600, 739.827 244.351, 738.568 241 C 733.733 228.132, 732.277 224.643, 728.759 217.500 C 721.650 203.063, 713.640 191.897, 700.676 178.350 C 693.283 170.625, 678.088 158.253, 671.500 154.594 C 648.951 142.072, 638.218 137.962, 615 132.959 C 608.496 131.558, 574.676 130.821, 567.500 131.925 M 210 450.093 C 197.075 450.503, 181.325 451.323, 175 451.915 C 168.675 452.508, 159.816 452.995, 155.314 452.997 C 150.051 452.999, 143.622 453.861, 137.314 455.412 C 117.545 460.270, 116.242 460.692, 104.500 466.047 C 102.300 467.050, 99.825 468.116, 99 468.415 C 98.175 468.713, 95.700 470.081, 93.500 471.455 C 91.300 472.829, 87.925 474.820, 86 475.881 C 76.106 481.334, 58.979 495.991, 51.337 505.546 C 43.060 515.895, 38.990 521.455, 38.453 523.149 C 38.130 524.167, 37.446 525, 36.933 525 C 36.420 525, 36 525.873, 36 526.941 C 36 528.009, 35.551 529.159, 35.003 529.498 C 34.074 530.073, 31.094 536.043, 27.016 545.500 C 23.320 554.072, 16.977 578.331, 17.024 583.714 C 17.038 585.246, 16.151 592.350, 15.054 599.500 C 13.957 606.650, 12.110 619.250, 10.948 627.500 C 9.787 635.750, 8.199 646.795, 7.419 652.044 C 4.496 671.703, 5.811 688.512, 11.117 699.345 C 12.153 701.459, 13 703.752, 13 704.440 C 13 705.127, 13.900 706.505, 15 707.500 C 16.100 708.495, 17 709.923, 17 710.673 C 17 712.520, 34.748 730.265, 38.500 732.170 C 40.150 733.008, 43.975 735.043, 47 736.692 C 55.119 741.119, 63.225 743.659, 75 745.466 C 84.451 746.916, 105.490 747.043, 285.500 746.735 C 441.370 746.469, 486.603 746.117, 490.500 745.142 C 500.194 742.715, 509.530 739.542, 512.154 737.781 C 513.614 736.801, 515.282 736, 515.860 736 C 517.080 736, 521.992 732.759, 528.091 727.928 C 545.705 713.978, 556 693.708, 556 672.981 C 556 668.542, 555.318 660.317, 554.484 654.705 C 553.651 649.092, 552.050 637.975, 550.928 630 C 549.806 622.025, 548.008 609.875, 546.933 603 C 545.859 596.125, 544.984 589.094, 544.990 587.376 C 545.013 580.247, 538.738 555.129, 534.457 545.216 C 528.773 532.055, 527.354 529.318, 522.474 522.100 C 520.838 519.681, 519.050 516.983, 518.500 516.105 C 510.208 502.869, 489.052 483.634, 472 473.826 C 456.261 464.774, 444.740 460.335, 423.500 455.140 C 415.615 453.211, 413.256 452.940, 387.500 450.994 C 371.122 449.757, 241.384 449.098, 210 450.093 M 548.125 452.436 C 548.331 452.629, 552.775 455.617, 558 459.075 C 570.711 467.489, 587.497 484.366, 596.245 497.528 C 608.688 516.249, 616.970 536.561, 621.512 559.500 C 631.294 608.897, 632.547 617.381, 634.183 645.245 C 635.367 665.412, 635.339 666.237, 633.199 674.856 C 629.226 690.852, 619.625 705.453, 606.500 715.459 C 604.704 716.828, 612.910 716.949, 687 716.649 C 756.893 716.365, 770.417 716.081, 775.500 714.788 C 786.568 711.972, 790.484 710.648, 793.154 708.819 C 794.614 707.818, 796.350 707, 797.013 707 C 798.361 707, 810.208 697.861, 813.865 694 C 818.529 689.076, 824.681 680.421, 826.661 676 C 831.934 664.220, 833.273 650.154, 830.500 635.662 C 829.675 631.351, 829 625.807, 829 623.342 C 829 620.876, 828.359 615.178, 827.575 610.680 C 824.435 592.663, 822.827 582.079, 821.927 573.500 C 820.743 562.215, 819.484 556.364, 816.331 547.500 C 814.962 543.650, 813.752 540.050, 813.643 539.500 C 813.533 538.950, 813.181 538.050, 812.860 537.500 C 812.539 536.950, 811.981 535.263, 811.619 533.750 C 811.258 532.237, 810.520 531, 809.981 531 C 809.441 531, 809 530.282, 809 529.404 C 809 528.527, 808.149 526.614, 807.110 525.154 C 806.070 523.694, 805.105 522.050, 804.965 521.500 C 804.428 519.398, 799.929 513, 798.987 513 C 798.444 513, 798 512.484, 798 511.853 C 798 511.222, 796.351 508.635, 794.337 506.103 C 781.255 489.667, 757.968 472.376, 740 465.759 C 736.975 464.645, 734.050 463.402, 733.500 462.996 C 732.950 462.590, 730.025 461.707, 727 461.035 C 723.975 460.363, 718.125 458.972, 714 457.946 C 707.294 456.277, 700.573 455.481, 676.500 453.507 C 668.840 452.878, 547.518 451.866, 548.125 452.436" stroke="none" />
</svg>
