<?xml version="1.0" standalone="no"?><!DOCTYPE svg PUBLIC "-//W3C//DTD SVG 1.1//EN" "http://www.w3.org/Graphics/SVG/1.1/DTD/svg11.dtd"><svg class="icon" width="200px" height="200.00px" viewBox="0 0 1024 1024" version="1.1" xmlns="http://www.w3.org/2000/svg"><path d="M856.201014 0h86.052056v4.301521a32.090141 32.090141 0 0 1 15.774648 17.20969v5.736564h1.442254v10.04169h-1.442254v4.301521a62.806535 62.806535 0 0 0-4.301521 10.038084l-5.736563 4.305127v1.442254h-2.884507l-1.442254 2.884507h-4.301521v1.442253l-11.473127 1.442254v1.442253h-14.339605v1.442254H893.476056v1.442253h-31.552901v1.442254a3.868845 3.868845 0 0 1-4.301521-1.442254 14.563155 14.563155 0 0 0-11.473127 2.884507h-1.442253v5.736564l8.606647 5.736563 1.442254 2.884507h2.884507l5.736563 7.171606h1.442254l1.442253 2.884507h2.884507l8.606648 10.038084c4.045521 4.049127 9.782085 6.511775 11.473127 12.908169h2.884507l8.606648 11.473127 11.473127 10.04169v2.866479l7.171605 5.736564v2.884507l2.884507 1.442253 1.442254 4.305127h1.442253v2.884507l4.301522 2.884507v2.884507l2.884507 1.442254v2.884507l5.736563 4.301521 1.442254 5.736563 5.736563 4.301521 1.442253 5.736564h1.442254v2.884507l4.301521 2.884507v2.884507h1.442254v2.866479h1.442253v2.884507h1.442254v2.866478h1.442253v2.884508l4.301521 2.884507v2.884507h1.442254v2.884507h1.442253v4.305126l2.884507 1.442254 1.442254 4.305127h1.442253v2.866479h1.442254v2.884507h1.442253v4.301521h1.442254v2.884507l2.884507 1.442253q0.721127 2.884507 1.442254 5.736564h1.442253l1.442254 10.04169h1.442253v2.884507l2.884507 1.442253 4.305127 15.774648h1.442253v2.884507h1.442254l1.442254 5.736564h1.442253l2.884507 17.20969h1.442254v4.301521h1.442253q0.721127 2.884507 1.442254 5.736563h1.442253l1.442254 12.908169h1.442253v5.736564h1.442254v4.301521h1.442253v4.305127h1.442254v5.736563h1.442253l1.442254 21.511211c1.532394 5.249803 3.190986 12.911775 4.305127 18.644733H1024v74.575324h-4.301521c-3.382085 7.344676-9.619831 10.095775-14.343211 15.778253l-21.511212 1.442254v-1.442254h-5.736563c-2.206648-3.533521-1.644169-0.88338-4.305127-2.884507l-5.736563-7.171606-2.884507-1.442253v-2.884507h-1.442254v-4.301521h-1.442253v-4.69093h-1.442254l-1.442253-21.514817h-1.442254v-21.511211h-1.442253v-20.079775h-1.442254v-11.473126l-7.171606-25.816338V345.636056h-1.442253v-5.736563h-1.442254v-5.736563h-1.442253l-1.442254-5.736564h-1.442253v-4.301521h-1.442254l-2.866479-17.213296h-1.442253l-2.884507-8.603042h-1.442254l-1.442253-10.038084h-1.442254v-2.884508l-2.884507-1.442253-1.442253-5.736563h-1.442254l-1.442253-8.603043h-1.442254q-0.721127-2.884507-1.442253-5.736563l-2.884507-1.442254v-2.884507h-1.442254V255.278873h-1.442253V252.394366h-1.442254v-2.884507l-4.301521-2.866479v-2.884507h-1.442254v-2.884507h-1.442253v-2.884507h-1.442254v-2.884507l-4.301521-2.884507v-2.884507h-1.442253v-2.884507h-1.442254v-2.884507h-1.442253v-2.884507q-2.16338-1.442254-4.301521-2.884507v-2.884507h-1.442254q-0.721127-2.16338-1.442253-4.301521l-2.884507-1.442254v-2.884507l-2.884508-1.442253-1.442253-4.305127q-3.587606-2.866479-7.168-5.736564v-2.884507l-4.305127-2.884507v-2.884507l-5.736563-4.305126v-2.570817l-2.884507-1.442254c-3.15493-3.335211-7.211268-6.511775-8.606648-11.473127h-2.866479v-2.866478c-3.537127-2.066028-3.998648-4.503437-8.606648-5.736564v-2.884507l-48.762591-41.590986c-2.884507 0.822085-1.240338-0.17307-2.884507 1.442254-1.442254 1.103324-1.413408 1.763155-2.884508 2.866479q2.884507 13.62569 5.736564 27.25138h1.442253v5.736563h1.442254l1.442253 18.644733c1.474704 4.78107 8.073014 19.79493 5.736564 27.247774h-1.442254v4.301521h-1.442253l-2.884507 8.606648h-1.442254v2.884507h-1.442253l-1.442254 2.884507h-2.884507l-4.305127 5.736564a160.349746 160.349746 0 0 1-30.114253 0l-4.305127-5.736564h-2.884507l-1.442253-2.884507h-1.442254l-1.442254-5.736563h-1.442253l-2.884507-8.603042h-1.442254l-2.884507-22.946254c-2.011944-6.403606-5.159662-14.992225-7.171605-21.514817v-10.038084h-1.442254l-1.442253-14.343211h-1.442254v-4.301522h-1.442253v-4.301521h-1.442254l-1.442253-17.20969h-1.442254v-8.606648h-1.442253l-1.442254-10.038084h-1.442253v-4.301521h-1.442254l-1.442254-17.213296c-3.118873-10.705127-6.104338-25.935324 0-35.854423l2.884508-1.442253v-2.884507l10.038084-7.171606h2.884507v-1.442253h4.305127v-1.442254h2.884507v-1.442253h8.606648v-1.442254h26.407662v-1.442254h35.854422c6.973296-1.961465 19.380282 0.775211 27.251381-1.442253v-1.442254l27.247774-1.442253V0z m-377.185352 113.299831c3.966197 1.038423 3.205408 0.400225 4.301521 4.301521h2.884507a5.74738 5.74738 0 0 0 5.736564 5.736563V126.197183h2.884507v2.884507h2.866478v2.884507h2.884507v2.884507h2.866479v2.884507h2.884507v2.884507A5.769014 5.769014 0 0 1 512 146.284169a10.816901 10.816901 0 0 1 8.606648 8.606648c4.49262 1.218704 4.654873 2.826817 7.168 5.736563h1.442253q0.721127 2.16338 1.442254 4.301521h2.884507v1.442254l2.884507 1.442253v2.884507h1.442254a5.231775 5.231775 0 0 0 4.301521 2.884508v2.866478h2.884507a5.769014 5.769014 0 0 0 5.736563 5.736564v2.884507h2.884507v2.884507a11.69307 11.69307 0 0 1 2.884507 2.884507h2.866479v1.442253a4.982986 4.982986 0 0 1 2.884507 4.301522h2.866479v2.884507c5.527437 1.413408 6.656 5.224563 10.038084 8.603042 5.45893 5.451718 21.035268 17.079887 22.94986 24.381296h2.884507v2.884507h2.884507v2.884507h2.884507v2.884507h2.884507v2.884507h2.884507v2.884507h2.884507v2.866479h2.884507v2.884507h2.884507v2.884507c5.073127 1.258366 18.781746 15.017465 20.076169 20.079774a10.816901 10.816901 0 0 1 8.606648 8.603043c3.966197 1.038423 3.209014 0.400225 4.301521 4.305126h2.884507c0.980732 4.196958 1.59369 4.687324 5.736563 5.736564v2.884507h2.884507v2.884507h2.884507v2.884507h2.884508v2.884507h2.884507v2.866479h2.884507v2.884507a5.74738 5.74738 0 0 1 5.736563 5.736563 10.816901 10.816901 0 0 1 8.606648 8.603043c4.496225 1.22231 4.654873 2.826817 7.171606 5.736563h1.442253l1.442254 4.305127h2.884507v1.442253l2.884507 1.442254v2.884507h1.442253a5.228169 5.228169 0 0 0 4.301521 2.884507v2.884507h2.884507c0.980732 4.196958 1.59369 4.687324 5.736564 5.736563v2.884507h2.884507v2.884507a11.631775 11.631775 0 0 1 2.884507 2.884507h2.884507v1.442254a4.986592 4.986592 0 0 1 2.884507 4.301521h2.884507v2.884507c5.527437 1.417014 6.659606 5.224563 10.04169 8.603042 5.455324 5.455324 21.035268 17.079887 22.946254 24.381296h2.884507v2.884507h2.884507v2.884507h2.866479v2.884507h2.884507v2.884507h2.884507v2.884507h2.884507v2.884507h2.884507v2.884507h2.884507v2.884507c5.073127 1.258366 18.781746 15.017465 20.079774 20.079775a10.816901 10.816901 0 0 1 8.603043 8.606648c3.966197 1.034817 3.209014 0.400225 4.301521 4.301521h2.884507a5.769014 5.769014 0 0 0 5.736563 5.736563v2.866479h2.884507v2.884507h2.884507v2.884507h2.884507v2.866479h2.866479v2.884507h2.884507v2.884507a5.769014 5.769014 0 0 1 5.736564 5.736564 10.816901 10.816901 0 0 1 8.603042 8.606648c4.496225 1.218704 4.658479 2.823211 7.171606 5.736563h1.442253q0.721127 2.16338 1.442254 4.301521h2.866478v1.442254l2.884507 1.442253V512h1.442254a5.238986 5.238986 0 0 0 4.305127 2.884507v2.884507h2.884507a5.769014 5.769014 0 0 0 5.736563 5.736563v2.884508h2.884507v2.884507a11.732732 11.732732 0 0 1 2.884507 2.884507h2.884507v1.442253a4.982986 4.982986 0 0 1 2.884507 4.305127h2.884507v2.866479h2.866479v1.442253l10.04169 8.603043v2.884507l10.038085 8.606647v2.866479l4.301521 2.884507v2.884507l2.884507 1.442254c2.001127 3.24507 1.359324 7.604282 2.866479 11.473127h1.442253v4.301521h1.442254v5.736563h1.442254c3.126085 10.532056-2.213859 24.309183-4.301522 30.117859v5.736564h-1.442253q-0.721127 2.884507-1.442254 5.736563l-2.884507 1.442254v2.884507l-2.866479 1.442253v2.884507l-8.606647 7.171606-2.884507 5.736563h-2.884508l-2.884507 4.301521h-1.442253v2.866479l-4.301521 1.442254-2.884507 4.305127h-1.442254v2.866478l-5.736563 2.884507v1.442254l-2.884507 1.442253v2.884508l-4.305127 1.442253-2.866479 4.305127h-1.442253q-0.721127 2.16338-1.442254 4.301521h-2.866479v1.442253l-2.884507 1.442254v2.884507h-1.442253l-1.442254 2.884507h-2.884507l-1.442253 2.884507h-1.442254v2.884507c-3.414535 4.52507-7.856676 2.282366-10.04169 10.04169h-3.519099a86.102535 86.102535 0 0 1-5.736563 8.603043c-4.243831 3.418141-6.720901 1.67662-8.606648 8.606647h-2.884507a86.535211 86.535211 0 0 1-5.736563 8.603043h-2.884507v1.442253l-4.301522 2.884507q-0.721127 2.16338-1.442253 4.301521h-2.866479v1.442254l-4.305127 2.884507v2.884507l-5.736563 2.884507v1.442254l-2.884507 1.442253v2.884507l-4.301521 1.442254v1.442253l-4.305127 2.884507-1.442254 4.305127h-2.884507v1.442253l-4.301521 2.884508q-0.721127 2.16338-1.442253 4.301521h-2.884507v1.442253l-4.305127 2.884507v2.884507l-4.301521 1.442254v1.442253l-4.301521 2.884507v2.884507l-4.305127 1.442254v1.442253l-4.301521 2.884507q-0.721127 2.16338-1.442254 4.301522h-2.884507v1.442253l-4.301521 2.884507v2.884507l-4.305127 1.442254v1.442253l-4.301521 2.884507q-0.721127 2.16338-1.442253 4.301521h-2.884507l-1.442254 2.884507h-1.442253l-2.866479 5.736564h-2.884507v1.442253l-4.301521 2.884507-1.442254 4.301522h-2.884507v1.442253l-4.305127 2.884507v2.884507l-5.736563 2.884507v1.442254l-2.866479 1.442253v2.866479l-4.301521 1.442254v1.442253l-2.884507 1.442254v2.884507l-2.884507 1.442253v1.442254h-2.884507l-1.442254 2.866479h-1.442253v2.884507c-3.396507 4.507042-7.899944 2.296789-10.038085 10.038084h-2.884507a86.174648 86.174648 0 0 1-5.736563 8.606648c-4.243831 3.414535-6.720901 1.673014-8.606648 8.603042h-2.866479a89.419718 89.419718 0 0 1-5.740169 8.606648h-2.866479l-2.884507 4.301521h-1.442253v2.884507l-4.305127 1.442254-8.603042 10.04169h-2.884507l-1.442254 2.884507h-2.884507l-1.442254 2.884507h-2.884507v1.442254h-2.884507v1.442253h-5.736563v1.442254h-4.301521v1.442253h-5.736563c-3.432563 1.08169-14.494648 3.223437-20.079775 1.442254v-1.442254h-4.301521v-1.442253l-14.343212-2.884507v-1.442254h-2.866478l-1.442254-2.884507h-2.884507l-1.442253-2.884507h-2.884508l-4.301521-5.736563c-4.395268-4.370028-12.598085-7.770141-14.343211-14.343212-3.966197-1.038423-3.205408-0.400225-4.301521-4.301521h-2.422986a5.74738 5.74738 0 0 0-5.736563-5.736563V897.802817h-2.884507v-2.884507h-2.884507v-2.884507h-2.884507v-2.866479h-2.884508v-2.884507h-2.884507v-2.884507a5.769014 5.769014 0 0 1-5.657239-5.682479 10.816901 10.816901 0 0 1-8.606648-8.606648c-4.49262-1.218704-4.654873-2.826817-7.168-5.736563h-1.442253q-0.721127-2.16338-1.442254-4.301521h-2.884507v-1.442254l-2.884507-1.442253v-2.884507h-1.442254a5.231775 5.231775 0 0 0-4.301521-2.884508v-2.866478h-2.866479a5.769014 5.769014 0 0 0-5.736563-5.736564v-2.884507h-2.884507v-2.884507a11.69307 11.69307 0 0 1-2.884507-2.884507h-2.884507v-1.442253a4.982986 4.982986 0 0 1-2.884507-4.301522h-2.884507v-2.884507c-5.527437-1.413408-6.656-5.224563-10.038085-8.603042-5.45893-5.451718-21.035268-17.079887-22.949859-24.381296h-2.866479v-2.884507h-2.884507v-2.884507h-2.884507v-2.884507h-2.884507v-2.884507h-2.866479v-2.884507h-2.884507v-2.671774h-2.866479v-2.884508h-2.884507v-2.884507c-5.073127-1.258366-18.781746-15.017465-20.076169-20.079774a10.816901 10.816901 0 0 1-8.606648-8.603042c-3.966197-1.038423-3.209014-0.400225-4.301521-4.305127h-2.884507c-0.980732-4.196958-1.59369-4.687324-5.736563-5.736564v-2.884507h-2.884507v-2.884507h-2.884507v-2.884507h-2.884507v-2.884507h-2.884507v-2.866479h-2.866479v-2.884507a5.74738 5.74738 0 0 1-5.736563-5.736563 10.816901 10.816901 0 0 1-8.606648-8.603042c-4.496225-1.22231-4.654873-2.826817-7.171606-5.736564h-1.442254l-1.442253-4.305126h-2.884507v-1.442254l-2.866479-1.442254v-2.884507h-1.442253a5.228169 5.228169 0 0 0-4.301522-2.884507v-2.884507h-2.884507c-0.980732-4.196958-1.59369-4.687324-5.736563-5.736563v-2.884507h-2.866479v-2.884507a11.631775 11.631775 0 0 1-2.884507-2.884507h-2.884507v-1.442254a4.986592 4.986592 0 0 1-2.884507-4.301521h-2.884507v-2.884507c-5.527437-1.417014-6.659606-5.224563-10.04169-8.603042-5.455324-5.455324-21.035268-17.079887-22.946254-24.381296h-2.866479v-2.884507h-2.884507v-2.884507h-2.884507v-2.884507h-2.884507v-2.884507h-2.866479v-2.884507h-2.884507v-2.884507h-2.884507v-2.884507h-2.866479v-2.884507c-5.073127-1.258366-18.781746-15.017465-20.079774-20.079775a10.816901 10.816901 0 0 1-8.603042-8.606648c-3.966197-1.034817-3.209014-0.400225-4.301522-4.301521h-2.884507a5.769014 5.769014 0 0 0-5.736563-5.736563v-2.866479h-2.884507v-2.884507h-2.866479v-2.884507h-2.884507v-2.866479h-2.340056v-2.884507h-2.884507v-2.884507a5.769014 5.769014 0 0 1-5.736564-5.736564 10.816901 10.816901 0 0 1-8.603042-8.606647c-4.496225-1.218704-4.658479-2.823211-7.171606-5.736564h-1.442253q-0.721127-2.16338-1.442254-4.301521h-2.884507v-1.442253l-2.884507-1.442254V512h-1.442253a5.238986 5.238986 0 0 0-4.305127-2.884507v-2.884507h-2.866479a5.769014 5.769014 0 0 0-5.736563-5.736563v-2.884508h-2.884507v-2.884507a11.732732 11.732732 0 0 1-2.884507-2.884507h-2.884507v-1.442253a4.982986 4.982986 0 0 1-2.866479-4.305127h-2.884507v-2.866479h-2.884507v-1.442253l-10.041691-8.603043v-2.884507l-10.038084-8.606647v-2.866479l-4.301521-2.884507v-2.884507l-2.884507-1.442254c-2.001127-3.24507-1.359324-7.604282-2.884507-11.473127h-1.442254v-4.301521h-1.442253v-5.736563h-1.442254c-3.126085-10.532056 2.213859-24.309183 4.301521-30.117859v-5.736564h1.442254q0.721127-2.884507 1.442253-5.736563l2.884507-1.442254v-2.884507l2.884507-1.442253v-2.884507l8.606648-7.171606 2.866479-5.736563h2.884507l2.884507-4.301521h1.442254v-2.866479l4.301521-1.442254 2.884507-4.305127h1.442254v-2.866478l5.736563-2.884507v-1.442254l2.884507-1.442253v-2.884508l4.305127-1.442253 2.884507-4.305127h1.442253q0.721127-2.16338 1.442254-4.301521h2.866479v-1.442253l2.884507-1.442254v-2.884507h1.442253l1.442254-2.884507h2.884507l1.442253-2.884507h1.442254v-2.884507c3.414535-4.52507 7.856676-2.282366 10.04169-10.04169h2.866479a86.102535 86.102535 0 0 1 5.736563-8.603043c4.243831-3.418141 6.720901-1.67662 8.606648-8.606647h2.884507a86.535211 86.535211 0 0 1 5.736564-8.603043h2.884507v-1.442253l4.301521-2.884507q0.721127-2.16338 1.442253-4.301521h2.884507v-1.442254l4.305127-2.884507v-2.884507l5.736563-2.884507v-1.442254l2.866479-1.442253v-2.884507l4.301521-1.442254v-1.442253l4.305127-2.884507 1.442254-4.305127h2.884507v-1.442253l4.301521-2.884508q0.721127-2.16338 1.442253-4.301521h2.866479v-1.442253l4.305127-2.884507v-2.884507l4.301521-1.442254v-1.442253l4.301521-2.884507v-2.884507l4.305127-1.442254v-1.442253l4.301521-2.884507q0.721127-2.16338 1.442254-4.301522h2.866479v-1.442253l4.301521-2.884507v-2.884507l4.305126-1.442254v-1.442253l4.301522-2.884507q0.721127-2.16338 1.442253-4.301521h2.866479l1.442253-2.884507h1.442254l2.866479-5.736564h2.884507v-1.442253l4.301521-2.884507 1.442254-4.301522h2.866478v-1.442253l4.305127-2.884507v-2.884507l5.736564-2.884507v-1.442254l2.866478-1.442253v-2.866479l4.301522-1.442254v-1.442253l2.884507-1.442254v-2.884507l2.884507-1.442253v-1.442254h2.884507l1.442253-2.884507h1.442254v-2.884507c3.396507-4.507042 7.899944-2.296789 10.038084-10.038084h2.884507a86.174648 86.174648 0 0 1 5.736564-8.606648c4.243831-3.414535 6.720901-1.673014 8.606648-8.603042h2.884507a90.097577 90.097577 0 0 1 5.740169-8.606648h2.884507l2.884507-4.301521h1.442253v-2.884508l4.305127-1.442253 8.603042-10.04169h2.884507l1.442254-2.866479h2.884507l1.442253-2.884507h2.866479v-1.442254h2.884507v-1.442253h5.736564v-1.442254h4.301521v-1.442253h5.736563c3.432563-1.08169 14.494648-3.223437 20.079775-1.442254v1.442254h4.301521v1.442253l11.473127 1.442254v1.442253l5.736563 1.442254 1.442254 2.884507h2.866478q0.721127 1.442254 1.442254 2.866479h2.884507l4.301521 5.736563c4.009465 5.300282 12.208676 8.700394 13.953803 15.273465zM463.237408 195.064789l-199.348281 200.786929q-21.514817 20.790085-43.026028 41.590986l-7.171606 8.603042-10.038085 8.606648-2.884507 4.301521-4.301521 1.442254-1.442253 8.603042 87.487098 88.918535 180.70355 179.272113 57.369239 58.800676 10.038085 8.606648c7.716056 7.716056 14.061972 17.930817 24.381295 22.946254v1.442253h5.736564l199.348281-200.786929q21.514817-20.790085 43.026029-41.590986l7.171605-8.603043 10.038085-8.606647 2.884507-4.301522 4.301521-1.442253 1.442253-8.603042-179.272112-180.707155L468.973972 195.064789h-5.736564zM238.072789 909.265127c2.087662-12.590873-3.735437-24.51831-7.171606-35.854423v-10.038084h-1.442253l-1.442254-14.343212h-1.442253c-0.995155-2.697014-4.01307-17.858704-2.884508-21.511211h1.442254v-4.301521h1.442254l2.866478-8.606648h1.442254v-2.884507h1.442253l1.442254-2.884507h2.866479l4.305127-5.736563a160.349746 160.349746 0 0 1 30.114253 0l4.305127 5.736563h2.866479l1.442253 2.884507h1.442254l1.442253 5.736564h1.442254l2.884507 8.603042h1.442253l2.884507 22.946253c2.011944 6.403606 5.159662 14.992225 7.171606 21.514817v10.038085h1.442254l1.442253 14.343211h1.442254v4.337577h1.442253v4.301522h1.442254l1.442253 17.20969h1.442254v8.606648h1.442253l1.442254 10.038084h1.442253v4.301521h1.442254l1.442253 17.213296c3.118873 10.705127 6.104338 25.935324 0 35.854423l-2.884507 1.442253v2.884507l-10.038084 7.171606h-2.866479v1.442253H295.589859v1.442254h-2.866479v1.442253h-7.171605v1.442254h-25.816338v1.442253H222.298141v1.442254h-25.816338v1.442253l-28.682817 1.442254V1024H81.74693v-4.301521a32.090141 32.090141 0 0 1-15.774648-17.20969v-5.736564h-1.442254v-10.04169h1.442254v-4.301521a62.806535 62.806535 0 0 0 4.301521-10.038084l5.736563-4.305127v-1.442254h2.884507l1.442254-2.884507h4.301521v-1.442253l11.473127-1.442254v-1.442253h14.339605v-1.442254H130.523944v-1.442253h31.552901v-1.442254a3.868845 3.868845 0 0 1 4.301521 1.442254 14.563155 14.563155 0 0 0 11.473127-2.866479h1.442253v-5.736564l-8.606647-5.736563-1.442254-2.884507h-2.884507l-5.736563-7.171606h-1.442254l-1.442253-2.866479h-2.884507l-8.606648-10.038084c-4.045521-4.049127-9.782085-6.511775-11.473127-12.908169h-2.884507l-8.606648-11.473127-11.473127-10.04169v-2.884507l-7.171605-5.736563v-2.884507l-2.866479-1.442254-1.442254-4.305127h-1.442253v-2.884507l-4.301521-2.884507v-2.884507l-2.884507-1.442253v-2.884507l-5.736564-4.301522-1.442253-5.736563-5.736564-4.301521-1.442253-5.736563h-1.442254v-2.884507l-4.301521-2.884507v-2.884508h-1.442253v-2.866478h-1.442254v-2.884507h-1.442254v-2.866479h-1.442253v-2.884507l-4.301521-2.884507v-2.884507h-1.442254v-2.884507h-1.442253v-4.305127l-2.866479-1.442254-1.442254-4.305127h-1.442253v-2.866478h-1.442254v-2.884507h-1.442253v-4.301522h-1.442254v-2.884507l-2.884507-1.442253q-0.721127-2.884507-1.442253-5.736564h-1.442254l-1.442253-10.04169h-1.442254v-2.884507l-2.884507-1.442253-4.305127-15.774648h-1.442253v-2.884507h-1.442254l-1.442253-5.736564h-1.442254l-2.884507-17.20969h-1.442253v-4.301521h-1.442254q-0.721127-2.884507-1.442253-5.736563h-1.442254l-1.442253-12.908169h-1.442254v-5.325521h-1.442253v-4.301521h-1.442254v-4.305127h-1.442253v-5.736564h-1.442254l-1.442253-21.511211c-1.532394-5.249803-3.190986-12.911775-4.305127-18.644732H0v-74.575324h4.301521c3.382085-7.344676 9.619831-10.095775 14.343211-15.778254l21.511212-1.442253v1.442253h5.736563c2.206648 3.537127 1.644169 0.886986 4.305127 2.884507l5.736563 7.171606 2.866479 1.442253v2.884508h1.442254v4.301521h1.442253v4.301521h1.442254l1.442253 21.514817h1.442254v20.076169h1.442253v21.514817h1.442254v11.473126l7.171605 25.816338v8.603043h1.442254v5.736563h1.442253v5.736563h1.442254l1.442253 5.736564h1.442254v4.301521h1.442253l2.884508 17.213296h1.442253l2.884507 8.603042h1.442254l1.442253 10.038084h1.442254v2.884507l2.866479 1.442254 1.442253 5.736563h1.442254l1.442253 8.603043h1.442254v2.884507l2.884507 1.442253 1.442253 5.736564h1.442254v4.222197h1.442253v2.884507h1.442254v2.884507l4.301521 2.866479v2.884507h1.442253v2.884507h1.442254v2.884507h1.442253v2.884507l4.301522 2.884507v2.884507h1.442253v2.884507h1.442254v2.884507h1.442253v2.884507q2.16338 1.442254 4.301521 2.884507v2.884507h1.442254q0.721127 2.16338 1.442253 4.301521l2.866479 1.442254v2.884507l4.305127 2.866479v2.884507l7.168 5.736563v2.884507l4.305127 2.884507v2.884507l5.736563 4.305127v2.866479l24.381296 22.946253v2.884507l47.327549 40.155944z" /></svg>