<?xml version="1.0" standalone="no"?><!DOCTYPE svg PUBLIC "-//W3C//DTD SVG 1.1//EN" "http://www.w3.org/Graphics/SVG/1.1/DTD/svg11.dtd"><svg class="icon" width="200px" height="200.00px" viewBox="0 0 1024 1024" version="1.1" xmlns="http://www.w3.org/2000/svg"><path d="M1000.240427 615.914883c-11.548604-22.233462-23.033227-44.562896-35.637521-66.220527-14.651691-25.176597-15.195532-49.489447-0.479858-74.825997 12.604294-21.689622 24.056926-43.987065 35.701501-66.188536 22.169481-42.163601 11.580595-73.41841-32.342489-95.140023a2547.218958 2547.218958 0 0 0-71.083097-34.165953c-25.624465-11.708557-39.060514-30.870922-42.547489-57.902973a1381.57773 1381.57773 0 0 0-12.764246-80.040463c-7.677742-40.628053-35.541549-59.630465-77.577188-53.552253-27.607882 3.966834-55.311735 7.869686-82.695682 13.116143-27.032051 5.214467-49.201532-1.663511-68.107972-20.633932A3464.805131 3464.805131 0 0 0 556.882802 25.688446C521.245281-8.413526 491.174124-8.541488 455.8885 25.272568c-19.322318 18.522553-38.29274 37.428994-57.359133 56.175481-18.490563 18.170657-40.244166 24.632756-66.41247 19.674215-28.119731-5.310438-56.463396-9.597178-84.839052-13.532021-40.532081-5.630344-68.52385 14.01188-75.817705 53.296328a1336.24706 1336.24706 0 0 0-12.892209 80.040463c-3.454984 27.991769-17.498854 47.314087-43.987065 59.182596-24.664747 11.036755-48.977598 22.873274-73.002533 35.189652-40.052222 20.569951-50.449165 51.82476-30.391063 90.981246a3073.976059 3073.976059 0 0 0 39.444401 73.898269c11.580595 21.145782 11.676566 41.971658 0.159953 63.149431-13.020171 23.896973-25.816408 47.921908-38.452692 72.010824-21.881565 41.843695-11.932491 72.29874 30.870922 93.796418 24.792709 12.476331 49.809353 24.504794 74.953958 36.213351 24.024935 11.196707 36.501266 29.655279 40.116204 54.831876 4.158777 28.855515 8.477507 57.711029 13.883917 86.3746 6.622053 35.06169 36.277332 55.183773 72.170777 49.841344 29.047458-4.31873 58.190888-8.445516 87.014413-13.851927 27.00006-5.054514 49.233522 1.471567 68.171953 20.569951 18.33061 18.490563 37.109088 36.597238 55.887565 54.639933 35.829464 34.325906 65.2928 34.54984 100.802358 0.607821 19.354309-18.490563 38.484683-37.23705 57.487095-56.079509 18.490563-18.33061 40.212175-24.472803 66.34849-19.706205 31.766659 5.758307 63.789242 10.173008 89.57366 14.203823 42.451517-0.319906 64.461044-17.498854 70.795181-51.728789 5.150485-27.959778 9.72514-56.079509 13.596002-84.263221 3.614937-26.104324 16.635108-44.78683 41.52379-56.175481a2309.528854 2309.528854 0 0 0 73.002532-35.189652c43.15531-21.56166 53.360309-51.82476 31.670687-93.508502z m-242.264759-188.84047a291392.936265 291392.936265 0 0 1-262.002955 253.045589c-13.372068 12.924199-26.552192 12.732256-40.180184-0.479859-50.257221-48.849635-100.802358-97.443346-151.315504-146.101037-5.886269-5.694326-10.396943-11.932491-10.300971-24.536784 4.222758-16.539136 20.218055-28.279684 36.949134-37.940844 14.171833-8.189592 24.696738 2.335313 34.293916 11.612586 32.694386 31.670687 65.900621 62.893505 97.987186 95.172013 10.141018 10.173008 15.899325 9.789121 25.976361-0.095972 67.628113-66.252518 135.960019-131.833233 203.908038-197.765844 10.013056-9.69315 20.250045-21.753603 35.637521-14.907616 17.466864 7.741723 31.86263 20.633932 38.036814 39.156485 2.943135 8.797413-2.559247 16.603118-8.989356 22.841283z" /></svg>
