<?xml version="1.0" standalone="no"?><!DOCTYPE svg PUBLIC "-//W3C//DTD SVG 1.1//EN" "http://www.w3.org/Graphics/SVG/1.1/DTD/svg11.dtd"><svg class="icon" width="200px" height="200.00px" viewBox="0 0 1024 1024" version="1.1" xmlns="http://www.w3.org/2000/svg"><path d="M512 640a341.333333 341.333333 0 0 1 341.333333 341.333333v42.666667H170.666667v-42.666667a341.333333 341.333333 0 0 1 341.333333-341.333333z m0 76.8a264.576 264.576 0 0 0-261.802667 226.304l-0.512 4.096h524.586667l-0.469333-4.096a264.618667 264.618667 0 0 0-252.117334-226.133333L512 716.8zM832 0a85.333333 85.333333 0 0 1 85.333333 85.333333v426.666667a85.333333 85.333333 0 0 1-85.333333 85.333333h-640a85.333333 85.333333 0 0 1-85.333333-85.333333V85.333333a85.333333 85.333333 0 0 1 85.333333-85.333333h640z m0 76.8h-640a8.533333 8.533333 0 0 0-8.234667 6.272L183.466667 85.333333v426.666667a8.533333 8.533333 0 0 0 6.272 8.234667l2.261333 0.298666h640a8.533333 8.533333 0 0 0 8.234667-6.272L840.533333 512V85.333333a8.533333 8.533333 0 0 0-6.272-8.234666L832 76.8zM38.4 196.266667a38.4 38.4 0 0 1 38.101333 33.578666L76.8 234.666667v128a38.4 38.4 0 0 1-76.501333 4.821333L0 362.666667v-128a38.4 38.4 0 0 1 38.4-38.4z m947.2 0a38.4 38.4 0 0 1 38.101333 33.578666L1024 234.666667v128a38.4 38.4 0 0 1-76.501333 4.821333L947.2 362.666667v-128a38.4 38.4 0 0 1 38.4-38.4z m-634.325333 21.333333a38.4 38.4 0 0 1 38.101333 33.578667L389.674667 256v85.333333a38.4 38.4 0 0 1-76.501334 4.821334L312.874667 341.333333V256a38.4 38.4 0 0 1 38.4-38.4z m298.666666 0a38.4 38.4 0 0 1 38.101334 33.578667l0.298666 4.821333v85.333333a38.4 38.4 0 0 1-76.501333 4.821334L611.541333 341.333333V256a38.4 38.4 0 0 1 38.4-38.4z" /></svg>
