<?xml version="1.0" standalone="no"?><!DOCTYPE svg PUBLIC "-//W3C//DTD SVG 1.1//EN" "http://www.w3.org/Graphics/SVG/1.1/DTD/svg11.dtd"><svg class="icon" width="200px" height="200.00px" viewBox="0 0 1024 1024" version="1.1" xmlns="http://www.w3.org/2000/svg"><path d="M951.68 364.288L520.256 178.752a20.224 20.224 0 0 0-16.512 0L72.32 364.288a26.688 26.688 0 0 0-15.104 24.896c0 11.072 6.016 20.992 15.104 24.896l431.424 185.536a20.224 20.224 0 0 0 16.64-0.064l335.296-144.192v147.584c-17.984 9.536-30.464 30.208-30.464 54.336 0 24.064 12.48 44.8 30.464 54.336v51.456h44.16v-51.456c17.984-9.536 30.464-30.208 30.464-54.336 0-24.064-12.48-44.8-30.464-54.336V436.352l51.84-22.272a26.752 26.752 0 0 0 15.104-24.896 26.688 26.688 0 0 0-15.104-24.896zM512 636.864a48 48 0 0 1-19.648-4.16L223.808 517.184v159.744c0 130.816 196.16 170.112 257.472 170.112h61.44c45.952 0 257.472-39.296 257.472-170.112V517.184L531.264 632.832A47.104 47.104 0 0 1 512 636.864z" /></svg>
