<?xml version="1.0" encoding="utf-8"?>
<svg viewBox="0 0 1208 1024" xmlns="http://www.w3.org/2000/svg">
  <path d="M132.516 120.474h879.437c33.27 0 60.236 26.967 60.236 60.231v409.6c0 33.27-26.967 60.237-60.236 60.237H132.516c-33.265 0-60.232-26.967-60.232-60.237v-409.6c0-33.264 26.967-60.237 60.232-60.237z" fill="#F9B552"/>
  <path d="M469.837 0c73.185 0 132.516 59.33 132.516 132.516v84.326h469.836c73.186 0 132.516 59.336 132.516 132.521v542.121c0 73.185-59.33 132.516-132.516 132.516H132.516A132.516 132.516 0 0 1 0 891.484v-542.12c0-4.035 0.18-8.07 0.543-12.048A134.257 134.257 0 0 1 0 325.274V132.516C0 59.33 59.33 0 132.516 0h337.32z" fill="#FFCF5C"/>
  <path d="M 651.676 853.117 C 630.879 853.122 610.697 848.638 591.134 839.669 C 571.57 830.697 554.122 818.495 538.789 803.062 C 523.454 787.628 511.205 769.771 502.04 749.49 C 492.874 729.207 488.292 707.759 488.292 685.142 L 488.292 664.14 C 488.292 655.883 488.204 646.998 488.028 637.485 C 487.851 627.972 487.764 618.548 487.764 609.214 L 487.764 583.904 C 487.764 573.493 486.707 565.236 484.591 559.134 C 482.476 553.032 477.893 550.161 470.844 550.521 C 465.556 550.523 459.475 550.434 452.602 550.256 C 445.728 550.078 439.471 549.99 433.831 549.991 C 424.666 549.993 418.762 547.481 416.118 542.456 C 413.475 537.43 415.325 530.788 421.67 522.531 C 428.016 513.912 435.506 504.039 444.142 492.908 C 452.778 481.776 461.678 470.287 470.844 458.438 C 480.009 446.588 488.997 434.919 497.81 423.429 C 506.622 411.939 514.553 401.706 521.604 392.73 C 527.948 384.471 533.941 380.251 539.581 380.07 C 545.221 379.889 551.213 383.569 557.558 391.106 C 563.904 399.002 571.394 408.245 580.031 418.833 C 588.667 429.422 597.567 440.46 606.732 451.945 C 615.897 463.431 624.886 474.737 633.698 485.865 C 642.511 496.991 650.443 506.862 657.492 515.476 C 665.247 524.809 668.244 532.617 666.481 538.899 C 664.718 545.182 659.079 548.325 649.561 548.327 C 646.741 548.327 643.304 548.418 639.251 548.599 C 635.197 548.779 630.879 548.96 626.296 549.14 C 621.713 549.321 617.307 549.501 613.077 549.682 C 608.848 549.862 605.146 549.952 601.973 549.953 C 595.276 549.955 591.134 552.02 589.549 556.148 C 587.962 560.277 587.169 565.932 587.169 573.112 C 587.521 589.267 587.697 607.395 587.697 627.5 L 587.697 683.504 C 587.697 691.761 589.549 700.018 593.25 708.274 C 596.95 716.53 601.885 724.067 608.055 730.887 C 614.223 737.706 621.361 743.27 629.468 747.576 C 637.576 751.882 646.212 754.034 655.378 754.032 L 692.39 754.024 C 706.489 754.02 720.149 753.928 733.368 753.745 C 746.586 753.563 758.131 753.471 768.001 753.469 L 786.507 753.465 C 794.262 753.463 800.695 755.884 805.806 760.73 C 810.918 765.575 814.796 771.677 817.438 779.036 C 820.083 786.395 821.404 794.382 821.404 802.999 C 821.404 811.614 820.171 819.603 817.703 826.963 C 815.236 834.323 811.623 840.427 806.864 845.273 C 802.105 850.122 796.201 852.547 789.151 852.548 L 774.874 852.551 L 750.023 852.557 C 740.858 852.56 731.076 852.651 720.678 852.833 C 710.279 853.014 700.321 853.106 690.804 853.108 L 666.481 853.114 L 651.676 853.117 Z" fill="#ffffff" style="transform-origin: 618.178px 616.586px;"/>
</svg>