<?xml version="1.0" standalone="no"?><!DOCTYPE svg PUBLIC "-//W3C//DTD SVG 1.1//EN" "http://www.w3.org/Graphics/SVG/1.1/DTD/svg11.dtd"><svg class="icon" width="200px" height="200.00px" viewBox="0 0 1024 1024" version="1.1" xmlns="http://www.w3.org/2000/svg"><path d="M509 1020c-22.09 0-40-17.91-40-40V42c0-22.09 17.91-40 40-40s40 17.91 40 40v938c0 22.09-17.91 40-40 40zM970 915H665c-22.09 0-40-17.91-40-40s17.91-40 40-40h277V204H665c-22.09 0-40-17.91-40-40s17.91-40 40-40h305c28.67 0 52 22.7 52 50.6v689.8c0 27.9-23.33 50.6-52 50.6zM397 875c0 22.09-17.91 40-40 40H52c-28.67 0-52-22.7-52-50.6V174.6C0 146.7 23.33 124 52 124h305c22.09 0 40 17.91 40 40s-17.91 40-40 40H80v631h277c22.09 0 40 17.91 40 40z" /></svg>
