<?xml version="1.0" standalone="no"?><!DOCTYPE svg PUBLIC "-//W3C//DTD SVG 1.1//EN" "http://www.w3.org/Graphics/SVG/1.1/DTD/svg11.dtd"><svg class="icon" width="200px" height="200.00px" viewBox="0 0 1024 1024" version="1.1" xmlns="http://www.w3.org/2000/svg"><path d="M512 672A160 160 0 1 1 672 512 160 160 0 0 1 512 672z m0-256A96 96 0 1 0 608 512 96 96 0 0 0 512 416z" /><path d="M512 992a470.4 470.4 0 0 1-99.2-10.24 33.28 33.28 0 0 1-22.4-17.92l-64-140.8-147.84 16a35.2 35.2 0 0 1-27.52-10.88 482.56 482.56 0 0 1-99.2-179.84 33.92 33.92 0 0 1 5.12-28.16L139.52 512 56.96 403.84a33.92 33.92 0 0 1-5.12-28.16 482.56 482.56 0 0 1 99.2-179.84 34.56 34.56 0 0 1 27.52-10.88l147.84 16 64-140.8a33.28 33.28 0 0 1 22.4-17.92 493.44 493.44 0 0 1 198.4 0 33.28 33.28 0 0 1 22.4 17.92l64 140.8 147.84-16a34.56 34.56 0 0 1 27.52 10.88 482.56 482.56 0 0 1 99.2 179.84 33.92 33.92 0 0 1-5.12 28.16L884.48 512l82.56 108.16a33.92 33.92 0 0 1 5.12 28.16 482.56 482.56 0 0 1-99.2 179.84 34.56 34.56 0 0 1-27.52 10.88l-147.84-16-64 140.8a33.28 33.28 0 0 1-22.4 17.92A470.4 470.4 0 0 1 512 992z m-70.4-69.76a433.28 433.28 0 0 0 140.8 0l64-146.56a32.64 32.64 0 0 1 32.64-18.56l153.6 16a398.08 398.08 0 0 0 70.4-128L819.2 531.2a30.72 30.72 0 0 1 0-38.4l86.4-113.92a398.08 398.08 0 0 0-70.4-128l-153.6 16a33.28 33.28 0 0 1-32.64-18.56l-64-146.56a433.28 433.28 0 0 0-140.8 0l-64 146.56a33.28 33.28 0 0 1-32.64 18.56L192 250.88a398.08 398.08 0 0 0-70.4 128L204.8 492.8a30.72 30.72 0 0 1 0 38.4l-86.4 113.92a398.08 398.08 0 0 0 70.4 128l153.6-16a33.28 33.28 0 0 1 32.64 18.56z" /></svg>
