<?xml version="1.0" standalone="no"?><!DOCTYPE svg PUBLIC "-//W3C//DTD SVG 1.1//EN" "http://www.w3.org/Graphics/SVG/1.1/DTD/svg11.dtd"><svg class="icon" width="200px" height="150.04px" viewBox="0 0 1365 1024" version="1.1" xmlns="http://www.w3.org/2000/svg"><path d="M1280 8.533333c9.386667 0 17.066667 7.68 17.066667 17.066667v972.8a17.066667 17.066667 0 0 1-17.066667 17.066667h-85.333333l-273.152-0.085334 0.085333 0.085334H819.2l-0.085333-0.085334h-273.066667l0.085333 0.085334H443.733333l-0.085333-0.085334L170.666667 1015.466667H85.333333a17.066667 17.066667 0 0 1-17.066666-17.066667V25.6C68.266667 16.213333 75.946667 8.533333 85.333333 8.533333h1194.666667z m-358.485333 654.421334v251.733333L1194.666667 914.773333V663.04l-273.152-0.085333z m-102.4 0h-273.066667v251.733333h273.066667v-251.733333z m-375.466667 0L170.666667 663.04v251.733333l272.981333-0.085333v-251.733333z m0-352.426667L170.666667 310.613333v251.733334l272.981333-0.085334v-251.733333zM1194.666667 310.613333h-273.152v251.648L1194.666667 562.346667V310.613333z m-375.552-0.085333h-273.066667v251.733333h273.066667v-251.733333z" /></svg>
