<?xml version="1.0" standalone="no"?><!DOCTYPE svg PUBLIC "-//W3C//DTD SVG 1.1//EN" "http://www.w3.org/Graphics/SVG/1.1/DTD/svg11.dtd"><svg class="icon" width="200px" height="200.00px" viewBox="0 0 1024 1024" version="1.1" xmlns="http://www.w3.org/2000/svg"><path d="M411.904 521.6256a66.8672 66.8672 0 1 0 64.4608 66.8416 66.8672 66.8672 0 0 0-64.4608-66.8928z m20.2496 87.04a28.6464 28.6464 0 1 1-0.2048-40.32 28.6208 28.6208 0 0 1 0.2048 40.32z" /><path d="M526.4384 454.6816h152.7296a19.0976 19.0976 0 0 0 0-38.1696h-152.7296a19.0976 19.0976 0 0 0 0 38.1696z" /><path d="M455.68 384l-62.848 62.848-24.7296-24.6272a19.072 19.072 0 0 0-26.9568 26.9568l38.1696 38.1696a19.072 19.072 0 0 0 26.9568 0l76.3648-76.3392A19.072 19.072 0 1 0 455.68 384z"  /><path d="M679.168 569.2928h-152.7296a19.072 19.072 0 0 0 0 38.144h152.7296a19.072 19.072 0 1 0 0-38.144z" /><path d="M512 0a512 512 0 1 0 512 512A512 512 0 0 0 512 0z m267.2384 702.848a76.3904 76.3904 0 0 1-76.3648 76.3648H321.1264a76.3392 76.3392 0 0 1-76.3392-76.3648V321.1008a76.3392 76.3392 0 0 1 76.416-76.3392h381.6704a76.3904 76.3904 0 0 1 76.3648 76.3904z" /></svg>
