<?xml version="1.0" standalone="no"?><!DOCTYPE svg PUBLIC "-//W3C//DTD SVG 1.1//EN" "http://www.w3.org/Graphics/SVG/1.1/DTD/svg11.dtd"><svg class="icon" width="200px" height="200.00px" viewBox="0 0 1024 1024" version="1.1" xmlns="http://www.w3.org/2000/svg"><path d="M789.312 626.24a27.328 27.328 0 0 1 23.68 13.696l60.992 105.664a27.264 27.264 0 0 1 0 27.328l-61.056 105.664a27.328 27.328 0 0 1-23.68 13.696h-121.984a27.328 27.328 0 0 1-23.68-13.696l-60.992-105.664a27.328 27.328 0 0 1 0-27.328L643.584 640a27.328 27.328 0 0 1 23.68-13.696h122.048zM499.2 511.04c72.064 0 138.944 22.464 193.984 60.736H635.52a27.328 27.328 0 0 0-23.68 13.696l-91.904 160.32a27.328 27.328 0 0 0 0 27.136l44.928 78.592H186.88a27.328 27.328 0 0 1-26.624-31.04A340.48 340.48 0 0 1 499.2 511.04z m228.992 197.12a51.2 51.2 0 1 0 0 102.4 51.2 51.2 0 0 0 0-102.4zM499.648 128a191.552 191.552 0 1 1 0 383.104 191.552 191.552 0 0 1 0-383.104z" fill="#333333" /></svg>