<svg xmlns="http://www.w3.org/2000/svg" width="100%" height="auto" viewBox="0 0 833 833" version="1.1">
	<path d="M 255.527 88.524 C 204.384 96.836, 161.984 123.790, 133.836 165.884 C 106.066 207.413, 97.171 258.212, 109.127 307 C 114.391 328.479, 121.580 344.787, 133.919 363.240 C 160.344 402.758, 199.778 429.105, 247.610 439.201 C 257.161 441.217, 261.329 441.500, 281.500 441.500 C 301.423 441.500, 305.990 441.198, 315.636 439.242 C 350.527 432.166, 379.675 416.833, 405.301 392.075 C 440.504 358.065, 459.347 313.585, 459.347 264.500 C 459.347 225.868, 447.555 189.732, 424.850 158.794 C 415.679 146.297, 395.456 126.802, 382.667 118.132 C 362.825 104.678, 340.106 95.011, 316.500 89.977 C 303.198 87.141, 269.048 86.327, 255.527 88.524 M 567.500 131.925 C 554.025 133.997, 548.467 135.269, 538.566 138.547 C 526.706 142.474, 518.818 145.964, 518.333 147.500 C 518.159 148.050, 520.516 151.200, 523.569 154.500 C 526.623 157.800, 529.866 161.738, 530.776 163.250 C 531.686 164.762, 532.784 166, 533.216 166 C 533.647 166, 534 166.620, 534 167.378 C 534 168.135, 534.657 169.301, 535.460 169.967 C 538.089 172.148, 549.216 192.290, 553.986 203.500 C 571.244 244.059, 571.244 298.941, 553.986 339.500 C 549.216 350.710, 538.089 370.852, 535.460 373.033 C 534.657 373.699, 534 374.635, 534 375.111 C 534 376.058, 531.760 379.022, 528.250 382.720 C 527.013 384.024, 526 385.356, 526 385.681 C 526 386.005, 524.987 387.256, 523.750 388.460 C 522.513 389.664, 518.733 393.653, 515.351 397.324 C 511.969 400.996, 508.744 404, 508.184 404 C 507.625 404, 507.017 404.412, 506.833 404.916 C 506.650 405.420, 503.650 408.104, 500.166 410.881 L 493.832 415.931 501.542 420.964 C 517.878 431.628, 534.847 438.634, 555.500 443.241 C 564.169 445.175, 568.429 445.474, 587.500 445.486 C 604.944 445.497, 611.260 445.126, 618 443.695 C 649.652 436.972, 679.036 421.007, 700.585 398.823 C 713.603 385.423, 721.104 374.892, 729.306 358.500 C 737.582 341.963, 741.460 328.905, 744.601 307 C 746.367 294.688, 746.123 276.887, 744.034 265.500 C 741.667 252.600, 739.827 244.351, 738.568 241 C 733.733 228.132, 732.277 224.643, 728.759 217.500 C 721.650 203.063, 713.640 191.897, 700.676 178.350 C 693.283 170.625, 678.088 158.253, 671.500 154.594 C 648.951 142.072, 638.218 137.962, 615 132.959 C 608.496 131.558, 574.676 130.821, 567.500 131.925 M 399.684 453.477 C 397.585 454.210, 394.968 455.624, 393.868 456.619 C 389.969 460.148, 385.346 471.550, 341.039 586.914 C 324.917 628.892, 310.668 664.485, 304.622 677.883 C 295.641 697.787, 291.970 701.328, 280.890 700.778 C 269.619 700.219, 266.512 696.609, 255.092 670.803 C 246.761 651.978, 231.598 614.186, 208.190 553.902 C 172.691 462.482, 171.266 459.186, 165.626 455.491 C 161.556 452.824, 155.011 452.658, 143.182 454.921 C 84.297 466.187, 38.704 507.154, 23.457 562.500 C 20.183 574.385, 7.661 661.845, 7.636 673 C 7.566 705.130, 31.520 733.408, 67.092 743.188 L 75.500 745.500 281.500 745.500 L 487.500 745.500 496 743.238 C 523.666 735.877, 544.095 717.839, 552.786 693.096 C 557.258 680.365, 556.700 668.469, 549.172 616 C 542.818 571.715, 540.395 559.829, 534.942 546.178 C 516.381 499.721, 473.951 465.521, 422 455.143 C 407.663 452.279, 403.916 451.999, 399.684 453.477 M 548.125 452.436 C 548.331 452.629, 552.775 455.617, 558 459.075 C 570.711 467.489, 587.497 484.366, 596.245 497.528 C 608.688 516.249, 616.970 536.561, 621.512 559.500 C 631.294 608.897, 632.547 617.381, 634.183 645.245 C 635.367 665.412, 635.339 666.237, 633.199 674.856 C 629.226 690.852, 619.625 705.453, 606.500 715.459 C 604.704 716.828, 612.910 716.949, 687 716.649 C 756.893 716.365, 770.417 716.081, 775.500 714.788 C 786.568 711.972, 790.484 710.648, 793.154 708.819 C 794.614 707.818, 796.350 707, 797.013 707 C 798.361 707, 810.208 697.861, 813.865 694 C 818.529 689.076, 824.681 680.421, 826.661 676 C 831.934 664.220, 833.273 650.154, 830.500 635.662 C 829.675 631.351, 829 625.807, 829 623.342 C 829 620.876, 828.359 615.178, 827.575 610.680 C 824.435 592.663, 822.827 582.079, 821.927 573.500 C 820.743 562.215, 819.484 556.364, 816.331 547.500 C 814.962 543.650, 813.752 540.050, 813.643 539.500 C 813.533 538.950, 813.181 538.050, 812.860 537.500 C 812.539 536.950, 811.981 535.263, 811.619 533.750 C 811.258 532.237, 810.520 531, 809.981 531 C 809.441 531, 809 530.282, 809 529.404 C 809 528.527, 808.149 526.614, 807.110 525.154 C 806.070 523.694, 805.105 522.050, 804.965 521.500 C 804.428 519.398, 799.929 513, 798.987 513 C 798.444 513, 798 512.484, 798 511.853 C 798 511.222, 796.351 508.635, 794.337 506.103 C 781.255 489.667, 757.968 472.376, 740 465.759 C 736.975 464.645, 734.050 463.402, 733.500 462.996 C 732.950 462.590, 730.025 461.707, 727 461.035 C 723.975 460.363, 718.125 458.972, 714 457.946 C 707.294 456.277, 700.573 455.481, 676.500 453.507 C 668.840 452.878, 547.518 451.866, 548.125 452.436 M 251.500 458.866 C 242.399 463.121, 240 468.599, 240 485.127 C 240 495.821, 240.498 499.480, 244.056 514.910 C 255.004 562.385, 266.995 607.511, 273.496 625.700 C 277.246 636.192, 279.357 640, 281.424 640 C 286.552 640, 297.735 603.624, 314.606 532.069 L 323.196 495.638 322.847 483.569 C 322.438 469.416, 320.874 465.304, 314.077 460.500 L 309.833 457.500 282.666 457.248 C 257.904 457.018, 255.146 457.161, 251.500 458.866" stroke="none" />
</svg>
