<?xml version="1.0" standalone="no"?><!DOCTYPE svg PUBLIC "-//W3C//DTD SVG 1.1//EN" "http://www.w3.org/Graphics/SVG/1.1/DTD/svg11.dtd"><svg class="icon" width="200px" height="200.00px" viewBox="0 0 1024 1024" version="1.1" xmlns="http://www.w3.org/2000/svg"><path d="M643.62496 0l289.36192 289.36192v680.8576c0 12.75904-5.12 25.51808-15.31904 35.7376-9.35936 10.21952-22.97856 15.31904-35.7376 15.31904H132.95616c-12.75904 0-25.51808-5.12-35.7376-15.31904C87.01952 996.59776 81.92 982.97856 81.92 970.21952V51.07712c0-12.77952 5.9392-25.53856 15.31904-35.75808C106.5984 5.09952 120.2176 0 132.97664 0h510.64832zM727.04 716.8h-430.08a30.72 30.72 0 0 0 0 61.44h430.08a30.72 30.72 0 0 0 0-61.44z m-204.8-225.28h-225.28a30.72 30.72 0 0 0 0 61.44h225.28a30.72 30.72 0 0 0 0-61.44z" fill="#D8D8D8" /><path d="M932.98688 289.36192H694.6816c-12.75904 0-26.37824-5.12-35.7376-15.31904-10.21952-9.35936-15.31904-22.97856-15.31904-35.7376V0l289.36192 289.36192z" fill="#FFFFFF" /></svg>