<svg xmlns="http://www.w3.org/2000/svg" width="100%" height="auto" viewBox="0 0 833 833" version="1.1">
	<path d="M 403.500 87.607 C 393.219 89.071, 381.421 91.496, 374.500 93.568 C 364.155 96.666, 354.766 99.974, 353.500 100.969 C 352.950 101.402, 351.514 102.057, 350.309 102.426 C 345.448 103.915, 326.956 114.693, 318.500 120.966 C 306.126 130.145, 301.195 134.673, 289.057 148 C 276.614 161.663, 262.136 186.058, 255.823 204 C 242.348 242.295, 242.348 286.705, 255.823 325 C 258.304 332.050, 264.129 344.444, 268.145 351.215 C 269.869 354.122, 272.160 358.054, 273.237 359.954 C 275.599 364.121, 284.647 376.157, 289.057 381 C 301.216 394.351, 306.155 398.883, 318.500 408.018 C 326.167 413.691, 333.445 418.072, 346 424.569 C 357.639 430.593, 370.125 434.729, 390 439.144 C 399.317 441.214, 403.091 441.478, 423.500 441.484 C 442.004 441.490, 448.162 441.135, 455 439.668 C 466.295 437.246, 482.252 432.968, 483.500 432.029 C 484.050 431.615, 485.850 430.957, 487.500 430.567 C 491.505 429.621, 512.531 419.062, 519.743 414.375 C 538.783 402.001, 558.244 383.152, 569.689 366 C 578.893 352.205, 580 350.437, 580 349.525 C 580 349.048, 580.592 347.947, 581.316 347.079 C 582.914 345.162, 590.035 328.770, 592.863 320.500 C 597.733 306.257, 601.987 280.148, 601.987 264.500 C 601.987 254.244, 599.217 232.567, 596.429 221 C 593.486 208.791, 585.033 186.690, 581.513 182 C 580.893 181.175, 579.846 179.375, 579.185 178 C 574.038 167.290, 561.580 150.926, 548.378 137.535 C 542.486 131.559, 530.934 122.253, 521.500 115.882 C 513.018 110.155, 492.529 99.645, 487.500 98.442 C 485.850 98.047, 484.050 97.391, 483.500 96.983 C 481.978 95.854, 465.560 91.377, 456 89.483 C 447.814 87.861, 410.963 86.544, 403.500 87.607 M 353 450.093 C 340.075 450.503, 324.325 451.323, 318 451.915 C 311.675 452.508, 302.816 452.995, 298.314 452.997 C 293.051 452.999, 286.622 453.861, 280.314 455.412 C 260.545 460.270, 259.242 460.692, 247.500 466.047 C 245.300 467.050, 242.825 468.116, 242 468.415 C 241.175 468.713, 238.700 470.081, 236.500 471.455 C 234.300 472.829, 230.925 474.820, 229 475.881 C 219.106 481.334, 201.979 495.991, 194.337 505.546 C 186.060 515.895, 181.990 521.455, 181.453 523.149 C 181.130 524.167, 180.446 525, 179.933 525 C 179.420 525, 179 525.873, 179 526.941 C 179 528.009, 178.551 529.159, 178.003 529.498 C 177.074 530.073, 174.094 536.043, 170.016 545.500 C 166.320 554.072, 159.977 578.331, 160.024 583.714 C 160.038 585.246, 159.151 592.350, 158.054 599.500 C 156.957 606.650, 155.110 619.250, 153.948 627.500 C 152.787 635.750, 151.199 646.795, 150.419 652.044 C 147.496 671.703, 148.811 688.512, 154.117 699.345 C 155.153 701.459, 156 703.752, 156 704.440 C 156 705.127, 156.900 706.505, 158 707.500 C 159.100 708.495, 160 709.923, 160 710.673 C 160 712.520, 177.748 730.265, 181.500 732.170 C 183.150 733.008, 186.975 735.043, 190 736.692 C 198.119 741.119, 206.225 743.659, 218 745.466 C 227.451 746.916, 248.490 747.043, 428.500 746.735 C 584.370 746.469, 629.603 746.117, 633.500 745.142 C 643.194 742.715, 652.530 739.542, 655.154 737.781 C 656.614 736.801, 658.282 736, 658.860 736 C 660.080 736, 664.992 732.759, 671.091 727.928 C 688.705 713.978, 699 693.708, 699 672.981 C 699 668.542, 698.318 660.317, 697.484 654.705 C 696.651 649.092, 695.050 637.975, 693.928 630 C 692.806 622.025, 691.008 609.875, 689.933 603 C 688.859 596.125, 687.984 589.094, 687.990 587.376 C 688.013 580.247, 681.738 555.129, 677.457 545.216 C 671.773 532.055, 670.354 529.318, 665.474 522.100 C 663.838 519.681, 662.050 516.983, 661.500 516.105 C 653.208 502.869, 632.052 483.634, 615 473.826 C 599.261 464.774, 587.740 460.335, 566.500 455.140 C 558.615 453.211, 556.256 452.940, 530.500 450.994 C 514.122 449.757, 384.384 449.098, 353 450.093" stroke="none" />
</svg>
