<?xml version="1.0" standalone="no"?><!DOCTYPE svg PUBLIC "-//W3C//DTD SVG 1.1//EN" "http://www.w3.org/Graphics/SVG/1.1/DTD/svg11.dtd"><svg class="icon" width="200px" height="200.00px" viewBox="0 0 1024 1024" version="1.1" xmlns="http://www.w3.org/2000/svg"><path d="M512 56.684576c61.4916 0 121.114327 12.030872 177.211445 35.757661 54.211926 22.92977 102.910848 55.767317 144.744924 97.601393C875.790446 231.877707 908.627992 280.576629 931.557762 334.788555c23.726789 56.097118 35.757661 115.719845 35.757661 177.211445s-12.030872 121.114327-35.757661 177.211445c-22.92977 54.211926-55.767317 102.910848-97.601393 144.744924-41.833217 41.833217-90.532998 74.671623-144.744924 97.601393-56.097118 23.726789-115.719845 35.757661-177.211445 35.757661S390.885673 955.284552 334.788555 931.557762c-54.211926-22.92977-102.910848-55.767317-144.744924-97.601393s-74.671623-90.532998-97.601393-144.744924c-23.726789-56.097118-35.757661-115.719845-35.757661-177.211445s12.030872-121.114327 35.757661-177.211445c22.92977-54.211926 55.767317-102.910848 97.601393-144.744924 41.833217-41.833217 90.532998-74.671623 144.744924-97.601393C390.885673 68.715448 450.5084 56.684576 512 56.684576M512 0c-282.769291 0-512 229.22985-512 512s229.22985 512 512 512S1024 794.769291 1024 512 794.77015 0 512 0L512 0zM262.782825 825.901148l498.435209 0C761.218034 824.932357 262.782825 825.901148 262.782825 825.901148L262.782825 825.901148zM820.273915 781.070519c-15.778066-108.615378-87.995075-199.021265-186.086017-240.731666C692.043097 501.272873 730.065565 435.249084 730.065565 360.377347c0-119.982353-97.628876-217.245356-218.065565-217.245356S293.935294 240.394994 293.935294 360.377347c0 74.871737 38.024186 140.896385 95.877667 179.95807C291.72116 582.044959 219.50501 672.454282 203.726944 781.070519c-2.075858 4.155151-3.247339 8.837641-3.247339 13.794106 0 17.140213 13.946123 31.036523 31.152469 31.036523 17.204628 0 31.150751-13.89631 31.150751-31.036523l0 31.036523c0-137.122567 111.580153-248.279303 249.217175-248.279303S761.218034 688.778581 761.218034 825.901148l0-31.036523c0 17.140213 13.946123 31.036523 31.152469 31.036523 17.204628 0 31.150751-13.89631 31.150751-31.036523C823.521254 789.908159 822.349773 785.22567 820.273915 781.070519L820.273915 781.070519zM512 515.551375c-86.021421 0-155.758051-69.477255-155.758051-155.174028 0-85.701067 69.736629-155.178322 155.758051-155.178322C598.026574 205.199025 667.758909 274.67628 667.758909 360.377347S598.026574 515.551375 512 515.551375L512 515.551375zM512 515.551375" /></svg>
