<?xml version="1.0" standalone="no"?><!DOCTYPE svg PUBLIC "-//W3C//DTD SVG 1.1//EN" "http://www.w3.org/Graphics/SVG/1.1/DTD/svg11.dtd"><svg class="icon" width="200px" height="199.80px" viewBox="0 0 1025 1024" version="1.1" xmlns="http://www.w3.org/2000/svg"><path d="M570.446263 21.357714a82.139429 82.139429 0 0 0-110.445714 0L13.609691 445.001143a41.106286 41.106286 0 0 0 55.076572 61.147428l7.168-6.729142v442.075428A82.358857 82.358857 0 0 0 158.139977 1024h239.908572v-247.881143c-0.073143-32.036571 25.819429-58.002286 57.856-58.002286h112.713142c32.109714 0 58.002286 25.965714 58.002286 57.929143V1024h245.540572c45.494857 0 82.358857-36.937143 82.358857-82.432V504.685714c18.285714 16.603429 44.251429 15.36 59.465143-1.609143a41.179429 41.179429 0 0 0-2.925715-58.148571L570.446263 21.357714z" /></svg>
