<?xml version="1.0" standalone="no"?><!DOCTYPE svg PUBLIC "-//W3C//DTD SVG 1.1//EN" "http://www.w3.org/Graphics/SVG/1.1/DTD/svg11.dtd"><svg class="icon" width="200px" height="200.00px" viewBox="0 0 1024 1024" version="1.1" xmlns="http://www.w3.org/2000/svg"><path d="M64 165.632 64 416C64 433.664 78.336 448 96 448S128 433.664 128 416L128 235.328l203.456 203.52c11.968 11.968 31.36 11.968 43.392 0 11.968-12.032 11.968-31.424 0-43.392L171.328 192 352 192C369.664 192 384 177.664 384 160S369.664 128 352 128L101.632 128C78.272 128 64 140.032 64 165.632z"  /><path d="M860.352 128 609.984 128c-17.664 0-32 14.336-32 32S592.32 192 609.984 192l180.672 0-203.52 203.456c-11.968 11.968-11.968 31.36 0 43.392 12.032 11.968 31.424 11.968 43.392 0l203.456-203.52L833.984 416c0 17.664 14.336 32 32 32s32-14.336 32-32L897.984 165.632C897.984 140.032 883.776 128 860.352 128z"  /><path d="M101.632 960 352 960C369.664 960 384 945.664 384 928S369.664 896 352 896L171.328 896l203.52-203.456c11.968-11.968 11.968-31.36 0-43.392-12.032-11.968-31.424-11.968-43.392 0L128 852.672 128 672C128 654.336 113.664 640 96 640S64 654.336 64 672l0 250.368C64 947.968 78.272 960 101.632 960z"  /><path d="M897.984 922.368 897.984 672c0-17.664-14.336-32-32-32s-32 14.336-32 32l0 180.672-203.456-203.52c-11.968-11.968-31.36-11.968-43.392 0-11.968 12.032-11.968 31.424 0 43.392L790.656 896 609.984 896c-17.664 0-32 14.336-32 32s14.336 32 32 32l250.368 0C883.776 960 897.984 947.968 897.984 922.368z"  /></svg>