<?xml version="1.0" standalone="no"?><!DOCTYPE svg PUBLIC "-//W3C//DTD SVG 1.1//EN" "http://www.w3.org/Graphics/SVG/1.1/DTD/svg11.dtd"><svg class="icon" width="200px" height="200.00px" viewBox="0 0 1024 1024" version="1.1" xmlns="http://www.w3.org/2000/svg"><path d="M500.382 0.006c-177.646 19.719-276.341 96.721-296.085 230.93-3.949 43.437 17.757 67.13 65.143 71.066 23.667 3.961 43.411-13.808 59.207-53.296 23.692-82.9 80.862-124.35 171.735-124.35 110.479 7.885 169.698 63.156 177.671 165.8 0 94.759-64.313 110.202-99.248 138.774-44.267 36.218-73.217 72.952-108.655 135.216-29.779 52.314-34.91 164.227-34.91 164.227 0 47.373 21.655 71.066 65.143 71.066 39.413 0 61.194-23.693 65.155-71.066 0 0 5.219-125.594 55.925-181.129 57.472-62.942 194.749-107.071 198.698-268.922C804.365 108.561 697.772 15.789 500.382 0.006zM500.382 859.162c-45.524 0-82.409 36.91-82.409 82.41 0 45.523 36.885 82.422 82.409 82.422s82.422-36.898 82.422-82.422c0-45.5-36.898-82.41-82.422-82.41z" /></svg>
